<svg id="Grupo_1015979" data-name="Grupo 1015979" xmlns="http://www.w3.org/2000/svg" xmlns:xlink="http://www.w3.org/1999/xlink" width="146" height="146" viewBox="0 0 146 146">
  <defs>
    <clipPath id="clip-path">
      <rect id="Rectángulo_348113" data-name="Rectángulo 348113" width="146" height="146" fill="none"/>
    </clipPath>
  </defs>
  <g id="Grupo_1015978" data-name="Grupo 1015978" clip-path="url(#clip-path)">
    <path id="Trazado_610316" data-name="Trazado 610316" d="M146,73A73,73,0,1,1,73,0a73,73,0,0,1,73,73" fill="#304c8e"/>
    <path id="Trazado_610317" data-name="Trazado 610317" d="M74.775,104.259l1.679-.618a75.816,75.816,0,0,1,13.571-3.634,58.079,58.079,0,0,1,17.152-.384,56.8,56.8,0,0,1,16.1,4.475,2.243,2.243,0,0,0,.247.1c.029.009.067-.008.175-.024v-.6q0-28.092,0-56.185a3.507,3.507,0,0,1,.084-.838.967.967,0,0,1,1.022-.752.99.99,0,0,1,1,.78,3.575,3.575,0,0,1,.079.787q.011,33.814,0,67.628a2.53,2.53,0,0,1-.134.933.889.889,0,0,1-1.143.509c-1.542-.371-3.078-.775-4.623-1.133a78.61,78.61,0,0,0-12.212-1.973c-3.238-.229-6.484-.5-9.728-.508a80.6,80.6,0,0,0-22.475,3.1,6.293,6.293,0,0,1-3.752-.011A69.948,69.948,0,0,0,61,113.643a88.176,88.176,0,0,0-18.6-.587,99.463,99.463,0,0,0-18.738,3.255,3.163,3.163,0,0,1-.73.107.9.9,0,0,1-1.026-.844,8.342,8.342,0,0,1-.075-1.214q0-32.463,0-64.924c0-.831.026-1.663-.017-2.491a1.6,1.6,0,0,1,1.007-1.675,52.25,52.25,0,0,1,9.233-3.5c.509-.144.682-.331.679-.883-.026-5.565-.016-11.13-.016-16.695,0-1.336.418-1.725,1.728-1.593a66.5,66.5,0,0,1,17.417,4.039A44.433,44.433,0,0,1,72.722,42.974c.374.535.767,1.06,1.106,1.617a.553.553,0,0,0,.846.262,52.045,52.045,0,0,1,10.812-3.44,1.1,1.1,0,0,1,1.437.791c.159.579-.152,1.074-.879,1.274-1.494.411-3.021.72-4.494,1.2-2.061.667-4.079,1.463-6.126,2.171a.892.892,0,0,0-.679,1.007c.024,3.886.026,7.773.026,11.659q0,20.988,0,41.974v2.773m-2.219-2.236c.012-.243.02-.331.02-.419q0-27.3-.007-54.591a1.429,1.429,0,0,0-.2-.689A40.666,40.666,0,0,0,61.883,34.788a47.911,47.911,0,0,0-13.277-7.027,60.427,60.427,0,0,0-13.1-2.86c-.443-.053-.57.062-.568.523q.039,6.652.035,13.3,0,21.439-.023,42.878c0,.33.046.5.44.547,2.154.258,4.319.468,6.451.851a51.6,51.6,0,0,1,15.02,5.09,42.743,42.743,0,0,1,14.15,11.834c.5.651.975,1.323,1.543,2.1M32.719,43.876c-.139.027-.207.035-.273.053a63.576,63.576,0,0,0-8.069,3c-.369.153-.371.405-.371.717q.01,27.848.016,55.7v.886c.2-.07.332-.109.458-.158,1.526-.6,3.024-1.28,4.582-1.779a59.8,59.8,0,0,1,15.153-3.05,57.412,57.412,0,0,1,10.521.339,76.339,76.339,0,0,1,14.993,3.6c.353.123.717.214,1.077.32a2.508,2.508,0,0,0-.408-.66A44.593,44.593,0,0,0,51.677,88.31,56.935,56.935,0,0,0,34.33,84.278c-1.271-.112-1.61-.439-1.61-1.71q0-18.972,0-37.944v-.748M74.776,113.9a83.708,83.708,0,0,1,24.467-3.225,87.67,87.67,0,0,1,24.464,3.314c0-.813.015-1.534-.015-2.254,0-.122-.181-.287-.314-.346q-.995-.435-2.007-.821a55.47,55.47,0,0,0-16.833-3.423,76.7,76.7,0,0,0-12.955.419,68.628,68.628,0,0,0-9.973,1.888c-2.125.574-4.227,1.236-6.331,1.887a.772.772,0,0,0-.48.5c-.058.644-.023,1.3-.023,2.066m-50.765.121c16.229-4.235,32.373-4.993,48.566-.085,0-.785-.02-1.438.009-2.089.014-.32-.131-.433-.4-.516-.739-.23-1.478-.47-2.213-.715a72.4,72.4,0,0,0-17.835-3.409,64.847,64.847,0,0,0-17.248.922,54.049,54.049,0,0,0-10.489,3.239c-.162.068-.368.271-.376.421-.04.7-.018,1.4-.018,2.232m50.776-4.831c.215-.056.365-.087.512-.133.94-.3,1.875-.612,2.821-.891a82.258,82.258,0,0,1,18.129-3.3,64.186,64.186,0,0,1,12.317.379,60.672,60.672,0,0,1,11.9,2.679c1.061.363,2.1.788,3.225,1.212,0-.57-.041-1.1.011-1.613.066-.67-.179-.982-.818-1.278a52.028,52.028,0,0,0-19.155-4.678,62.833,62.833,0,0,0-21.052,2.341c-2.451.706-4.841,1.628-7.249,2.477-.245.086-.59.333-.61.533-.073.73-.029,1.472-.029,2.271m-50.752-.127c.162-.033.213-.038.26-.054.167-.058.334-.116.5-.18a61.249,61.249,0,0,1,21.72-4.092,73.215,73.215,0,0,1,19.064,2.4c2.336.591,4.643,1.3,7,1.96,0-.653-.02-1.337.008-2.019a.546.546,0,0,0-.419-.61,62.506,62.506,0,0,0-14.5-4.174,63.059,63.059,0,0,0-10.382-.886,56.6,56.6,0,0,0-13.37,1.627,53.939,53.939,0,0,0-9.427,3.424c-.182.084-.423.287-.434.448-.048.7-.021,1.4-.021,2.159" fill="#fff"/>
    <path id="Trazado_610318" data-name="Trazado 610318" d="M110.279,51.2c2.492,2.889,4.952,5.733,7.4,8.585.586.681,1.174,1.364,1.707,2.086a3.546,3.546,0,0,1-5.6,4.349q-2.783-3.232-5.563-6.465c-1.094-1.269-2.193-2.534-3.331-3.848-.24.184-.465.342-.675.518-1.323,1.115-2.651,2.225-3.954,3.363a.742.742,0,0,0-.147.62,3.623,3.623,0,0,1-1.422,4.15A3.569,3.569,0,0,1,93.977,64c-1.429-1.564-2.779-3.2-4.164-4.8-1.513-1.751-3.014-3.511-4.545-5.246a3.656,3.656,0,0,1-.819-3.966,3.479,3.479,0,0,1,4.716-2.03,1,1,0,0,0,1.249-.231q7.03-6.126,14.1-12.21a.668.668,0,0,0,.281-.836,3.539,3.539,0,0,1,1.662-4.134,3.4,3.4,0,0,1,4.323.538c1.719,1.872,3.366,3.811,5.028,5.736,1.35,1.564,2.7,3.127,4.006,4.729a3.574,3.574,0,0,1-1.459,5.763,3.061,3.061,0,0,1-2.567-.035.944.944,0,0,0-1.2.19c-1.312,1.177-2.677,2.3-4.02,3.44-.092.078-.168.174-.286.3m-4-14.213a.926.926,0,0,0-.148.048L91.85,49.35c-.513.442-.507.439-.059.955,2.161,2.5,4.335,4.982,6.465,7.505.367.434.552.359.909.051q6.532-5.646,13.083-11.271c.437-.376.869-.758,1.329-1.159l-7.3-8.443m-9.689,25.99A1.464,1.464,0,0,0,98.018,62c.3-.759-.119-1.287-.567-1.8Q94,56.222,90.539,52.25c-.555-.64-1.081-1.305-1.653-1.929a1.309,1.309,0,0,0-1.627-.363,1.4,1.4,0,0,0-.53,2.277c.933,1.128,1.935,2.2,2.888,3.309,1.93,2.249,3.845,4.51,5.771,6.762a1.531,1.531,0,0,0,1.2.672M116.9,45.446a5.248,5.248,0,0,0,.791-.229,1.391,1.391,0,0,0,.461-2.253c-1.024-1.237-2.1-2.431-3.144-3.65-1.181-1.38-2.344-2.775-3.529-4.151-.714-.829-1.437-1.651-2.186-2.448a1.4,1.4,0,0,0-2-.136,1.423,1.423,0,0,0-.162,2c.134.186.286.359.436.532,1.531,1.756,3.069,3.506,4.594,5.267,1.282,1.481,2.536,2.986,3.833,4.455a4.184,4.184,0,0,0,.9.616M106.52,54.381c.341.389.643.728.939,1.072q3.99,4.632,7.984,9.257a2.056,2.056,0,0,0,.834.6,1.232,1.232,0,0,0,1.432-.529,1.311,1.311,0,0,0-.037-1.62c-.847-1.016-1.74-1.993-2.6-3-1.2-1.405-2.387-2.828-3.6-4.23-.942-1.093-1.909-2.165-2.912-3.3l-2.045,1.747" fill="#fff"/>
    <path id="Trazado_610319" data-name="Trazado 610319" d="M108.091,78.174c.415.071.766.107,1.1.194a4.163,4.163,0,0,1,3.115,3.946c.027.687.025,1.377.015,2.065a1.156,1.156,0,0,1-1.245,1.269c-.141.008-.283,0-.424,0H84.327c-1.2,0-1.575-.378-1.571-1.586a15.22,15.22,0,0,1,.039-2.116,4.179,4.179,0,0,1,4.134-3.7c.092-.594.141-1.194.283-1.77a3.659,3.659,0,0,1,3.551-2.8q6.781-.021,13.561.008a3.835,3.835,0,0,1,3.765,3.761c.011.227,0,.455,0,.724M97.542,83.407v-.016q4.874,0,9.748,0c.812,0,1.624.019,2.436,0,.137,0,.362-.111.393-.216a2.252,2.252,0,0,0-.856-2.39,3.373,3.373,0,0,0-1.513-.336c-6.41-.02-12.82-.011-19.23-.008-.529,0-1.06-.01-1.588.021a1.938,1.938,0,0,0-1.952,2.012c-.005.142,0,.285-.014.424-.056.393.094.514.5.513,4.026-.014,8.052-.009,12.078-.009m-.053-5.164v0q2.438,0,4.874,0c1.006,0,2.013-.016,3.019-.006.345,0,.5-.073.494-.472-.027-1.309-.567-1.867-1.879-1.867H91.018c-1.2,0-1.746.561-1.811,1.779-.024.444.1.577.548.573,2.578-.019,5.156-.009,7.734-.009" fill="#fff"/>
    <path id="Trazado_610320" data-name="Trazado 610320" d="M53.826,67.6c0,1.342-.007,2.684,0,4.026a1.2,1.2,0,0,1-.555,1.224,1.279,1.279,0,0,1-1.4-.133A26.428,26.428,0,0,0,45.4,69.519c-.868-.282-1.085-.591-1.09-1.524q-.022-4.08-.006-8.159c.006-1.017.616-1.466,1.575-1.163a27.527,27.527,0,0,1,7.128,3.415,1.665,1.665,0,0,1,.815,1.59c-.05,1.3-.015,2.613-.015,3.919h.017m-2.215,2.211c0-1.818-.011-3.665.009-5.512a.726.726,0,0,0-.426-.758c-1.288-.649-2.569-1.312-3.857-1.962-.226-.113-.47-.19-.727-.292a1.423,1.423,0,0,0-.072.264c-.011,1.922-.024,3.843-.016,5.765a.529.529,0,0,0,.261.391c1.586.706,3.182,1.391,4.828,2.1" fill="#fff"/>
    <path id="Trazado_610321" data-name="Trazado 610321" d="M45.655,42.87c.844.237,1.95.479,3.009.856A44.132,44.132,0,0,1,59.6,49.189,52.211,52.211,0,0,1,66.137,54.4a9.6,9.6,0,0,1,.723.773,1.074,1.074,0,0,1-1.51,1.519c-1.006-.861-1.965-1.777-2.987-2.617A45.877,45.877,0,0,0,47.5,45.643c-.8-.262-1.637-.424-2.448-.662a.971.971,0,0,1-.72-1.134c.106-.614.5-.973,1.325-.977" fill="#fff"/>
    <path id="Trazado_610322" data-name="Trazado 610322" d="M45.485,51.1c1.1.316,2.213.588,3.295.955a42.324,42.324,0,0,1,10.809,5.383,56.969,56.969,0,0,1,6.767,5.429,4.742,4.742,0,0,1,.468.5,1.019,1.019,0,0,1,.014,1.474,1.171,1.171,0,0,1-1.549-.007c-.634-.536-1.245-1.1-1.871-1.643A48.26,48.26,0,0,0,51.183,55.31c-1.782-.785-3.691-1.279-5.543-1.9-.2-.067-.409-.114-.6-.193a1,1,0,0,1-.657-1.227,1.179,1.179,0,0,1,1.106-.887" fill="#fff"/>
    <path id="Trazado_610323" data-name="Trazado 610323" d="M53.332,37.453c.3.108.584.193.855.313a31.334,31.334,0,0,1,6.049,3.472,46.639,46.639,0,0,1,6.211,5.185,4.505,4.505,0,0,1,.48.563.963.963,0,0,1-.017,1.267,1.125,1.125,0,0,1-1.355.241,2.289,2.289,0,0,1-.5-.384,48.31,48.31,0,0,0-9.793-7.369c-.8-.452-1.643-.817-2.442-1.265a1.017,1.017,0,0,1-.035-1.836,2.683,2.683,0,0,1,.547-.187" fill="#fff"/>
    <path id="Trazado_610324" data-name="Trazado 610324" d="M66.114,81.809a10.517,10.517,0,0,1-1.135-.759c-1.031-.909-1.992-1.9-3.063-2.76-1.222-.975-2.535-1.838-3.812-2.748-.185-.132-.4-.234-.572-.376a1.007,1.007,0,0,1-.264-1.367.983.983,0,0,1,1.313-.439,25.219,25.219,0,0,1,2.262,1.354,36.4,36.4,0,0,1,5.674,4.82,3.665,3.665,0,0,1,.441.524.882.882,0,0,1,.016,1.085,4.912,4.912,0,0,1-.86.666" fill="#fff"/>
    <path id="Trazado_610325" data-name="Trazado 610325" d="M58.257,64.986a4.529,4.529,0,0,1,.7.3,35.738,35.738,0,0,1,7.794,6.3,1,1,0,0,1,.13,1.466,1.117,1.117,0,0,1-1.534.089,4.626,4.626,0,0,1-.521-.448,39.381,39.381,0,0,0-7.064-5.625,1.026,1.026,0,0,1-.575-1.237,1.162,1.162,0,0,1,1.074-.848" fill="#fff"/>
    <path id="Trazado_610326" data-name="Trazado 610326" d="M45.7,34.667a11.188,11.188,0,0,1,1.289.407.957.957,0,0,1,.541,1.228.988.988,0,0,1-1.092.719,7.3,7.3,0,0,1-1.428-.344.975.975,0,0,1-.613-1.2c.117-.513.536-.832,1.3-.814" fill="#fff"/>
  </g>
</svg>
