<svg xmlns="http://www.w3.org/2000/svg" xmlns:xlink="http://www.w3.org/1999/xlink" width="192" height="192.001" viewBox="0 0 192 192.001">
  <defs>
    <clipPath id="clip-path">
      <path id="Trazado_604039" data-name="Trazado 604039" d="M121.723,0l-96,25.723L0,121.722,70.276,192l96-25.723,25.725-96Z" transform="translate(-0.001 0.001)" fill="#fff"/>
    </clipPath>
    <clipPath id="clip-path-2">
      <rect id="Rectángulo_349040" data-name="Rectángulo 349040" width="123.409" height="123.417" fill="none"/>
    </clipPath>
  </defs>
  <g id="Grupo_1016663" data-name="Grupo 1016663" transform="translate(-718 -690.039)">
    <g id="Grupo_161574" data-name="Grupo 161574" transform="translate(718 690.039)">
      <path id="Trazado_600880" data-name="Trazado 600880" d="M121.723,0l-96,25.723L0,121.722,70.276,192l96-25.723,25.725-96Z" transform="translate(-0.001 0.001)" fill="#fff"/>
      <path id="Trazado_601791" data-name="Trazado 601791" d="M0,1.56,2.779,0V52.828L.161,54.264Z" transform="matrix(0.259, 0.966, -0.966, 0.259, 80.826, 0)" fill="#2f8006"/>
      <path id="Trazado_637251" data-name="Trazado 637251" d="M0,1.56,2.779,0V52.828L.161,54.264Z" transform="matrix(0.259, 0.966, -0.966, 0.259, 168.826, 175.272)" fill="#2f8006"/>
    </g>
    <g id="Enmascarar_grupo_74" data-name="Enmascarar grupo 74" transform="translate(718 690.039)" clip-path="url(#clip-path)">
      <g id="Grupo_1016667" data-name="Grupo 1016667" transform="translate(34.296 27.527)">
        <g id="Grupo_1016666" data-name="Grupo 1016666" clip-path="url(#clip-path-2)">
          <path id="Trazado_637211" data-name="Trazado 637211" d="M87.608,123.417h35.776V79.643h-15.92V67.685H95.582V59.93a22.1,22.1,0,0,0,3.234-.8,5.8,5.8,0,0,0,3.324-3.808,2.083,2.083,0,0,1,3.2-1.387c.132.061.258.133.39.193a5.672,5.672,0,0,0,6.45-.827,58.517,58.517,0,0,0,4.966-4.967,4.972,4.972,0,0,0,1.16-4.472,13.789,13.789,0,0,0-.815-2.332,2.1,2.1,0,0,1,1.3-3c.272-.1.547-.194.813-.308a5.531,5.531,0,0,0,3.661-4.711,60.5,60.5,0,0,0,.1-6.769,5.611,5.611,0,0,0-1.605-3.751,6.625,6.625,0,0,0-2.832-1.727,2.106,2.106,0,0,1-1.366-3.19c.158-.338.326-.672.456-1.021a5.349,5.349,0,0,0-.875-5.667,62.332,62.332,0,0,0-4.959-4.974,5.276,5.276,0,0,0-4.746-1.283,13.237,13.237,0,0,0-2.267.817A2.143,2.143,0,0,1,102.2,4.639c-.057-.155-.1-.314-.161-.47A5.609,5.609,0,0,0,97.089.131,58.947,58.947,0,0,0,90.381.06,5.23,5.23,0,0,0,86,2.406a10.355,10.355,0,0,0-1.044,2.1A2.15,2.15,0,0,1,81.8,5.87c-.265-.118-.522-.254-.791-.362A5.567,5.567,0,0,0,74.9,6.4a65.331,65.331,0,0,0-4.835,4.839A5.242,5.242,0,0,0,68.794,16.1a14.25,14.25,0,0,0,.89,2.306c.421,1.019.127,1.509-.924,1.509q-28.96,0-57.92.013a15.561,15.561,0,0,0-3.333.318A9.8,9.8,0,0,0,.154,31.409a10.04,10.04,0,0,0,4.058,6.6,10.371,10.371,0,0,0,6.275,1.814q29.146-.007,58.293,0a2.87,2.87,0,0,0,.435,0c.49-.077.68.2.6.606a7.757,7.757,0,0,1-.507,1.7,5.528,5.528,0,0,0,.746,6.284,64.335,64.335,0,0,0,4.876,4.971,4.946,4.946,0,0,0,4.44,1.26,13.484,13.484,0,0,0,2.518-.832,2.149,2.149,0,0,1,3.006,1.3c.1.273.184.551.3.816a5.814,5.814,0,0,0,4.76,3.71c.525.072,1.055.105,1.573.156v7.925H15.877V79.673H.021v43.738h35.76V79.633H19.918V71.724h39.74v7.944H43.818v43.745H79.582V79.638H63.737V71.722H103.46v7.942H87.608Z" transform="translate(0 0)" fill="#fff"/>
          <path id="Trazado_637212" data-name="Trazado 637212" d="M87.608,123.417V79.664H103.46V71.722H63.737v7.916H79.582v43.776H43.818V79.669h15.84V71.724H19.918v7.909H35.781v43.778H.021V79.673H15.878V67.716H91.526V59.791c-.519-.05-1.049-.084-1.574-.156a5.814,5.814,0,0,1-4.76-3.71c-.116-.265-.2-.543-.3-.816a2.149,2.149,0,0,0-3.006-1.3,13.484,13.484,0,0,1-2.518.832,4.946,4.946,0,0,1-4.44-1.26,64.425,64.425,0,0,1-4.876-4.971,5.528,5.528,0,0,1-.746-6.284,7.73,7.73,0,0,0,.507-1.7c.081-.4-.109-.683-.6-.606a2.869,2.869,0,0,1-.435,0q-29.146,0-58.293,0a10.371,10.371,0,0,1-6.275-1.814,10.042,10.042,0,0,1-4.058-6.6A9.8,9.8,0,0,1,7.507,20.242a15.558,15.558,0,0,1,3.333-.318Q39.8,19.9,68.76,19.91c1.051,0,1.346-.49.924-1.509a14.25,14.25,0,0,1-.89-2.306,5.243,5.243,0,0,1,1.268-4.858A65.428,65.428,0,0,1,74.9,6.4a5.568,5.568,0,0,1,6.111-.889c.269.108.526.244.791.362A2.15,2.15,0,0,0,84.957,4.5,10.355,10.355,0,0,1,86,2.406,5.23,5.23,0,0,1,90.381.06a58.947,58.947,0,0,1,6.708.071,5.609,5.609,0,0,1,4.954,4.038c.057.155.1.314.161.47a2.143,2.143,0,0,0,2.967,1.306,13.252,13.252,0,0,1,2.267-.817,5.278,5.278,0,0,1,4.746,1.283,62.324,62.324,0,0,1,4.958,4.974,5.349,5.349,0,0,1,.875,5.667c-.13.348-.3.683-.456,1.021a2.106,2.106,0,0,0,1.366,3.19,6.622,6.622,0,0,1,2.832,1.727,5.611,5.611,0,0,1,1.605,3.751,60.5,60.5,0,0,1-.1,6.769,5.531,5.531,0,0,1-3.661,4.711c-.267.114-.541.208-.813.308a2.1,2.1,0,0,0-1.295,3,13.83,13.83,0,0,1,.814,2.332,4.972,4.972,0,0,1-1.16,4.472,58.517,58.517,0,0,1-4.966,4.967,5.671,5.671,0,0,1-6.45.827c-.132-.06-.258-.132-.39-.193a2.083,2.083,0,0,0-3.2,1.387,5.8,5.8,0,0,1-3.324,3.808,22.109,22.109,0,0,1-3.233.8v7.755h11.881V79.643h15.92v43.773Zm-83.6-3.989H31.8V83.662H4.006Zm69.68-79.6a7.041,7.041,0,0,1-.835,3.967A1.971,1.971,0,0,0,73.22,46.2c1.338,1.359,2.683,2.711,4.048,4.042a2.007,2.007,0,0,0,2.361.359c.266-.114.519-.26.784-.376a5.644,5.644,0,0,1,5.983.62,6.472,6.472,0,0,1,2.3,3.384,1.945,1.945,0,0,0,2.071,1.526c1.555.01,3.111-.045,4.665.009,2.238.079,2.595-.4,3.236-2.189a5.756,5.756,0,0,1,5.777-3.875,9.736,9.736,0,0,1,2.774.8,2.235,2.235,0,0,0,2.6-.235c1.372-1.325,2.714-2.681,4.052-4.039a2.033,2.033,0,0,0,.364-2.466c-.121-.263-.254-.522-.363-.789a5.857,5.857,0,0,1,.714-6A6.075,6.075,0,0,1,117.7,34.8c1.427-.48,1.735-.95,1.735-2.473v-4.79c0-1.688-.269-2.074-1.855-2.641a6.043,6.043,0,0,1-3.465-8.644,2.108,2.108,0,0,0-.426-2.925c-1.242-1.279-2.518-2.526-3.788-3.777a2.053,2.053,0,0,0-2.461-.386,11.4,11.4,0,0,1-1.789.693,5.406,5.406,0,0,1-4.917-.964A6.533,6.533,0,0,1,98.5,5.757c-.484-1.454-.952-1.776-2.5-1.776q-2.613,0-5.225,0A1.973,1.973,0,0,0,88.7,5.434,11.648,11.648,0,0,1,88,7.086a5.917,5.917,0,0,1-7.877,2.306c-1.522-.8-2.1-.677-3.325.515q-1.69,1.652-3.333,3.353A2.164,2.164,0,0,0,73,16.281a6.413,6.413,0,0,1,.7,3.118,4.637,4.637,0,0,0,.035.511c1.621,0,3.2.011,4.77-.015.176,0,.378-.19.517-.338a34.269,34.269,0,0,1,3.348-3.575,17.315,17.315,0,0,1,13.717-3.8A17.815,17.815,0,0,1,111.42,28.936a16.668,16.668,0,0,1-4.238,12.45c-4.373,4.927-9.858,7.123-16.419,6.115a17.127,17.127,0,0,1-11.711-7.277c-.118-.166-.323-.378-.492-.381-1.593-.029-3.186-.017-4.874-.017m-25.9,79.606H75.582V83.668H47.788Zm71.6-35.749h-27.8v35.765h27.8Zm-35.613-43.9A13.954,13.954,0,1,0,97.091,16.335c-4.725-1.181-11.331.583-13.086,3.422a19.529,19.529,0,0,1,2.905.581c3.175,1.132,6.32,2.351,9.472,3.549a46.678,46.678,0,0,1,4.549,1.811,4.655,4.655,0,0,1,1.4,7.215,5.638,5.638,0,0,1-2.512,1.657c-3.217,1.2-6.415,2.458-9.654,3.6-2.027.713-3.927,1.946-6.395,1.618m-.207-15.848H27.883v3.9H83.568ZM27.882,35.8H83.545V31.89H27.882Zm-12.018.034V23.894c-1.945,0-3.851.076-5.75-.016a6.175,6.175,0,0,0-6.179,6.233c.142,2.771,2.6,5.582,5.363,5.7,2.169.1,4.345.019,6.566.019M87.6,35.008c1.742-.654,3.4-1.279,5.064-1.9,1.994-.748,3.994-1.483,5.981-2.249.4-.153.863-.251.894-.88.033-.682-.376-.909-.879-1.1Q93.492,26.938,88.321,25c-.224-.083-.453-.153-.721-.244ZM23.839,23.936h-3.9V35.81h3.9Z" transform="translate(0 0)" fill="#161615"/>
          <path id="Trazado_637213" data-name="Trazado 637213" d="M8.026,167.622H35.82v35.765H8.026Zm23.819,27.894H19.977v3.906H31.845ZM19.955,183.482H31.823v-3.909H19.955Zm11.887-11.864H19.975v3.91H31.843Zm-11.9,19.834H31.827v-3.9H19.938Zm-4.02-11.878H12v3.907h3.917Zm-3.926,11.881h3.913v-3.9H11.992Zm3.924-19.844H12v3.9h3.912Zm-3.909,27.8h3.906V195.5H12.006Z" transform="translate(-4.02 -83.96)" fill="#fff"/>
          <path id="Trazado_637214" data-name="Trazado 637214" d="M167.96,59.766c-.143,0-.293,0-.454-.008-.526-.018-1.053-.024-1.579-.024-.44,0-.879,0-1.32.008s-.888.008-1.333.008h-.413a2.7,2.7,0,0,1-2.78-2.049,5.72,5.72,0,0,0-2.033-3.008,4.87,4.87,0,0,0-2.964-1.051,5.731,5.731,0,0,0-2.275.516c-.118.051-.233.109-.348.168-.145.073-.29.145-.439.209a3.273,3.273,0,0,1-1.293.286,2.669,2.669,0,0,1-1.887-.8c-1.2-1.171-2.453-2.421-4.059-4.054a2.723,2.723,0,0,1-.507-3.26,6.289,6.289,0,0,0,.763-3.558.749.749,0,0,1,.744-.83l2.213,0c.9,0,1.789,0,2.675.02a1.486,1.486,0,0,1,1.087.694,16.4,16.4,0,0,0,11.215,6.972,19.422,19.422,0,0,0,2.936.231c4.905,0,9.215-2.053,12.809-6.1a15.83,15.83,0,0,0,4.051-11.906,17.078,17.078,0,0,0-14.691-16.063,18.576,18.576,0,0,0-2.577-.185,16.034,16.034,0,0,0-12.746,6.092c-.35.41-.712.835-1.09,1.24a1.541,1.541,0,0,1-1.051.576c-.86.014-1.718.017-2.585.017l-2.2,0a.748.748,0,0,1-.747-.693l-.015-.161a2.978,2.978,0,0,1-.022-.439,5.658,5.658,0,0,0-.626-2.759,2.883,2.883,0,0,1,.6-3.866c1.05-1.091,2.176-2.225,3.349-3.37a3.316,3.316,0,0,1,2.312-1.236,4.024,4.024,0,0,1,1.883.593,5.1,5.1,0,0,0,2.382.607,5.314,5.314,0,0,0,4.5-2.618,9.477,9.477,0,0,0,.578-1.347l.075-.2a2.711,2.711,0,0,1,2.764-1.939h5.227c1.881,0,2.632.535,3.215,2.288a5.8,5.8,0,0,0,1.987,2.786,4.426,4.426,0,0,0,2.84,1.011,6,6,0,0,0,1.433-.186,8.435,8.435,0,0,0,1.366-.519l.3-.134a3.35,3.35,0,0,1,1.336-.3,2.717,2.717,0,0,1,1.949.841l.394.388c1.124,1.105,2.286,2.248,3.406,3.4a2.832,2.832,0,0,1,.558,3.782,5.3,5.3,0,0,0,3.048,7.6c1.89.675,2.351,1.332,2.351,3.346v4.791c0,1.861-.526,2.6-2.245,3.182a5.328,5.328,0,0,0-2.738,1.9,5.1,5.1,0,0,0-.627,5.275c.067.163.143.322.219.481l.132.279a2.786,2.786,0,0,1-.512,3.3c-1.353,1.373-2.682,2.717-4.065,4.052a2.536,2.536,0,0,1-1.81.747,4.344,4.344,0,0,1-1.584-.352l-.2-.079a8.368,8.368,0,0,0-2.349-.668c-.106-.007-.212-.01-.317-.01a4.991,4.991,0,0,0-4.707,3.39c-.657,1.831-1.217,2.693-3.513,2.693" transform="translate(-72.099 -3.244)" fill="#85ce5f"/>
          <path id="Trazado_637215" data-name="Trazado 637215" d="M164.211,6.471h3.132c1.552,0,2.021.321,2.5,1.776a6.533,6.533,0,0,0,2.233,3.137,5.185,5.185,0,0,0,3.3,1.172A6.724,6.724,0,0,0,177,12.349a11.377,11.377,0,0,0,1.789-.693,2.6,2.6,0,0,1,1.037-.24,1.983,1.983,0,0,1,1.423.626c1.271,1.25,2.546,2.5,3.788,3.776a2.109,2.109,0,0,1,.426,2.925,6.043,6.043,0,0,0,3.465,8.644c1.586.566,1.854.952,1.855,2.64v4.791c0,1.523-.307,1.993-1.735,2.473a6.072,6.072,0,0,0-3.106,2.171,5.856,5.856,0,0,0-.714,6c.109.268.243.526.363.79a2.032,2.032,0,0,1-.364,2.466c-1.338,1.358-2.68,2.714-4.052,4.039a1.781,1.781,0,0,1-1.29.537,3.732,3.732,0,0,1-1.314-.3,9.731,9.731,0,0,0-2.774-.8c-.122-.008-.245-.011-.366-.011a5.766,5.766,0,0,0-5.411,3.886c-.6,1.666-.948,2.2-2.808,2.2-.135,0-.277,0-.428-.008-.534-.018-1.069-.024-1.6-.024-.885,0-1.77.016-2.655.016h-.406a1.945,1.945,0,0,1-2.07-1.526,6.476,6.476,0,0,0-2.3-3.384,5.636,5.636,0,0,0-3.409-1.2,6.436,6.436,0,0,0-2.573.578c-.266.116-.518.261-.784.376a2.539,2.539,0,0,1-1,.225,1.9,1.9,0,0,1-1.364-.584q-2.048-2-4.048-4.043a1.97,1.97,0,0,1-.368-2.406,7.046,7.046,0,0,0,.835-3.967l2.216,0c.9,0,1.778,0,2.659.019.168,0,.374.216.492.381a17.124,17.124,0,0,0,11.711,7.277,20.107,20.107,0,0,0,3.051.24c5.228,0,9.691-2.212,13.368-6.355a16.667,16.667,0,0,0,4.238-12.45A17.816,17.816,0,0,0,167.437,14.67a19.2,19.2,0,0,0-2.681-.192,17.284,17.284,0,0,0-11.035,3.994,34.27,34.27,0,0,0-3.348,3.575c-.139.149-.341.335-.517.338-.858.014-1.716.017-2.582.017l-2.187,0a4.647,4.647,0,0,1-.035-.511,6.413,6.413,0,0,0-.7-3.118,2.164,2.164,0,0,1,.468-3.021q1.639-1.7,3.333-3.353c.709-.692,1.2-1.023,1.789-1.023a3.459,3.459,0,0,1,1.536.508,5.84,5.84,0,0,0,2.73.693,6.074,6.074,0,0,0,5.147-3,11.532,11.532,0,0,0,.7-1.653,1.973,1.973,0,0,1,2.065-1.452h2.093m0-1.5h-2.1A3.472,3.472,0,0,0,158.651,7.4l-.074.2a8.849,8.849,0,0,1-.53,1.243A4.607,4.607,0,0,1,154.2,11.08a4.359,4.359,0,0,1-2.035-.522,4.9,4.9,0,0,0-2.231-.679,4.066,4.066,0,0,0-2.835,1.448c-1.178,1.151-2.311,2.291-3.366,3.386A3.617,3.617,0,0,0,143,19.426a4.937,4.937,0,0,1,.552,2.4,3.6,3.6,0,0,0,.025.547c0,.044.009.091.013.14a1.5,1.5,0,0,0,1.493,1.386h2.187c.718,0,1.664,0,2.607-.018a2.283,2.283,0,0,0,1.587-.814c.389-.417.757-.848,1.113-1.266a16.152,16.152,0,0,1,2.076-2.162,15.855,15.855,0,0,1,10.1-3.666,17.772,17.772,0,0,1,2.473.177,16.336,16.336,0,0,1,14.048,15.37,15.1,15.1,0,0,1-3.863,11.361,15.961,15.961,0,0,1-12.248,5.852,18.707,18.707,0,0,1-2.824-.222,15.68,15.68,0,0,1-10.719-6.666,2.2,2.2,0,0,0-1.684-1.009c-.961-.017-1.9-.02-2.686-.02h-2.216a1.5,1.5,0,0,0-1.489,1.66,5.511,5.511,0,0,1-.691,3.147,3.479,3.479,0,0,0,.646,4.114c1.614,1.64,2.869,2.893,4.07,4.064a3.4,3.4,0,0,0,2.409,1.009,4.023,4.023,0,0,0,1.589-.347c.163-.07.322-.149.481-.229.1-.051.2-.1.309-.149a4.983,4.983,0,0,1,1.976-.454,4.148,4.148,0,0,1,2.519.9,5,5,0,0,1,1.765,2.632,3.422,3.422,0,0,0,3.489,2.571h.415c.447,0,.894,0,1.341-.008s.876-.008,1.314-.008c.6,0,1.091.007,1.551.023.17.006.33.009.481.009,2.852,0,3.547-1.322,4.217-3.189a4.248,4.248,0,0,1,4-2.894c.09,0,.18,0,.271.008a7.875,7.875,0,0,1,2.125.619l.2.079a5.157,5.157,0,0,0,1.854.4,3.258,3.258,0,0,0,2.329-.957c1.394-1.346,2.78-2.746,4.079-4.065a3.534,3.534,0,0,0,.658-4.14c-.045-.1-.091-.2-.138-.292-.069-.146-.14-.29-.2-.439a4.353,4.353,0,0,1,.54-4.552,4.61,4.61,0,0,1,2.37-1.631c2.035-.683,2.756-1.7,2.756-3.892V30.028c0-2.324-.666-3.271-2.849-4.05a4.549,4.549,0,0,1-2.629-6.564,3.543,3.543,0,0,0-.69-4.639c-1.122-1.155-2.283-2.3-3.407-3.4l-.405-.4a3.484,3.484,0,0,0-2.474-1.056,4.1,4.1,0,0,0-1.637.365l-.3.135a7.963,7.963,0,0,1-1.244.478,5.274,5.274,0,0,1-1.254.164,3.708,3.708,0,0,1-2.376-.849,5.009,5.009,0,0,1-1.741-2.435c-.687-2.068-1.714-2.8-3.926-2.8h-3.132Z" transform="translate(-71.35 -2.491)" fill="#040405"/>
          <path id="Trazado_637216" data-name="Trazado 637216" d="M95.746,167.634H123.54V203.4H95.746Zm23.834,19.922H99.749V199.43H119.58Zm-11.874-12.038h11.87V171.61h-11.87Zm-.015,7.969h11.867V179.58H107.691Zm-4.038-3.9H99.74v3.9h3.912Zm0-7.958H99.748v3.909h3.905Z" transform="translate(-47.958 -83.966)" fill="#fff"/>
          <path id="Trazado_637217" data-name="Trazado 637217" d="M211.306,203.429h-27.8V167.664h27.8Zm-23.8-4h19.831V187.555H187.5Zm0-23.9h19.829v-3.908H187.5Zm-.021,7.968h19.852v-3.9H187.483Z" transform="translate(-91.918 -83.981)" fill="#fff"/>
          <path id="Trazado_637218" data-name="Trazado 637218" d="M167.847,55.807c2.468.328,4.368-.905,6.395-1.618,3.239-1.139,6.438-2.394,9.654-3.6a5.636,5.636,0,0,0,2.512-1.657,4.654,4.654,0,0,0-1.4-7.215,46.682,46.682,0,0,0-4.549-1.811c-3.151-1.2-6.3-2.417-9.472-3.549a19.526,19.526,0,0,0-2.9-.582c1.755-2.839,8.361-4.6,13.086-3.422a13.989,13.989,0,0,1,10.384,12.486,13.814,13.814,0,0,1-9.225,14.2,13.953,13.953,0,0,1-14.474-3.23" transform="translate(-84.072 -16.021)" fill="#fff"/>
          <rect id="Rectángulo_349021" data-name="Rectángulo 349021" width="57.182" height="5.401" rx="1.5" transform="translate(27.134 23.19)" fill="#f4df36"/>
          <path id="Trazado_637219" data-name="Trazado 637219" d="M110.046,50.363H54.361v-3.9h55.685Zm0-5.4H54.361a1.5,1.5,0,0,0-1.5,1.5v3.9a1.5,1.5,0,0,0,1.5,1.5h55.685a1.5,1.5,0,0,0,1.5-1.5v-3.9a1.5,1.5,0,0,0-1.5-1.5" transform="translate(-26.479 -22.521)" fill="#040405"/>
          <rect id="Rectángulo_349022" data-name="Rectángulo 349022" width="57.161" height="5.406" rx="1.5" transform="translate(27.134 31.142)" fill="#f4df36"/>
          <path id="Trazado_637220" data-name="Trazado 637220" d="M110.023,66.3H54.36V62.391h55.663Zm0-5.406H54.36a1.5,1.5,0,0,0-1.5,1.5V66.3a1.5,1.5,0,0,0,1.5,1.5h55.663a1.5,1.5,0,0,0,1.5-1.5V62.391a1.5,1.5,0,0,0-1.5-1.5" transform="translate(-26.478 -30.501)" fill="#040405"/>
          <path id="Trazado_637221" data-name="Trazado 637221" d="M19.807,59.79c-2.221,0-4.4.076-6.566-.019-2.763-.122-5.221-2.933-5.363-5.7a6.175,6.175,0,0,1,6.179-6.233c1.9.093,3.805.016,5.75.016Z" transform="translate(-3.943 -23.956)" fill="#bb0d19"/>
          <path id="Trazado_637222" data-name="Trazado 637222" d="M175.512,59.857V49.609c.268.09.5.16.721.244q5.17,1.936,10.34,3.876c.5.189.912.416.879,1.1-.031.629-.5.727-.894.88-1.987.766-3.986,1.5-5.981,2.249-1.661.622-3.322,1.247-5.064,1.9" transform="translate(-87.912 -24.848)" fill="#fff"/>
          <rect id="Rectángulo_349023" data-name="Rectángulo 349023" width="3.905" height="11.874" transform="translate(19.935 23.936)" fill="#fff"/>
          <rect id="Rectángulo_349024" data-name="Rectángulo 349024" width="11.867" height="3.906" transform="translate(15.957 111.557)" fill="#161615"/>
          <rect id="Rectángulo_349025" data-name="Rectángulo 349025" width="11.867" height="3.909" transform="translate(15.935 95.613)" fill="#161615"/>
          <rect id="Rectángulo_349026" data-name="Rectángulo 349026" width="11.867" height="3.91" transform="translate(15.955 87.659)" fill="#161615"/>
          <rect id="Rectángulo_349027" data-name="Rectángulo 349027" width="11.889" height="3.896" transform="translate(15.918 103.597)" fill="#161615"/>
          <rect id="Rectángulo_349028" data-name="Rectángulo 349028" width="3.917" height="3.907" transform="translate(7.98 95.615)" fill="#161615"/>
          <rect id="Rectángulo_349029" data-name="Rectángulo 349029" width="3.913" height="3.903" transform="translate(7.972 103.593)" fill="#161615"/>
          <rect id="Rectángulo_349030" data-name="Rectángulo 349030" width="3.912" height="3.902" transform="translate(7.983 87.652)" fill="#161615"/>
          <rect id="Rectángulo_349031" data-name="Rectángulo 349031" width="3.906" height="3.906" transform="translate(7.986 111.541)" fill="#161615"/>
          <path id="Trazado_637223" data-name="Trazado 637223" d="M123.6,219.422H103.766V207.548H123.6Zm-15.871-4h11.887v-3.9H107.726Z" transform="translate(-51.975 -103.958)" fill="#161615"/>
          <rect id="Rectángulo_349032" data-name="Rectángulo 349032" width="11.87" height="3.908" transform="translate(59.748 87.645)" fill="#161615"/>
          <rect id="Rectángulo_349033" data-name="Rectángulo 349033" width="11.867" height="3.907" transform="translate(59.733 95.615)" fill="#161615"/>
          <rect id="Rectángulo_349034" data-name="Rectángulo 349034" width="3.912" height="3.902" transform="translate(51.783 95.617)" fill="#161615"/>
          <rect id="Rectángulo_349035" data-name="Rectángulo 349035" width="3.905" height="3.909" transform="translate(51.79 87.659)" fill="#161615"/>
          <path id="Trazado_637224" data-name="Trazado 637224" d="M191.511,207.517h19.831v11.872H191.511Zm15.854,4H195.5v3.9h11.865Z" transform="translate(-95.925 -103.942)" fill="#161615"/>
          <rect id="Rectángulo_349036" data-name="Rectángulo 349036" width="19.829" height="3.908" transform="translate(95.587 87.642)" fill="#161615"/>
          <rect id="Rectángulo_349037" data-name="Rectángulo 349037" width="19.852" height="3.9" transform="translate(95.566 95.618)" fill="#161615"/>
          <rect id="Rectángulo_349038" data-name="Rectángulo 349038" width="13.384" height="5.4" rx="1.5" transform="translate(55.003 106.816)" fill="#59bbcb"/>
          <path id="Trazado_637225" data-name="Trazado 637225" d="M122.086,217.911H110.2v-3.9h11.887Zm0-5.4H110.2a1.5,1.5,0,0,0-1.5,1.5v3.9a1.5,1.5,0,0,0,1.5,1.5h11.887a1.5,1.5,0,0,0,1.5-1.5v-3.9a1.5,1.5,0,0,0-1.5-1.5" transform="translate(-54.447 -106.444)" fill="#040405"/>
          <rect id="Rectángulo_349039" data-name="Rectángulo 349039" width="13.362" height="5.402" rx="1.5" transform="translate(98.826 106.826)" fill="#59bbcb"/>
          <path id="Trazado_637226" data-name="Trazado 637226" d="M209.865,217.934H198v-3.9h11.865Zm0-5.4H198a1.5,1.5,0,0,0-1.5,1.5v3.9a1.5,1.5,0,0,0,1.5,1.5h11.865a1.5,1.5,0,0,0,1.5-1.5v-3.9a1.5,1.5,0,0,0-1.5-1.5" transform="translate(-98.426 -106.454)" fill="#040405"/>
        </g>
      </g>
    </g>
  </g>
</svg>
