<svg xmlns="http://www.w3.org/2000/svg" xmlns:xlink="http://www.w3.org/1999/xlink" width="1240" height="386.19" viewBox="0 0 1240 386.19">
  <defs>
    <clipPath id="clip-path">
      <path id="Trazado_604039" data-name="Trazado 604039" d="M121.723,0l-96,25.723L0,121.722,70.276,192l96-25.723,25.725-96Z" transform="translate(-0.001 0.001)" fill="#fff"/>
    </clipPath>
    <clipPath id="clip-path-2">
      <rect id="Rectángulo_349052" data-name="Rectángulo 349052" width="114.035" height="139.667" fill="none"/>
    </clipPath>
    <clipPath id="clip-path-4">
      <rect id="Rectángulo_349040" data-name="Rectángulo 349040" width="123.409" height="123.417" fill="none"/>
    </clipPath>
    <clipPath id="clip-path-5">
      <path id="Trazado_604039-3" data-name="Trazado 604039" d="M127.746,0,27,27,0,127.745,73.754,201.5l100.75-27,27-100.752Z" transform="translate(-0.001 0.001)" fill="#fff"/>
    </clipPath>
    <clipPath id="clip-path-6">
      <rect id="Rectángulo_349020" data-name="Rectángulo 349020" width="146.251" height="146.245" fill="none"/>
    </clipPath>
  </defs>
  <g id="Grupo_1016742" data-name="Grupo 1016742" transform="translate(-180 -1018.563)">
    <path id="Trazado_637186" data-name="Trazado 637186" d="M21,0H1219c11.6,0,21,7.676,21,17.146v351.9c0,9.469-9.4,17.146-21,17.146H21c-11.6,0-21-7.676-21-17.146V17.146C0,7.676,9.4,0,21,0Z" transform="translate(180 1018.563)" fill="#fdfde3"/>
    <path id="Trazado_637528" data-name="Trazado 637528" d="M0,0H422V386H0Z" transform="translate(590 1018.752)" fill="#fff5b1"/>
    <path id="Trazado_637529" data-name="Trazado 637529" d="M387,386H0V0H387a21,21,0,0,1,21,21V365a21,21,0,0,1-21,21Z" transform="translate(1012 1018.752)" fill="#ffeb71"/>
    <g id="Grupo_1016661" data-name="Grupo 1016661" transform="translate(-5 398.946)">
      <g id="Grupo_161574" data-name="Grupo 161574" transform="translate(718 690.039)">
        <path id="Trazado_600880" data-name="Trazado 600880" d="M121.723,0l-96,25.723L0,121.722,70.276,192l96-25.723,25.725-96Z" transform="translate(-0.001 0.001)" fill="#fff"/>
        <path id="Trazado_601791" data-name="Trazado 601791" d="M0,1.56,2.779,0V52.828L.161,54.264Z" transform="matrix(0.259, 0.966, -0.966, 0.259, 80.826, 0)" fill="#2f8006"/>
        <path id="Trazado_637250" data-name="Trazado 637250" d="M0,1.56,2.779,0V52.828L.161,54.264Z" transform="matrix(0.259, 0.966, -0.966, 0.259, 167.826, 175.272)" fill="#2f8006"/>
      </g>
      <g id="Enmascarar_grupo_74" data-name="Enmascarar grupo 74" transform="translate(718 690.039)" clip-path="url(#clip-path)">
        <g id="Grupo_1016669" data-name="Grupo 1016669" transform="translate(38.982 20)">
          <g id="Grupo_1016668" data-name="Grupo 1016668" clip-path="url(#clip-path-2)">
            <path id="Trazado_637227" data-name="Trazado 637227" d="M90.746,114.036v-1.222c0-3.081-.006-6.162.007-9.243a4.817,4.817,0,0,1,.16-1.291,2.19,2.19,0,0,1,3.426-1.223c1.39,1.052,2.71,2.2,4.022,3.352q6.923,6.066,13.814,12.167c.734.65,1.6,1.233,1.768,2.319a6.019,6.019,0,0,1,.088.936q.006,25,0,50a2.592,2.592,0,0,1-2.9,2.93q-53.016,0-106.032,0a2.589,2.589,0,0,1-2.852-2.913q0-19.032,0-38.063V130.9c-.205-.072-.385-.133-.564-.2a2.245,2.245,0,0,1-1.416-3.256c.93-2,1.923-3.966,2.9-5.94.441-.89.942-1.75,1.368-2.646a3.053,3.053,0,0,1,2.367-2V82.787c0-2.285.893-3.185,3.165-3.185q6.223,0,12.445,0c2.064,0,3.023.962,3.023,3.033q0,16.63,0,33.26v.919h4.657V87.433c0-2.277.9-3.172,3.178-3.173q6.186,0,12.372,0c2.156,0,3.083.939,3.083,3.119q0,14.265,0,28.529v.91h4.657v-.8q0-6.223,0-12.445A4.838,4.838,0,0,1,53.6,102.5a2.2,2.2,0,0,1,3.591-1.355c1.713,1.35,3.356,2.791,4.994,4.231,3.225,2.833,6.426,5.693,9.638,8.539a1.274,1.274,0,0,0,.292.115v-.81c0-3.2,0-6.4,0-9.607a5.035,5.035,0,0,1,.121-1.151,2.194,2.194,0,0,1,3.554-1.337c1.715,1.347,3.358,2.787,5,4.227,3.243,2.847,6.463,5.722,9.694,8.584a1.362,1.362,0,0,0,.26.1m18.631,54.051V131.363c0-3.542.006-7.084-.013-10.626a1.19,1.19,0,0,0-.3-.806q-5.778-5.107-11.592-10.174c-.647-.567-1.291-1.136-2.067-1.819v.873c0,3.3.027,6.6-.024,9.9a3.484,3.484,0,0,1-.539,1.83c-.858,1.245-2.283,1.295-3.53.2Q84.7,114.929,78.1,109.1c-.4-.355-.81-.706-1.327-1.155v.913q0,4.986,0,9.971a2.494,2.494,0,0,1-1.478,2.464,2.271,2.271,0,0,1-2.651-.576q-6.16-5.446-12.338-10.872l-2.161-1.9v19.74c0,2.272-.9,3.162-3.182,3.162h-48V168.1h9.259c0-1.919-.013-3.757.006-5.595a18.241,18.241,0,0,1,.132-2.535,6.854,6.854,0,0,1,6.781-5.826,6.74,6.74,0,0,1,6.87,5.883c.256,2.377.137,4.793.185,7.192.005.28,0,.561,0,.848h4.657c0-1.919-.012-3.8.006-5.69a16.884,16.884,0,0,1,.129-2.39,6.906,6.906,0,0,1,13.663.109c.248,2.353.131,4.745.176,7.119.005.281,0,.562,0,.827h9.315V146.154c0-1.091-.016-2.184,0-3.275a2.547,2.547,0,0,1,2.678-2.719c.194-.007.388,0,.582,0h40.172c2.23,0,3.142.909,3.142,3.133v24.8ZM5.984,126.129H53.446v-4.6H9.184a2.459,2.459,0,0,0-.58.012.747.747,0,0,0-.461.262c-.724,1.414-1.423,2.842-2.159,4.329m56.849,41.924h37.193v-4.567H62.833Zm37.2-23.185H62.837v4.564H100.03Zm0,9.315H62.836v4.566h37.193ZM11.617,116.807H20.84V102.925H11.617Zm32.52-9.219H34.9v9.228h9.24ZM20.864,84.307H11.619v4.552h9.245Zm14.023,9.217h9.222V88.957H34.887Zm.02,9.309h9.221V98.266H34.907ZM11.6,98.182H20.82V93.616H11.6Zm13.939,69.89c0-1.293,0-2.5,0-3.712,0-1.113.039-2.229-.023-3.34a2.318,2.318,0,1,0-4.633.179q0,2.869,0,5.738v1.136Zm18.617,0c0-2.409,0-4.753,0-7.1a1.98,1.98,0,0,0-.075-.428,2.311,2.311,0,0,0-4.561.476c-.01,1.525,0,3.05,0,4.576v2.474Z" transform="translate(0 -33.097)" fill="#161615"/>
            <path id="Trazado_637228" data-name="Trazado 637228" d="M102.5,49.449c2.978-6.516,7.844-10.64,14.9-12,3.043-.587,6.113-1.033,9.18-1.484a2.316,2.316,0,0,1,2.811,2.437c.025,2.571-.006,5.142-.056,7.713-.039,2.011-.025,4.034-.237,6.03a19.5,19.5,0,0,1-16.978,17.474,53.6,53.6,0,0,1-13.054.411,18.5,18.5,0,0,1-15.349-10.86,19.858,19.858,0,0,1-1.84-10.9c.115-1.158.14-2.324.23-3.485.131-1.674.931-2.6,2.524-2.629a25.333,25.333,0,0,1,10.068,1.494,18.144,18.144,0,0,1,6.971,4.986c.207.237.421.469.639.7a.844.844,0,0,0,.2.112m20.829,6.722a5.75,5.75,0,0,0-.716.115c-2.6.754-5.2,1.5-7.789,2.3a2.687,2.687,0,0,0-1.2.853c-.838,1.032-1.586,2.137-2.393,3.2-.637.838-1.309,1.649-1.973,2.482,4.451,1.205,13.1-4.271,14.071-8.944M99.05,65.431,86.436,50.419A14.743,14.743,0,0,0,99.05,65.431M109.569,46.6a18.594,18.594,0,0,0-3.547,6.814c-.692,2.592.646,4.9.677,7.565,1.5-1.942,2.814-3.741,4.24-5.444a2.343,2.343,0,0,0,.469-2.815,8.433,8.433,0,0,1-.394-1.319c-.456-1.523-.916-3.045-1.445-4.8m5.718,3.187,6.35-8.255c-.2-.057-.293-.115-.373-.1a26.885,26.885,0,0,0-6.353,1.426c-1.514.648-1.533.626-1.062,2.214.452,1.522.924,3.04,1.437,4.717M102.029,61.705a14.547,14.547,0,0,0-3.089-9.3c-.162.368-.307.639-.4.926-.281.849-.585,1.7-.788,2.565a1.363,1.363,0,0,0,.2,1.029c1.191,1.5,2.436,2.953,3.667,4.419a4.278,4.278,0,0,0,.415.361M124.677,45.36l-.144-.086-5.524,7.105c.162.09.21.14.241.131,1.691-.49,3.383-.976,5.066-1.495a.634.634,0,0,0,.346-.473c.025-1.727.015-3.454.015-5.182M89.87,47.026l-.131.159,4.332,5.157c.345-1.081.671-2.08.973-3.086a.417.417,0,0,0-.16-.356,13.951,13.951,0,0,0-5.014-1.874" transform="translate(-33.993 -14.94)" fill="#161615"/>
            <path id="Trazado_637229" data-name="Trazado 637229" d="M63.574,35.159A35.239,35.239,0,0,1,74.935,9.214,33.472,33.472,0,0,1,93.841.365a33.657,33.657,0,0,1,28.19,8.746,33.959,33.959,0,0,1,11.007,20.776,33.964,33.964,0,0,1-6,25.089,34.092,34.092,0,0,1-14.857,11.987,4.684,4.684,0,0,1-1.595.439,2.231,2.231,0,0,1-2.08-1.646,2.137,2.137,0,0,1,.933-2.467A15.621,15.621,0,0,1,111,62.522c9.439-4.458,15.415-11.782,17.3-22.025A30.027,30.027,0,0,0,104.565,5.173,30.364,30.364,0,0,0,68.808,29.038a29.467,29.467,0,0,0,.4,13.479c.1.4.2.8.285,1.2a2.205,2.205,0,0,1-1.462,2.593,2.058,2.058,0,0,1-2.673-1.116,34.044,34.044,0,0,1-1.143-4.115,19.035,19.035,0,0,1-.418-2.58c-.117-1.205-.161-2.417-.218-3.341" transform="translate(-26.434 0)" fill="#161615"/>
            <path id="Trazado_637230" data-name="Trazado 637230" d="M11.3,188.526a.877.877,0,0,1-.876-.876V150.386a.876.876,0,0,1,.876-.876h48c1.81,0,2.306-.491,2.306-2.286v-19.74a.876.876,0,0,1,1.455-.657l5.473,4.82q4.517,3.975,9.027,7.957a1.825,1.825,0,0,0,1.15.574,1.308,1.308,0,0,0,.551-.137,1.627,1.627,0,0,0,.971-1.671q.008-3.645,0-7.287v-3.6a.877.877,0,0,1,1.452-.661l.507.44c.3.256.561.487.824.719L87,131.506q4.606,4.063,9.218,8.12a1.972,1.972,0,0,0,1.233.562,1.2,1.2,0,0,0,1-.6,2.613,2.613,0,0,0,.384-1.346c.038-2.44.032-4.925.027-7.328l0-3.43a.876.876,0,0,1,1.455-.657l2.065,1.817,2.185,1.913q4.712,4.125,9.411,8.264a2.047,2.047,0,0,1,.6,1.458c.016,2.848.015,5.7.014,8.543v38.813a.876.876,0,0,1-.876.876h-4.657a.876.876,0,0,1-.876-.876v-24.8c0-1.73-.529-2.257-2.265-2.257l-40.494,0c-.076,0-.152,0-.227,0a1.681,1.681,0,0,0-1.836,1.86c-.013.75-.01,1.5-.006,2.25l0,1.01V187.59a.876.876,0,0,1-.876.876H53.159a.876.876,0,0,1-.876-.876v-.26c0-.181,0-.366,0-.551-.013-.736-.012-1.474-.011-2.212a45.906,45.906,0,0,0-.161-4.831,5.945,5.945,0,0,0-6.028-5.166,6.016,6.016,0,0,0-5.9,5.1,15.486,15.486,0,0,0-.118,2.163v.1c-.012,1.341-.009,2.683-.008,4.037l0,1.645a.876.876,0,0,1-.876.876H34.528a.876.876,0,0,1-.876-.876v-.281c0-.184,0-.367,0-.549-.015-.744-.013-1.49-.012-2.235a45.437,45.437,0,0,0-.167-4.881,5.861,5.861,0,0,0-6.007-5.1,6,6,0,0,0-5.907,5.081,15.924,15.924,0,0,0-.121,2.213v.2c-.013,1.3-.011,2.6-.008,3.923l0,1.664a.877.877,0,0,1-.876.876Zm17.661-23.246H26.139v2.83h2.816Zm18.611-.006H44.752v2.816h2.815Z" transform="translate(-4.332 -52.642)" fill="#59bbcb"/>
            <path id="Trazado_637231" data-name="Trazado 637231" d="M99.113,126.86c.775.682,1.42,1.253,2.066,1.819q5.8,5.081,11.593,10.174a1.189,1.189,0,0,1,.3.806c.02,3.542.013,7.084.013,10.626q0,17.9,0,35.808v.917h-4.657v-24.8c0-2.224-.912-3.133-3.142-3.133H64.793c-.087,0-.174,0-.261,0a2.547,2.547,0,0,0-2.679,2.719c-.019,1.091,0,2.183,0,3.275v21.891H52.535c0-.265,0-.546,0-.827-.044-2.375.071-4.766-.176-7.119a6.837,6.837,0,0,0-6.9-5.951h-.031a6.857,6.857,0,0,0-6.736,5.843,16.883,16.883,0,0,0-.129,2.39c-.018,1.885-.006,3.77-.006,5.69H33.9c0-.286,0-.567,0-.848-.047-2.4.072-4.815-.185-7.191a6.739,6.739,0,0,0-6.87-5.883H26.79a6.855,6.855,0,0,0-6.722,5.827,18.228,18.228,0,0,0-.132,2.535c-.019,1.838-.006,3.676-.006,5.6H10.672V149.763h48c2.286,0,3.182-.89,3.182-3.162v-19.74l2.16,1.9q6.171,5.434,12.338,10.872a2.651,2.651,0,0,0,1.731.794,2.176,2.176,0,0,0,.921-.218,2.494,2.494,0,0,0,1.478-2.464q.011-4.986,0-9.971v-.914c.516.45.924.8,1.326,1.155q6.606,5.821,13.212,11.641a2.8,2.8,0,0,0,1.811.781,2.063,2.063,0,0,0,1.719-.98,3.479,3.479,0,0,0,.539-1.83c.051-3.3.025-6.6.025-9.9ZM43.252,168.344H47.82v-4.569H43.252Zm-18.613.019h4.569v-4.582H24.639Zm74.474-43.256a1.752,1.752,0,0,0-1.752,1.753v.873q0,1.272,0,2.545c0,2.4.011,4.889-.027,7.326a1.777,1.777,0,0,1-.23.862c-.1.147-.194.222-.275.222a1.168,1.168,0,0,1-.654-.345q-4.618-4.056-9.224-8.124L82.967,126.7c-.272-.24-.547-.478-.855-.746l-.48-.417a1.753,1.753,0,0,0-2.9,1.322V130.5q0,3.624,0,7.247c0,.616-.193.753-.464.879a.5.5,0,0,1-.182.055c-.017,0-.18-.01-.57-.355q-4.538-4.013-9.089-8.011L65.17,127.45,63.979,126.4l-.97-.855a1.753,1.753,0,0,0-2.911,1.315V146.6c0,1.3-.107,1.41-1.43,1.41h-48a1.753,1.753,0,0,0-1.753,1.753v37.264a1.753,1.753,0,0,0,1.753,1.753H19.93a1.753,1.753,0,0,0,1.753-1.753q0-.845,0-1.671c0-1.347-.005-2.618.008-3.907v-.2a15.332,15.332,0,0,1,.111-2.094,5.1,5.1,0,0,1,4.99-4.336h.043a5,5,0,0,1,5.143,4.318,43.962,43.962,0,0,1,.162,4.79c0,.734,0,1.493.012,2.247,0,.178,0,.355,0,.535v.278a1.753,1.753,0,0,0,1.753,1.753h4.657a1.753,1.753,0,0,0,1.753-1.753q0-.832,0-1.658c0-1.32,0-2.684.008-4.015v-.107a14.636,14.636,0,0,1,.109-2.034,5.154,5.154,0,0,1,10.187.027,44.691,44.691,0,0,1,.155,4.746c0,.726,0,1.477.011,2.223,0,.18,0,.359,0,.534v.26a1.753,1.753,0,0,0,1.753,1.753H61.85a1.753,1.753,0,0,0,1.753-1.753V165.076c0-.338,0-.677,0-1.014,0-.734-.007-1.493.006-2.229s.245-.972.993-1c.065,0,.13,0,.195,0h40.494c1.259,0,1.389.129,1.389,1.38v24.8a1.753,1.753,0,0,0,1.753,1.753h4.657a1.753,1.753,0,0,0,1.753-1.753v-38.9c0-2.771,0-5.637-.013-8.458a2.913,2.913,0,0,0-.892-2.11c-3.134-2.769-6.332-5.569-9.424-8.276l-2.174-1.9c-.433-.379-.865-.759-1.336-1.175l-.727-.641a1.75,1.75,0,0,0-1.158-.437M45,165.527h1.063v1.063H45Zm-18.613.006h1.064v1.077H26.391Z" transform="translate(-3.708 -52.019)" fill="#040405"/>
            <path id="Trazado_637232" data-name="Trazado 637232" d="M10.243,155.959c.736-1.487,1.434-2.915,2.159-4.329a.747.747,0,0,1,.461-.262,2.46,2.46,0,0,1,.58-.012H57.705v4.6Z" transform="translate(-4.259 -62.928)" fill="#fdfde3"/>
            <rect id="Rectángulo_349041" data-name="Rectángulo 349041" width="37.193" height="4.567" transform="translate(62.833 130.389)" fill="#fff"/>
            <rect id="Rectángulo_349042" data-name="Rectángulo 349042" width="37.193" height="4.564" transform="translate(62.837 111.771)" fill="#fff"/>
            <rect id="Rectángulo_349043" data-name="Rectángulo 349043" width="37.193" height="4.566" transform="translate(62.836 121.087)" fill="#fff"/>
            <rect id="Rectángulo_349044" data-name="Rectángulo 349044" width="9.223" height="13.881" transform="translate(11.617 69.828)" fill="#fff"/>
            <rect id="Rectángulo_349045" data-name="Rectángulo 349045" width="9.24" height="9.228" transform="translate(34.897 74.491)" fill="#fff"/>
            <rect id="Rectángulo_349046" data-name="Rectángulo 349046" width="9.245" height="4.552" transform="translate(11.619 51.21)" fill="#fff"/>
            <rect id="Rectángulo_349047" data-name="Rectángulo 349047" width="9.222" height="4.567" transform="translate(34.887 55.86)" fill="#fff"/>
            <rect id="Rectángulo_349048" data-name="Rectángulo 349048" width="9.221" height="4.567" transform="translate(34.907 65.169)" fill="#ffe126"/>
            <rect id="Rectángulo_349049" data-name="Rectángulo 349049" width="9.222" height="4.566" transform="translate(11.598 60.519)" fill="#ffe126"/>
            <path id="Trazado_637233" data-name="Trazado 637233" d="M40.4,224.417H35.741v-1.136q0-2.869,0-5.738a2.319,2.319,0,1,1,4.633-.179c.061,1.111.02,2.226.022,3.34,0,1.209,0,2.419,0,3.712" transform="translate(-14.86 -89.442)" fill="#fff"/>
            <path id="Trazado_637234" data-name="Trazado 637234" d="M72.273,224.42H67.631v-2.474c0-1.525-.008-3.05,0-4.576a2.311,2.311,0,0,1,4.561-.476,1.98,1.98,0,0,1,.075.428c0,2.344,0,4.689,0,7.1" transform="translate(-28.119 -89.443)" fill="#fff"/>
            <path id="Trazado_637235" data-name="Trazado 637235" d="M129.579,79.942a6.15,6.15,0,0,1-1.606-.2.876.876,0,0,1-.456-1.392l.626-.779c.452-.561.9-1.118,1.336-1.688.31-.408.613-.823.915-1.237.476-.655.969-1.332,1.494-1.98a3.566,3.566,0,0,1,1.62-1.137c2.132-.663,4.31-1.292,6.415-1.9l1.391-.4a3.7,3.7,0,0,1,.613-.111c.07-.008.141-.016.214-.028a.929.929,0,0,1,.133-.01.876.876,0,0,1,.858,1.054c-1.008,4.867-8.735,9.811-13.552,9.811" transform="translate(-52.941 -28.721)" fill="#7aad24"/>
            <path id="Trazado_637236" data-name="Trazado 637236" d="M141.65,69.329c-.876,4.228-8.04,9.113-12.694,9.113a5.261,5.261,0,0,1-1.376-.169c.664-.833,1.335-1.645,1.973-2.482.807-1.059,1.555-2.163,2.393-3.2a2.687,2.687,0,0,1,1.2-.853c2.585-.8,5.19-1.544,7.789-2.3a5.751,5.751,0,0,1,.716-.115m0-1.753a1.8,1.8,0,0,0-.268.02c-.062.01-.124.017-.184.024a4.554,4.554,0,0,0-.752.14l-1.41.408c-2.1.608-4.278,1.237-6.412,1.9a4.413,4.413,0,0,0-2.039,1.421c-.54.664-1.038,1.35-1.52,2.012-.3.411-.6.823-.907,1.227-.428.562-.867,1.106-1.333,1.683-.205.255-.411.511-.617.768a1.753,1.753,0,0,0,.912,2.785,7.041,7.041,0,0,0,1.835.23c5.228,0,13.309-5.2,14.411-10.51a1.753,1.753,0,0,0-1.716-2.108m0,3.505h0Z" transform="translate(-52.318 -28.098)" fill="#040405"/>
            <path id="Trazado_637237" data-name="Trazado 637237" d="M101.746,76a.881.881,0,0,1-.1-.006A15.647,15.647,0,0,1,88.256,60.062a.877.877,0,0,1,1.546-.519l12.614,15.012a.876.876,0,0,1-.671,1.44" transform="translate(-36.689 -24.628)" fill="#7aad24"/>
            <path id="Trazado_637238" data-name="Trazado 637238" d="M88.509,59.483l12.614,15.012A14.742,14.742,0,0,1,88.509,59.483m0-1.753a1.753,1.753,0,0,0-1.75,1.663,16.547,16.547,0,0,0,14.159,16.843,1.753,1.753,0,0,0,1.547-2.868L95.174,64.69,89.85,58.355a1.752,1.752,0,0,0-1.342-.625" transform="translate(-36.065 -24.004)" fill="#040405"/>
            <path id="Trazado_637239" data-name="Trazado 637239" d="M123.2,68.824a.877.877,0,0,1-.876-.866,14.256,14.256,0,0,0-.428-2.88,10.015,10.015,0,0,1-.219-4.923,19.418,19.418,0,0,1,3.7-7.129.877.877,0,0,1,.689-.335.845.845,0,0,1,.162.015.878.878,0,0,1,.677.608s1.115,3.7,1.445,4.8c.049.164.09.33.13.5a3.5,3.5,0,0,0,.21.685,3.216,3.216,0,0,1-.582,3.766c-.987,1.178-1.921,2.406-2.91,3.706-.425.558-.858,1.128-1.309,1.711a.876.876,0,0,1-.693.341" transform="translate(-50.499 -21.909)" fill="#7aad24"/>
            <path id="Trazado_637240" data-name="Trazado 637240" d="M125.451,52.945c.529,1.756.988,3.278,1.445,4.8a8.451,8.451,0,0,0,.393,1.319,2.342,2.342,0,0,1-.469,2.815c-1.425,1.7-2.738,3.5-4.24,5.444-.03-2.666-1.368-4.974-.676-7.566a18.586,18.586,0,0,1,3.547-6.813m0-1.753a1.753,1.753,0,0,0-1.378.67,20.257,20.257,0,0,0-3.863,7.444,10.862,10.862,0,0,0,.21,5.336,13.526,13.526,0,0,1,.407,2.7,1.753,1.753,0,0,0,3.14,1.052c.453-.586.889-1.158,1.316-1.72.982-1.291,1.909-2.509,2.882-3.671a4.067,4.067,0,0,0,.7-4.715,3.278,3.278,0,0,1-.144-.5c-.044-.183-.089-.367-.143-.546-.32-1.069-.642-2.138-.989-3.288l-.456-1.515a1.751,1.751,0,0,0-1.678-1.247" transform="translate(-49.876 -21.285)" fill="#040405"/>
            <path id="Trazado_637241" data-name="Trazado 637241" d="M137.323,53.951a.91.91,0,0,1-.158-.014.878.878,0,0,1-.681-.606l-.469-1.531c-.336-1.1-.658-2.144-.969-3.193-.59-1.985-.381-2.438,1.482-3.237l.074-.032a21.448,21.448,0,0,1,5.35-1.3c.4-.061.8-.122,1.2-.188a1.216,1.216,0,0,1,.167-.014,1.307,1.307,0,0,1,.46.095c.034.012.075.027.129.042a.877.877,0,0,1,.455,1.378l-6.351,8.255a.873.873,0,0,1-.693.342" transform="translate(-56.029 -18.228)" fill="#7aad24"/>
            <path id="Trazado_637242" data-name="Trazado 637242" d="M142.71,44.093a2.2,2.2,0,0,1,.349.1l-6.351,8.255c-.512-1.678-.984-3.2-1.437-4.718-.471-1.587-.452-1.565,1.062-2.214a26.911,26.911,0,0,1,6.353-1.425l.024,0m0-1.753a2.045,2.045,0,0,0-.31.026c-.4.065-.8.126-1.194.186a22.1,22.1,0,0,0-5.563,1.357l-.074.032c-2.265.97-2.69,1.892-1.978,4.292.311,1.049.633,2.1.969,3.193l.471,1.538a1.753,1.753,0,0,0,3.066.557l1.671-2.173,4.68-6.083a1.753,1.753,0,0,0-.91-2.755c-.03-.008-.053-.018-.073-.025a2.157,2.157,0,0,0-.755-.145" transform="translate(-55.415 -17.605)" fill="#040405"/>
            <path id="Trazado_637243" data-name="Trazado 637243" d="M112.771,73.683a.877.877,0,0,1-.571-.211c-.07-.06-.128-.107-.178-.148a2.262,2.262,0,0,1-.338-.315l-.759-.9c-.967-1.148-1.968-2.334-2.922-3.534a2.228,2.228,0,0,1-.363-1.774c.176-.751.42-1.479.656-2.183l.153-.457a5.989,5.989,0,0,1,.282-.677c.046-.1.1-.207.148-.325a.876.876,0,0,1,.705-.519.779.779,0,0,1,.1-.005.876.876,0,0,1,.705.356,15.487,15.487,0,0,1,3.26,9.84.876.876,0,0,1-.876.856" transform="translate(-44.735 -26.042)" fill="#7aad24"/>
            <path id="Trazado_637244" data-name="Trazado 637244" d="M109.06,62.883a14.549,14.549,0,0,1,3.089,9.3,4.37,4.37,0,0,1-.415-.361c-1.231-1.466-2.476-2.921-3.668-4.419a1.368,1.368,0,0,1-.2-1.029c.2-.869.508-1.715.788-2.565.095-.287.24-.558.4-.926m0-1.753a1.826,1.826,0,0,0-.195.011,1.754,1.754,0,0,0-1.411,1.038c-.048.109-.095.209-.138.3a6.977,6.977,0,0,0-.322.778l-.154.461c-.241.72-.491,1.465-.676,2.254a3.118,3.118,0,0,0,.53,2.519c.962,1.209,1.967,2.4,2.939,3.554l.759.9a3.083,3.083,0,0,0,.456.432c.044.036.1.078.158.131a1.753,1.753,0,0,0,2.895-1.287,16.331,16.331,0,0,0-3.43-10.381,1.754,1.754,0,0,0-1.411-.713" transform="translate(-44.112 -25.417)" fill="#040405"/>
            <path id="Trazado_637245" data-name="Trazado 637245" d="M145.133,59.413a.994.994,0,0,1-.558-.182c-.024-.015-.057-.036-.1-.061a.877.877,0,0,1-.266-1.3l5.524-7.1a.875.875,0,0,1,1.143-.213l.094.056a.968.968,0,0,1,.476.782v1.09c0,1.368,0,2.737-.017,4.1a1.486,1.486,0,0,1-.964,1.3c-1.507.464-3.044.91-4.53,1.34l-.549.159a.944.944,0,0,1-.252.036" transform="translate(-59.884 -20.966)" fill="#7aad24"/>
            <path id="Trazado_637246" data-name="Trazado 637246" d="M149.8,50.676l.145.086c0,1.727.01,3.456-.015,5.182a.634.634,0,0,1-.346.473c-1.682.519-3.374,1-5.065,1.495h-.008c-.032,0-.084-.049-.234-.132l5.524-7.105m0-1.753a1.752,1.752,0,0,0-1.385.677l-2.933,3.773-2.59,3.331a1.753,1.753,0,0,0,.532,2.608c.026.014.044.026.058.035a1.869,1.869,0,0,0,1.027.318,1.805,1.805,0,0,0,.5-.071l.573-.166c1.482-.429,3.014-.873,4.521-1.338a2.367,2.367,0,0,0,1.581-2.12c.02-1.366.018-2.747.017-4.082V50.762a1.752,1.752,0,0,0-.857-1.506l-.149-.088a1.744,1.744,0,0,0-.89-.244" transform="translate(-59.26 -20.342)" fill="#040405"/>
            <path id="Trazado_637247" data-name="Trazado 637247" d="M99.132,60.492a.876.876,0,0,1-.671-.313l-4.332-5.157a.876.876,0,0,1-.006-1.12l.13-.159a.879.879,0,0,1,.678-.32.922.922,0,0,1,.149.013,14.888,14.888,0,0,1,5.326,1.992,1.268,1.268,0,0,1,.539,1.352c-.234.779-.482,1.552-.741,2.363l-.237.739a.876.876,0,0,1-.665.594.887.887,0,0,1-.17.016" transform="translate(-39.053 -22.213)" fill="#7aad24"/>
            <path id="Trazado_637248" data-name="Trazado 637248" d="M94.306,53.676a13.95,13.95,0,0,1,5.015,1.874.415.415,0,0,1,.159.356c-.3,1.007-.627,2.005-.973,3.086l-4.332-5.157Zm0-1.753a1.752,1.752,0,0,0-1.352.638l-.131.159a1.754,1.754,0,0,0,.011,2.242l1.837,2.187,2.5,2.97a1.752,1.752,0,0,0,3.011-.594l.218-.682c.269-.837.522-1.628.764-2.436a2.128,2.128,0,0,0-.919-2.35A15.75,15.75,0,0,0,94.6,51.949a1.7,1.7,0,0,0-.3-.026" transform="translate(-38.429 -21.589)" fill="#040405"/>
            <rect id="Rectángulo_349050" data-name="Rectángulo 349050" width="4.569" height="4.582" transform="translate(20.93 111.762)" fill="#161615"/>
            <rect id="Rectángulo_349051" data-name="Rectángulo 349051" width="4.568" height="4.569" transform="translate(39.543 111.756)" fill="#161615"/>
          </g>
        </g>
      </g>
    </g>
    <g id="Grupo_1016663" data-name="Grupo 1016663" transform="translate(407 393.946)">
      <g id="Grupo_161574-2" data-name="Grupo 161574" transform="translate(718 690.039)">
        <path id="Trazado_600880-2" data-name="Trazado 600880" d="M121.723,0l-96,25.723L0,121.722,70.276,192l96-25.723,25.725-96Z" transform="translate(-0.001 0.001)" fill="#fff"/>
        <path id="Trazado_601791-2" data-name="Trazado 601791" d="M0,1.56,2.779,0V52.828L.161,54.264Z" transform="matrix(0.259, 0.966, -0.966, 0.259, 80.826, 0)" fill="#2f8006"/>
        <path id="Trazado_637251" data-name="Trazado 637251" d="M0,1.56,2.779,0V52.828L.161,54.264Z" transform="matrix(0.259, 0.966, -0.966, 0.259, 168.826, 175.272)" fill="#2f8006"/>
      </g>
      <g id="Enmascarar_grupo_74-2" data-name="Enmascarar grupo 74" transform="translate(718 690.039)" clip-path="url(#clip-path)">
        <g id="Grupo_1016667" data-name="Grupo 1016667" transform="translate(34.296 27.527)">
          <g id="Grupo_1016666" data-name="Grupo 1016666" clip-path="url(#clip-path-4)">
            <path id="Trazado_637211" data-name="Trazado 637211" d="M87.608,123.417h35.776V79.643h-15.92V67.685H95.582V59.93a22.1,22.1,0,0,0,3.234-.8,5.8,5.8,0,0,0,3.324-3.808,2.083,2.083,0,0,1,3.2-1.387c.132.061.258.133.39.193a5.672,5.672,0,0,0,6.45-.827,58.517,58.517,0,0,0,4.966-4.967,4.972,4.972,0,0,0,1.16-4.472,13.789,13.789,0,0,0-.815-2.332,2.1,2.1,0,0,1,1.3-3c.272-.1.547-.194.813-.308a5.531,5.531,0,0,0,3.661-4.711,60.5,60.5,0,0,0,.1-6.769,5.611,5.611,0,0,0-1.605-3.751,6.625,6.625,0,0,0-2.832-1.727,2.106,2.106,0,0,1-1.366-3.19c.158-.338.326-.672.456-1.021a5.349,5.349,0,0,0-.875-5.667,62.332,62.332,0,0,0-4.959-4.974,5.276,5.276,0,0,0-4.746-1.283,13.237,13.237,0,0,0-2.267.817A2.143,2.143,0,0,1,102.2,4.639c-.057-.155-.1-.314-.161-.47A5.609,5.609,0,0,0,97.089.131,58.947,58.947,0,0,0,90.381.06,5.23,5.23,0,0,0,86,2.406a10.355,10.355,0,0,0-1.044,2.1A2.15,2.15,0,0,1,81.8,5.87c-.265-.118-.522-.254-.791-.362A5.567,5.567,0,0,0,74.9,6.4a65.331,65.331,0,0,0-4.835,4.839A5.242,5.242,0,0,0,68.794,16.1a14.25,14.25,0,0,0,.89,2.306c.421,1.019.127,1.509-.924,1.509q-28.96,0-57.92.013a15.561,15.561,0,0,0-3.333.318A9.8,9.8,0,0,0,.154,31.409a10.04,10.04,0,0,0,4.058,6.6,10.371,10.371,0,0,0,6.275,1.814q29.146-.007,58.293,0a2.87,2.87,0,0,0,.435,0c.49-.077.68.2.6.606a7.757,7.757,0,0,1-.507,1.7,5.528,5.528,0,0,0,.746,6.284,64.335,64.335,0,0,0,4.876,4.971,4.946,4.946,0,0,0,4.44,1.26,13.484,13.484,0,0,0,2.518-.832,2.149,2.149,0,0,1,3.006,1.3c.1.273.184.551.3.816a5.814,5.814,0,0,0,4.76,3.71c.525.072,1.055.105,1.573.156v7.925H15.877V79.673H.021v43.738h35.76V79.633H19.918V71.724h39.74v7.944H43.818v43.745H79.582V79.638H63.737V71.722H103.46v7.942H87.608Z" transform="translate(0 0)" fill="#fff"/>
            <path id="Trazado_637212" data-name="Trazado 637212" d="M87.608,123.417V79.664H103.46V71.722H63.737v7.916H79.582v43.776H43.818V79.669h15.84V71.724H19.918v7.909H35.781v43.778H.021V79.673H15.878V67.716H91.526V59.791c-.519-.05-1.049-.084-1.574-.156a5.814,5.814,0,0,1-4.76-3.71c-.116-.265-.2-.543-.3-.816a2.149,2.149,0,0,0-3.006-1.3,13.484,13.484,0,0,1-2.518.832,4.946,4.946,0,0,1-4.44-1.26,64.425,64.425,0,0,1-4.876-4.971,5.528,5.528,0,0,1-.746-6.284,7.73,7.73,0,0,0,.507-1.7c.081-.4-.109-.683-.6-.606a2.869,2.869,0,0,1-.435,0q-29.146,0-58.293,0a10.371,10.371,0,0,1-6.275-1.814,10.042,10.042,0,0,1-4.058-6.6A9.8,9.8,0,0,1,7.507,20.242a15.558,15.558,0,0,1,3.333-.318Q39.8,19.9,68.76,19.91c1.051,0,1.346-.49.924-1.509a14.25,14.25,0,0,1-.89-2.306,5.243,5.243,0,0,1,1.268-4.858A65.428,65.428,0,0,1,74.9,6.4a5.568,5.568,0,0,1,6.111-.889c.269.108.526.244.791.362A2.15,2.15,0,0,0,84.957,4.5,10.355,10.355,0,0,1,86,2.406,5.23,5.23,0,0,1,90.381.06a58.947,58.947,0,0,1,6.708.071,5.609,5.609,0,0,1,4.954,4.038c.057.155.1.314.161.47a2.143,2.143,0,0,0,2.967,1.306,13.252,13.252,0,0,1,2.267-.817,5.278,5.278,0,0,1,4.746,1.283,62.324,62.324,0,0,1,4.958,4.974,5.349,5.349,0,0,1,.875,5.667c-.13.348-.3.683-.456,1.021a2.106,2.106,0,0,0,1.366,3.19,6.622,6.622,0,0,1,2.832,1.727,5.611,5.611,0,0,1,1.605,3.751,60.5,60.5,0,0,1-.1,6.769,5.531,5.531,0,0,1-3.661,4.711c-.267.114-.541.208-.813.308a2.1,2.1,0,0,0-1.295,3,13.83,13.83,0,0,1,.814,2.332,4.972,4.972,0,0,1-1.16,4.472,58.517,58.517,0,0,1-4.966,4.967,5.671,5.671,0,0,1-6.45.827c-.132-.06-.258-.132-.39-.193a2.083,2.083,0,0,0-3.2,1.387,5.8,5.8,0,0,1-3.324,3.808,22.109,22.109,0,0,1-3.233.8v7.755h11.881V79.643h15.92v43.773Zm-83.6-3.989H31.8V83.662H4.006Zm69.68-79.6a7.041,7.041,0,0,1-.835,3.967A1.971,1.971,0,0,0,73.22,46.2c1.338,1.359,2.683,2.711,4.048,4.042a2.007,2.007,0,0,0,2.361.359c.266-.114.519-.26.784-.376a5.644,5.644,0,0,1,5.983.62,6.472,6.472,0,0,1,2.3,3.384,1.945,1.945,0,0,0,2.071,1.526c1.555.01,3.111-.045,4.665.009,2.238.079,2.595-.4,3.236-2.189a5.756,5.756,0,0,1,5.777-3.875,9.736,9.736,0,0,1,2.774.8,2.235,2.235,0,0,0,2.6-.235c1.372-1.325,2.714-2.681,4.052-4.039a2.033,2.033,0,0,0,.364-2.466c-.121-.263-.254-.522-.363-.789a5.857,5.857,0,0,1,.714-6A6.075,6.075,0,0,1,117.7,34.8c1.427-.48,1.735-.95,1.735-2.473v-4.79c0-1.688-.269-2.074-1.855-2.641a6.043,6.043,0,0,1-3.465-8.644,2.108,2.108,0,0,0-.426-2.925c-1.242-1.279-2.518-2.526-3.788-3.777a2.053,2.053,0,0,0-2.461-.386,11.4,11.4,0,0,1-1.789.693,5.406,5.406,0,0,1-4.917-.964A6.533,6.533,0,0,1,98.5,5.757c-.484-1.454-.952-1.776-2.5-1.776q-2.613,0-5.225,0A1.973,1.973,0,0,0,88.7,5.434,11.648,11.648,0,0,1,88,7.086a5.917,5.917,0,0,1-7.877,2.306c-1.522-.8-2.1-.677-3.325.515q-1.69,1.652-3.333,3.353A2.164,2.164,0,0,0,73,16.281a6.413,6.413,0,0,1,.7,3.118,4.637,4.637,0,0,0,.035.511c1.621,0,3.2.011,4.77-.015.176,0,.378-.19.517-.338a34.269,34.269,0,0,1,3.348-3.575,17.315,17.315,0,0,1,13.717-3.8A17.815,17.815,0,0,1,111.42,28.936a16.668,16.668,0,0,1-4.238,12.45c-4.373,4.927-9.858,7.123-16.419,6.115a17.127,17.127,0,0,1-11.711-7.277c-.118-.166-.323-.378-.492-.381-1.593-.029-3.186-.017-4.874-.017m-25.9,79.606H75.582V83.668H47.788Zm71.6-35.749h-27.8v35.765h27.8Zm-35.613-43.9A13.954,13.954,0,1,0,97.091,16.335c-4.725-1.181-11.331.583-13.086,3.422a19.529,19.529,0,0,1,2.905.581c3.175,1.132,6.32,2.351,9.472,3.549a46.678,46.678,0,0,1,4.549,1.811,4.655,4.655,0,0,1,1.4,7.215,5.638,5.638,0,0,1-2.512,1.657c-3.217,1.2-6.415,2.458-9.654,3.6-2.027.713-3.927,1.946-6.395,1.618m-.207-15.848H27.883v3.9H83.568ZM27.882,35.8H83.545V31.89H27.882Zm-12.018.034V23.894c-1.945,0-3.851.076-5.75-.016a6.175,6.175,0,0,0-6.179,6.233c.142,2.771,2.6,5.582,5.363,5.7,2.169.1,4.345.019,6.566.019M87.6,35.008c1.742-.654,3.4-1.279,5.064-1.9,1.994-.748,3.994-1.483,5.981-2.249.4-.153.863-.251.894-.88.033-.682-.376-.909-.879-1.1Q93.492,26.938,88.321,25c-.224-.083-.453-.153-.721-.244ZM23.839,23.936h-3.9V35.81h3.9Z" transform="translate(0 0)" fill="#161615"/>
            <path id="Trazado_637213" data-name="Trazado 637213" d="M8.026,167.622H35.82v35.765H8.026Zm23.819,27.894H19.977v3.906H31.845ZM19.955,183.482H31.823v-3.909H19.955Zm11.887-11.864H19.975v3.91H31.843Zm-11.9,19.834H31.827v-3.9H19.938Zm-4.02-11.878H12v3.907h3.917Zm-3.926,11.881h3.913v-3.9H11.992Zm3.924-19.844H12v3.9h3.912Zm-3.909,27.8h3.906V195.5H12.006Z" transform="translate(-4.02 -83.96)" fill="#fff"/>
            <path id="Trazado_637214" data-name="Trazado 637214" d="M167.96,59.766c-.143,0-.293,0-.454-.008-.526-.018-1.053-.024-1.579-.024-.44,0-.879,0-1.32.008s-.888.008-1.333.008h-.413a2.7,2.7,0,0,1-2.78-2.049,5.72,5.72,0,0,0-2.033-3.008,4.87,4.87,0,0,0-2.964-1.051,5.731,5.731,0,0,0-2.275.516c-.118.051-.233.109-.348.168-.145.073-.29.145-.439.209a3.273,3.273,0,0,1-1.293.286,2.669,2.669,0,0,1-1.887-.8c-1.2-1.171-2.453-2.421-4.059-4.054a2.723,2.723,0,0,1-.507-3.26,6.289,6.289,0,0,0,.763-3.558.749.749,0,0,1,.744-.83l2.213,0c.9,0,1.789,0,2.675.02a1.486,1.486,0,0,1,1.087.694,16.4,16.4,0,0,0,11.215,6.972,19.422,19.422,0,0,0,2.936.231c4.905,0,9.215-2.053,12.809-6.1a15.83,15.83,0,0,0,4.051-11.906,17.078,17.078,0,0,0-14.691-16.063,18.576,18.576,0,0,0-2.577-.185,16.034,16.034,0,0,0-12.746,6.092c-.35.41-.712.835-1.09,1.24a1.541,1.541,0,0,1-1.051.576c-.86.014-1.718.017-2.585.017l-2.2,0a.748.748,0,0,1-.747-.693l-.015-.161a2.978,2.978,0,0,1-.022-.439,5.658,5.658,0,0,0-.626-2.759,2.883,2.883,0,0,1,.6-3.866c1.05-1.091,2.176-2.225,3.349-3.37a3.316,3.316,0,0,1,2.312-1.236,4.024,4.024,0,0,1,1.883.593,5.1,5.1,0,0,0,2.382.607,5.314,5.314,0,0,0,4.5-2.618,9.477,9.477,0,0,0,.578-1.347l.075-.2a2.711,2.711,0,0,1,2.764-1.939h5.227c1.881,0,2.632.535,3.215,2.288a5.8,5.8,0,0,0,1.987,2.786,4.426,4.426,0,0,0,2.84,1.011,6,6,0,0,0,1.433-.186,8.435,8.435,0,0,0,1.366-.519l.3-.134a3.35,3.35,0,0,1,1.336-.3,2.717,2.717,0,0,1,1.949.841l.394.388c1.124,1.105,2.286,2.248,3.406,3.4a2.832,2.832,0,0,1,.558,3.782,5.3,5.3,0,0,0,3.048,7.6c1.89.675,2.351,1.332,2.351,3.346v4.791c0,1.861-.526,2.6-2.245,3.182a5.328,5.328,0,0,0-2.738,1.9,5.1,5.1,0,0,0-.627,5.275c.067.163.143.322.219.481l.132.279a2.786,2.786,0,0,1-.512,3.3c-1.353,1.373-2.682,2.717-4.065,4.052a2.536,2.536,0,0,1-1.81.747,4.344,4.344,0,0,1-1.584-.352l-.2-.079a8.368,8.368,0,0,0-2.349-.668c-.106-.007-.212-.01-.317-.01a4.991,4.991,0,0,0-4.707,3.39c-.657,1.831-1.217,2.693-3.513,2.693" transform="translate(-72.099 -3.244)" fill="#85ce5f"/>
            <path id="Trazado_637215" data-name="Trazado 637215" d="M164.211,6.471h3.132c1.552,0,2.021.321,2.5,1.776a6.533,6.533,0,0,0,2.233,3.137,5.185,5.185,0,0,0,3.3,1.172A6.724,6.724,0,0,0,177,12.349a11.377,11.377,0,0,0,1.789-.693,2.6,2.6,0,0,1,1.037-.24,1.983,1.983,0,0,1,1.423.626c1.271,1.25,2.546,2.5,3.788,3.776a2.109,2.109,0,0,1,.426,2.925,6.043,6.043,0,0,0,3.465,8.644c1.586.566,1.854.952,1.855,2.64v4.791c0,1.523-.307,1.993-1.735,2.473a6.072,6.072,0,0,0-3.106,2.171,5.856,5.856,0,0,0-.714,6c.109.268.243.526.363.79a2.032,2.032,0,0,1-.364,2.466c-1.338,1.358-2.68,2.714-4.052,4.039a1.781,1.781,0,0,1-1.29.537,3.732,3.732,0,0,1-1.314-.3,9.731,9.731,0,0,0-2.774-.8c-.122-.008-.245-.011-.366-.011a5.766,5.766,0,0,0-5.411,3.886c-.6,1.666-.948,2.2-2.808,2.2-.135,0-.277,0-.428-.008-.534-.018-1.069-.024-1.6-.024-.885,0-1.77.016-2.655.016h-.406a1.945,1.945,0,0,1-2.07-1.526,6.476,6.476,0,0,0-2.3-3.384,5.636,5.636,0,0,0-3.409-1.2,6.436,6.436,0,0,0-2.573.578c-.266.116-.518.261-.784.376a2.539,2.539,0,0,1-1,.225,1.9,1.9,0,0,1-1.364-.584q-2.048-2-4.048-4.043a1.97,1.97,0,0,1-.368-2.406,7.046,7.046,0,0,0,.835-3.967l2.216,0c.9,0,1.778,0,2.659.019.168,0,.374.216.492.381a17.124,17.124,0,0,0,11.711,7.277,20.107,20.107,0,0,0,3.051.24c5.228,0,9.691-2.212,13.368-6.355a16.667,16.667,0,0,0,4.238-12.45A17.816,17.816,0,0,0,167.437,14.67a19.2,19.2,0,0,0-2.681-.192,17.284,17.284,0,0,0-11.035,3.994,34.27,34.27,0,0,0-3.348,3.575c-.139.149-.341.335-.517.338-.858.014-1.716.017-2.582.017l-2.187,0a4.647,4.647,0,0,1-.035-.511,6.413,6.413,0,0,0-.7-3.118,2.164,2.164,0,0,1,.468-3.021q1.639-1.7,3.333-3.353c.709-.692,1.2-1.023,1.789-1.023a3.459,3.459,0,0,1,1.536.508,5.84,5.84,0,0,0,2.73.693,6.074,6.074,0,0,0,5.147-3,11.532,11.532,0,0,0,.7-1.653,1.973,1.973,0,0,1,2.065-1.452h2.093m0-1.5h-2.1A3.472,3.472,0,0,0,158.651,7.4l-.074.2a8.849,8.849,0,0,1-.53,1.243A4.607,4.607,0,0,1,154.2,11.08a4.359,4.359,0,0,1-2.035-.522,4.9,4.9,0,0,0-2.231-.679,4.066,4.066,0,0,0-2.835,1.448c-1.178,1.151-2.311,2.291-3.366,3.386A3.617,3.617,0,0,0,143,19.426a4.937,4.937,0,0,1,.552,2.4,3.6,3.6,0,0,0,.025.547c0,.044.009.091.013.14a1.5,1.5,0,0,0,1.493,1.386h2.187c.718,0,1.664,0,2.607-.018a2.283,2.283,0,0,0,1.587-.814c.389-.417.757-.848,1.113-1.266a16.152,16.152,0,0,1,2.076-2.162,15.855,15.855,0,0,1,10.1-3.666,17.772,17.772,0,0,1,2.473.177,16.336,16.336,0,0,1,14.048,15.37,15.1,15.1,0,0,1-3.863,11.361,15.961,15.961,0,0,1-12.248,5.852,18.707,18.707,0,0,1-2.824-.222,15.68,15.68,0,0,1-10.719-6.666,2.2,2.2,0,0,0-1.684-1.009c-.961-.017-1.9-.02-2.686-.02h-2.216a1.5,1.5,0,0,0-1.489,1.66,5.511,5.511,0,0,1-.691,3.147,3.479,3.479,0,0,0,.646,4.114c1.614,1.64,2.869,2.893,4.07,4.064a3.4,3.4,0,0,0,2.409,1.009,4.023,4.023,0,0,0,1.589-.347c.163-.07.322-.149.481-.229.1-.051.2-.1.309-.149a4.983,4.983,0,0,1,1.976-.454,4.148,4.148,0,0,1,2.519.9,5,5,0,0,1,1.765,2.632,3.422,3.422,0,0,0,3.489,2.571h.415c.447,0,.894,0,1.341-.008s.876-.008,1.314-.008c.6,0,1.091.007,1.551.023.17.006.33.009.481.009,2.852,0,3.547-1.322,4.217-3.189a4.248,4.248,0,0,1,4-2.894c.09,0,.18,0,.271.008a7.875,7.875,0,0,1,2.125.619l.2.079a5.157,5.157,0,0,0,1.854.4,3.258,3.258,0,0,0,2.329-.957c1.394-1.346,2.78-2.746,4.079-4.065a3.534,3.534,0,0,0,.658-4.14c-.045-.1-.091-.2-.138-.292-.069-.146-.14-.29-.2-.439a4.353,4.353,0,0,1,.54-4.552,4.61,4.61,0,0,1,2.37-1.631c2.035-.683,2.756-1.7,2.756-3.892V30.028c0-2.324-.666-3.271-2.849-4.05a4.549,4.549,0,0,1-2.629-6.564,3.543,3.543,0,0,0-.69-4.639c-1.122-1.155-2.283-2.3-3.407-3.4l-.405-.4a3.484,3.484,0,0,0-2.474-1.056,4.1,4.1,0,0,0-1.637.365l-.3.135a7.963,7.963,0,0,1-1.244.478,5.274,5.274,0,0,1-1.254.164,3.708,3.708,0,0,1-2.376-.849,5.009,5.009,0,0,1-1.741-2.435c-.687-2.068-1.714-2.8-3.926-2.8h-3.132Z" transform="translate(-71.35 -2.491)" fill="#040405"/>
            <path id="Trazado_637216" data-name="Trazado 637216" d="M95.746,167.634H123.54V203.4H95.746Zm23.834,19.922H99.749V199.43H119.58Zm-11.874-12.038h11.87V171.61h-11.87Zm-.015,7.969h11.867V179.58H107.691Zm-4.038-3.9H99.74v3.9h3.912Zm0-7.958H99.748v3.909h3.905Z" transform="translate(-47.958 -83.966)" fill="#fff"/>
            <path id="Trazado_637217" data-name="Trazado 637217" d="M211.306,203.429h-27.8V167.664h27.8Zm-23.8-4h19.831V187.555H187.5Zm0-23.9h19.829v-3.908H187.5Zm-.021,7.968h19.852v-3.9H187.483Z" transform="translate(-91.918 -83.981)" fill="#fff"/>
            <path id="Trazado_637218" data-name="Trazado 637218" d="M167.847,55.807c2.468.328,4.368-.905,6.395-1.618,3.239-1.139,6.438-2.394,9.654-3.6a5.636,5.636,0,0,0,2.512-1.657,4.654,4.654,0,0,0-1.4-7.215,46.682,46.682,0,0,0-4.549-1.811c-3.151-1.2-6.3-2.417-9.472-3.549a19.526,19.526,0,0,0-2.9-.582c1.755-2.839,8.361-4.6,13.086-3.422a13.989,13.989,0,0,1,10.384,12.486,13.814,13.814,0,0,1-9.225,14.2,13.953,13.953,0,0,1-14.474-3.23" transform="translate(-84.072 -16.021)" fill="#fff"/>
            <rect id="Rectángulo_349021" data-name="Rectángulo 349021" width="57.182" height="5.401" rx="1.5" transform="translate(27.134 23.19)" fill="#f4df36"/>
            <path id="Trazado_637219" data-name="Trazado 637219" d="M110.046,50.363H54.361v-3.9h55.685Zm0-5.4H54.361a1.5,1.5,0,0,0-1.5,1.5v3.9a1.5,1.5,0,0,0,1.5,1.5h55.685a1.5,1.5,0,0,0,1.5-1.5v-3.9a1.5,1.5,0,0,0-1.5-1.5" transform="translate(-26.479 -22.521)" fill="#040405"/>
            <rect id="Rectángulo_349022" data-name="Rectángulo 349022" width="57.161" height="5.406" rx="1.5" transform="translate(27.134 31.142)" fill="#f4df36"/>
            <path id="Trazado_637220" data-name="Trazado 637220" d="M110.023,66.3H54.36V62.391h55.663Zm0-5.406H54.36a1.5,1.5,0,0,0-1.5,1.5V66.3a1.5,1.5,0,0,0,1.5,1.5h55.663a1.5,1.5,0,0,0,1.5-1.5V62.391a1.5,1.5,0,0,0-1.5-1.5" transform="translate(-26.478 -30.501)" fill="#040405"/>
            <path id="Trazado_637221" data-name="Trazado 637221" d="M19.807,59.79c-2.221,0-4.4.076-6.566-.019-2.763-.122-5.221-2.933-5.363-5.7a6.175,6.175,0,0,1,6.179-6.233c1.9.093,3.805.016,5.75.016Z" transform="translate(-3.943 -23.956)" fill="#bb0d19"/>
            <path id="Trazado_637222" data-name="Trazado 637222" d="M175.512,59.857V49.609c.268.09.5.16.721.244q5.17,1.936,10.34,3.876c.5.189.912.416.879,1.1-.031.629-.5.727-.894.88-1.987.766-3.986,1.5-5.981,2.249-1.661.622-3.322,1.247-5.064,1.9" transform="translate(-87.912 -24.848)" fill="#fff"/>
            <rect id="Rectángulo_349023" data-name="Rectángulo 349023" width="3.905" height="11.874" transform="translate(19.935 23.936)" fill="#fff"/>
            <rect id="Rectángulo_349024" data-name="Rectángulo 349024" width="11.867" height="3.906" transform="translate(15.957 111.557)" fill="#161615"/>
            <rect id="Rectángulo_349025" data-name="Rectángulo 349025" width="11.867" height="3.909" transform="translate(15.935 95.613)" fill="#161615"/>
            <rect id="Rectángulo_349026" data-name="Rectángulo 349026" width="11.867" height="3.91" transform="translate(15.955 87.659)" fill="#161615"/>
            <rect id="Rectángulo_349027" data-name="Rectángulo 349027" width="11.889" height="3.896" transform="translate(15.918 103.597)" fill="#161615"/>
            <rect id="Rectángulo_349028" data-name="Rectángulo 349028" width="3.917" height="3.907" transform="translate(7.98 95.615)" fill="#161615"/>
            <rect id="Rectángulo_349029" data-name="Rectángulo 349029" width="3.913" height="3.903" transform="translate(7.972 103.593)" fill="#161615"/>
            <rect id="Rectángulo_349030" data-name="Rectángulo 349030" width="3.912" height="3.902" transform="translate(7.983 87.652)" fill="#161615"/>
            <rect id="Rectángulo_349031" data-name="Rectángulo 349031" width="3.906" height="3.906" transform="translate(7.986 111.541)" fill="#161615"/>
            <path id="Trazado_637223" data-name="Trazado 637223" d="M123.6,219.422H103.766V207.548H123.6Zm-15.871-4h11.887v-3.9H107.726Z" transform="translate(-51.975 -103.958)" fill="#161615"/>
            <rect id="Rectángulo_349032" data-name="Rectángulo 349032" width="11.87" height="3.908" transform="translate(59.748 87.645)" fill="#161615"/>
            <rect id="Rectángulo_349033" data-name="Rectángulo 349033" width="11.867" height="3.907" transform="translate(59.733 95.615)" fill="#161615"/>
            <rect id="Rectángulo_349034" data-name="Rectángulo 349034" width="3.912" height="3.902" transform="translate(51.783 95.617)" fill="#161615"/>
            <rect id="Rectángulo_349035" data-name="Rectángulo 349035" width="3.905" height="3.909" transform="translate(51.79 87.659)" fill="#161615"/>
            <path id="Trazado_637224" data-name="Trazado 637224" d="M191.511,207.517h19.831v11.872H191.511Zm15.854,4H195.5v3.9h11.865Z" transform="translate(-95.925 -103.942)" fill="#161615"/>
            <rect id="Rectángulo_349036" data-name="Rectángulo 349036" width="19.829" height="3.908" transform="translate(95.587 87.642)" fill="#161615"/>
            <rect id="Rectángulo_349037" data-name="Rectángulo 349037" width="19.852" height="3.9" transform="translate(95.566 95.618)" fill="#161615"/>
            <rect id="Rectángulo_349038" data-name="Rectángulo 349038" width="13.384" height="5.4" rx="1.5" transform="translate(55.003 106.816)" fill="#59bbcb"/>
            <path id="Trazado_637225" data-name="Trazado 637225" d="M122.086,217.911H110.2v-3.9h11.887Zm0-5.4H110.2a1.5,1.5,0,0,0-1.5,1.5v3.9a1.5,1.5,0,0,0,1.5,1.5h11.887a1.5,1.5,0,0,0,1.5-1.5v-3.9a1.5,1.5,0,0,0-1.5-1.5" transform="translate(-54.447 -106.444)" fill="#040405"/>
            <rect id="Rectángulo_349039" data-name="Rectángulo 349039" width="13.362" height="5.402" rx="1.5" transform="translate(98.826 106.826)" fill="#59bbcb"/>
            <path id="Trazado_637226" data-name="Trazado 637226" d="M209.865,217.934H198v-3.9h11.865Zm0-5.4H198a1.5,1.5,0,0,0-1.5,1.5v3.9a1.5,1.5,0,0,0,1.5,1.5h11.865a1.5,1.5,0,0,0,1.5-1.5v-3.9a1.5,1.5,0,0,0-1.5-1.5" transform="translate(-98.426 -106.454)" fill="#040405"/>
          </g>
        </g>
      </g>
    </g>
    <g id="Grupo_1016662" data-name="Grupo 1016662" transform="translate(-433 393.946)">
      <g id="Grupo_161574-3" data-name="Grupo 161574" transform="translate(718 690.039)">
        <path id="Trazado_600880-3" data-name="Trazado 600880" d="M127.746,0,27,27,0,127.745,73.754,201.5l100.75-27,27-100.752Z" transform="translate(-0.001 0.001)" fill="#fff"/>
        <path id="Trazado_601791-3" data-name="Trazado 601791" d="M0,1.637,2.917,0V55.442L.169,56.949Z" transform="matrix(0.259, 0.966, -0.966, 0.259, 84.826, 0)" fill="#60cb28"/>
        <path id="Trazado_637249" data-name="Trazado 637249" d="M0,1.637,2.917,0V55.442L.169,56.949Z" transform="matrix(0.259, 0.966, -0.966, 0.259, 173.826, 183.944)" fill="#60cb28"/>
      </g>
      <g id="Enmascarar_grupo_74-3" data-name="Enmascarar grupo 74" transform="translate(718 690.039)" clip-path="url(#clip-path-5)">
        <g id="Grupo_1016665" data-name="Grupo 1016665" transform="translate(27.624 27.628)">
          <g id="Grupo_1016664" data-name="Grupo 1016664" clip-path="url(#clip-path-6)">
            <path id="Trazado_637187" data-name="Trazado 637187" d="M99.107,103.792H75.49v.873c0,5.825.007,11.651-.011,17.477,0,.591.1.87.767,1.046a11.726,11.726,0,1,1-14.76,12.647,11.45,11.45,0,0,1,8.607-12.7l.651-.182V103.833H47.194V88.655c-1.117.561-2.112,1.062-3.108,1.561C40.311,92.1,36.54,94,32.754,95.868c-.494.243-.608.463-.445,1,2.8,9.3-3.591,19.275-13.2,20.825a16.447,16.447,0,1,1-5.25-32.472,15.919,15.919,0,0,1,15.7,6.194c.344.432.586.579,1.138.3q7.867-3.938,15.772-7.8a1.089,1.089,0,0,0,.707-1.172q-.026-9.586.007-19.173a1.173,1.173,0,0,0-.8-1.243Q34.649,56.494,22.944,50.6c-.592-.3-1.229-.857-1.778-.786-.524.068-.952.813-1.439,1.242A11.425,11.425,0,0,1,8.074,53.613c-4.268-1.381-6.8-4.523-7.8-8.861A11.652,11.652,0,0,1,8.865,31.035a11.7,11.7,0,0,1,14.142,7.95,10.1,10.1,0,0,1,.283,5.732.816.816,0,0,0,.527,1.128q10.52,5.219,21.017,10.483c.742.371,1.469.77,2.3,1.2V42.469h23.6V32.776A16.573,16.573,0,0,1,56.7,15.132,16.479,16.479,0,1,1,75.528,32.761v9.645H99.06V57.577l1.714-.858c7.193-3.615,14.378-7.244,21.59-10.82.679-.337.725-.654.586-1.291a11.772,11.772,0,0,1,19.361-11,12.156,12.156,0,0,1,2.454,14.627c-3.184,5.977-12.9,8.8-19,2.011-.178-.2-.364-.389-.536-.571-5.57,2.8-11.086,5.586-16.615,8.348q-4.446,2.221-8.931,4.364a.936.936,0,0,0-.6,1.011c.015,6.317.027,12.635-.011,18.952a1.614,1.614,0,0,0,1.062,1.729c4.883,2.359,9.733,4.788,14.592,7.2.482.239.951.5,1.484.785.147-.171.3-.322.421-.492a16.387,16.387,0,0,1,23.478-2.929,16.161,16.161,0,0,1,6.144,13.016,16.48,16.48,0,0,1-32.834,1.765,14.868,14.868,0,0,1,.453-6.193c.3-1.058.282-1.042-.719-1.54q-6.756-3.362-13.5-6.742c-.147-.073-.3-.138-.541-.25ZM51.926,99.036h42.4V47.218h-42.4ZM72.85,28.248A11.658,11.658,0,0,0,84.916,17.4,11.8,11.8,0,0,0,73.633,4.709c-7.7-.406-11.986,5.991-12.3,10.976A11.733,11.733,0,0,0,72.85,28.248m56.515,84.935c6.035.392,11.826-4.627,12.181-10.6a11.825,11.825,0,1,0-12.181,10.6M16.1,113.169a11.769,11.769,0,0,0,1.4-23.491C9.755,88.94,5.2,95.165,4.7,100.424A11.763,11.763,0,0,0,16.1,113.169M4.69,42.428a7.118,7.118,0,0,0,7.121,7.1,6.965,6.965,0,0,0,7.037-6.84,7.207,7.207,0,0,0-7-7.348c-3.927-.075-7.4,3.639-7.153,7.089m122.72-.007c-.255,3.39,3.121,7.19,7.115,7.124a7.049,7.049,0,0,0,7.043-6.853,7.081,7.081,0,1,0-14.158-.27m-54.341,99.14a7.056,7.056,0,0,0,7.133-6.836,7.24,7.24,0,0,0-6.907-7.361c-4.407-.128-7.156,3.959-7.277,6.775-.177,4.144,3.6,7.6,7.052,7.423" transform="translate(0 0)" fill="#161615"/>
            <path id="Trazado_637188" data-name="Trazado 637188" d="M87.775,79.819h42.4v51.817h-42.4Zm37.695,23.595H111.322v4.673h-9.447v4.753H92.5v14.078H125.47Zm0-9.439H92.494V98.6h32.973Zm-23.535-4.824h23.507v-4.63H101.932Zm-4.8-4.61H92.5V89.17h4.631Z" transform="translate(-35.85 -32.6)" fill="#fff"/>
            <path id="Trazado_637189" data-name="Trazado 637189" d="M115.259,31.785c-.252,0-.5-.008-.757-.026a12.773,12.773,0,0,1-9.051-4.074,12.291,12.291,0,0,1-3.291-9.43c.31-4.911,4.391-11.826,12.494-11.826q.365,0,.739.02a12.718,12.718,0,0,1,8.877,4.161,12.984,12.984,0,0,1,3.247,9.466,12.638,12.638,0,0,1-12.257,11.71m-.544-18.847a6.14,6.14,0,0,0-4.276,10.485,6.054,6.054,0,0,0,4.239,1.881h0a6.184,6.184,0,1,0,.093-12.366Z" transform="translate(-41.713 -2.626)" fill="#ffe126"/>
            <path id="Trazado_637190" data-name="Trazado 637190" d="M114.041,6.7c.227,0,.458.005.692.018a11.789,11.789,0,0,1-.088,23.562q-.347,0-.7-.023A11.734,11.734,0,0,1,102.433,17.7c.305-4.833,4.346-10.994,11.608-10.994m.06,18.874a7.071,7.071,0,1,0,.064-14.14H114.1a7.071,7.071,0,0,0-.044,14.14h.043m-.06-20.649h0a13.5,13.5,0,0,0-13.379,12.657,13.157,13.157,0,0,0,3.529,10.092,13.721,13.721,0,0,0,9.7,4.358c.251.015.507.023.759.023a13.545,13.545,0,0,0,13.143-12.548A13.865,13.865,0,0,0,124.317,9.4a13.6,13.6,0,0,0-9.49-4.453c-.263-.014-.527-.021-.786-.021M114.1,23.8h-.033a5.163,5.163,0,0,1-3.609-1.613,5.253,5.253,0,0,1,3.642-8.978h.046A5.3,5.3,0,1,1,114.1,23.8" transform="translate(-41.1 -2.014)" fill="#040405"/>
            <path id="Trazado_637191" data-name="Trazado 637191" d="M210.85,175.356q-.36,0-.722-.023a12.4,12.4,0,0,1-9-4.192A12.678,12.678,0,0,1,210.473,150c.434,0,.878.021,1.319.064,6.068.579,11.953,5.518,11.46,13.837a12.634,12.634,0,0,1-12.4,11.454m-.313-18.817a6.188,6.188,0,0,0-6.14,6.071,6.3,6.3,0,0,0,1.811,4.453,6.085,6.085,0,0,0,4.366,1.834,6.179,6.179,0,1,0-.027-12.357l-.009-.887Z" transform="translate(-80.82 -61.264)" fill="#ffe126"/>
            <path id="Trazado_637192" data-name="Trazado 637192" d="M209.86,150.276q.605,0,1.235.06a11.766,11.766,0,0,1,10.658,12.9c-.341,5.752-5.727,10.619-11.516,10.619q-.332,0-.665-.021a11.783,11.783,0,0,1,.287-23.559m.1,18.895h0a7.066,7.066,0,1,0-.026-14.132h-.011a7.066,7.066,0,0,0,.037,14.132m-.1-20.67h0a13.565,13.565,0,0,0-10.009,22.619,13.3,13.3,0,0,0,9.644,4.488c.245.015.5.022.742.022,6.807,0,12.892-5.628,13.287-12.289a13.864,13.864,0,0,0-3.451-10.387,13.589,13.589,0,0,0-8.81-4.386c-.47-.044-.942-.067-1.4-.067m.1,20.67V167.4a5.2,5.2,0,0,1-3.733-1.569,5.418,5.418,0,0,1-1.556-3.83,5.3,5.3,0,0,1,10.605.172,5.353,5.353,0,0,1-5.316,5.228Z" transform="translate(-80.208 -60.652)" fill="#040405"/>
            <path id="Trazado_637193" data-name="Trazado 637193" d="M19.354,175.339q-.36,0-.716-.024a12.389,12.389,0,0,1-9-4.16A12.57,12.57,0,0,1,6.421,161.6c.528-5.628,5.066-11.61,12.436-11.61.435,0,.88.022,1.325.064a12.665,12.665,0,0,1-.828,25.284m-.37-18.8a6.131,6.131,0,0,0-6.087,5.981,6.384,6.384,0,0,0,1.863,4.561,6.073,6.073,0,0,0,4.321,1.816,6.179,6.179,0,1,0-.025-12.357Z" transform="translate(-2.601 -61.26)" fill="#ffe126"/>
            <path id="Trazado_637194" data-name="Trazado 637194" d="M18.243,150.266q.606,0,1.241.06a11.778,11.778,0,0,1-.744,23.513c-.22,0-.438-.007-.656-.022A11.763,11.763,0,0,1,6.691,161.071c.467-4.971,4.565-10.806,11.552-10.806m.232,18.9a7.066,7.066,0,1,0-.02-14.133h-.083A7.051,7.051,0,0,0,11.4,161.9a7.172,7.172,0,0,0,7.071,7.267h.007m-.231-20.676h0c-7.9,0-12.755,6.4-13.32,12.415A13.462,13.462,0,0,0,8.37,171.137a13.312,13.312,0,0,0,9.647,4.454c.239.015.482.023.723.023a13.552,13.552,0,0,0,.912-27.054c-.473-.045-.947-.068-1.409-.068m.224,20.676,0-1.775a5.194,5.194,0,0,1-3.693-1.555,5.5,5.5,0,0,1-1.6-3.932,5.3,5.3,0,0,1,5.2-5.1h.061a5.292,5.292,0,1,1,.042,10.583Z" transform="translate(-1.988 -60.647)" fill="#040405"/>
            <path id="Trazado_637195" data-name="Trazado 637195" d="M7.919,66.826c-.25-3.449,3.226-7.163,7.153-7.088a7.207,7.207,0,0,1,7,7.347,6.966,6.966,0,0,1-7.037,6.841,7.119,7.119,0,0,1-7.121-7.1" transform="translate(-3.229 -24.398)" fill="#60cb28"/>
            <path id="Trazado_637196" data-name="Trazado 637196" d="M215.366,66.832a7.081,7.081,0,1,1,14.158.271,7.049,7.049,0,0,1-7.043,6.853c-3.994.066-7.37-3.733-7.115-7.124" transform="translate(-87.955 -24.41)" fill="#60cb28"/>
            <path id="Trazado_637197" data-name="Trazado 637197" d="M118.643,229.492c-3.447.176-7.229-3.278-7.052-7.422.121-2.816,2.87-6.9,7.277-6.775a7.24,7.24,0,0,1,6.907,7.361,7.056,7.056,0,0,1-7.133,6.836" transform="translate(-45.574 -87.931)" fill="#60cb28"/>
            <path id="Trazado_637198" data-name="Trazado 637198" d="M128.731,119.7v23.5H95.76V129.13h9.376v-4.753h9.447V119.7Zm-4.744,4.7h-4.626V138.5h4.626Zm-14.053,14.062h4.626v-9.345h-4.626Zm-4.79-4.6h-4.653v4.6h4.653Z" transform="translate(-39.111 -48.89)" fill="#161615"/>
            <rect id="Rectángulo_349014" data-name="Rectángulo 349014" width="32.973" height="4.627" transform="translate(56.644 61.375)" fill="#161615"/>
            <rect id="Rectángulo_349015" data-name="Rectángulo 349015" width="23.507" height="4.63" transform="translate(66.082 51.921)" fill="#161615"/>
            <rect id="Rectángulo_349016" data-name="Rectángulo 349016" width="4.631" height="4.629" transform="translate(56.647 51.94)" fill="#161615"/>
            <path id="Trazado_637199" data-name="Trazado 637199" d="M125.8,23.019a7.1,7.1,0,0,1-7.252,7.053,7.071,7.071,0,0,1,.108-14.14,7.089,7.089,0,0,1,7.144,7.087m-4.711,0a2.3,2.3,0,0,0-2.311-2.412,2.391,2.391,0,1,0-.04,4.781,2.282,2.282,0,0,0,2.351-2.369" transform="translate(-45.592 -6.507)" fill="#161615"/>
            <path id="Trazado_637200" data-name="Trazado 637200" d="M214.458,173.685a7.066,7.066,0,1,1,7.091-7,7.11,7.11,0,0,1-7.091,7m2.382-7.076a2.289,2.289,0,0,0-2.337-2.4,2.389,2.389,0,1,0-.014,4.779,2.271,2.271,0,0,0,2.351-2.38" transform="translate(-84.705 -65.165)" fill="#161615"/>
            <path id="Trazado_637201" data-name="Trazado 637201" d="M30.065,166.612a7.1,7.1,0,0,1-7.089,7.071,7.172,7.172,0,0,1-7.071-7.267,7.082,7.082,0,0,1,14.161.2m-4.714.01a2.292,2.292,0,0,0-2.328-2.408,2.387,2.387,0,1,0-.041,4.775,2.281,2.281,0,0,0,2.37-2.366" transform="translate(-6.496 -65.164)" fill="#161615"/>
            <rect id="Rectángulo_349017" data-name="Rectángulo 349017" width="6.4" height="15.865" rx="1.5" transform="translate(79.363 74.629)" fill="#88e3f2"/>
            <path id="Trazado_637202" data-name="Trazado 637202" d="M139.056,140.519H134.43v-14.09h4.626Zm0-15.865H134.43a1.775,1.775,0,0,0-1.775,1.775v14.09a1.775,1.775,0,0,0,1.775,1.775h4.626a1.775,1.775,0,0,0,1.775-1.775v-14.09a1.775,1.775,0,0,0-1.775-1.775" transform="translate(-54.18 -50.912)" fill="#040405"/>
            <rect id="Rectángulo_349018" data-name="Rectángulo 349018" width="6.401" height="11.12" rx="1.5" transform="translate(69.936 79.346)" fill="#88e3f2"/>
            <path id="Trazado_637203" data-name="Trazado 637203" d="M123.12,143.747h-4.626V134.4h4.626Zm0-11.12h-4.626a1.775,1.775,0,0,0-1.775,1.775v9.345a1.775,1.775,0,0,0,1.775,1.775h4.626a1.775,1.775,0,0,0,1.775-1.775V134.4a1.775,1.775,0,0,0-1.775-1.775" transform="translate(-47.671 -54.168)" fill="#040405"/>
            <rect id="Rectángulo_349019" data-name="Rectángulo 349019" width="6.427" height="6.375" rx="1.5" transform="translate(60.492 84.096)" fill="#88e3f2"/>
            <path id="Trazado_637204" data-name="Trazado 637204" d="M107.184,147.03h-4.653v-4.6h4.653Zm0-6.375h-4.653a1.775,1.775,0,0,0-1.775,1.775v4.6a1.775,1.775,0,0,0,1.775,1.775h4.653a1.775,1.775,0,0,0,1.775-1.775v-4.6a1.775,1.775,0,0,0-1.775-1.775" transform="translate(-41.152 -57.447)" fill="#040405"/>
            <path id="Trazado_637205" data-name="Trazado 637205" d="M121.359,28.882a3.229,3.229,0,0,1-3.27-3.215,3.22,3.22,0,0,1,3.314-3.342,3.279,3.279,0,0,1-.019,6.556Z" transform="translate(-48.23 -9.119)" fill="#f8a92f"/>
            <path id="Trazado_637206" data-name="Trazado 637206" d="M120.79,22.6h.014a2.391,2.391,0,0,1-.04,4.781h-.019a2.391,2.391,0,1,1,.044-4.781m0-1.775h0a4.106,4.106,0,0,0-4.2,4.236,4.108,4.108,0,0,0,4.158,4.094h.032a4.166,4.166,0,0,0,.034-8.331h-.02" transform="translate(-47.617 -8.506)" fill="#040405"/>
            <path id="Trazado_637207" data-name="Trazado 637207" d="M217.1,172.478a3.277,3.277,0,0,1,.027-6.553,3.187,3.187,0,0,1,3.23,3.283,3.152,3.152,0,0,1-3.234,3.27Z" transform="translate(-87.338 -67.768)" fill="#f8a92f"/>
            <path id="Trazado_637208" data-name="Trazado 637208" d="M216.54,166.2a2.39,2.39,0,0,1-.031,4.779h-.017a2.39,2.39,0,1,1,.031-4.779h.017m0-1.775h-.028a4.164,4.164,0,0,0-.02,8.329,4.165,4.165,0,0,0,.048-8.329" transform="translate(-86.725 -67.155)" fill="#040405"/>
            <path id="Trazado_637209" data-name="Trazado 637209" d="M25.607,172.483a3.207,3.207,0,0,1-3.261-3.258,3.262,3.262,0,1,1,6.524,0,3.152,3.152,0,0,1-3.256,3.254Z" transform="translate(-9.127 -67.772)" fill="#f8a92f"/>
            <path id="Trazado_637210" data-name="Trazado 637210" d="M25.047,166.209A2.388,2.388,0,0,1,25,170.983h0a2.387,2.387,0,1,1,.046-4.775Zm0-1.775h-.012a4.162,4.162,0,1,0-.04,8.324,4.162,4.162,0,0,0,.052-8.324" transform="translate(-8.514 -67.159)" fill="#040405"/>
          </g>
        </g>
      </g>
    </g>
    <path id="Trazado_637530" data-name="Trazado 637530" d="M4.588-12.8,7.875-3.516l3.27-9.281h3.463V0H11.962V-3.5l.264-6.038L8.771,0H6.961L3.516-9.527,3.779-3.5V0H1.143V-12.8ZM22.254,0A2.821,2.821,0,0,1,22-.853,3.073,3.073,0,0,1,19.6.176a3.376,3.376,0,0,1-2.316-.809,2.6,2.6,0,0,1-.918-2.039,2.687,2.687,0,0,1,1.121-2.32,5.529,5.529,0,0,1,3.239-.817h1.169v-.545a1.567,1.567,0,0,0-.338-1.055,1.331,1.331,0,0,0-1.068-.4,1.513,1.513,0,0,0-1.006.308,1.045,1.045,0,0,0-.365.844h-2.54a2.551,2.551,0,0,1,.51-1.529,3.37,3.37,0,0,1,1.441-1.1,5.253,5.253,0,0,1,2.092-.4A4.15,4.15,0,0,1,23.41-8.8a3.09,3.09,0,0,1,1.033,2.483V-2.2A4.546,4.546,0,0,0,24.82-.149V0Zm-2.1-1.767a2.188,2.188,0,0,0,1.037-.25,1.645,1.645,0,0,0,.7-.672V-4.324h-.949q-1.907,0-2.03,1.318l-.009.149a1.017,1.017,0,0,0,.334.782A1.3,1.3,0,0,0,20.153-1.767ZM31.737-7.128a6.9,6.9,0,0,0-.914-.07,1.86,1.86,0,0,0-1.89.976V0h-2.54V-9.51h2.4l.07,1.134a2.354,2.354,0,0,1,2.118-1.31,2.662,2.662,0,0,1,.791.114Zm5.01,5.256a1.666,1.666,0,0,0,1.143-.387,1.355,1.355,0,0,0,.457-1.028h2.382A3.258,3.258,0,0,1,40.2-1.516,3.48,3.48,0,0,1,38.782-.268a4.442,4.442,0,0,1-1.991.444,4.129,4.129,0,0,1-3.217-1.3A5.13,5.13,0,0,1,32.4-4.7v-.167a5.071,5.071,0,0,1,1.169-3.507,4.08,4.08,0,0,1,3.208-1.31A4,4,0,0,1,39.634-8.67a3.594,3.594,0,0,1,1.094,2.7H38.347a1.745,1.745,0,0,0-.457-1.206,1.524,1.524,0,0,0-1.16-.464,1.53,1.53,0,0,0-1.34.647,3.749,3.749,0,0,0-.453,2.1v.264a3.8,3.8,0,0,0,.448,2.113A1.549,1.549,0,0,0,36.747-1.872Zm5.036-2.971a5.64,5.64,0,0,1,.545-2.522A3.989,3.989,0,0,1,43.9-9.079a4.577,4.577,0,0,1,2.377-.606,4.33,4.33,0,0,1,3.142,1.178,4.727,4.727,0,0,1,1.358,3.2l.018.65A4.97,4.97,0,0,1,49.57-1.147,4.247,4.247,0,0,1,46.292.176a4.268,4.268,0,0,1-3.283-1.318,5.058,5.058,0,0,1-1.226-3.586Zm2.54.18a3.555,3.555,0,0,0,.51,2.073,1.682,1.682,0,0,0,1.459.717,1.686,1.686,0,0,0,1.441-.709,3.89,3.89,0,0,0,.519-2.267,3.519,3.519,0,0,0-.519-2.06,1.686,1.686,0,0,0-1.459-.731,1.658,1.658,0,0,0-1.441.726A3.955,3.955,0,0,0,44.323-4.662ZM57.507-2.628a.818.818,0,0,0-.461-.734,5.241,5.241,0,0,0-1.481-.479q-3.393-.712-3.393-2.883a2.613,2.613,0,0,1,1.05-2.114,4.237,4.237,0,0,1,2.747-.848,4.56,4.56,0,0,1,2.9.853A2.687,2.687,0,0,1,59.95-6.618H57.41a1.229,1.229,0,0,0-.352-.9,1.488,1.488,0,0,0-1.1-.356,1.52,1.52,0,0,0-.993.29.916.916,0,0,0-.352.738.783.783,0,0,0,.4.681,4.114,4.114,0,0,0,1.349.448,11.019,11.019,0,0,1,1.6.426,2.628,2.628,0,0,1,2.013,2.558,2.481,2.481,0,0,1-1.116,2.1,4.815,4.815,0,0,1-2.883.8A5.029,5.029,0,0,1,53.855-.25,3.561,3.561,0,0,1,52.4-1.419a2.716,2.716,0,0,1-.527-1.6h2.408a1.326,1.326,0,0,0,.5,1.037,1.987,1.987,0,0,0,1.248.36,1.839,1.839,0,0,0,1.1-.277A.861.861,0,0,0,57.507-2.628Zm8.191-2.2a5.731,5.731,0,0,1,1-3.542,3.237,3.237,0,0,1,2.729-1.318,2.913,2.913,0,0,1,2.294,1.037V-13.5h2.549V0H71.974l-.123-1.011A2.989,2.989,0,0,1,69.407.176a3.228,3.228,0,0,1-2.694-1.323A5.916,5.916,0,0,1,65.7-4.825Zm2.54.189A3.754,3.754,0,0,0,68.7-2.585a1.517,1.517,0,0,0,1.354.713,1.7,1.7,0,0,0,1.661-.995V-6.625a1.675,1.675,0,0,0-1.644-.995Q68.238-7.62,68.238-4.636ZM80.613.176a4.668,4.668,0,0,1-3.406-1.283,4.561,4.561,0,0,1-1.314-3.419v-.246a5.745,5.745,0,0,1,.554-2.562,4.064,4.064,0,0,1,1.569-1.74,4.4,4.4,0,0,1,2.316-.611A3.947,3.947,0,0,1,83.4-8.455a5,5,0,0,1,1.121,3.489v1.037H78.469a2.36,2.36,0,0,0,.743,1.494,2.245,2.245,0,0,0,1.569.563,2.742,2.742,0,0,0,2.294-1.063l1.248,1.4A3.813,3.813,0,0,1,82.775-.277,5.075,5.075,0,0,1,80.613.176Zm-.29-7.813a1.587,1.587,0,0,0-1.226.512,2.651,2.651,0,0,0-.6,1.466h3.533v-.2a1.891,1.891,0,0,0-.457-1.311A1.638,1.638,0,0,0,80.323-7.638Zm15.469.51a6.9,6.9,0,0,0-.914-.07,1.86,1.86,0,0,0-1.89.976V0h-2.54V-9.51h2.4l.07,1.134a2.354,2.354,0,0,1,2.118-1.31,2.662,2.662,0,0,1,.791.114Zm5.432,7.3a4.668,4.668,0,0,1-3.406-1.283A4.561,4.561,0,0,1,96.5-4.526v-.246a5.745,5.745,0,0,1,.554-2.562,4.064,4.064,0,0,1,1.569-1.74,4.4,4.4,0,0,1,2.316-.611,3.947,3.947,0,0,1,3.072,1.23,5,5,0,0,1,1.121,3.489v1.037H99.079a2.36,2.36,0,0,0,.743,1.494,2.245,2.245,0,0,0,1.569.563,2.742,2.742,0,0,0,2.294-1.063l1.248,1.4a3.813,3.813,0,0,1-1.547,1.261A5.075,5.075,0,0,1,101.224.176Zm-.29-7.813a1.587,1.587,0,0,0-1.226.512,2.651,2.651,0,0,0-.6,1.466h3.533v-.2a1.891,1.891,0,0,0-.457-1.311A1.638,1.638,0,0,0,100.934-7.638ZM107.271,0V-7.646h-1.415V-9.51h1.415v-.809a3.283,3.283,0,0,1,.918-2.483,3.557,3.557,0,0,1,2.571-.883,5.938,5.938,0,0,1,1.292.176l-.026,1.969a3.238,3.238,0,0,0-.773-.079q-1.433,0-1.433,1.345v.765h1.89v1.863h-1.89V0Zm9.923.176a4.668,4.668,0,0,1-3.406-1.283,4.561,4.561,0,0,1-1.314-3.419v-.246a5.745,5.745,0,0,1,.554-2.562,4.064,4.064,0,0,1,1.569-1.74,4.4,4.4,0,0,1,2.316-.611,3.947,3.947,0,0,1,3.072,1.23A5,5,0,0,1,121.1-4.966v1.037h-6.056a2.36,2.36,0,0,0,.743,1.494,2.245,2.245,0,0,0,1.569.563,2.742,2.742,0,0,0,2.294-1.063l1.248,1.4a3.813,3.813,0,0,1-1.547,1.261A5.075,5.075,0,0,1,117.193.176Zm-.29-7.813a1.587,1.587,0,0,0-1.226.512,2.651,2.651,0,0,0-.6,1.466h3.533v-.2a1.891,1.891,0,0,0-.457-1.311A1.638,1.638,0,0,0,116.9-7.638Zm10.986.51a6.9,6.9,0,0,0-.914-.07,1.86,1.86,0,0,0-1.89.976V0h-2.54V-9.51h2.4l.07,1.134a2.354,2.354,0,0,1,2.118-1.31,2.662,2.662,0,0,1,.791.114Zm5.432,7.3a4.668,4.668,0,0,1-3.406-1.283A4.561,4.561,0,0,1,128.6-4.526v-.246a5.745,5.745,0,0,1,.554-2.562,4.064,4.064,0,0,1,1.569-1.74,4.4,4.4,0,0,1,2.316-.611,3.947,3.947,0,0,1,3.072,1.23,5,5,0,0,1,1.121,3.489v1.037h-6.056a2.36,2.36,0,0,0,.743,1.494,2.245,2.245,0,0,0,1.569.563,2.742,2.742,0,0,0,2.294-1.063l1.248,1.4a3.813,3.813,0,0,1-1.547,1.261A5.075,5.075,0,0,1,133.321.176Zm-.29-7.813a1.587,1.587,0,0,0-1.226.512,2.651,2.651,0,0,0-.6,1.466h3.533v-.2a1.891,1.891,0,0,0-.457-1.311A1.638,1.638,0,0,0,133.031-7.638Zm7.98-1.872.079,1.1a3.32,3.32,0,0,1,2.733-1.274,2.759,2.759,0,0,1,2.25.888,4.142,4.142,0,0,1,.756,2.654V0h-2.54V-6.082a1.648,1.648,0,0,0-.352-1.173,1.574,1.574,0,0,0-1.169-.365,1.747,1.747,0,0,0-1.608.914V0h-2.54V-9.51Zm11.7,7.638a1.666,1.666,0,0,0,1.143-.387,1.355,1.355,0,0,0,.457-1.028h2.382a3.258,3.258,0,0,1-.527,1.771,3.48,3.48,0,0,1-1.419,1.248,4.442,4.442,0,0,1-1.991.444,4.129,4.129,0,0,1-3.217-1.3A5.13,5.13,0,0,1,148.359-4.7v-.167a5.071,5.071,0,0,1,1.169-3.507,4.08,4.08,0,0,1,3.208-1.31A4,4,0,0,1,155.6-8.67a3.594,3.594,0,0,1,1.094,2.7H154.31a1.745,1.745,0,0,0-.457-1.206,1.524,1.524,0,0,0-1.16-.464,1.53,1.53,0,0,0-1.34.647,3.749,3.749,0,0,0-.453,2.1v.264a3.8,3.8,0,0,0,.448,2.113A1.549,1.549,0,0,0,152.71-1.872ZM160.822,0h-2.549V-9.51h2.549Zm-2.7-11.971a1.251,1.251,0,0,1,.382-.94,1.436,1.436,0,0,1,1.042-.369,1.44,1.44,0,0,1,1.037.369,1.244,1.244,0,0,1,.387.94,1.247,1.247,0,0,1-.391.949,1.443,1.443,0,0,1-1.033.369,1.443,1.443,0,0,1-1.033-.369A1.247,1.247,0,0,1,158.124-11.971ZM168.425,0a2.821,2.821,0,0,1-.255-.853,3.073,3.073,0,0,1-2.4,1.028,3.376,3.376,0,0,1-2.316-.809,2.6,2.6,0,0,1-.918-2.039,2.687,2.687,0,0,1,1.121-2.32A5.529,5.529,0,0,1,166.9-5.81h1.169v-.545a1.567,1.567,0,0,0-.338-1.055,1.331,1.331,0,0,0-1.068-.4,1.513,1.513,0,0,0-1.006.308,1.045,1.045,0,0,0-.365.844h-2.54a2.551,2.551,0,0,1,.51-1.529,3.37,3.37,0,0,1,1.441-1.1,5.253,5.253,0,0,1,2.092-.4,4.15,4.15,0,0,1,2.791.883,3.09,3.09,0,0,1,1.033,2.483V-2.2a4.546,4.546,0,0,0,.378,2.048V0Zm-2.1-1.767a2.188,2.188,0,0,0,1.037-.25,1.645,1.645,0,0,0,.7-.672V-4.324h-.949q-1.907,0-2.03,1.318l-.009.149a1.017,1.017,0,0,0,.334.782A1.3,1.3,0,0,0,166.324-1.767ZM179.728,0h-2.549V-9.51h2.549Zm-2.7-11.971a1.251,1.251,0,0,1,.382-.94,1.436,1.436,0,0,1,1.042-.369,1.44,1.44,0,0,1,1.037.369,1.244,1.244,0,0,1,.387.94,1.247,1.247,0,0,1-.391.949,1.443,1.443,0,0,1-1.033.369,1.443,1.443,0,0,1-1.033-.369A1.247,1.247,0,0,1,177.029-11.971Zm7.128,2.461.079,1.1a3.32,3.32,0,0,1,2.733-1.274,2.759,2.759,0,0,1,2.25.888,4.142,4.142,0,0,1,.756,2.654V0h-2.54V-6.082a1.648,1.648,0,0,0-.352-1.173,1.574,1.574,0,0,0-1.169-.365,1.747,1.747,0,0,0-1.608.914V0h-2.54V-9.51Zm10.784-2.338V-9.51h1.626v1.863h-1.626V-2.9a1.133,1.133,0,0,0,.2.756,1.015,1.015,0,0,0,.773.229,4.051,4.051,0,0,0,.747-.062V-.053a5.229,5.229,0,0,1-1.538.229,2.425,2.425,0,0,1-2.725-2.7V-7.646h-1.389V-9.51H192.4v-2.338ZM202.359.176a4.668,4.668,0,0,1-3.406-1.283,4.561,4.561,0,0,1-1.314-3.419v-.246a5.745,5.745,0,0,1,.554-2.562,4.064,4.064,0,0,1,1.569-1.74,4.4,4.4,0,0,1,2.316-.611,3.947,3.947,0,0,1,3.072,1.23,5,5,0,0,1,1.121,3.489v1.037h-6.056a2.36,2.36,0,0,0,.743,1.494,2.245,2.245,0,0,0,1.569.563,2.742,2.742,0,0,0,2.294-1.063l1.248,1.4a3.813,3.813,0,0,1-1.547,1.261A5.075,5.075,0,0,1,202.359.176Zm-.29-7.813a1.587,1.587,0,0,0-1.226.512,2.651,2.651,0,0,0-.6,1.466h3.533v-.2a1.891,1.891,0,0,0-.457-1.311A1.638,1.638,0,0,0,202.069-7.638Zm5.273,2.813a5.573,5.573,0,0,1,1.042-3.524,3.375,3.375,0,0,1,2.808-1.336,2.96,2.96,0,0,1,2.435,1.072l.105-.9h2.3V-.316a4.064,4.064,0,0,1-.567,2.171,3.641,3.641,0,0,1-1.6,1.406,5.608,5.608,0,0,1-2.408.483,5.215,5.215,0,0,1-2.039-.417,3.619,3.619,0,0,1-1.5-1.077L209.048.7a2.975,2.975,0,0,0,2.3,1.063,2.178,2.178,0,0,0,1.573-.541,2.027,2.027,0,0,0,.563-1.534v-.51a2.938,2.938,0,0,1-2.312.993,3.366,3.366,0,0,1-2.773-1.34,5.572,5.572,0,0,1-1.059-3.555Zm2.54.189a3.47,3.47,0,0,0,.519,2.029,1.65,1.65,0,0,0,1.424.735,1.764,1.764,0,0,0,1.661-.871V-6.749a1.76,1.76,0,0,0-1.644-.871,1.66,1.66,0,0,0-1.437.748A3.911,3.911,0,0,0,209.883-4.636ZM223.33-7.128a6.9,6.9,0,0,0-.914-.07,1.86,1.86,0,0,0-1.89.976V0h-2.54V-9.51h2.4l.07,1.134a2.354,2.354,0,0,1,2.118-1.31,2.662,2.662,0,0,1,.791.114ZM229.8,0a2.821,2.821,0,0,1-.255-.853,3.073,3.073,0,0,1-2.4,1.028,3.376,3.376,0,0,1-2.316-.809,2.6,2.6,0,0,1-.918-2.039,2.687,2.687,0,0,1,1.121-2.32,5.529,5.529,0,0,1,3.239-.817h1.169v-.545a1.567,1.567,0,0,0-.338-1.055,1.331,1.331,0,0,0-1.068-.4,1.513,1.513,0,0,0-1.006.308,1.045,1.045,0,0,0-.365.844h-2.54a2.551,2.551,0,0,1,.51-1.529,3.37,3.37,0,0,1,1.441-1.1,5.253,5.253,0,0,1,2.092-.4,4.15,4.15,0,0,1,2.791.883,3.09,3.09,0,0,1,1.033,2.483V-2.2a4.546,4.546,0,0,0,.378,2.048V0Zm-2.1-1.767a2.188,2.188,0,0,0,1.037-.25,1.645,1.645,0,0,0,.7-.672V-4.324h-.949q-1.907,0-2.03,1.318l-.009.149a1.017,1.017,0,0,0,.334.782A1.3,1.3,0,0,0,227.7-1.767ZM236.619,0H234.07V-13.5h2.549Zm6.469.176a4.668,4.668,0,0,1-3.406-1.283,4.561,4.561,0,0,1-1.314-3.419v-.246a5.745,5.745,0,0,1,.554-2.562,4.064,4.064,0,0,1,1.569-1.74,4.4,4.4,0,0,1,2.316-.611,3.947,3.947,0,0,1,3.072,1.23A5,5,0,0,1,247-4.966v1.037h-6.056a2.36,2.36,0,0,0,.743,1.494,2.245,2.245,0,0,0,1.569.563,2.742,2.742,0,0,0,2.294-1.063l1.248,1.4A3.813,3.813,0,0,1,245.25-.277,5.075,5.075,0,0,1,243.088.176Zm-.29-7.813a1.587,1.587,0,0,0-1.226.512,2.651,2.651,0,0,0-.6,1.466H244.5v-.2a1.891,1.891,0,0,0-.457-1.311A1.638,1.638,0,0,0,242.8-7.638Zm10.793,5.01a.818.818,0,0,0-.461-.734,5.241,5.241,0,0,0-1.481-.479q-3.393-.712-3.393-2.883a2.613,2.613,0,0,1,1.05-2.114,4.237,4.237,0,0,1,2.747-.848,4.56,4.56,0,0,1,2.9.853,2.687,2.687,0,0,1,1.085,2.215h-2.54a1.229,1.229,0,0,0-.352-.9,1.488,1.488,0,0,0-1.1-.356,1.52,1.52,0,0,0-.993.29.916.916,0,0,0-.352.738.783.783,0,0,0,.4.681,4.114,4.114,0,0,0,1.349.448,11.019,11.019,0,0,1,1.6.426,2.628,2.628,0,0,1,2.013,2.558,2.481,2.481,0,0,1-1.116,2.1,4.815,4.815,0,0,1-2.883.8,5.029,5.029,0,0,1-2.123-.426,3.561,3.561,0,0,1-1.455-1.169,2.716,2.716,0,0,1-.527-1.6h2.408a1.326,1.326,0,0,0,.5,1.037,1.987,1.987,0,0,0,1.248.36,1.839,1.839,0,0,0,1.1-.277A.861.861,0,0,0,253.591-2.628Z" transform="translate(268 1063.984)" fill="#12263f"/>
    <path id="Trazado_637531" data-name="Trazado 637531" d="M4.641,9.906v3.625H1.023V9.906ZM18.492,6.852H14.836V17H13.344V6.852H9.7V5.625h8.8ZM28.711,11.68a7.037,7.037,0,0,1-.562,2.918,4.261,4.261,0,0,1-1.594,1.9,4.4,4.4,0,0,1-6.4-1.887,6.752,6.752,0,0,1-.59-2.832v-.82a6.953,6.953,0,0,1,.57-2.9,4.218,4.218,0,0,1,4-2.594,4.41,4.41,0,0,1,2.41.66,4.253,4.253,0,0,1,1.605,1.914,7.071,7.071,0,0,1,.563,2.918Zm-1.492-.734a5.1,5.1,0,0,0-.812-3.105,2.68,2.68,0,0,0-2.273-1.082A2.651,2.651,0,0,0,21.895,7.84a5,5,0,0,0-.84,3v.836a5.107,5.107,0,0,0,.824,3.082,2.888,2.888,0,0,0,4.52.063,5.079,5.079,0,0,0,.82-3.035Zm12.141,4.563a3.465,3.465,0,0,1-1.613,1.238,6.517,6.517,0,0,1-2.41.41,4.674,4.674,0,0,1-2.469-.652A4.346,4.346,0,0,1,31.2,14.648a6.408,6.408,0,0,1-.605-2.789v-.992a5.982,5.982,0,0,1,1.2-3.984,4.179,4.179,0,0,1,3.371-1.414,4.316,4.316,0,0,1,2.867.91,3.965,3.965,0,0,1,1.328,2.582h-1.5A2.48,2.48,0,0,0,35.172,6.7a2.655,2.655,0,0,0-2.285,1.06,5.173,5.173,0,0,0-.785,3.069v.93a4.848,4.848,0,0,0,.875,3.046,2.836,2.836,0,0,0,2.367,1.13,5.228,5.228,0,0,0,1.477-.187,2.283,2.283,0,0,0,1.047-.631V12.563H35.234V11.336h4.125Zm8.781-1.484H43.375L42.3,17H40.758L45.1,5.625h1.313L50.766,17H49.227ZM43.828,12.8H47.7l-1.937-5.32Zm14.742-.82H53.8V17H52.3V5.625h7.047V6.852H53.8v3.9H58.57ZM4.641,33.906v3.625H1.023V33.906Zm7.43,5.867h6.508V41H10.3V39.875l6.234-9.023H10.4V29.625h7.93V30.72ZM25.516,41a3.036,3.036,0,0,1-.2-.891,3.225,3.225,0,0,1-2.406,1.047,2.984,2.984,0,0,1-2.051-.707,2.287,2.287,0,0,1-.8-1.793,2.39,2.39,0,0,1,1-2.051,4.733,4.733,0,0,1,2.824-.73h1.406v-.664A1.623,1.623,0,0,0,24.836,34a1.821,1.821,0,0,0-1.336-.449,2.107,2.107,0,0,0-1.3.391,1.151,1.151,0,0,0-.523.945H20.227a2,2,0,0,1,.449-1.223,3.066,3.066,0,0,1,1.219-.934,4.1,4.1,0,0,1,1.691-.344,3.342,3.342,0,0,1,2.289.73,2.635,2.635,0,0,1,.859,2.012v3.891a4.757,4.757,0,0,0,.3,1.852V41Zm-2.4-1.1a2.54,2.54,0,0,0,1.289-.352,2.127,2.127,0,0,0,.883-.914V36.9H24.156q-2.656,0-2.656,1.555a1.316,1.316,0,0,0,.453,1.063A1.742,1.742,0,0,0,23.117,39.9Zm9.273.078a2.082,2.082,0,0,0,1.352-.469,1.649,1.649,0,0,0,.641-1.172H35.75a2.621,2.621,0,0,1-.5,1.383,3.293,3.293,0,0,1-1.23,1.047,3.55,3.55,0,0,1-1.629.391A3.482,3.482,0,0,1,29.645,40a4.59,4.59,0,0,1-1.02-3.152v-.242a5.089,5.089,0,0,1,.453-2.2,3.451,3.451,0,0,1,1.3-1.492,3.7,3.7,0,0,1,2-.531,3.39,3.39,0,0,1,2.363.852,3.043,3.043,0,0,1,1,2.211H34.383a1.992,1.992,0,0,0-.621-1.348,1.932,1.932,0,0,0-1.379-.527,2.023,2.023,0,0,0-1.707.793,3.724,3.724,0,0,0-.605,2.293v.273a3.65,3.65,0,0,0,.6,2.25A2.033,2.033,0,0,0,32.391,39.977Zm6.43-6.406a3.073,3.073,0,0,1,2.5-1.18q2.68,0,2.7,3.023V41H42.578V35.406a1.946,1.946,0,0,0-.418-1.352,1.675,1.675,0,0,0-1.277-.437,2.086,2.086,0,0,0-1.234.375,2.546,2.546,0,0,0-.828.984V41H37.375V29H38.82Zm8.727-1.023.039.938a3.122,3.122,0,0,1,2.508-1.094,2.417,2.417,0,0,1,2.414,1.359,3.2,3.2,0,0,1,1.1-.984,3.242,3.242,0,0,1,1.6-.375q2.781,0,2.828,2.945V41H56.586V35.422a1.941,1.941,0,0,0-.414-1.355,1.823,1.823,0,0,0-1.391-.449,1.916,1.916,0,0,0-1.336.48,1.949,1.949,0,0,0-.617,1.293V41H51.375V35.461a1.613,1.613,0,0,0-1.8-1.844,1.934,1.934,0,0,0-1.945,1.211V41H46.18V32.547ZM65.43,41a3.036,3.036,0,0,1-.2-.891,3.225,3.225,0,0,1-2.406,1.047,2.984,2.984,0,0,1-2.051-.707,2.287,2.287,0,0,1-.8-1.793,2.39,2.39,0,0,1,1-2.051,4.733,4.733,0,0,1,2.824-.73H65.2v-.664A1.623,1.623,0,0,0,64.75,34a1.821,1.821,0,0,0-1.336-.449,2.107,2.107,0,0,0-1.3.391,1.151,1.151,0,0,0-.523.945H60.141a2,2,0,0,1,.449-1.223,3.066,3.066,0,0,1,1.219-.934,4.1,4.1,0,0,1,1.691-.344,3.342,3.342,0,0,1,2.289.73,2.635,2.635,0,0,1,.859,2.012v3.891a4.757,4.757,0,0,0,.3,1.852V41Zm-2.4-1.1a2.54,2.54,0,0,0,1.289-.352,2.127,2.127,0,0,0,.883-.914V36.9H64.07q-2.656,0-2.656,1.555a1.316,1.316,0,0,0,.453,1.063A1.742,1.742,0,0,0,63.031,39.9Zm7.25-7.352.047,1.063a3.08,3.08,0,0,1,2.531-1.219q2.68,0,2.7,3.023V41H74.117V35.406a1.946,1.946,0,0,0-.418-1.352,1.675,1.675,0,0,0-1.277-.437,2.086,2.086,0,0,0-1.234.375,2.546,2.546,0,0,0-.828.984V41H68.914V32.547Z" transform="translate(340 1310.984)" fill="#12263f"/>
    <path id="Trazado_637532" data-name="Trazado 637532" d="M8.6-7.094v3.625H4.984V-7.094ZM16.516,0h-1.5V-11.375h1.5ZM20.4-8.453l.047,1.063a3.08,3.08,0,0,1,2.531-1.219q2.68,0,2.7,3.023V0H24.234V-5.594a1.946,1.946,0,0,0-.418-1.352,1.675,1.675,0,0,0-1.277-.437,2.086,2.086,0,0,0-1.234.375,2.546,2.546,0,0,0-.828.984V0H19.031V-8.453ZM27.508-4.3a4.952,4.952,0,0,1,.922-3.129,2.915,2.915,0,0,1,2.414-1.184A2.932,2.932,0,0,1,33.2-7.594V-12h1.445V0H33.313l-.07-.906A2.943,2.943,0,0,1,30.828.156a2.887,2.887,0,0,1-2.395-1.2,5.008,5.008,0,0,1-.926-3.141Zm1.445.164a3.749,3.749,0,0,0,.594,2.25,1.92,1.92,0,0,0,1.641.813A2.108,2.108,0,0,0,33.2-2.3V-6.187a2.125,2.125,0,0,0-1.992-1.2,1.929,1.929,0,0,0-1.656.82A4.128,4.128,0,0,0,28.953-4.133ZM43.539-5.258h-4.93v4.031h5.727V0H37.109V-11.375h7.148v1.227H38.609v3.664h4.93Zm8.945,2.281H47.719L46.648,0H45.1l4.344-11.375h1.313L55.109,0H53.57ZM48.172-4.2h3.867L50.1-9.523ZM8.6,16.906v3.625H4.984V16.906Zm8.242-4.281,3.719,9.281,3.719-9.281h1.945V24h-1.5V19.57l.141-4.781L21.133,24H19.984l-3.727-9.187.148,4.758V24h-1.5V12.625Zm16.2,6.773H30.375V24H28.867V12.625h3.766a4.457,4.457,0,0,1,2.957.875,3.148,3.148,0,0,1,1.035,2.547,3.062,3.062,0,0,1-.574,1.852,3.428,3.428,0,0,1-1.6,1.18l2.672,4.828V24H35.516Zm-2.672-1.227h2.3a2.6,2.6,0,0,0,1.777-.579,1.959,1.959,0,0,0,.66-1.55,2.062,2.062,0,0,0-.629-1.62,2.663,2.663,0,0,0-1.816-.571h-2.3Zm14.633,2.852H40.242L39.172,24H37.625l4.344-11.375h1.313L47.633,24H46.094ZM40.7,19.8h3.867l-1.937-5.32Zm14.9-1.055h-4.93v4.031h5.727V24H49.164V12.625h7.148v1.227H50.664v3.664h4.93Z" transform="translate(819 1316.984)" fill="#12263f"/>
    <path id="Trazado_637533" data-name="Trazado 637533" d="M8.6-7.094v3.625H4.984V-7.094ZM14.906,0V-11.375h3.719a4.317,4.317,0,0,1,2.785.766,2.759,2.759,0,0,1,.934,2.266,2.31,2.31,0,0,1-.453,1.41,2.937,2.937,0,0,1-1.234.949A2.638,2.638,0,0,1,22.113-5a2.814,2.814,0,0,1,.535,1.723,3.042,3.042,0,0,1-.992,2.406,4.1,4.1,0,0,1-2.8.875Zm1.5-5.32v4.094h2.477a2.385,2.385,0,0,0,1.652-.543,1.907,1.907,0,0,0,.605-1.5q0-2.055-2.234-2.055Zm0-1.2h2.266a2.375,2.375,0,0,0,1.574-.493,1.654,1.654,0,0,0,.59-1.339,1.626,1.626,0,0,0-.547-1.366,2.686,2.686,0,0,0-1.664-.427H16.406ZM26.477,0h-1.5V-11.375h1.5Zm9.164-2.977H30.875L29.8,0H28.258L32.6-11.375h1.313L38.266,0H36.727ZM31.328-4.2H35.2l-1.937-5.32ZM48.539,0H47.031L41.3-8.766V0H39.8V-11.375H41.3l5.742,8.8v-8.8h1.492ZM8.6,16.906v3.625H4.984V16.906ZM14.906,24V12.625h3.211a5.169,5.169,0,0,1,2.625.656A4.438,4.438,0,0,1,22.5,15.148a6.078,6.078,0,0,1,.629,2.781v.727a6.1,6.1,0,0,1-.621,2.82,4.369,4.369,0,0,1-1.773,1.859A5.5,5.5,0,0,1,18.055,24Zm1.5-10.148v8.922h1.578a3.434,3.434,0,0,0,2.7-1.079,4.458,4.458,0,0,0,.965-3.073v-.665a4.529,4.529,0,0,0-.91-3.014,3.239,3.239,0,0,0-2.582-1.091ZM34.148,18.68a7.037,7.037,0,0,1-.562,2.918,4.261,4.261,0,0,1-1.594,1.9,4.4,4.4,0,0,1-6.4-1.887A6.752,6.752,0,0,1,25,18.781v-.82a6.953,6.953,0,0,1,.57-2.9,4.218,4.218,0,0,1,4-2.594,4.41,4.41,0,0,1,2.41.66,4.253,4.253,0,0,1,1.605,1.914,7.071,7.071,0,0,1,.563,2.918Zm-1.492-.734a5.1,5.1,0,0,0-.812-3.105,2.68,2.68,0,0,0-2.273-1.082,2.651,2.651,0,0,0-2.238,1.082,5,5,0,0,0-.84,3v.836a5.107,5.107,0,0,0,.824,3.082,2.888,2.888,0,0,0,4.52.063,5.079,5.079,0,0,0,.82-3.035ZM36.4,24V12.625h3.211a5.169,5.169,0,0,1,2.625.656A4.438,4.438,0,0,1,44,15.148a6.078,6.078,0,0,1,.629,2.781v.727A6.1,6.1,0,0,1,44,21.477a4.369,4.369,0,0,1-1.773,1.859A5.5,5.5,0,0,1,39.547,24Zm1.5-10.148v8.922h1.578a3.434,3.434,0,0,0,2.7-1.079,4.458,4.458,0,0,0,.965-3.073v-.665a4.529,4.529,0,0,0-.91-3.014,3.239,3.239,0,0,0-2.582-1.091Zm15.109,7.172H48.242L47.172,24H45.625l4.344-11.375h1.313L55.633,24H54.094ZM48.7,19.8h3.867l-1.937-5.32Zm14.742-.82H58.664V24h-1.5V12.625h7.047v1.227H58.664v3.9h4.773ZM8.6,40.906v3.625H4.984V40.906Zm12.578,2.07H16.406V48h-1.5V36.625h7.047v1.227H16.406v3.9H21.18Zm9-.234H25.25v4.031h5.727V48H23.75V36.625H30.9v1.227H25.25v3.664h4.93Zm8.945,2.281H34.359L33.289,48H31.742l4.344-11.375H37.4L41.75,48H40.211ZM34.813,43.8H38.68l-1.937-5.32Zm14.742-.82H44.781V48h-1.5V36.625h7.047v1.227H44.781v3.9h4.773Zm15.281-.3a7.037,7.037,0,0,1-.562,2.918,4.261,4.261,0,0,1-1.594,1.9,4.4,4.4,0,0,1-6.4-1.887,6.752,6.752,0,0,1-.59-2.832v-.82a6.953,6.953,0,0,1,.57-2.9,4.218,4.218,0,0,1,4-2.594,4.41,4.41,0,0,1,2.41.66,4.253,4.253,0,0,1,1.605,1.914,7.071,7.071,0,0,1,.563,2.918Zm-1.492-.734a5.1,5.1,0,0,0-.812-3.105,2.68,2.68,0,0,0-2.273-1.082A2.651,2.651,0,0,0,58.02,38.84a5,5,0,0,0-.84,3v.836A5.107,5.107,0,0,0,58,45.762a2.888,2.888,0,0,0,4.52.063,5.079,5.079,0,0,0,.82-3.035ZM67.086,48V36.625H70.3a5.169,5.169,0,0,1,2.625.656,4.438,4.438,0,0,1,1.762,1.867,6.078,6.078,0,0,1,.629,2.781v.727a6.1,6.1,0,0,1-.621,2.82,4.369,4.369,0,0,1-1.773,1.859A5.5,5.5,0,0,1,70.234,48Zm1.5-10.148v8.922h1.578a3.434,3.434,0,0,0,2.7-1.079,4.458,4.458,0,0,0,.965-3.073v-.665a4.529,4.529,0,0,0-.91-3.014,3.239,3.239,0,0,0-2.582-1.091Zm15.266,5.125H79.078V48h-1.5V36.625h7.047v1.227H79.078v3.9h4.773Z" transform="translate(705 1316.984)" fill="#12263f"/>
    <path id="Trazado_637534" data-name="Trazado 637534" d="M4.588,4.2l3.287,9.281L11.145,4.2h3.463V17H11.962V13.5l.264-6.038L8.771,17H6.961L3.516,7.473,3.779,13.5V17H1.143V4.2ZM22.254,17A2.821,2.821,0,0,1,22,16.147a3.073,3.073,0,0,1-2.4,1.028,3.376,3.376,0,0,1-2.316-.809,2.6,2.6,0,0,1-.918-2.039,2.687,2.687,0,0,1,1.121-2.32,5.529,5.529,0,0,1,3.239-.817h1.169v-.545a1.567,1.567,0,0,0-.338-1.055,1.331,1.331,0,0,0-1.068-.4,1.513,1.513,0,0,0-1.006.308,1.045,1.045,0,0,0-.365.844h-2.54a2.551,2.551,0,0,1,.51-1.529,3.37,3.37,0,0,1,1.441-1.1,5.253,5.253,0,0,1,2.092-.4A4.15,4.15,0,0,1,23.41,8.2a3.09,3.09,0,0,1,1.033,2.483V14.8a4.546,4.546,0,0,0,.378,2.048V17Zm-2.1-1.767a2.188,2.188,0,0,0,1.037-.25,1.645,1.645,0,0,0,.7-.672V12.676h-.949q-1.907,0-2.03,1.318l-.009.149a1.017,1.017,0,0,0,.334.782A1.3,1.3,0,0,0,20.153,15.233ZM31.737,9.872a6.9,6.9,0,0,0-.914-.07,1.86,1.86,0,0,0-1.89.976V17h-2.54V7.49h2.4l.07,1.134a2.354,2.354,0,0,1,2.118-1.31,2.662,2.662,0,0,1,.791.114Zm5.01,5.256a1.666,1.666,0,0,0,1.143-.387,1.355,1.355,0,0,0,.457-1.028h2.382a3.258,3.258,0,0,1-.527,1.771,3.48,3.48,0,0,1-1.419,1.248,4.442,4.442,0,0,1-1.991.444,4.129,4.129,0,0,1-3.217-1.3A5.13,5.13,0,0,1,32.4,12.3v-.167a5.071,5.071,0,0,1,1.169-3.507,4.08,4.08,0,0,1,3.208-1.31A4,4,0,0,1,39.634,8.33a3.594,3.594,0,0,1,1.094,2.7H38.347a1.745,1.745,0,0,0-.457-1.206,1.7,1.7,0,0,0-2.5.183,3.749,3.749,0,0,0-.453,2.1v.264a3.8,3.8,0,0,0,.448,2.113A1.549,1.549,0,0,0,36.747,15.128Zm5.036-2.971a5.64,5.64,0,0,1,.545-2.522A3.989,3.989,0,0,1,43.9,7.921a4.577,4.577,0,0,1,2.377-.606,4.33,4.33,0,0,1,3.142,1.178,4.727,4.727,0,0,1,1.358,3.2l.018.65a4.97,4.97,0,0,1-1.222,3.511,4.735,4.735,0,0,1-6.561,0,5.058,5.058,0,0,1-1.226-3.586Zm2.54.18a3.555,3.555,0,0,0,.51,2.073,1.831,1.831,0,0,0,2.9.009,3.89,3.89,0,0,0,.519-2.267,3.519,3.519,0,0,0-.519-2.06,1.686,1.686,0,0,0-1.459-.731,1.658,1.658,0,0,0-1.441.726A3.955,3.955,0,0,0,44.323,12.338Zm13.184,2.035a.818.818,0,0,0-.461-.734,5.241,5.241,0,0,0-1.481-.479q-3.393-.712-3.393-2.883a2.613,2.613,0,0,1,1.05-2.114,4.237,4.237,0,0,1,2.747-.848,4.56,4.56,0,0,1,2.9.853,2.687,2.687,0,0,1,1.085,2.215H57.41a1.229,1.229,0,0,0-.352-.9,1.488,1.488,0,0,0-1.1-.356,1.52,1.52,0,0,0-.993.29.916.916,0,0,0-.352.738.783.783,0,0,0,.4.681,4.114,4.114,0,0,0,1.349.448,11.019,11.019,0,0,1,1.6.426,2.628,2.628,0,0,1,2.013,2.558,2.481,2.481,0,0,1-1.116,2.1,4.815,4.815,0,0,1-2.883.8,5.029,5.029,0,0,1-2.123-.426A3.561,3.561,0,0,1,52.4,15.581a2.716,2.716,0,0,1-.527-1.6h2.408a1.326,1.326,0,0,0,.5,1.037,1.987,1.987,0,0,0,1.248.36,1.839,1.839,0,0,0,1.1-.277A.861.861,0,0,0,57.507,14.372Zm8.191-2.2a5.731,5.731,0,0,1,1-3.542,3.237,3.237,0,0,1,2.729-1.318,2.913,2.913,0,0,1,2.294,1.037V3.5h2.549V17H71.974l-.123-1.011a2.989,2.989,0,0,1-2.443,1.187,3.228,3.228,0,0,1-2.694-1.323A5.916,5.916,0,0,1,65.7,12.175Zm2.54.189a3.754,3.754,0,0,0,.466,2.051,1.517,1.517,0,0,0,1.354.713,1.7,1.7,0,0,0,1.661-.995V10.375a1.675,1.675,0,0,0-1.644-.995Q68.238,9.38,68.238,12.364Zm12.375,4.812a4.668,4.668,0,0,1-3.406-1.283,4.561,4.561,0,0,1-1.314-3.419v-.246a5.745,5.745,0,0,1,.554-2.562,4.064,4.064,0,0,1,1.569-1.74,4.4,4.4,0,0,1,2.316-.611A3.947,3.947,0,0,1,83.4,8.545a5,5,0,0,1,1.121,3.489v1.037H78.469a2.36,2.36,0,0,0,.743,1.494,2.245,2.245,0,0,0,1.569.563,2.742,2.742,0,0,0,2.294-1.063l1.248,1.4a3.813,3.813,0,0,1-1.547,1.261A5.075,5.075,0,0,1,80.613,17.176Zm-.29-7.813a1.587,1.587,0,0,0-1.226.512,2.651,2.651,0,0,0-.6,1.466h3.533v-.2a1.891,1.891,0,0,0-.457-1.311A1.638,1.638,0,0,0,80.323,9.362Zm15.469.51a6.9,6.9,0,0,0-.914-.07,1.86,1.86,0,0,0-1.89.976V17h-2.54V7.49h2.4l.07,1.134a2.354,2.354,0,0,1,2.118-1.31,2.662,2.662,0,0,1,.791.114Zm5.432,7.3a4.668,4.668,0,0,1-3.406-1.283A4.561,4.561,0,0,1,96.5,12.474v-.246a5.745,5.745,0,0,1,.554-2.562,4.064,4.064,0,0,1,1.569-1.74,4.4,4.4,0,0,1,2.316-.611,3.947,3.947,0,0,1,3.072,1.23,5,5,0,0,1,1.121,3.489v1.037H99.079a2.36,2.36,0,0,0,.743,1.494,2.245,2.245,0,0,0,1.569.563,2.742,2.742,0,0,0,2.294-1.063l1.248,1.4a3.813,3.813,0,0,1-1.547,1.261A5.075,5.075,0,0,1,101.224,17.176Zm-.29-7.813a1.587,1.587,0,0,0-1.226.512,2.651,2.651,0,0,0-.6,1.466h3.533v-.2a1.891,1.891,0,0,0-.457-1.311A1.638,1.638,0,0,0,100.934,9.362ZM107.271,17V9.354h-1.415V7.49h1.415V6.682a3.283,3.283,0,0,1,.918-2.483,3.557,3.557,0,0,1,2.571-.883,5.938,5.938,0,0,1,1.292.176l-.026,1.969a3.238,3.238,0,0,0-.773-.079q-1.433,0-1.433,1.345V7.49h1.89V9.354h-1.89V17Zm9.923.176a4.668,4.668,0,0,1-3.406-1.283,4.561,4.561,0,0,1-1.314-3.419v-.246a5.745,5.745,0,0,1,.554-2.562,4.064,4.064,0,0,1,1.569-1.74,4.4,4.4,0,0,1,2.316-.611,3.947,3.947,0,0,1,3.072,1.23,5,5,0,0,1,1.121,3.489v1.037h-6.056a2.36,2.36,0,0,0,.743,1.494,2.245,2.245,0,0,0,1.569.563,2.742,2.742,0,0,0,2.294-1.063l1.248,1.4a3.813,3.813,0,0,1-1.547,1.261A5.075,5.075,0,0,1,117.193,17.176Zm-.29-7.813a1.587,1.587,0,0,0-1.226.512,2.651,2.651,0,0,0-.6,1.466h3.533v-.2a1.891,1.891,0,0,0-.457-1.311A1.638,1.638,0,0,0,116.9,9.362Zm10.986.51a6.9,6.9,0,0,0-.914-.07,1.86,1.86,0,0,0-1.89.976V17h-2.54V7.49h2.4l.07,1.134a2.354,2.354,0,0,1,2.118-1.31,2.662,2.662,0,0,1,.791.114Zm5.432,7.3a4.668,4.668,0,0,1-3.406-1.283,4.561,4.561,0,0,1-1.314-3.419v-.246a5.745,5.745,0,0,1,.554-2.562,4.064,4.064,0,0,1,1.569-1.74,4.4,4.4,0,0,1,2.316-.611,3.947,3.947,0,0,1,3.072,1.23,5,5,0,0,1,1.121,3.489v1.037h-6.056a2.36,2.36,0,0,0,.743,1.494,2.245,2.245,0,0,0,1.569.563,2.742,2.742,0,0,0,2.294-1.063l1.248,1.4a3.813,3.813,0,0,1-1.547,1.261A5.075,5.075,0,0,1,133.321,17.176Zm-.29-7.813a1.587,1.587,0,0,0-1.226.512,2.651,2.651,0,0,0-.6,1.466h3.533v-.2a1.891,1.891,0,0,0-.457-1.311A1.638,1.638,0,0,0,133.031,9.362Zm7.98-1.872.079,1.1a3.32,3.32,0,0,1,2.733-1.274,2.759,2.759,0,0,1,2.25.888,4.142,4.142,0,0,1,.756,2.654V17h-2.54V10.918a1.648,1.648,0,0,0-.352-1.173,1.574,1.574,0,0,0-1.169-.365,1.747,1.747,0,0,0-1.608.914V17h-2.54V7.49Zm11.7,7.638a1.666,1.666,0,0,0,1.143-.387,1.355,1.355,0,0,0,.457-1.028h2.382a3.258,3.258,0,0,1-.527,1.771,3.48,3.48,0,0,1-1.419,1.248,4.442,4.442,0,0,1-1.991.444,4.129,4.129,0,0,1-3.217-1.3,5.13,5.13,0,0,1-1.178-3.582v-.167a5.071,5.071,0,0,1,1.169-3.507,4.08,4.08,0,0,1,3.208-1.31A4,4,0,0,1,155.6,8.33a3.594,3.594,0,0,1,1.094,2.7H154.31a1.745,1.745,0,0,0-.457-1.206,1.7,1.7,0,0,0-2.5.183,3.749,3.749,0,0,0-.453,2.1v.264a3.8,3.8,0,0,0,.448,2.113A1.549,1.549,0,0,0,152.71,15.128ZM160.822,17h-2.549V7.49h2.549Zm-2.7-11.971a1.251,1.251,0,0,1,.382-.94,1.648,1.648,0,0,1,2.079,0,1.244,1.244,0,0,1,.387.94,1.247,1.247,0,0,1-.391.949,1.629,1.629,0,0,1-2.065,0A1.247,1.247,0,0,1,158.124,5.029ZM168.425,17a2.821,2.821,0,0,1-.255-.853,3.073,3.073,0,0,1-2.4,1.028,3.376,3.376,0,0,1-2.316-.809,2.6,2.6,0,0,1-.918-2.039,2.687,2.687,0,0,1,1.121-2.32,5.529,5.529,0,0,1,3.239-.817h1.169v-.545a1.567,1.567,0,0,0-.338-1.055,1.331,1.331,0,0,0-1.068-.4,1.513,1.513,0,0,0-1.006.308,1.045,1.045,0,0,0-.365.844h-2.54a2.551,2.551,0,0,1,.51-1.529,3.37,3.37,0,0,1,1.441-1.1,5.253,5.253,0,0,1,2.092-.4,4.15,4.15,0,0,1,2.791.883,3.09,3.09,0,0,1,1.033,2.483V14.8a4.546,4.546,0,0,0,.378,2.048V17Zm-2.1-1.767a2.188,2.188,0,0,0,1.037-.25,1.645,1.645,0,0,0,.7-.672V12.676h-.949q-1.907,0-2.03,1.318l-.009.149a1.017,1.017,0,0,0,.334.782A1.3,1.3,0,0,0,166.324,15.233ZM179.728,17h-2.549V7.49h2.549Zm-2.7-11.971a1.251,1.251,0,0,1,.382-.94,1.648,1.648,0,0,1,2.079,0,1.244,1.244,0,0,1,.387.94,1.247,1.247,0,0,1-.391.949,1.629,1.629,0,0,1-2.065,0A1.247,1.247,0,0,1,177.029,5.029Zm7.128,2.461.079,1.1a3.32,3.32,0,0,1,2.733-1.274,2.759,2.759,0,0,1,2.25.888,4.142,4.142,0,0,1,.756,2.654V17h-2.54V10.918a1.648,1.648,0,0,0-.352-1.173,1.574,1.574,0,0,0-1.169-.365,1.747,1.747,0,0,0-1.608.914V17h-2.54V7.49Zm7.348,4.685a5.731,5.731,0,0,1,1-3.542,3.237,3.237,0,0,1,2.729-1.318,2.913,2.913,0,0,1,2.294,1.037V3.5h2.549V17H197.78l-.123-1.011a2.989,2.989,0,0,1-2.443,1.187,3.228,3.228,0,0,1-2.694-1.323A5.916,5.916,0,0,1,191.5,12.175Zm2.54.189a3.754,3.754,0,0,0,.466,2.051,1.517,1.517,0,0,0,1.354.713,1.7,1.7,0,0,0,1.661-.995V10.375a1.675,1.675,0,0,0-1.644-.995Q194.045,9.38,194.045,12.364Zm13.693,3.669a3.185,3.185,0,0,1-2.6,1.143A3,3,0,0,1,202.8,16.3a3.752,3.752,0,0,1-.822-2.575V7.49h2.54v6.151q0,1.487,1.354,1.487a1.834,1.834,0,0,0,1.775-.9V7.49H210.2V17h-2.391Zm9.527-1.661a.818.818,0,0,0-.461-.734,5.241,5.241,0,0,0-1.481-.479q-3.393-.712-3.393-2.883a2.613,2.613,0,0,1,1.05-2.114,4.237,4.237,0,0,1,2.747-.848,4.56,4.56,0,0,1,2.9.853,2.687,2.687,0,0,1,1.085,2.215h-2.54a1.229,1.229,0,0,0-.352-.9,1.488,1.488,0,0,0-1.1-.356,1.52,1.52,0,0,0-.993.29.916.916,0,0,0-.352.738.783.783,0,0,0,.4.681,4.114,4.114,0,0,0,1.349.448,11.019,11.019,0,0,1,1.6.426,2.628,2.628,0,0,1,2.013,2.558,2.481,2.481,0,0,1-1.116,2.1,4.815,4.815,0,0,1-2.883.8,5.029,5.029,0,0,1-2.123-.426,3.561,3.561,0,0,1-1.455-1.169,2.716,2.716,0,0,1-.527-1.6h2.408a1.326,1.326,0,0,0,.5,1.037,1.987,1.987,0,0,0,1.248.36,1.839,1.839,0,0,0,1.1-.277A.861.861,0,0,0,217.266,14.372Zm7.146-9.22V7.49h1.626V9.354h-1.626V14.1a1.133,1.133,0,0,0,.2.756,1.015,1.015,0,0,0,.773.229,4.051,4.051,0,0,0,.747-.062v1.925a5.229,5.229,0,0,1-1.538.229,2.425,2.425,0,0,1-2.725-2.7V9.354h-1.389V7.49h1.389V5.152Zm8.385,4.72a6.9,6.9,0,0,0-.914-.07,1.86,1.86,0,0,0-1.89.976V17h-2.54V7.49h2.4l.07,1.134a2.354,2.354,0,0,1,2.118-1.31,2.662,2.662,0,0,1,.791.114ZM236.7,17h-2.549V7.49H236.7ZM234,5.029a1.251,1.251,0,0,1,.382-.94,1.648,1.648,0,0,1,2.079,0,1.244,1.244,0,0,1,.387.94,1.247,1.247,0,0,1-.391.949,1.629,1.629,0,0,1-2.065,0A1.247,1.247,0,0,1,234,5.029ZM244.3,17a2.821,2.821,0,0,1-.255-.853,3.073,3.073,0,0,1-2.4,1.028,3.376,3.376,0,0,1-2.316-.809,2.6,2.6,0,0,1-.918-2.039,2.687,2.687,0,0,1,1.121-2.32,5.529,5.529,0,0,1,3.239-.817h1.169v-.545a1.567,1.567,0,0,0-.338-1.055,1.331,1.331,0,0,0-1.068-.4,1.513,1.513,0,0,0-1.006.308,1.045,1.045,0,0,0-.365.844h-2.54a2.551,2.551,0,0,1,.51-1.529,3.37,3.37,0,0,1,1.441-1.1,5.253,5.253,0,0,1,2.092-.4,4.15,4.15,0,0,1,2.791.883,3.09,3.09,0,0,1,1.033,2.483V14.8a4.546,4.546,0,0,0,.378,2.048V17Zm-2.1-1.767a2.188,2.188,0,0,0,1.037-.25,1.645,1.645,0,0,0,.7-.672V12.676h-.949q-1.907,0-2.03,1.318l-.009.149a1.017,1.017,0,0,0,.334.782A1.3,1.3,0,0,0,242.2,15.233Zm11.391-.861a.818.818,0,0,0-.461-.734,5.241,5.241,0,0,0-1.481-.479q-3.393-.712-3.393-2.883a2.613,2.613,0,0,1,1.05-2.114,4.237,4.237,0,0,1,2.747-.848,4.56,4.56,0,0,1,2.9.853,2.687,2.687,0,0,1,1.085,2.215h-2.54a1.229,1.229,0,0,0-.352-.9,1.488,1.488,0,0,0-1.1-.356,1.52,1.52,0,0,0-.993.29.916.916,0,0,0-.352.738.783.783,0,0,0,.4.681,4.114,4.114,0,0,0,1.349.448,11.019,11.019,0,0,1,1.6.426,2.628,2.628,0,0,1,2.013,2.558,2.481,2.481,0,0,1-1.116,2.1,4.815,4.815,0,0,1-2.883.8,5.029,5.029,0,0,1-2.123-.426,3.561,3.561,0,0,1-1.455-1.169,2.716,2.716,0,0,1-.527-1.6h2.408a1.326,1.326,0,0,0,.5,1.037,1.987,1.987,0,0,0,1.248.36,1.839,1.839,0,0,0,1.1-.277A.861.861,0,0,0,253.591,14.372Z" transform="translate(677 1048.984)" fill="#12263f"/>
    <path id="Trazado_637535" data-name="Trazado 637535" d="M4.588-12.8,7.875-3.516l3.27-9.281h3.463V0H11.962V-3.5l.264-6.038L8.771,0H6.961L3.516-9.527,3.779-3.5V0H1.143V-12.8ZM22.254,0A2.821,2.821,0,0,1,22-.853,3.073,3.073,0,0,1,19.6.176a3.376,3.376,0,0,1-2.316-.809,2.6,2.6,0,0,1-.918-2.039,2.687,2.687,0,0,1,1.121-2.32,5.529,5.529,0,0,1,3.239-.817h1.169v-.545a1.567,1.567,0,0,0-.338-1.055,1.331,1.331,0,0,0-1.068-.4,1.513,1.513,0,0,0-1.006.308,1.045,1.045,0,0,0-.365.844h-2.54a2.551,2.551,0,0,1,.51-1.529,3.37,3.37,0,0,1,1.441-1.1,5.253,5.253,0,0,1,2.092-.4A4.15,4.15,0,0,1,23.41-8.8a3.09,3.09,0,0,1,1.033,2.483V-2.2A4.546,4.546,0,0,0,24.82-.149V0Zm-2.1-1.767a2.188,2.188,0,0,0,1.037-.25,1.645,1.645,0,0,0,.7-.672V-4.324h-.949q-1.907,0-2.03,1.318l-.009.149a1.017,1.017,0,0,0,.334.782A1.3,1.3,0,0,0,20.153-1.767ZM31.737-7.128a6.9,6.9,0,0,0-.914-.07,1.86,1.86,0,0,0-1.89.976V0h-2.54V-9.51h2.4l.07,1.134a2.354,2.354,0,0,1,2.118-1.31,2.662,2.662,0,0,1,.791.114Zm5.01,5.256a1.666,1.666,0,0,0,1.143-.387,1.355,1.355,0,0,0,.457-1.028h2.382A3.258,3.258,0,0,1,40.2-1.516,3.48,3.48,0,0,1,38.782-.268a4.442,4.442,0,0,1-1.991.444,4.129,4.129,0,0,1-3.217-1.3A5.13,5.13,0,0,1,32.4-4.7v-.167a5.071,5.071,0,0,1,1.169-3.507,4.08,4.08,0,0,1,3.208-1.31A4,4,0,0,1,39.634-8.67a3.594,3.594,0,0,1,1.094,2.7H38.347a1.745,1.745,0,0,0-.457-1.206,1.524,1.524,0,0,0-1.16-.464,1.53,1.53,0,0,0-1.34.647,3.749,3.749,0,0,0-.453,2.1v.264a3.8,3.8,0,0,0,.448,2.113A1.549,1.549,0,0,0,36.747-1.872Zm5.036-2.971a5.64,5.64,0,0,1,.545-2.522A3.989,3.989,0,0,1,43.9-9.079a4.577,4.577,0,0,1,2.377-.606,4.33,4.33,0,0,1,3.142,1.178,4.727,4.727,0,0,1,1.358,3.2l.018.65A4.97,4.97,0,0,1,49.57-1.147,4.247,4.247,0,0,1,46.292.176a4.268,4.268,0,0,1-3.283-1.318,5.058,5.058,0,0,1-1.226-3.586Zm2.54.18a3.555,3.555,0,0,0,.51,2.073,1.682,1.682,0,0,0,1.459.717,1.686,1.686,0,0,0,1.441-.709,3.89,3.89,0,0,0,.519-2.267,3.519,3.519,0,0,0-.519-2.06,1.686,1.686,0,0,0-1.459-.731,1.658,1.658,0,0,0-1.441.726A3.955,3.955,0,0,0,44.323-4.662ZM57.507-2.628a.818.818,0,0,0-.461-.734,5.241,5.241,0,0,0-1.481-.479q-3.393-.712-3.393-2.883a2.613,2.613,0,0,1,1.05-2.114,4.237,4.237,0,0,1,2.747-.848,4.56,4.56,0,0,1,2.9.853A2.687,2.687,0,0,1,59.95-6.618H57.41a1.229,1.229,0,0,0-.352-.9,1.488,1.488,0,0,0-1.1-.356,1.52,1.52,0,0,0-.993.29.916.916,0,0,0-.352.738.783.783,0,0,0,.4.681,4.114,4.114,0,0,0,1.349.448,11.019,11.019,0,0,1,1.6.426,2.628,2.628,0,0,1,2.013,2.558,2.481,2.481,0,0,1-1.116,2.1,4.815,4.815,0,0,1-2.883.8A5.029,5.029,0,0,1,53.855-.25,3.561,3.561,0,0,1,52.4-1.419a2.716,2.716,0,0,1-.527-1.6h2.408a1.326,1.326,0,0,0,.5,1.037,1.987,1.987,0,0,0,1.248.36,1.839,1.839,0,0,0,1.1-.277A.861.861,0,0,0,57.507-2.628Zm8.191-2.2a5.731,5.731,0,0,1,1-3.542,3.237,3.237,0,0,1,2.729-1.318,2.913,2.913,0,0,1,2.294,1.037V-13.5h2.549V0H71.974l-.123-1.011A2.989,2.989,0,0,1,69.407.176a3.228,3.228,0,0,1-2.694-1.323A5.916,5.916,0,0,1,65.7-4.825Zm2.54.189A3.754,3.754,0,0,0,68.7-2.585a1.517,1.517,0,0,0,1.354.713,1.7,1.7,0,0,0,1.661-.995V-6.625a1.675,1.675,0,0,0-1.644-.995Q68.238-7.62,68.238-4.636ZM80.613.176a4.668,4.668,0,0,1-3.406-1.283,4.561,4.561,0,0,1-1.314-3.419v-.246a5.745,5.745,0,0,1,.554-2.562,4.064,4.064,0,0,1,1.569-1.74,4.4,4.4,0,0,1,2.316-.611A3.947,3.947,0,0,1,83.4-8.455a5,5,0,0,1,1.121,3.489v1.037H78.469a2.36,2.36,0,0,0,.743,1.494,2.245,2.245,0,0,0,1.569.563,2.742,2.742,0,0,0,2.294-1.063l1.248,1.4A3.813,3.813,0,0,1,82.775-.277,5.075,5.075,0,0,1,80.613.176Zm-.29-7.813a1.587,1.587,0,0,0-1.226.512,2.651,2.651,0,0,0-.6,1.466h3.533v-.2a1.891,1.891,0,0,0-.457-1.311A1.638,1.638,0,0,0,80.323-7.638Zm15.469.51a6.9,6.9,0,0,0-.914-.07,1.86,1.86,0,0,0-1.89.976V0h-2.54V-9.51h2.4l.07,1.134a2.354,2.354,0,0,1,2.118-1.31,2.662,2.662,0,0,1,.791.114Zm5.432,7.3a4.668,4.668,0,0,1-3.406-1.283A4.561,4.561,0,0,1,96.5-4.526v-.246a5.745,5.745,0,0,1,.554-2.562,4.064,4.064,0,0,1,1.569-1.74,4.4,4.4,0,0,1,2.316-.611,3.947,3.947,0,0,1,3.072,1.23,5,5,0,0,1,1.121,3.489v1.037H99.079a2.36,2.36,0,0,0,.743,1.494,2.245,2.245,0,0,0,1.569.563,2.742,2.742,0,0,0,2.294-1.063l1.248,1.4a3.813,3.813,0,0,1-1.547,1.261A5.075,5.075,0,0,1,101.224.176Zm-.29-7.813a1.587,1.587,0,0,0-1.226.512,2.651,2.651,0,0,0-.6,1.466h3.533v-.2a1.891,1.891,0,0,0-.457-1.311A1.638,1.638,0,0,0,100.934-7.638ZM107.271,0V-7.646h-1.415V-9.51h1.415v-.809a3.283,3.283,0,0,1,.918-2.483,3.557,3.557,0,0,1,2.571-.883,5.938,5.938,0,0,1,1.292.176l-.026,1.969a3.238,3.238,0,0,0-.773-.079q-1.433,0-1.433,1.345v.765h1.89v1.863h-1.89V0Zm9.923.176a4.668,4.668,0,0,1-3.406-1.283,4.561,4.561,0,0,1-1.314-3.419v-.246a5.745,5.745,0,0,1,.554-2.562,4.064,4.064,0,0,1,1.569-1.74,4.4,4.4,0,0,1,2.316-.611,3.947,3.947,0,0,1,3.072,1.23A5,5,0,0,1,121.1-4.966v1.037h-6.056a2.36,2.36,0,0,0,.743,1.494,2.245,2.245,0,0,0,1.569.563,2.742,2.742,0,0,0,2.294-1.063l1.248,1.4a3.813,3.813,0,0,1-1.547,1.261A5.075,5.075,0,0,1,117.193.176Zm-.29-7.813a1.587,1.587,0,0,0-1.226.512,2.651,2.651,0,0,0-.6,1.466h3.533v-.2a1.891,1.891,0,0,0-.457-1.311A1.638,1.638,0,0,0,116.9-7.638Zm10.986.51a6.9,6.9,0,0,0-.914-.07,1.86,1.86,0,0,0-1.89.976V0h-2.54V-9.51h2.4l.07,1.134a2.354,2.354,0,0,1,2.118-1.31,2.662,2.662,0,0,1,.791.114Zm5.432,7.3a4.668,4.668,0,0,1-3.406-1.283A4.561,4.561,0,0,1,128.6-4.526v-.246a5.745,5.745,0,0,1,.554-2.562,4.064,4.064,0,0,1,1.569-1.74,4.4,4.4,0,0,1,2.316-.611,3.947,3.947,0,0,1,3.072,1.23,5,5,0,0,1,1.121,3.489v1.037h-6.056a2.36,2.36,0,0,0,.743,1.494,2.245,2.245,0,0,0,1.569.563,2.742,2.742,0,0,0,2.294-1.063l1.248,1.4a3.813,3.813,0,0,1-1.547,1.261A5.075,5.075,0,0,1,133.321.176Zm-.29-7.813a1.587,1.587,0,0,0-1.226.512,2.651,2.651,0,0,0-.6,1.466h3.533v-.2a1.891,1.891,0,0,0-.457-1.311A1.638,1.638,0,0,0,133.031-7.638Zm7.98-1.872.079,1.1a3.32,3.32,0,0,1,2.733-1.274,2.759,2.759,0,0,1,2.25.888,4.142,4.142,0,0,1,.756,2.654V0h-2.54V-6.082a1.648,1.648,0,0,0-.352-1.173,1.574,1.574,0,0,0-1.169-.365,1.747,1.747,0,0,0-1.608.914V0h-2.54V-9.51Zm11.7,7.638a1.666,1.666,0,0,0,1.143-.387,1.355,1.355,0,0,0,.457-1.028h2.382a3.258,3.258,0,0,1-.527,1.771,3.48,3.48,0,0,1-1.419,1.248,4.442,4.442,0,0,1-1.991.444,4.129,4.129,0,0,1-3.217-1.3A5.13,5.13,0,0,1,148.359-4.7v-.167a5.071,5.071,0,0,1,1.169-3.507,4.08,4.08,0,0,1,3.208-1.31A4,4,0,0,1,155.6-8.67a3.594,3.594,0,0,1,1.094,2.7H154.31a1.745,1.745,0,0,0-.457-1.206,1.524,1.524,0,0,0-1.16-.464,1.53,1.53,0,0,0-1.34.647,3.749,3.749,0,0,0-.453,2.1v.264a3.8,3.8,0,0,0,.448,2.113A1.549,1.549,0,0,0,152.71-1.872ZM160.822,0h-2.549V-9.51h2.549Zm-2.7-11.971a1.251,1.251,0,0,1,.382-.94,1.436,1.436,0,0,1,1.042-.369,1.44,1.44,0,0,1,1.037.369,1.244,1.244,0,0,1,.387.94,1.247,1.247,0,0,1-.391.949,1.443,1.443,0,0,1-1.033.369,1.443,1.443,0,0,1-1.033-.369A1.247,1.247,0,0,1,158.124-11.971ZM168.425,0a2.821,2.821,0,0,1-.255-.853,3.073,3.073,0,0,1-2.4,1.028,3.376,3.376,0,0,1-2.316-.809,2.6,2.6,0,0,1-.918-2.039,2.687,2.687,0,0,1,1.121-2.32A5.529,5.529,0,0,1,166.9-5.81h1.169v-.545a1.567,1.567,0,0,0-.338-1.055,1.331,1.331,0,0,0-1.068-.4,1.513,1.513,0,0,0-1.006.308,1.045,1.045,0,0,0-.365.844h-2.54a2.551,2.551,0,0,1,.51-1.529,3.37,3.37,0,0,1,1.441-1.1,5.253,5.253,0,0,1,2.092-.4,4.15,4.15,0,0,1,2.791.883,3.09,3.09,0,0,1,1.033,2.483V-2.2a4.546,4.546,0,0,0,.378,2.048V0Zm-2.1-1.767a2.188,2.188,0,0,0,1.037-.25,1.645,1.645,0,0,0,.7-.672V-4.324h-.949q-1.907,0-2.03,1.318l-.009.149a1.017,1.017,0,0,0,.334.782A1.3,1.3,0,0,0,166.324-1.767Zm10.327-3.059a5.731,5.731,0,0,1,1-3.542,3.237,3.237,0,0,1,2.729-1.318,2.913,2.913,0,0,1,2.294,1.037V-13.5h2.549V0h-2.294L182.8-1.011A2.989,2.989,0,0,1,180.36.176a3.228,3.228,0,0,1-2.694-1.323A5.916,5.916,0,0,1,176.651-4.825Zm2.54.189a3.754,3.754,0,0,0,.466,2.051,1.517,1.517,0,0,0,1.354.713,1.7,1.7,0,0,0,1.661-.995V-6.625a1.675,1.675,0,0,0-1.644-.995Q179.191-7.62,179.191-4.636Zm7.6-.207a5.64,5.64,0,0,1,.545-2.522,3.989,3.989,0,0,1,1.569-1.714,4.577,4.577,0,0,1,2.377-.606,4.33,4.33,0,0,1,3.142,1.178,4.727,4.727,0,0,1,1.358,3.2l.018.65a4.97,4.97,0,0,1-1.222,3.511A4.247,4.247,0,0,1,191.3.176a4.268,4.268,0,0,1-3.283-1.318,5.058,5.058,0,0,1-1.226-3.586Zm2.54.18a3.555,3.555,0,0,0,.51,2.073,1.682,1.682,0,0,0,1.459.717,1.686,1.686,0,0,0,1.441-.709,3.89,3.89,0,0,0,.519-2.267,3.519,3.519,0,0,0-.519-2.06,1.686,1.686,0,0,0-1.459-.731,1.658,1.658,0,0,0-1.441.726A3.955,3.955,0,0,0,189.334-4.662ZM199.749-9.51l.079,1.063a3.342,3.342,0,0,1,2.733-1.239,2.536,2.536,0,0,1,2.522,1.45,3.265,3.265,0,0,1,2.856-1.45,2.836,2.836,0,0,1,2.3.9A4.141,4.141,0,0,1,211-6.073V0H208.45V-6.064a1.811,1.811,0,0,0-.316-1.182,1.4,1.4,0,0,0-1.116-.374,1.585,1.585,0,0,0-1.582,1.09L205.444,0H202.9V-6.056a1.789,1.789,0,0,0-.325-1.2,1.416,1.416,0,0,0-1.107-.369,1.646,1.646,0,0,0-1.564.9V0h-2.54V-9.51ZM215.631,0h-2.549V-9.51h2.549Zm-2.7-11.971a1.251,1.251,0,0,1,.382-.94,1.436,1.436,0,0,1,1.042-.369,1.44,1.44,0,0,1,1.037.369,1.244,1.244,0,0,1,.387.94,1.247,1.247,0,0,1-.391.949,1.443,1.443,0,0,1-1.033.369,1.443,1.443,0,0,1-1.033-.369A1.247,1.247,0,0,1,212.933-11.971Zm7.128,2.461.079,1.1a3.32,3.32,0,0,1,2.733-1.274,2.759,2.759,0,0,1,2.25.888,4.142,4.142,0,0,1,.756,2.654V0h-2.54V-6.082a1.648,1.648,0,0,0-.352-1.173,1.574,1.574,0,0,0-1.169-.365,1.747,1.747,0,0,0-1.608.914V0h-2.54V-9.51ZM230.484,0h-2.549V-9.51h2.549Zm-2.7-11.971a1.251,1.251,0,0,1,.382-.94,1.436,1.436,0,0,1,1.042-.369,1.44,1.44,0,0,1,1.037.369,1.244,1.244,0,0,1,.387.94,1.247,1.247,0,0,1-.391.949,1.443,1.443,0,0,1-1.033.369,1.443,1.443,0,0,1-1.033-.369A1.247,1.247,0,0,1,227.786-11.971Zm4.395,7.128a5.64,5.64,0,0,1,.545-2.522,3.989,3.989,0,0,1,1.569-1.714,4.577,4.577,0,0,1,2.377-.606,4.33,4.33,0,0,1,3.142,1.178,4.727,4.727,0,0,1,1.358,3.2l.018.65a4.97,4.97,0,0,1-1.222,3.511A4.247,4.247,0,0,1,236.689.176a4.268,4.268,0,0,1-3.283-1.318,5.058,5.058,0,0,1-1.226-3.586Zm2.54.18a3.555,3.555,0,0,0,.51,2.073,1.682,1.682,0,0,0,1.459.717,1.686,1.686,0,0,0,1.441-.709,3.89,3.89,0,0,0,.519-2.267,3.519,3.519,0,0,0-.519-2.06,1.686,1.686,0,0,0-1.459-.731,1.658,1.658,0,0,0-1.441.726A3.955,3.955,0,0,0,234.721-4.662Z" transform="translate(1108 1063.984)" fill="#12263f"/>
    <path id="Trazado_637536" data-name="Trazado 637536" d="M4.641,9.906v3.625H1.023V9.906ZM14.3,11.93a7.053,7.053,0,0,1-2.809-1.363,2.6,2.6,0,0,1-.879-2,2.751,2.751,0,0,1,1.074-2.223,4.269,4.269,0,0,1,2.793-.879,4.66,4.66,0,0,1,2.09.453,3.436,3.436,0,0,1,1.422,1.25,3.2,3.2,0,0,1,.5,1.742H16.984a2.08,2.08,0,0,0-.656-1.627A2.669,2.669,0,0,0,14.477,6.7a2.732,2.732,0,0,0-1.73.489,1.632,1.632,0,0,0-.621,1.358,1.468,1.468,0,0,0,.59,1.178,5.785,5.785,0,0,0,2.008.88,9.316,9.316,0,0,1,2.219.88A3.367,3.367,0,0,1,18.129,12.6a2.861,2.861,0,0,1,.387,1.508,2.658,2.658,0,0,1-1.078,2.215,4.6,4.6,0,0,1-2.883.832,5.347,5.347,0,0,1-2.187-.449,3.681,3.681,0,0,1-1.566-1.23A3,3,0,0,1,10.25,13.7h1.508a1.959,1.959,0,0,0,.762,1.629,3.207,3.207,0,0,0,2.035.6,2.948,2.948,0,0,0,1.82-.484,1.573,1.573,0,0,0,.633-1.32,1.545,1.545,0,0,0-.586-1.293A6.755,6.755,0,0,0,14.3,11.93Zm12.422,2.094H21.953L20.883,17H19.336L23.68,5.625h1.313L29.344,17H27.8ZM22.406,12.8h3.867l-1.937-5.32ZM30.875,17V5.625h3.719a4.317,4.317,0,0,1,2.785.766,2.759,2.759,0,0,1,.934,2.266,2.31,2.31,0,0,1-.453,1.41,2.937,2.937,0,0,1-1.234.949,2.638,2.638,0,0,1,1.457.98,2.814,2.814,0,0,1,.535,1.723,3.042,3.042,0,0,1-.992,2.406,4.1,4.1,0,0,1-2.8.875Zm1.5-5.32v4.094h2.477A2.385,2.385,0,0,0,36.5,15.23a1.907,1.907,0,0,0,.605-1.5q0-2.055-2.234-2.055Zm0-1.2h2.266a2.375,2.375,0,0,0,1.574-.493,1.654,1.654,0,0,0,.59-1.339,1.626,1.626,0,0,0-.547-1.366,2.686,2.686,0,0,0-1.664-.427H32.375ZM44.188,11.93a7.053,7.053,0,0,1-2.809-1.363,2.6,2.6,0,0,1-.879-2,2.751,2.751,0,0,1,1.074-2.223,4.269,4.269,0,0,1,2.793-.879,4.66,4.66,0,0,1,2.09.453,3.436,3.436,0,0,1,1.422,1.25,3.2,3.2,0,0,1,.5,1.742H46.875a2.08,2.08,0,0,0-.656-1.627A2.669,2.669,0,0,0,44.367,6.7a2.732,2.732,0,0,0-1.73.489,1.632,1.632,0,0,0-.621,1.358,1.468,1.468,0,0,0,.59,1.178,5.785,5.785,0,0,0,2.008.88,9.316,9.316,0,0,1,2.219.88A3.367,3.367,0,0,1,48.02,12.6a2.861,2.861,0,0,1,.387,1.508,2.658,2.658,0,0,1-1.078,2.215,4.6,4.6,0,0,1-2.883.832,5.347,5.347,0,0,1-2.187-.449,3.681,3.681,0,0,1-1.566-1.23,3,3,0,0,1-.551-1.773h1.508a1.959,1.959,0,0,0,.762,1.629,3.207,3.207,0,0,0,2.035.6,2.948,2.948,0,0,0,1.82-.484,1.573,1.573,0,0,0,.633-1.32,1.545,1.545,0,0,0-.586-1.293A6.755,6.755,0,0,0,44.188,11.93Zm12.422,2.094H51.844L50.773,17H49.227L53.57,5.625h1.313L59.234,17H57.7ZM52.3,12.8h3.867l-1.937-5.32ZM4.641,33.906v3.625H1.023V33.906ZM10.945,41V29.625h3.211a5.169,5.169,0,0,1,2.625.656,4.438,4.438,0,0,1,1.762,1.867,6.078,6.078,0,0,1,.629,2.781v.727a6.1,6.1,0,0,1-.621,2.82,4.369,4.369,0,0,1-1.773,1.859A5.5,5.5,0,0,1,14.094,41Zm1.5-10.148v8.922h1.578a3.434,3.434,0,0,0,2.7-1.079,4.458,4.458,0,0,0,.965-3.073v-.665a4.529,4.529,0,0,0-.91-3.014A3.239,3.239,0,0,0,14.2,30.852ZM30.188,35.68a7.037,7.037,0,0,1-.562,2.918,4.261,4.261,0,0,1-1.594,1.9,4.4,4.4,0,0,1-6.4-1.887,6.752,6.752,0,0,1-.59-2.832v-.82a6.953,6.953,0,0,1,.57-2.9,4.218,4.218,0,0,1,4-2.594,4.41,4.41,0,0,1,2.41.66,4.253,4.253,0,0,1,1.605,1.914,7.071,7.071,0,0,1,.563,2.918ZM28.7,34.945a5.1,5.1,0,0,0-.812-3.105,2.68,2.68,0,0,0-2.273-1.082,2.651,2.651,0,0,0-2.238,1.082,5,5,0,0,0-.84,3v.836a5.107,5.107,0,0,0,.824,3.082,2.888,2.888,0,0,0,4.52.063,5.079,5.079,0,0,0,.82-3.035ZM32.438,41V29.625h3.211a5.169,5.169,0,0,1,2.625.656,4.438,4.438,0,0,1,1.762,1.867,6.078,6.078,0,0,1,.629,2.781v.727a6.1,6.1,0,0,1-.621,2.82,4.369,4.369,0,0,1-1.773,1.859A5.5,5.5,0,0,1,35.586,41Zm1.5-10.148v8.922h1.578a3.434,3.434,0,0,0,2.7-1.079,4.458,4.458,0,0,0,.965-3.073v-.665a4.529,4.529,0,0,0-.91-3.014,3.239,3.239,0,0,0-2.582-1.091Zm15.109,7.172H44.281L43.211,41H41.664l4.344-11.375H47.32L51.672,41H50.133ZM44.734,36.8H48.6l-1.937-5.32Zm14.742-.82H54.7V41H53.2V29.625H60.25v1.227H54.7v3.9h4.773Z" transform="translate(1185 1301.984)" fill="#12263f"/>
  </g>
</svg>
