<svg xmlns="http://www.w3.org/2000/svg" xmlns:xlink="http://www.w3.org/1999/xlink" width="190" height="147" viewBox="0 0 190 147">
  <defs>
    <clipPath id="clip-path">
      <rect id="Rect치ngulo_349171" data-name="Rect치ngulo 349171" width="190" height="147" rx="17" transform="translate(224 3170)" fill="#fff"/>
    </clipPath>
    <clipPath id="clip-path-2">
      <rect id="Rect치ngulo_349176" data-name="Rect치ngulo 349176" width="122.333" height="142.581" fill="#dee9f0"/>
    </clipPath>
  </defs>
  <g id="Enmascarar_grupo_79" data-name="Enmascarar grupo 79" transform="translate(-224 -3170)" clip-path="url(#clip-path)">
    <g id="Grupo_1016692" data-name="Grupo 1016692" transform="translate(247.897 3177.667)">
      <g id="Grupo_1016698" data-name="Grupo 1016698" transform="translate(6.103 -4.999)">
        <g id="Grupo_1016697" data-name="Grupo 1016697" clip-path="url(#clip-path-2)">
          <path id="Trazado_637372" data-name="Trazado 637372" d="M62.532,141.426S.4,108.089,3.813,28.155c0,0,34.853-3.031,58.34-25,0,0,15.911,18.184,58.719,25.381,0,0,9.092,70.842-58.34,112.893" transform="translate(-1.326 -1.137)" fill="#304c8e"/>
          <path id="Trazado_637373" data-name="Trazado 637373" d="M62.532,141.426S.4,108.089,3.813,28.155c0,0,34.853-3.031,58.34-25,0,0,15.911,18.184,58.719,25.381C120.872,28.533,129.964,99.376,62.532,141.426Z" transform="translate(-1.326 -1.137)" fill="none" stroke="#040405" stroke-linecap="round" stroke-linejoin="round" stroke-width="3"/>
          <path id="Trazado_637374" data-name="Trazado 637374" d="M5.247,36.109A93.013,93.013,0,0,0,6.34,52.444c.6,3.579,1.243,7.15,1.856,10.727a2.454,2.454,0,0,1-1.763,2.891A2.335,2.335,0,0,1,3.467,64.35c-.588-2.418-1.089-4.862-1.513-7.314A126.143,126.143,0,0,1,.038,32.24c.038-1.459.088-2.922.234-4.371a4.059,4.059,0,0,1,3.9-4A113.043,113.043,0,0,0,28.157,18.1a108.577,108.577,0,0,0,13.929-6.584A154.577,154.577,0,0,0,58.175,1.262c2.395-1.679,3.712-1.7,6.057.046a134.927,134.927,0,0,0,27.177,15.61,83.027,83.027,0,0,0,18.632,5.5c2.739.481,5.493.883,8.229,1.375a4.17,4.17,0,0,1,3.857,4.327,121.7,121.7,0,0,1-.217,17.258A129.03,129.03,0,0,1,119.3,62.667a120.343,120.343,0,0,1-9.91,28.531,137.713,137.713,0,0,1-10.327,17.249,130.513,130.513,0,0,1-19.086,21.082A123.232,123.232,0,0,1,63.653,141.8a4.276,4.276,0,0,1-4.97-.024,119.724,119.724,0,0,1-25.065-20.738A130.5,130.5,0,0,1,16.532,97.816a110.124,110.124,0,0,1-8.02-16.843,8.955,8.955,0,0,1-.384-1.21,2.428,2.428,0,0,1,1.518-2.818,2.362,2.362,0,0,1,2.95,1.061,15.461,15.461,0,0,1,.823,1.892,116.712,116.712,0,0,0,19.1,32.318,121.273,121.273,0,0,0,27.987,24.846c.389.245.685.433,1.194.107a121.231,121.231,0,0,0,21.044-17.181,117.59,117.59,0,0,0,28.036-45.16,118.156,118.156,0,0,0,5.361-23.193,135.436,135.436,0,0,0,1-22.16c-.02-.533-.137-.779-.741-.862A108.964,108.964,0,0,1,89.565,21.6,121.524,121.524,0,0,1,70.228,11.456c-2.921-1.875-5.737-3.914-8.582-5.907a.7.7,0,0,0-.97.022c-1.347.988-2.691,1.984-4.077,2.918C44.92,16.354,32.612,22.9,18.781,26.119c-4.253.99-8.572,1.7-12.868,2.49-.514.095-.672.258-.67.735.01,2.255,0,4.51,0,6.766" transform="translate(0 0)" fill="#161615"/>
          <path id="Trazado_637375" data-name="Trazado 637375" d="M117.361,49.451a107.16,107.16,0,0,1-5.034,31.687,93.883,93.883,0,0,1-7.4,17.628,107.992,107.992,0,0,1-19.863,25.723,111.466,111.466,0,0,1-15.085,11.8,3.846,3.846,0,0,1-4.648,0,103.694,103.694,0,0,1-33.971-35.89A102.027,102.027,0,0,1,19.373,65.905a103.737,103.737,0,0,1-1.4-19.974c.025-.9.086-1.8.192-2.7a4.008,4.008,0,0,1,3.9-3.9,86.843,86.843,0,0,0,19.316-4.79,86.352,86.352,0,0,0,13.738-6.963c3.365-2.006,6.58-4.268,9.81-6.493,2.115-1.457,3.326-1.569,5.407-.018A111.837,111.837,0,0,0,90.728,33.215a75.777,75.777,0,0,0,16.749,5.146c1.947.389,3.923.625,5.883.951a4.037,4.037,0,0,1,3.792,4.249c.077,1.959.015,3.924.015,5.887l.194,0M23.092,50.4a96.624,96.624,0,0,0,2.2,20.125,96.061,96.061,0,0,0,21.564,43.2,98.8,98.8,0,0,0,20.134,17.7,1.031,1.031,0,0,0,1.338,0,108.9,108.9,0,0,0,10-7.6,95.551,95.551,0,0,0,12.489-12.908A95.548,95.548,0,0,0,109.7,71.993a107.76,107.76,0,0,0,2.523-27.1c-.012-.536-.205-.712-.731-.8-2.324-.387-4.657-.758-6.956-1.266A75.065,75.065,0,0,1,90.57,38.589a108.929,108.929,0,0,1-22.3-12.932A.822.822,0,0,0,67.1,25.63c-2.415,1.682-4.821,3.38-7.3,4.961a95.245,95.245,0,0,1-15.386,8.093,86.582,86.582,0,0,1-20.541,5.394c-.639.09-.791.341-.786.906.016,1.8.006,3.609.006,5.414" transform="translate(-6.47 -7.197)" fill="#161615"/>
          <path id="Trazado_637376" data-name="Trazado 637376" d="M8.073,110.107a2.648,2.648,0,0,1,2.558-2.447,2.646,2.646,0,0,1,2.458,2.624,2.684,2.684,0,0,1-2.694,2.4,2.621,2.621,0,0,1-2.323-2.578" transform="translate(-2.911 -38.834)" fill="#161615"/>
          <path id="Trazado_637377" data-name="Trazado 637377" d="M26,53.472c0-1.8.01-3.609-.006-5.414-.005-.564.146-.816.785-.906a86.579,86.579,0,0,0,20.542-5.394,95.245,95.245,0,0,0,15.386-8.093c2.48-1.582,4.887-3.28,7.3-4.961a.822.822,0,0,1,1.165.027,108.929,108.929,0,0,0,22.3,12.932A75.113,75.113,0,0,0,107.442,45.9c2.3.509,4.632.88,6.956,1.266.525.088.719.263.731.8a107.757,107.757,0,0,1-2.523,27.1A95.548,95.548,0,0,1,93.72,113.993,95.555,95.555,0,0,1,81.231,126.9a109.013,109.013,0,0,1-10,7.6,1.03,1.03,0,0,1-1.338,0,98.8,98.8,0,0,1-20.134-17.7A96.058,96.058,0,0,1,28.194,73.6,96.624,96.624,0,0,1,26,53.472M54.61,97.287a2.965,2.965,0,0,0,1.888,3.193,3.218,3.218,0,0,0,2.865-.495c2.925-1.61,5.84-3.24,8.764-4.852.81-.447,1.646-1.206,2.458-1.189.848.017,1.688.783,2.521,1.243q4.523,2.5,9.04,5.008a2.788,2.788,0,0,0,3.15-.05,2.756,2.756,0,0,0,1.2-2.909c-.71-4.4-1.4-8.793-2.144-13.183a1.215,1.215,0,0,1,.371-1.2q3.611-3.65,7.2-7.32a29.382,29.382,0,0,0,2.1-2.285,2.647,2.647,0,0,0-.386-3.942,4.731,4.731,0,0,0-1.964-.761c-4.027-.66-8.063-1.266-12.1-1.871A.977.977,0,0,1,78.73,66q-2.743-5.956-5.553-11.88a2.81,2.81,0,0,0-2.624-1.768,2.724,2.724,0,0,0-2.546,1.633c-1.921,3.985-3.794,7.994-5.719,11.978a1.471,1.471,0,0,1-.871.726c-1.163.252-2.352.391-3.531.573-3.037.471-6.079.917-9.11,1.422a2.776,2.776,0,0,0-2.351,2.393,3.141,3.141,0,0,0,1.2,2.882c2.913,2.979,5.839,5.945,8.736,8.94a1.408,1.408,0,0,1,.393,1.006c-.274,1.968-.629,3.925-.946,5.887-.419,2.59-.828,5.183-1.2,7.5M30.282,61.434c.549,3.29.992,6.6,1.667,9.867a95.565,95.565,0,0,0,15.535,36c1.1,1.561,2.234,3.1,3.452,4.566a2.271,2.271,0,0,0,3.332.322,2.349,2.349,0,0,0,.48-3.319c-.364-.552-.778-1.073-1.178-1.6a91.447,91.447,0,0,1-17.1-38.755c-.467-2.5-.71-5.035-1.1-7.547a2.46,2.46,0,0,0-2.652-2.112,2.66,2.66,0,0,0-2.435,2.583m25.3,55.35a3.229,3.229,0,0,0,.511,1.083c1.791,1.836,3.577,3.682,5.478,5.4a2.425,2.425,0,0,0,3.278-3.5c-1.669-1.809-3.413-3.55-5.186-5.258A2.2,2.2,0,0,0,57,114.241a2.635,2.635,0,0,0-1.414,2.543" transform="translate(-9.376 -10.271)" fill="#dee9f0"/>
          <path id="Trazado_637378" data-name="Trazado 637378" d="M66.11,110.76c.369-2.313.778-4.9,1.2-7.5.317-1.962.671-3.918.946-5.886a1.41,1.41,0,0,0-.393-1.006c-2.9-3-5.823-5.961-8.736-8.94a3.14,3.14,0,0,1-1.2-2.882,2.776,2.776,0,0,1,2.351-2.392c3.032-.506,6.073-.953,9.111-1.422,1.179-.183,2.367-.322,3.531-.573a1.471,1.471,0,0,0,.87-.726c1.926-3.983,3.8-7.992,5.72-11.978a2.722,2.722,0,0,1,2.546-1.632,2.808,2.808,0,0,1,2.624,1.768q2.8,5.931,5.553,11.881a.977.977,0,0,0,.843.675c4.036.6,8.072,1.21,12.1,1.871a4.73,4.73,0,0,1,1.965.761,2.648,2.648,0,0,1,.386,3.942,29.509,29.509,0,0,1-2.1,2.285q-3.587,3.673-7.2,7.32a1.215,1.215,0,0,0-.372,1.2c.74,4.39,1.434,8.788,2.144,13.183a2.757,2.757,0,0,1-1.2,2.909,2.789,2.789,0,0,1-3.149.05q-4.523-2.5-9.041-5.008c-.832-.46-1.672-1.226-2.521-1.243-.811-.016-1.648.743-2.457,1.189-2.925,1.612-5.839,3.242-8.764,4.852a3.218,3.218,0,0,1-2.865.495,2.967,2.967,0,0,1-1.888-3.194m26.182-3.508c-.036-.474-.031-.783-.086-1.081-.436-2.371-.827-4.752-1.342-7.106a6.427,6.427,0,0,1,2.074-6.821c.665-.566,1.262-1.213,1.874-1.839,1.27-1.3,2.53-2.6,3.84-3.955a4.451,4.451,0,0,0-.573-.146c-2.182-.27-4.361-.583-6.549-.786-2.923-.27-5.057-1.541-6.133-4.388-.458-1.211-1.053-2.37-1.582-3.555-.557-1.245-1.11-2.492-1.722-3.868-.176.348-.29.547-.382.755-1.137,2.567-2.28,5.131-3.4,7.705a4.722,4.722,0,0,1-3.666,2.854c-1.377.266-2.771.449-4.16.65-1.664.24-3.332.461-5.206.719.316.359.485.574.677.766,1.933,1.931,3.878,3.849,5.8,5.789a5.366,5.366,0,0,1,1.585,5.084c-.455,2.34-.837,4.694-1.241,7.044-.113.657-.191,1.32-.311,2.162.54-.289.892-.462,1.228-.66,2.145-1.266,4.277-2.555,6.433-3.8a4.817,4.817,0,0,1,5-.043c1.53.843,3.037,1.731,4.551,2.6,1.048.6,2.091,1.219,3.285,1.917" transform="translate(-20.876 -23.745)" fill="#161615"/>
          <path id="Trazado_637379" data-name="Trazado 637379" d="M32.7,78.568a2.661,2.661,0,0,1,2.435-2.584A2.461,2.461,0,0,1,37.79,78.1c.391,2.512.634,5.05,1.1,7.547a91.447,91.447,0,0,0,17.1,38.755c.4.529.813,1.05,1.178,1.6a2.349,2.349,0,0,1-.48,3.319A2.271,2.271,0,0,1,53.356,129c-1.218-1.466-2.355-3-3.452-4.565a95.559,95.559,0,0,1-15.535-36c-.674-3.265-1.117-6.576-1.667-9.867" transform="translate(-11.797 -27.405)" fill="#161615"/>
          <path id="Trazado_637380" data-name="Trazado 637380" d="M72.284,165a2.635,2.635,0,0,1,1.414-2.543,2.2,2.2,0,0,1,2.666.265c1.773,1.708,3.517,3.45,5.186,5.258a2.425,2.425,0,0,1-3.278,3.5c-1.9-1.719-3.687-3.565-5.478-5.4A3.229,3.229,0,0,1,72.284,165" transform="translate(-26.074 -58.483)" fill="#161615"/>
          <path id="Trazado_637381" data-name="Trazado 637381" d="M95.93,112.116a.955.955,0,0,1-.483-.131l-1.142-.668c-.742-.434-1.439-.842-2.139-1.246l-1.093-.632c-1.124-.652-2.288-1.327-3.441-1.963a4.162,4.162,0,0,0-2.011-.559,4.088,4.088,0,0,0-2.05.593c-1.394.805-2.778,1.629-4.162,2.452q-1.13.673-2.264,1.343c-.233.137-.472.263-.77.419l-.492.26a.959.959,0,0,1-1.4-.98l.107-.772c.07-.511.131-.965.208-1.417l.279-1.631c.3-1.782.614-3.624.966-5.433a4.389,4.389,0,0,0-1.325-4.226Q72.9,95.7,71.073,93.886q-1.079-1.072-2.156-2.147c-.139-.138-.267-.287-.435-.483l-.284-.328a.959.959,0,0,1,.589-1.584l1.68-.229c1.22-.166,2.37-.322,3.519-.488l.726-.1c1.119-.159,2.275-.323,3.39-.539a3.782,3.782,0,0,0,2.969-2.294c.859-1.977,1.732-3.948,2.606-5.918l.794-1.793c.068-.153.145-.3.245-.494l.16-.308a.958.958,0,0,1,.855-.525h.025a.959.959,0,0,1,.851.568l1.72,3.867c.17.379.346.755.522,1.132.373.8.759,1.623,1.082,2.475.877,2.319,2.569,3.518,5.325,3.772,1.6.148,3.207.356,4.763.557.606.078,1.211.157,1.817.231a3.287,3.287,0,0,1,.554.129l.144.042a.958.958,0,0,1,.444,1.6L101.835,92.2c-.909.938-1.8,1.86-2.7,2.776l-.366.377c-.494.511-1.006,1.04-1.572,1.522a5.488,5.488,0,0,0-1.76,5.886c.381,1.739.7,3.514,1,5.23q.17.953.345,1.907a5.854,5.854,0,0,1,.073.761c.007.125.014.263.026.421a.96.96,0,0,1-.956,1.032" transform="translate(-24.514 -27.65)" fill="#ffe126"/>
          <path id="Trazado_637382" data-name="Trazado 637382" d="M85.19,77.071c.612,1.376,1.165,2.623,1.722,3.868.529,1.184,1.124,2.344,1.582,3.554,1.077,2.847,3.211,4.118,6.134,4.389,2.189.2,4.367.515,6.549.786a4.452,4.452,0,0,1,.573.146c-1.31,1.35-2.57,2.657-3.841,3.954-.612.626-1.21,1.273-1.874,1.839a6.428,6.428,0,0,0-2.074,6.821c.515,2.354.906,4.735,1.342,7.106.055.3.05.607.087,1.082-1.195-.7-2.237-1.312-3.286-1.917-1.513-.874-3.02-1.761-4.55-2.6a5.09,5.09,0,0,0-2.473-.679,5.019,5.019,0,0,0-2.53.722c-2.156,1.245-4.287,2.534-6.432,3.8-.336.2-.689.371-1.228.66.12-.842.2-1.5.311-2.162.4-2.35.786-4.7,1.24-7.045a5.366,5.366,0,0,0-1.585-5.084c-1.924-1.939-3.869-3.857-5.8-5.788-.192-.192-.361-.407-.676-.766,1.874-.258,3.542-.478,5.206-.719,1.389-.2,2.783-.384,4.16-.65a4.722,4.722,0,0,0,3.666-2.854c1.119-2.574,2.263-5.138,3.4-7.705.092-.208.206-.408.382-.755m0-1.918a1.917,1.917,0,0,0-1.709,1.05c-.059.116-.111.215-.157.3-.111.212-.194.376-.269.544l-.824,1.86c-.85,1.917-1.729,3.9-2.58,5.856A2.814,2.814,0,0,1,77.38,86.5c-1.088.21-2.179.365-3.333.529l-.738.105c-1.142.165-2.285.32-3.495.485l-1.7.232a1.917,1.917,0,0,0-1.179,3.166c.1.119.192.221.27.312.168.2.314.368.492.545q1.079,1.078,2.163,2.154,1.821,1.81,3.633,3.629a3.459,3.459,0,0,1,1.064,3.366c-.355,1.83-.671,3.687-.975,5.483q-.136.8-.273,1.6c-.081.474-.146.948-.214,1.45-.033.24-.067.494-.106.767a1.918,1.918,0,0,0,2.8,1.961c.181-.1.341-.181.485-.256.3-.155.55-.288.812-.442q1.143-.674,2.282-1.355c1.354-.805,2.753-1.638,4.136-2.437a3.1,3.1,0,0,1,1.571-.465,3.179,3.179,0,0,1,1.547.44c1.153.635,2.32,1.312,3.45,1.967l1.068.619c.713.411,1.422.827,2.179,1.27l1.1.642a1.918,1.918,0,0,0,2.879-1.8c-.011-.147-.018-.277-.024-.394a6.72,6.72,0,0,0-.088-.89c-.116-.63-.229-1.262-.342-1.894-.309-1.727-.627-3.513-1.013-5.274-.481-2.2-.049-3.679,1.444-4.951.6-.512,1.129-1.057,1.64-1.585l.362-.372c.9-.92,1.8-1.844,2.707-2.785l1.14-1.176a1.918,1.918,0,0,0-.891-3.191c-.037-.01-.074-.021-.111-.033a4.111,4.111,0,0,0-.713-.162q-.9-.112-1.808-.231c-1.566-.2-3.185-.412-4.8-.562-2.413-.223-3.764-1.167-4.517-3.157-.336-.888-.73-1.731-1.112-2.546-.173-.37-.346-.74-.513-1.114-.388-.868-.774-1.738-1.181-2.651l-.539-1.213a1.919,1.919,0,0,0-1.7-1.138H85.19" transform="translate(-23.973 -27.109)" fill="#040405"/>
        </g>
      </g>
    </g>
  </g>
</svg>
