<svg id="Grupo_1016593" data-name="Grupo 1016593" xmlns="http://www.w3.org/2000/svg" xmlns:xlink="http://www.w3.org/1999/xlink" width="225" height="225" viewBox="0 0 225 225">
  <defs>
    <clipPath id="clip-path">
      <rect id="Rectángulo_348883" data-name="Rectángulo 348883" width="225" height="225" fill="none"/>
    </clipPath>
  </defs>
  <g id="Grupo_1016591" data-name="Grupo 1016591" clip-path="url(#clip-path)">
    <path id="Trazado_636990" data-name="Trazado 636990" d="M225,112.5A112.5,112.5,0,1,1,112.5,0,112.5,112.5,0,0,1,225,112.5" fill="#4ca220"/>
    <path id="Trazado_636991" data-name="Trazado 636991" d="M65.485,18.723h48.474V56.434H92.47v18.9h16.074v21.6H92.414v1c0,5.2.012,10.4-.015,15.6a1.414,1.414,0,0,0,.771,1.4q11.218,6.923,22.4,13.905c.21.129.407.277.715.492-.861.564-1.638,1.1-2.437,1.593Q103.4,137.415,92.96,143.911a1.112,1.112,0,0,0-.522.732c-.031,4.748-.022,9.5-.022,14.378h.915c4.89,0,9.781-.022,14.671.009a8.563,8.563,0,0,1,6.115,2.173,8.36,8.36,0,0,1,2.571,6.289c.048,3.372.06,6.747,0,10.119-.088,5.155-3.477,8.391-8.749,8.4q-18.3.016-36.6,0a10.3,10.3,0,0,1-1.429-.1,7.923,7.923,0,0,1-7.168-7.917q-.123-5.647,0-11.3a7.9,7.9,0,0,1,6.77-7.485,19.6,19.6,0,0,1,2.6-.179c4.639-.017,9.276-.008,13.915-.008h.982v-.82c0-4.414-.009-8.827.011-13.24a1.134,1.134,0,0,0-.616-1.131q-11.244-6.96-22.455-13.973c-.228-.142-.439-.311-.772-.549.613-.4,1.11-.744,1.621-1.063q8.782-5.5,17.572-10.983c1.358-.846,2.752-1.635,4.105-2.487a1.116,1.116,0,0,0,.512-.744c.029-5.648.022-11.3.022-17.038H70.84V88.883H46.6V83.472H70.8v-8.08H86.962v-18.9H65.485ZM70.887,51h37.671V24.12H70.887ZM89.711,180.623q9.36,0,18.72,0a2.568,2.568,0,0,0,2.868-2.865c.012-1.518,0-3.036,0-4.554,0-1.968.02-3.936-.008-5.9-.025-1.783-1.025-2.873-2.615-2.874q-18.93-.007-37.862,0a2.517,2.517,0,0,0-2.689,2.688q-.009,5.229,0,10.456c0,2.082.974,3.053,3.033,3.053h18.55m16.61-51.248a5.058,5.058,0,0,0-.395-.319q-7.89-4.933-15.793-9.841a1.077,1.077,0,0,0-.928.066q-7.587,4.7-15.144,9.447c-.27.17-.519.371-.871.626.653.424,1.184.78,1.726,1.117,4.762,2.971,9.532,5.93,14.281,8.921.5.317.8.116,1.2-.131q6.073-3.789,12.158-7.554c1.23-.763,2.463-1.524,3.768-2.332M103.168,80.82H76.291V91.507h26.877Z" transform="translate(25.215 10.131)"/>
    <path id="Trazado_636992" data-name="Trazado 636992" d="M121.754,122.79a8.19,8.19,0,0,1,4.756-4.75V41.349a8.775,8.775,0,0,1-4.814-4.878H94.209V31.084h.945q12.9,0,25.8.012a1.007,1.007,0,0,0,1.1-.714,7.718,7.718,0,0,1,8.961-4.428,7.963,7.963,0,0,1,6.315,7.88A7.758,7.758,0,0,1,132.57,41a.919.919,0,0,0-.636.988q.018,37.652,0,75.3a1.033,1.033,0,0,0,.717,1.059c4.3,2.179,5.956,7.026,3.706,11.03a7.963,7.963,0,0,1-14.369-.575c-.072-.151-.134-.308-.2-.461-.009-.022-.035-.037-.049-.049H103.481c2,2.013,3.991,4.01,6.033,6.064l-3.76,3.548L93.241,125.639c4.241-4.221,8.414-8.373,12.58-12.52l3.64,3.58-6.086,6.09Zm10.19-89.024a2.6,2.6,0,0,0-2.675-2.712,2.729,2.729,0,0,0-.051,5.457,2.582,2.582,0,0,0,2.726-2.745m0,91.82a2.608,2.608,0,0,0-2.617-2.776,2.731,2.731,0,0,0-.173,5.459,2.584,2.584,0,0,0,2.789-2.683" transform="translate(50.452 13.926)"/>
    <path id="Trazado_636993" data-name="Trazado 636993" d="M37.673,138.489h23.54l-5.756-6.15c1.134-1.162,2.341-2.4,3.569-3.655q6.214,6.241,12.383,12.438-6.269,6.191-12.589,12.432c-.966-1.008-2.142-2.236-3.247-3.387l5.827-6.178c-.358-.02-.621-.048-.885-.048-7.363,0-14.727,0-22.09-.015a1.016,1.016,0,0,0-1.1.715,8,8,0,0,1-15.265-3.723c.211-3.492,2.17-5.79,5.358-7.2V76.532h5.42v1.037q0,27.573-.02,55.147a1.313,1.313,0,0,0,.861,1.4,8.191,8.191,0,0,1,3.995,4.372m-4.836,2.742a2.6,2.6,0,0,0-2.666-2.725,2.729,2.729,0,0,0-.072,5.457,2.583,2.583,0,0,0,2.739-2.732" transform="translate(11.928 41.411)"/>
    <path id="Trazado_636994" data-name="Trazado 636994" d="M12.133,68.292c1.728-1.23,3.37-2.395,5.007-3.566q8.907-6.373,17.806-12.754c.345-.248.6-.393,1.028-.086Q47.338,60.03,58.725,68.144c.04.028.06.086.139.2-.9.646-1.8,1.3-2.709,1.943q-9.908,7.069-19.808,14.153a1.157,1.157,0,0,1-1.644.025q-10.966-7.906-21.99-15.736c-.159-.112-.311-.237-.579-.442m9.046-.018c.248.21.365.324.5.418,4.371,3.1,8.75,6.191,13.1,9.317a1.124,1.124,0,0,0,1.553.006c4.028-2.9,8.078-5.781,12.121-8.667.462-.33.917-.672,1.43-1.049L35.514,58.023c-4.751,3.4-9.492,6.787-14.335,10.251" transform="translate(6.565 27.981)"/>
    <rect id="Rectángulo_348873" data-name="Rectángulo 348873" width="5.3" height="5.295" transform="translate(58.314 50.445)"/>
    <rect id="Rectángulo_348874" data-name="Rectángulo 348874" width="5.298" height="5.295" transform="translate(69.109 50.445)"/>
    <rect id="Rectángulo_348875" data-name="Rectángulo 348875" width="5.304" height="5.291" transform="translate(79.9 50.452)"/>
    <rect id="Rectángulo_348876" data-name="Rectángulo 348876" width="5.295" height="5.294" transform="translate(147.347 179.994)"/>
    <rect id="Rectángulo_348877" data-name="Rectángulo 348877" width="5.264" height="5.326" transform="translate(158.177 179.966)"/>
    <rect id="Rectángulo_348878" data-name="Rectángulo 348878" width="5.278" height="5.323" transform="translate(168.953 179.994)"/>
    <path id="Trazado_636995" data-name="Trazado 636995" d="M62.359,22.226h37.671V49.107H62.359Zm32.284,5.418H67.76v5.3H94.643Zm-10.8,10.794H67.759v5.3H83.848Zm5.485,5.283h5.283V38.4H89.333Z" transform="translate(33.742 12.026)" fill="#fff"/>
    <path id="Trazado_636996" data-name="Trazado 636996" d="M82.154,129.467H63.6c-2.06,0-3.03-.971-3.033-3.053q-.009-5.227,0-10.456a2.517,2.517,0,0,1,2.689-2.688q18.93-.009,37.862,0c1.59,0,2.591,1.091,2.615,2.873.026,1.968.006,3.936.008,5.9,0,1.518.008,3.036,0,4.554a2.569,2.569,0,0,1-2.868,2.865q-9.36.012-18.72,0" transform="translate(32.772 61.287)" fill="#dee9f0"/>
    <path id="Trazado_636997" data-name="Trazado 636997" d="M96.985,94.119c-1.305.808-2.538,1.569-3.768,2.332Q87.135,100.225,81.059,104c-.4.247-.693.448-1.2.131-4.75-2.991-9.519-5.95-14.281-8.921-.542-.338-1.073-.693-1.728-1.117.351-.254.6-.456.872-.626q7.566-4.734,15.144-9.447a1.076,1.076,0,0,1,.928-.066Q88.712,88.85,96.589,93.8a4.747,4.747,0,0,1,.4.319" transform="translate(34.551 45.387)" fill="#ffe126"/>
    <rect id="Rectángulo_348879" data-name="Rectángulo 348879" width="26.877" height="10.687" transform="translate(101.506 90.949)" fill="#dee9f0"/>
    <path id="Trazado_636998" data-name="Trazado 636998" d="M120.259,31.9a2.581,2.581,0,0,1-2.726,2.743,2.728,2.728,0,0,1,.049-5.455,2.6,2.6,0,0,1,2.677,2.712" transform="translate(62.138 15.792)" fill="#fff"/>
    <path id="Trazado_636999" data-name="Trazado 636999" d="M120.26,91.5a2.584,2.584,0,0,1-2.789,2.683A2.731,2.731,0,1,1,120.26,91.5" transform="translate(62.138 48.009)" fill="#fff"/>
    <path id="Trazado_637000" data-name="Trazado 637000" d="M30.952,119.471a2.583,2.583,0,0,1-2.739,2.732,2.729,2.729,0,0,1,.072-5.457,2.6,2.6,0,0,1,2.666,2.725" transform="translate(13.814 63.171)" fill="#fff"/>
    <path id="Trazado_637001" data-name="Trazado 637001" d="M18,66.058c4.844-3.464,9.584-6.855,14.335-10.251L46.707,66.083c-.513.378-.968.72-1.43,1.049-4.042,2.886-8.092,5.762-12.121,8.667a1.124,1.124,0,0,1-1.553-.006c-4.352-3.127-8.732-6.215-13.1-9.317-.133-.094-.25-.208-.5-.418" transform="translate(9.741 30.197)" fill="#ffe126"/>
    <rect id="Rectángulo_348880" data-name="Rectángulo 348880" width="26.883" height="5.295" transform="translate(101.503 39.671)"/>
    <rect id="Rectángulo_348881" data-name="Rectángulo 348881" width="16.089" height="5.297" transform="translate(101.501 50.465)"/>
    <rect id="Rectángulo_348882" data-name="Rectángulo 348882" width="5.283" height="5.326" transform="translate(123.075 50.422)"/>
  </g>
</svg>
