<svg xmlns="http://www.w3.org/2000/svg" xmlns:xlink="http://www.w3.org/1999/xlink" width="170.617" height="170.616" viewBox="0 0 170.617 170.616">
  <defs>
    <filter id="Trazado_150709" x="0" y="0" width="170.617" height="170.616" filterUnits="userSpaceOnUse">
      <feOffset dx="5" dy="5" input="SourceAlpha"/>
      <feGaussianBlur stdDeviation="12.5" result="blur"/>
      <feFlood flood-opacity="0.161"/>
      <feComposite operator="in" in2="blur"/>
      <feComposite in="SourceGraphic"/>
    </filter>
    <clipPath id="clip-path">
      <rect id="Rectángulo_348292" data-name="Rectángulo 348292" width="97" height="97" fill="none"/>
    </clipPath>
  </defs>
  <g id="Grupo_1016734" data-name="Grupo 1016734" transform="translate(-719.059 -4247.918)">
    <g id="Grupo_1016216" data-name="Grupo 1016216" transform="translate(738.37 4267.407)">
      <path id="Trazado_150708" data-name="Trazado 150708" d="M121.286,55.711A60.746,60.746,0,1,1,55.711.213a60.746,60.746,0,0,1,65.575,55.5" transform="translate(0 121.498) rotate(-90)" fill="#304c8e"/>
      <g transform="matrix(1, 0, 0, 1, -19.31, -19.49)" filter="url(#Trazado_150709)">
        <path id="Trazado_150709-2" data-name="Trazado 150709" d="M95.449,43.844A47.805,47.805,0,1,1,43.843.167,47.806,47.806,0,0,1,95.449,43.844" transform="translate(32.5 128.12) rotate(-90)" fill="#fff"/>
      </g>
      <g id="Grupo_1016215" data-name="Grupo 1016215" transform="translate(12.883 11.593)">
        <g id="Grupo_1016218" data-name="Grupo 1016218" transform="translate(0)">
          <g id="Grupo_1016217" data-name="Grupo 1016217" clip-path="url(#clip-path)">
            <path id="Trazado_611034" data-name="Trazado 611034" d="M96.588,48.294A48.294,48.294,0,1,1,48.294,0,48.294,48.294,0,0,1,96.588,48.294" transform="translate(0.383 0.52)" fill="#dee9f0"/>
            <path id="Trazado_611035" data-name="Trazado 611035" d="M23.249,60.688c-1.309-.767-2.523-1.5-3.759-2.2a5.62,5.62,0,0,1-2.757-3.248,5.118,5.118,0,0,1,2.439-5.79c1.333-.748,2.64-1.543,4-2.342-.122-.084-.214-.157-.315-.216-1.242-.739-2.49-1.468-3.727-2.216a4.988,4.988,0,0,1-2.6-4.55,4.6,4.6,0,0,1,2.206-3.905c1.42-.933,2.893-1.788,4.358-2.651q13.218-7.788,26.445-15.561a10.868,10.868,0,0,1,3.093-1.344,6.148,6.148,0,0,1,4.463.731c2.027,1.127,4.03,2.3,6.029,3.475q12.61,7.42,25.216,14.845a5.624,5.624,0,0,1,2.753,3.426,4.857,4.857,0,0,1-2.111,5.3c-1.34.856-2.729,1.636-4.1,2.45-.1.062-.2.128-.347.218.686.395,1.343.767,2,1.148.744.435,1.505.847,2.223,1.323a5.032,5.032,0,0,1,2.471,4.192,4.914,4.914,0,0,1-2.557,4.462c-1.342.83-2.72,1.6-4.127,2.427.1.071.172.138.257.188,1.258.735,2.525,1.457,3.776,2.2a5.113,5.113,0,0,1,2.575,3.59,4.674,4.674,0,0,1-2.207,4.986c-1.562,1.026-3.2,1.942-4.809,2.891q-12.34,7.267-24.686,14.523c-.8.467-1.6.912-2.415,1.354a6.238,6.238,0,0,1-6.4-.054c-3.139-1.776-6.257-3.592-9.367-5.419q-9.819-5.768-19.62-11.567c-.972-.574-1.955-1.137-2.895-1.762a4.765,4.765,0,0,1-2.229-4.011,4.861,4.861,0,0,1,2.435-4.344c1.19-.774,2.439-1.457,3.662-2.181l.629-.368M53.9,19.926l-.031-.108a12.262,12.262,0,0,0-1.606.521c-.634.3-1.217.705-1.824,1.063q-4.032,2.38-8.064,4.758-7.913,4.662-15.828,9.32c-1.915,1.127-3.842,2.233-5.758,3.359a1.583,1.583,0,0,0-.771,2.048,2.2,2.2,0,0,0,1,.974c1.778,1.051,3.552,2.108,5.332,3.156Q37.394,51.512,48.438,58c1.329.782,2.646,1.587,4,2.33a2.96,2.96,0,0,0,2.775.051c.5-.235.972-.547,1.454-.829Q63.947,55.3,71.23,51.039q7.87-4.626,15.721-9.285a1.61,1.61,0,0,0,.026-2.9c-.391-.244-.8-.455-1.2-.689Q73.436,30.9,61.1,23.626c-1.684-.994-3.364-2-5.047-2.992a3.769,3.769,0,0,0-2.147-.709m-.027,54.347.022.093a10.01,10.01,0,0,0,1.476-.469c.663-.323,1.279-.743,1.917-1.118L80.756,58.985q3.111-1.828,6.218-3.662a1.594,1.594,0,0,0,.8-1.95,2.016,2.016,0,0,0-.99-1.025c-1.774-1.057-3.545-2.12-5.327-3.163a.568.568,0,0,0-.482.02c-4.626,2.726-9.24,5.472-13.866,8.2-3.2,1.886-6.424,3.742-9.634,5.618a6.657,6.657,0,0,1-4.751.931,10.278,10.278,0,0,1-3.2-1.376q-7.447-4.34-14.88-8.7c-2.608-1.533-5.2-3.1-7.8-4.645-.164-.1-.3-.2-.524-.061-.812.511-1.639,1-2.467,1.484-1.068.627-2.169,1.2-3.206,1.878a1.579,1.579,0,0,0,.055,2.749c.511.326,1.053.6,1.576.913q8.251,4.878,16.5,9.758,6.48,3.824,12.971,7.63a3.942,3.942,0,0,0,2.12.694M53.79,87.837a3.182,3.182,0,0,0,1.845-.489q3.6-2.115,7.2-4.222,12.029-7.079,24.057-14.163a1.623,1.623,0,0,0,.018-2.971c-1.789-1.056-3.59-2.092-5.38-3.146a.534.534,0,0,0-.627,0Q71.075,68.64,61.235,74.41c-1.508.884-3.012,1.787-4.576,2.563a6.055,6.055,0,0,1-5.906-.136c-.574-.318-1.152-.627-1.718-.959Q37.921,69.363,26.813,62.837a.478.478,0,0,0-.561-.009c-1.8,1.058-3.617,2.092-5.414,3.158a1.627,1.627,0,0,0,.019,2.976q4.234,2.5,8.479,4.993,7.3,4.3,14.6,8.593,3.942,2.321,7.877,4.651a3.464,3.464,0,0,0,1.973.638" transform="translate(-5.208 -5.07)"/>
            <path id="Trazado_611036" data-name="Trazado 611036" d="M55.623,21.615a3.771,3.771,0,0,1,2.147.708c1.683,1,3.363,2,5.048,2.992Q75.156,32.587,87.5,39.857c.4.234.81.445,1.2.689a1.609,1.609,0,0,1-.026,2.9q-7.857,4.649-15.722,9.286Q65.677,57,58.384,61.245c-.482.281-.95.594-1.453.828a2.962,2.962,0,0,1-2.776-.05c-1.35-.744-2.667-1.549-4-2.33Q39.115,53.2,28.075,46.705c-1.78-1.048-3.553-2.106-5.332-3.156a2.2,2.2,0,0,1-1-.973,1.583,1.583,0,0,1,.771-2.048c1.916-1.126,3.842-2.233,5.758-3.359q7.916-4.655,15.827-9.32,4.034-2.377,8.064-4.759c.607-.358,1.191-.763,1.824-1.063a12.359,12.359,0,0,1,1.606-.52l.031.108" transform="translate(-6.929 -6.758)" fill="#fffce9"/>
            <path id="Trazado_611037" data-name="Trazado 611037" d="M55.592,90.94a3.939,3.939,0,0,1-2.12-.695q-6.487-3.813-12.971-7.63Q32.246,77.744,24,72.858c-.523-.309-1.064-.587-1.576-.913a1.579,1.579,0,0,1-.054-2.75c1.037-.675,2.138-1.251,3.206-1.878.828-.486,1.655-.973,2.467-1.484.225-.142.36-.036.523.061,2.6,1.549,5.188,3.113,7.8,4.645q7.431,4.367,14.88,8.7a10.271,10.271,0,0,0,3.2,1.377,6.662,6.662,0,0,0,4.751-.932c3.209-1.875,6.43-3.731,9.633-5.617,4.627-2.725,9.241-5.472,13.867-8.2a.567.567,0,0,1,.482-.019c1.782,1.043,3.553,2.106,5.327,3.163a2.016,2.016,0,0,1,.99,1.025,1.6,1.6,0,0,1-.8,1.949q-3.108,1.834-6.218,3.662L59.006,89.446c-.638.375-1.254.795-1.917,1.118a10.1,10.1,0,0,1-1.477.468c-.007-.03-.014-.062-.021-.092" transform="translate(-6.925 -21.737)" fill="#ffe126"/>
            <path id="Trazado_611038" data-name="Trazado 611038" d="M55.507,111.483a3.464,3.464,0,0,1-1.973-.638q-3.941-2.321-7.877-4.651-7.3-4.3-14.6-8.593-4.24-2.495-8.479-4.993a1.627,1.627,0,0,1-.019-2.976c1.8-1.066,3.612-2.1,5.414-3.158a.478.478,0,0,1,.561.009q11.107,6.529,22.222,13.042c.566.331,1.145.641,1.718.959a6.055,6.055,0,0,0,5.906.136c1.564-.776,3.068-1.679,4.576-2.563Q72.794,92.29,82.62,86.5a.534.534,0,0,1,.627,0c1.79,1.054,3.591,2.09,5.38,3.146a1.623,1.623,0,0,1-.018,2.971Q76.579,99.69,64.552,106.772q-3.6,2.117-7.2,4.222a3.182,3.182,0,0,1-1.845.489" transform="translate(-6.925 -28.717)" fill="#4ca220"/>
          </g>
        </g>
      </g>
    </g>
    <g id="Group_43_" data-name="Group (43)" transform="translate(824.691 4355.597)">
      <path id="Trazado_598926" data-name="Trazado 598926" d="M36.549,16.055,16.055,36.549a15.864,15.864,0,0,0,.655,1.582l21.422-21.42a15.863,15.863,0,0,0-1.582-.655Z" transform="translate(-15.17 -15.17)" fill="#4ca220"/>
      <path id="Trazado_598927" data-name="Trazado 598927" d="M18.367.8.8,18.367a16.022,16.022,0,0,0,.26,1.7L20.065,1.058A16.022,16.022,0,0,0,18.367.8Z" transform="translate(-0.754 -0.754)" fill="#4ca220"/>
      <path id="Trazado_598928" data-name="Trazado 598928" d="M299.7,283.668c0-.137-.008-.274-.01-.41l-16.454,16.453c.137,0,.273.01.41.01a16.091,16.091,0,0,0,1.678-.088l14.289-14.289a16.09,16.09,0,0,0,.088-1.678Z" transform="translate(-267.627 -267.648)" fill="#4ca220"/>
      <path id="Trazado_598929" data-name="Trazado 598929" d="M68.634,46.122q-.611-.481-1.267-.9L45.2,67.389q.42.656.9,1.267Z" transform="translate(-42.708 -42.73)" fill="#4ca220"/>
      <path id="Trazado_598930" data-name="Trazado 598930" d="M0,15.009,15.009,0c-.434.026-.863.07-1.287.131L.131,13.722C.07,14.145.026,14.575,0,15.009Z" fill="#4ca220"/>
      <path id="Trazado_598931" data-name="Trazado 598931" d="M106.76,84.058l-22.7,22.7a16.114,16.114,0,0,0,1.365,1.222l22.559-22.559A16.123,16.123,0,0,0,106.76,84.058Z" transform="translate(-79.426 -79.426)" fill="#4ca220"/>
      <path id="Trazado_598932" data-name="Trazado 598932" d="M159.927,138.548a16.093,16.093,0,0,0-.877-1.6l-22.108,22.108a15.959,15.959,0,0,0,1.6.877Z" transform="translate(-129.396 -129.396)" fill="#4ca220"/>
      <path id="Trazado_598933" data-name="Trazado 598933" d="M28.816,19.794a16.1,16.1,0,0,0-9.022,9.022Z" transform="translate(-18.704 -18.704)" fill="#4ca220"/>
      <path id="Trazado_598934" data-name="Trazado 598934" d="M382.436,392.617a16.085,16.085,0,0,0,10.18-10.18Z" transform="translate(-361.361 -361.361)" fill="#4ca220"/>
      <path id="Trazado_598935" data-name="Trazado 598935" d="M220.714,200.477l-20.237,20.237a15.962,15.962,0,0,0,2.154.537l18.619-18.619A16.154,16.154,0,0,0,220.714,200.477Z" transform="translate(-189.429 -189.429)" fill="#4ca220"/>
    </g>
  </g>
</svg>
