<svg xmlns="http://www.w3.org/2000/svg" xmlns:xlink="http://www.w3.org/1999/xlink" width="192" height="192.001" viewBox="0 0 192 192.001">
  <defs>
    <clipPath id="clip-path">
      <path id="Trazado_604039" data-name="Trazado 604039" d="M121.723,0l-96,25.723L0,121.722,70.276,192l96-25.723,25.725-96Z" transform="translate(-0.001 0.001)" fill="#fff"/>
    </clipPath>
    <clipPath id="clip-path-2">
      <rect id="Rectángulo_349052" data-name="Rectángulo 349052" width="114.035" height="139.667" fill="none"/>
    </clipPath>
  </defs>
  <g id="Grupo_1016661" data-name="Grupo 1016661" transform="translate(-718 -690.039)">
    <g id="Grupo_161574" data-name="Grupo 161574" transform="translate(718 690.039)">
      <path id="Trazado_600880" data-name="Trazado 600880" d="M121.723,0l-96,25.723L0,121.722,70.276,192l96-25.723,25.725-96Z" transform="translate(-0.001 0.001)" fill="#fff"/>
      <path id="Trazado_601791" data-name="Trazado 601791" d="M0,1.56,2.779,0V52.828L.161,54.264Z" transform="matrix(0.259, 0.966, -0.966, 0.259, 80.826, 0)" fill="#2f8006"/>
      <path id="Trazado_637250" data-name="Trazado 637250" d="M0,1.56,2.779,0V52.828L.161,54.264Z" transform="matrix(0.259, 0.966, -0.966, 0.259, 167.826, 175.272)" fill="#2f8006"/>
    </g>
    <g id="Enmascarar_grupo_74" data-name="Enmascarar grupo 74" transform="translate(718 690.039)" clip-path="url(#clip-path)">
      <g id="Grupo_1016669" data-name="Grupo 1016669" transform="translate(38.982 20)">
        <g id="Grupo_1016668" data-name="Grupo 1016668" clip-path="url(#clip-path-2)">
          <path id="Trazado_637227" data-name="Trazado 637227" d="M90.746,114.036v-1.222c0-3.081-.006-6.162.007-9.243a4.817,4.817,0,0,1,.16-1.291,2.19,2.19,0,0,1,3.426-1.223c1.39,1.052,2.71,2.2,4.022,3.352q6.923,6.066,13.814,12.167c.734.65,1.6,1.233,1.768,2.319a6.019,6.019,0,0,1,.088.936q.006,25,0,50a2.592,2.592,0,0,1-2.9,2.93q-53.016,0-106.032,0a2.589,2.589,0,0,1-2.852-2.913q0-19.032,0-38.063V130.9c-.205-.072-.385-.133-.564-.2a2.245,2.245,0,0,1-1.416-3.256c.93-2,1.923-3.966,2.9-5.94.441-.89.942-1.75,1.368-2.646a3.053,3.053,0,0,1,2.367-2V82.787c0-2.285.893-3.185,3.165-3.185q6.223,0,12.445,0c2.064,0,3.023.962,3.023,3.033q0,16.63,0,33.26v.919h4.657V87.433c0-2.277.9-3.172,3.178-3.173q6.186,0,12.372,0c2.156,0,3.083.939,3.083,3.119q0,14.265,0,28.529v.91h4.657v-.8q0-6.223,0-12.445A4.838,4.838,0,0,1,53.6,102.5a2.2,2.2,0,0,1,3.591-1.355c1.713,1.35,3.356,2.791,4.994,4.231,3.225,2.833,6.426,5.693,9.638,8.539a1.274,1.274,0,0,0,.292.115v-.81c0-3.2,0-6.4,0-9.607a5.035,5.035,0,0,1,.121-1.151,2.194,2.194,0,0,1,3.554-1.337c1.715,1.347,3.358,2.787,5,4.227,3.243,2.847,6.463,5.722,9.694,8.584a1.362,1.362,0,0,0,.26.1m18.631,54.051V131.363c0-3.542.006-7.084-.013-10.626a1.19,1.19,0,0,0-.3-.806q-5.778-5.107-11.592-10.174c-.647-.567-1.291-1.136-2.067-1.819v.873c0,3.3.027,6.6-.024,9.9a3.484,3.484,0,0,1-.539,1.83c-.858,1.245-2.283,1.295-3.53.2Q84.7,114.929,78.1,109.1c-.4-.355-.81-.706-1.327-1.155v.913q0,4.986,0,9.971a2.494,2.494,0,0,1-1.478,2.464,2.271,2.271,0,0,1-2.651-.576q-6.16-5.446-12.338-10.872l-2.161-1.9v19.74c0,2.272-.9,3.162-3.182,3.162h-48V168.1h9.259c0-1.919-.013-3.757.006-5.595a18.241,18.241,0,0,1,.132-2.535,6.854,6.854,0,0,1,6.781-5.826,6.74,6.74,0,0,1,6.87,5.883c.256,2.377.137,4.793.185,7.192.005.28,0,.561,0,.848h4.657c0-1.919-.012-3.8.006-5.69a16.884,16.884,0,0,1,.129-2.39,6.906,6.906,0,0,1,13.663.109c.248,2.353.131,4.745.176,7.119.005.281,0,.562,0,.827h9.315V146.154c0-1.091-.016-2.184,0-3.275a2.547,2.547,0,0,1,2.678-2.719c.194-.007.388,0,.582,0h40.172c2.23,0,3.142.909,3.142,3.133v24.8ZM5.984,126.129H53.446v-4.6H9.184a2.459,2.459,0,0,0-.58.012.747.747,0,0,0-.461.262c-.724,1.414-1.423,2.842-2.159,4.329m56.849,41.924h37.193v-4.567H62.833Zm37.2-23.185H62.837v4.564H100.03Zm0,9.315H62.836v4.566h37.193ZM11.617,116.807H20.84V102.925H11.617Zm32.52-9.219H34.9v9.228h9.24ZM20.864,84.307H11.619v4.552h9.245Zm14.023,9.217h9.222V88.957H34.887Zm.02,9.309h9.221V98.266H34.907ZM11.6,98.182H20.82V93.616H11.6Zm13.939,69.89c0-1.293,0-2.5,0-3.712,0-1.113.039-2.229-.023-3.34a2.318,2.318,0,1,0-4.633.179q0,2.869,0,5.738v1.136Zm18.617,0c0-2.409,0-4.753,0-7.1a1.98,1.98,0,0,0-.075-.428,2.311,2.311,0,0,0-4.561.476c-.01,1.525,0,3.05,0,4.576v2.474Z" transform="translate(0 -33.097)" fill="#161615"/>
          <path id="Trazado_637228" data-name="Trazado 637228" d="M102.5,49.449c2.978-6.516,7.844-10.64,14.9-12,3.043-.587,6.113-1.033,9.18-1.484a2.316,2.316,0,0,1,2.811,2.437c.025,2.571-.006,5.142-.056,7.713-.039,2.011-.025,4.034-.237,6.03a19.5,19.5,0,0,1-16.978,17.474,53.6,53.6,0,0,1-13.054.411,18.5,18.5,0,0,1-15.349-10.86,19.858,19.858,0,0,1-1.84-10.9c.115-1.158.14-2.324.23-3.485.131-1.674.931-2.6,2.524-2.629a25.333,25.333,0,0,1,10.068,1.494,18.144,18.144,0,0,1,6.971,4.986c.207.237.421.469.639.7a.844.844,0,0,0,.2.112m20.829,6.722a5.75,5.75,0,0,0-.716.115c-2.6.754-5.2,1.5-7.789,2.3a2.687,2.687,0,0,0-1.2.853c-.838,1.032-1.586,2.137-2.393,3.2-.637.838-1.309,1.649-1.973,2.482,4.451,1.205,13.1-4.271,14.071-8.944M99.05,65.431,86.436,50.419A14.743,14.743,0,0,0,99.05,65.431M109.569,46.6a18.594,18.594,0,0,0-3.547,6.814c-.692,2.592.646,4.9.677,7.565,1.5-1.942,2.814-3.741,4.24-5.444a2.343,2.343,0,0,0,.469-2.815,8.433,8.433,0,0,1-.394-1.319c-.456-1.523-.916-3.045-1.445-4.8m5.718,3.187,6.35-8.255c-.2-.057-.293-.115-.373-.1a26.885,26.885,0,0,0-6.353,1.426c-1.514.648-1.533.626-1.062,2.214.452,1.522.924,3.04,1.437,4.717M102.029,61.705a14.547,14.547,0,0,0-3.089-9.3c-.162.368-.307.639-.4.926-.281.849-.585,1.7-.788,2.565a1.363,1.363,0,0,0,.2,1.029c1.191,1.5,2.436,2.953,3.667,4.419a4.278,4.278,0,0,0,.415.361M124.677,45.36l-.144-.086-5.524,7.105c.162.09.21.14.241.131,1.691-.49,3.383-.976,5.066-1.495a.634.634,0,0,0,.346-.473c.025-1.727.015-3.454.015-5.182M89.87,47.026l-.131.159,4.332,5.157c.345-1.081.671-2.08.973-3.086a.417.417,0,0,0-.16-.356,13.951,13.951,0,0,0-5.014-1.874" transform="translate(-33.993 -14.94)" fill="#161615"/>
          <path id="Trazado_637229" data-name="Trazado 637229" d="M63.574,35.159A35.239,35.239,0,0,1,74.935,9.214,33.472,33.472,0,0,1,93.841.365a33.657,33.657,0,0,1,28.19,8.746,33.959,33.959,0,0,1,11.007,20.776,33.964,33.964,0,0,1-6,25.089,34.092,34.092,0,0,1-14.857,11.987,4.684,4.684,0,0,1-1.595.439,2.231,2.231,0,0,1-2.08-1.646,2.137,2.137,0,0,1,.933-2.467A15.621,15.621,0,0,1,111,62.522c9.439-4.458,15.415-11.782,17.3-22.025A30.027,30.027,0,0,0,104.565,5.173,30.364,30.364,0,0,0,68.808,29.038a29.467,29.467,0,0,0,.4,13.479c.1.4.2.8.285,1.2a2.205,2.205,0,0,1-1.462,2.593,2.058,2.058,0,0,1-2.673-1.116,34.044,34.044,0,0,1-1.143-4.115,19.035,19.035,0,0,1-.418-2.58c-.117-1.205-.161-2.417-.218-3.341" transform="translate(-26.434 0)" fill="#161615"/>
          <path id="Trazado_637230" data-name="Trazado 637230" d="M11.3,188.526a.877.877,0,0,1-.876-.876V150.386a.876.876,0,0,1,.876-.876h48c1.81,0,2.306-.491,2.306-2.286v-19.74a.876.876,0,0,1,1.455-.657l5.473,4.82q4.517,3.975,9.027,7.957a1.825,1.825,0,0,0,1.15.574,1.308,1.308,0,0,0,.551-.137,1.627,1.627,0,0,0,.971-1.671q.008-3.645,0-7.287v-3.6a.877.877,0,0,1,1.452-.661l.507.44c.3.256.561.487.824.719L87,131.506q4.606,4.063,9.218,8.12a1.972,1.972,0,0,0,1.233.562,1.2,1.2,0,0,0,1-.6,2.613,2.613,0,0,0,.384-1.346c.038-2.44.032-4.925.027-7.328l0-3.43a.876.876,0,0,1,1.455-.657l2.065,1.817,2.185,1.913q4.712,4.125,9.411,8.264a2.047,2.047,0,0,1,.6,1.458c.016,2.848.015,5.7.014,8.543v38.813a.876.876,0,0,1-.876.876h-4.657a.876.876,0,0,1-.876-.876v-24.8c0-1.73-.529-2.257-2.265-2.257l-40.494,0c-.076,0-.152,0-.227,0a1.681,1.681,0,0,0-1.836,1.86c-.013.75-.01,1.5-.006,2.25l0,1.01V187.59a.876.876,0,0,1-.876.876H53.159a.876.876,0,0,1-.876-.876v-.26c0-.181,0-.366,0-.551-.013-.736-.012-1.474-.011-2.212a45.906,45.906,0,0,0-.161-4.831,5.945,5.945,0,0,0-6.028-5.166,6.016,6.016,0,0,0-5.9,5.1,15.486,15.486,0,0,0-.118,2.163v.1c-.012,1.341-.009,2.683-.008,4.037l0,1.645a.876.876,0,0,1-.876.876H34.528a.876.876,0,0,1-.876-.876v-.281c0-.184,0-.367,0-.549-.015-.744-.013-1.49-.012-2.235a45.437,45.437,0,0,0-.167-4.881,5.861,5.861,0,0,0-6.007-5.1,6,6,0,0,0-5.907,5.081,15.924,15.924,0,0,0-.121,2.213v.2c-.013,1.3-.011,2.6-.008,3.923l0,1.664a.877.877,0,0,1-.876.876Zm17.661-23.246H26.139v2.83h2.816Zm18.611-.006H44.752v2.816h2.815Z" transform="translate(-4.332 -52.642)" fill="#59bbcb"/>
          <path id="Trazado_637231" data-name="Trazado 637231" d="M99.113,126.86c.775.682,1.42,1.253,2.066,1.819q5.8,5.081,11.593,10.174a1.189,1.189,0,0,1,.3.806c.02,3.542.013,7.084.013,10.626q0,17.9,0,35.808v.917h-4.657v-24.8c0-2.224-.912-3.133-3.142-3.133H64.793c-.087,0-.174,0-.261,0a2.547,2.547,0,0,0-2.679,2.719c-.019,1.091,0,2.183,0,3.275v21.891H52.535c0-.265,0-.546,0-.827-.044-2.375.071-4.766-.176-7.119a6.837,6.837,0,0,0-6.9-5.951h-.031a6.857,6.857,0,0,0-6.736,5.843,16.883,16.883,0,0,0-.129,2.39c-.018,1.885-.006,3.77-.006,5.69H33.9c0-.286,0-.567,0-.848-.047-2.4.072-4.815-.185-7.191a6.739,6.739,0,0,0-6.87-5.883H26.79a6.855,6.855,0,0,0-6.722,5.827,18.228,18.228,0,0,0-.132,2.535c-.019,1.838-.006,3.676-.006,5.6H10.672V149.763h48c2.286,0,3.182-.89,3.182-3.162v-19.74l2.16,1.9q6.171,5.434,12.338,10.872a2.651,2.651,0,0,0,1.731.794,2.176,2.176,0,0,0,.921-.218,2.494,2.494,0,0,0,1.478-2.464q.011-4.986,0-9.971v-.914c.516.45.924.8,1.326,1.155q6.606,5.821,13.212,11.641a2.8,2.8,0,0,0,1.811.781,2.063,2.063,0,0,0,1.719-.98,3.479,3.479,0,0,0,.539-1.83c.051-3.3.025-6.6.025-9.9ZM43.252,168.344H47.82v-4.569H43.252Zm-18.613.019h4.569v-4.582H24.639Zm74.474-43.256a1.752,1.752,0,0,0-1.752,1.753v.873q0,1.272,0,2.545c0,2.4.011,4.889-.027,7.326a1.777,1.777,0,0,1-.23.862c-.1.147-.194.222-.275.222a1.168,1.168,0,0,1-.654-.345q-4.618-4.056-9.224-8.124L82.967,126.7c-.272-.24-.547-.478-.855-.746l-.48-.417a1.753,1.753,0,0,0-2.9,1.322V130.5q0,3.624,0,7.247c0,.616-.193.753-.464.879a.5.5,0,0,1-.182.055c-.017,0-.18-.01-.57-.355q-4.538-4.013-9.089-8.011L65.17,127.45,63.979,126.4l-.97-.855a1.753,1.753,0,0,0-2.911,1.315V146.6c0,1.3-.107,1.41-1.43,1.41h-48a1.753,1.753,0,0,0-1.753,1.753v37.264a1.753,1.753,0,0,0,1.753,1.753H19.93a1.753,1.753,0,0,0,1.753-1.753q0-.845,0-1.671c0-1.347-.005-2.618.008-3.907v-.2a15.332,15.332,0,0,1,.111-2.094,5.1,5.1,0,0,1,4.99-4.336h.043a5,5,0,0,1,5.143,4.318,43.962,43.962,0,0,1,.162,4.79c0,.734,0,1.493.012,2.247,0,.178,0,.355,0,.535v.278a1.753,1.753,0,0,0,1.753,1.753h4.657a1.753,1.753,0,0,0,1.753-1.753q0-.832,0-1.658c0-1.32,0-2.684.008-4.015v-.107a14.636,14.636,0,0,1,.109-2.034,5.154,5.154,0,0,1,10.187.027,44.691,44.691,0,0,1,.155,4.746c0,.726,0,1.477.011,2.223,0,.18,0,.359,0,.534v.26a1.753,1.753,0,0,0,1.753,1.753H61.85a1.753,1.753,0,0,0,1.753-1.753V165.076c0-.338,0-.677,0-1.014,0-.734-.007-1.493.006-2.229s.245-.972.993-1c.065,0,.13,0,.195,0h40.494c1.259,0,1.389.129,1.389,1.38v24.8a1.753,1.753,0,0,0,1.753,1.753h4.657a1.753,1.753,0,0,0,1.753-1.753v-38.9c0-2.771,0-5.637-.013-8.458a2.913,2.913,0,0,0-.892-2.11c-3.134-2.769-6.332-5.569-9.424-8.276l-2.174-1.9c-.433-.379-.865-.759-1.336-1.175l-.727-.641a1.75,1.75,0,0,0-1.158-.437M45,165.527h1.063v1.063H45Zm-18.613.006h1.064v1.077H26.391Z" transform="translate(-3.708 -52.019)" fill="#040405"/>
          <path id="Trazado_637232" data-name="Trazado 637232" d="M10.243,155.959c.736-1.487,1.434-2.915,2.159-4.329a.747.747,0,0,1,.461-.262,2.46,2.46,0,0,1,.58-.012H57.705v4.6Z" transform="translate(-4.259 -62.928)" fill="#fdfde3"/>
          <rect id="Rectángulo_349041" data-name="Rectángulo 349041" width="37.193" height="4.567" transform="translate(62.833 130.389)" fill="#fff"/>
          <rect id="Rectángulo_349042" data-name="Rectángulo 349042" width="37.193" height="4.564" transform="translate(62.837 111.771)" fill="#fff"/>
          <rect id="Rectángulo_349043" data-name="Rectángulo 349043" width="37.193" height="4.566" transform="translate(62.836 121.087)" fill="#fff"/>
          <rect id="Rectángulo_349044" data-name="Rectángulo 349044" width="9.223" height="13.881" transform="translate(11.617 69.828)" fill="#fff"/>
          <rect id="Rectángulo_349045" data-name="Rectángulo 349045" width="9.24" height="9.228" transform="translate(34.897 74.491)" fill="#fff"/>
          <rect id="Rectángulo_349046" data-name="Rectángulo 349046" width="9.245" height="4.552" transform="translate(11.619 51.21)" fill="#fff"/>
          <rect id="Rectángulo_349047" data-name="Rectángulo 349047" width="9.222" height="4.567" transform="translate(34.887 55.86)" fill="#fff"/>
          <rect id="Rectángulo_349048" data-name="Rectángulo 349048" width="9.221" height="4.567" transform="translate(34.907 65.169)" fill="#ffe126"/>
          <rect id="Rectángulo_349049" data-name="Rectángulo 349049" width="9.222" height="4.566" transform="translate(11.598 60.519)" fill="#ffe126"/>
          <path id="Trazado_637233" data-name="Trazado 637233" d="M40.4,224.417H35.741v-1.136q0-2.869,0-5.738a2.319,2.319,0,1,1,4.633-.179c.061,1.111.02,2.226.022,3.34,0,1.209,0,2.419,0,3.712" transform="translate(-14.86 -89.442)" fill="#fff"/>
          <path id="Trazado_637234" data-name="Trazado 637234" d="M72.273,224.42H67.631v-2.474c0-1.525-.008-3.05,0-4.576a2.311,2.311,0,0,1,4.561-.476,1.98,1.98,0,0,1,.075.428c0,2.344,0,4.689,0,7.1" transform="translate(-28.119 -89.443)" fill="#fff"/>
          <path id="Trazado_637235" data-name="Trazado 637235" d="M129.579,79.942a6.15,6.15,0,0,1-1.606-.2.876.876,0,0,1-.456-1.392l.626-.779c.452-.561.9-1.118,1.336-1.688.31-.408.613-.823.915-1.237.476-.655.969-1.332,1.494-1.98a3.566,3.566,0,0,1,1.62-1.137c2.132-.663,4.31-1.292,6.415-1.9l1.391-.4a3.7,3.7,0,0,1,.613-.111c.07-.008.141-.016.214-.028a.929.929,0,0,1,.133-.01.876.876,0,0,1,.858,1.054c-1.008,4.867-8.735,9.811-13.552,9.811" transform="translate(-52.941 -28.721)" fill="#7aad24"/>
          <path id="Trazado_637236" data-name="Trazado 637236" d="M141.65,69.329c-.876,4.228-8.04,9.113-12.694,9.113a5.261,5.261,0,0,1-1.376-.169c.664-.833,1.335-1.645,1.973-2.482.807-1.059,1.555-2.163,2.393-3.2a2.687,2.687,0,0,1,1.2-.853c2.585-.8,5.19-1.544,7.789-2.3a5.751,5.751,0,0,1,.716-.115m0-1.753a1.8,1.8,0,0,0-.268.02c-.062.01-.124.017-.184.024a4.554,4.554,0,0,0-.752.14l-1.41.408c-2.1.608-4.278,1.237-6.412,1.9a4.413,4.413,0,0,0-2.039,1.421c-.54.664-1.038,1.35-1.52,2.012-.3.411-.6.823-.907,1.227-.428.562-.867,1.106-1.333,1.683-.205.255-.411.511-.617.768a1.753,1.753,0,0,0,.912,2.785,7.041,7.041,0,0,0,1.835.23c5.228,0,13.309-5.2,14.411-10.51a1.753,1.753,0,0,0-1.716-2.108m0,3.505h0Z" transform="translate(-52.318 -28.098)" fill="#040405"/>
          <path id="Trazado_637237" data-name="Trazado 637237" d="M101.746,76a.881.881,0,0,1-.1-.006A15.647,15.647,0,0,1,88.256,60.062a.877.877,0,0,1,1.546-.519l12.614,15.012a.876.876,0,0,1-.671,1.44" transform="translate(-36.689 -24.628)" fill="#7aad24"/>
          <path id="Trazado_637238" data-name="Trazado 637238" d="M88.509,59.483l12.614,15.012A14.742,14.742,0,0,1,88.509,59.483m0-1.753a1.753,1.753,0,0,0-1.75,1.663,16.547,16.547,0,0,0,14.159,16.843,1.753,1.753,0,0,0,1.547-2.868L95.174,64.69,89.85,58.355a1.752,1.752,0,0,0-1.342-.625" transform="translate(-36.065 -24.004)" fill="#040405"/>
          <path id="Trazado_637239" data-name="Trazado 637239" d="M123.2,68.824a.877.877,0,0,1-.876-.866,14.256,14.256,0,0,0-.428-2.88,10.015,10.015,0,0,1-.219-4.923,19.418,19.418,0,0,1,3.7-7.129.877.877,0,0,1,.689-.335.845.845,0,0,1,.162.015.878.878,0,0,1,.677.608s1.115,3.7,1.445,4.8c.049.164.09.33.13.5a3.5,3.5,0,0,0,.21.685,3.216,3.216,0,0,1-.582,3.766c-.987,1.178-1.921,2.406-2.91,3.706-.425.558-.858,1.128-1.309,1.711a.876.876,0,0,1-.693.341" transform="translate(-50.499 -21.909)" fill="#7aad24"/>
          <path id="Trazado_637240" data-name="Trazado 637240" d="M125.451,52.945c.529,1.756.988,3.278,1.445,4.8a8.451,8.451,0,0,0,.393,1.319,2.342,2.342,0,0,1-.469,2.815c-1.425,1.7-2.738,3.5-4.24,5.444-.03-2.666-1.368-4.974-.676-7.566a18.586,18.586,0,0,1,3.547-6.813m0-1.753a1.753,1.753,0,0,0-1.378.67,20.257,20.257,0,0,0-3.863,7.444,10.862,10.862,0,0,0,.21,5.336,13.526,13.526,0,0,1,.407,2.7,1.753,1.753,0,0,0,3.14,1.052c.453-.586.889-1.158,1.316-1.72.982-1.291,1.909-2.509,2.882-3.671a4.067,4.067,0,0,0,.7-4.715,3.278,3.278,0,0,1-.144-.5c-.044-.183-.089-.367-.143-.546-.32-1.069-.642-2.138-.989-3.288l-.456-1.515a1.751,1.751,0,0,0-1.678-1.247" transform="translate(-49.876 -21.285)" fill="#040405"/>
          <path id="Trazado_637241" data-name="Trazado 637241" d="M137.323,53.951a.91.91,0,0,1-.158-.014.878.878,0,0,1-.681-.606l-.469-1.531c-.336-1.1-.658-2.144-.969-3.193-.59-1.985-.381-2.438,1.482-3.237l.074-.032a21.448,21.448,0,0,1,5.35-1.3c.4-.061.8-.122,1.2-.188a1.216,1.216,0,0,1,.167-.014,1.307,1.307,0,0,1,.46.095c.034.012.075.027.129.042a.877.877,0,0,1,.455,1.378l-6.351,8.255a.873.873,0,0,1-.693.342" transform="translate(-56.029 -18.228)" fill="#7aad24"/>
          <path id="Trazado_637242" data-name="Trazado 637242" d="M142.71,44.093a2.2,2.2,0,0,1,.349.1l-6.351,8.255c-.512-1.678-.984-3.2-1.437-4.718-.471-1.587-.452-1.565,1.062-2.214a26.911,26.911,0,0,1,6.353-1.425l.024,0m0-1.753a2.045,2.045,0,0,0-.31.026c-.4.065-.8.126-1.194.186a22.1,22.1,0,0,0-5.563,1.357l-.074.032c-2.265.97-2.69,1.892-1.978,4.292.311,1.049.633,2.1.969,3.193l.471,1.538a1.753,1.753,0,0,0,3.066.557l1.671-2.173,4.68-6.083a1.753,1.753,0,0,0-.91-2.755c-.03-.008-.053-.018-.073-.025a2.157,2.157,0,0,0-.755-.145" transform="translate(-55.415 -17.605)" fill="#040405"/>
          <path id="Trazado_637243" data-name="Trazado 637243" d="M112.771,73.683a.877.877,0,0,1-.571-.211c-.07-.06-.128-.107-.178-.148a2.262,2.262,0,0,1-.338-.315l-.759-.9c-.967-1.148-1.968-2.334-2.922-3.534a2.228,2.228,0,0,1-.363-1.774c.176-.751.42-1.479.656-2.183l.153-.457a5.989,5.989,0,0,1,.282-.677c.046-.1.1-.207.148-.325a.876.876,0,0,1,.705-.519.779.779,0,0,1,.1-.005.876.876,0,0,1,.705.356,15.487,15.487,0,0,1,3.26,9.84.876.876,0,0,1-.876.856" transform="translate(-44.735 -26.042)" fill="#7aad24"/>
          <path id="Trazado_637244" data-name="Trazado 637244" d="M109.06,62.883a14.549,14.549,0,0,1,3.089,9.3,4.37,4.37,0,0,1-.415-.361c-1.231-1.466-2.476-2.921-3.668-4.419a1.368,1.368,0,0,1-.2-1.029c.2-.869.508-1.715.788-2.565.095-.287.24-.558.4-.926m0-1.753a1.826,1.826,0,0,0-.195.011,1.754,1.754,0,0,0-1.411,1.038c-.048.109-.095.209-.138.3a6.977,6.977,0,0,0-.322.778l-.154.461c-.241.72-.491,1.465-.676,2.254a3.118,3.118,0,0,0,.53,2.519c.962,1.209,1.967,2.4,2.939,3.554l.759.9a3.083,3.083,0,0,0,.456.432c.044.036.1.078.158.131a1.753,1.753,0,0,0,2.895-1.287,16.331,16.331,0,0,0-3.43-10.381,1.754,1.754,0,0,0-1.411-.713" transform="translate(-44.112 -25.417)" fill="#040405"/>
          <path id="Trazado_637245" data-name="Trazado 637245" d="M145.133,59.413a.994.994,0,0,1-.558-.182c-.024-.015-.057-.036-.1-.061a.877.877,0,0,1-.266-1.3l5.524-7.1a.875.875,0,0,1,1.143-.213l.094.056a.968.968,0,0,1,.476.782v1.09c0,1.368,0,2.737-.017,4.1a1.486,1.486,0,0,1-.964,1.3c-1.507.464-3.044.91-4.53,1.34l-.549.159a.944.944,0,0,1-.252.036" transform="translate(-59.884 -20.966)" fill="#7aad24"/>
          <path id="Trazado_637246" data-name="Trazado 637246" d="M149.8,50.676l.145.086c0,1.727.01,3.456-.015,5.182a.634.634,0,0,1-.346.473c-1.682.519-3.374,1-5.065,1.495h-.008c-.032,0-.084-.049-.234-.132l5.524-7.105m0-1.753a1.752,1.752,0,0,0-1.385.677l-2.933,3.773-2.59,3.331a1.753,1.753,0,0,0,.532,2.608c.026.014.044.026.058.035a1.869,1.869,0,0,0,1.027.318,1.805,1.805,0,0,0,.5-.071l.573-.166c1.482-.429,3.014-.873,4.521-1.338a2.367,2.367,0,0,0,1.581-2.12c.02-1.366.018-2.747.017-4.082V50.762a1.752,1.752,0,0,0-.857-1.506l-.149-.088a1.744,1.744,0,0,0-.89-.244" transform="translate(-59.26 -20.342)" fill="#040405"/>
          <path id="Trazado_637247" data-name="Trazado 637247" d="M99.132,60.492a.876.876,0,0,1-.671-.313l-4.332-5.157a.876.876,0,0,1-.006-1.12l.13-.159a.879.879,0,0,1,.678-.32.922.922,0,0,1,.149.013,14.888,14.888,0,0,1,5.326,1.992,1.268,1.268,0,0,1,.539,1.352c-.234.779-.482,1.552-.741,2.363l-.237.739a.876.876,0,0,1-.665.594.887.887,0,0,1-.17.016" transform="translate(-39.053 -22.213)" fill="#7aad24"/>
          <path id="Trazado_637248" data-name="Trazado 637248" d="M94.306,53.676a13.95,13.95,0,0,1,5.015,1.874.415.415,0,0,1,.159.356c-.3,1.007-.627,2.005-.973,3.086l-4.332-5.157Zm0-1.753a1.752,1.752,0,0,0-1.352.638l-.131.159a1.754,1.754,0,0,0,.011,2.242l1.837,2.187,2.5,2.97a1.752,1.752,0,0,0,3.011-.594l.218-.682c.269-.837.522-1.628.764-2.436a2.128,2.128,0,0,0-.919-2.35A15.75,15.75,0,0,0,94.6,51.949a1.7,1.7,0,0,0-.3-.026" transform="translate(-38.429 -21.589)" fill="#040405"/>
          <rect id="Rectángulo_349050" data-name="Rectángulo 349050" width="4.569" height="4.582" transform="translate(20.93 111.762)" fill="#161615"/>
          <rect id="Rectángulo_349051" data-name="Rectángulo 349051" width="4.568" height="4.569" transform="translate(39.543 111.756)" fill="#161615"/>
        </g>
      </g>
    </g>
  </g>
</svg>
