<svg xmlns="http://www.w3.org/2000/svg" xmlns:xlink="http://www.w3.org/1999/xlink" width="201.5" height="201.502" viewBox="0 0 201.5 201.502">
  <defs>
    <clipPath id="clip-path">
      <path id="Trazado_604039" data-name="Trazado 604039" d="M127.746,0,27,27,0,127.745,73.754,201.5l100.75-27,27-100.752Z" transform="translate(-0.001 0.001)" fill="#fff"/>
    </clipPath>
    <clipPath id="clip-path-2">
      <rect id="Rectángulo_349020" data-name="Rectángulo 349020" width="146.251" height="146.245" fill="none"/>
    </clipPath>
  </defs>
  <g id="Grupo_1016662" data-name="Grupo 1016662" transform="translate(-718 -690.039)">
    <g id="Grupo_161574" data-name="Grupo 161574" transform="translate(718 690.039)">
      <path id="Trazado_600880" data-name="Trazado 600880" d="M127.746,0,27,27,0,127.745,73.754,201.5l100.75-27,27-100.752Z" transform="translate(-0.001 0.001)" fill="#fff"/>
      <path id="Trazado_601791" data-name="Trazado 601791" d="M0,1.637,2.917,0V55.442L.169,56.949Z" transform="matrix(0.259, 0.966, -0.966, 0.259, 84.826, 0)" fill="#60cb28"/>
      <path id="Trazado_637249" data-name="Trazado 637249" d="M0,1.637,2.917,0V55.442L.169,56.949Z" transform="matrix(0.259, 0.966, -0.966, 0.259, 173.826, 183.944)" fill="#60cb28"/>
    </g>
    <g id="Enmascarar_grupo_74" data-name="Enmascarar grupo 74" transform="translate(718 690.039)" clip-path="url(#clip-path)">
      <g id="Grupo_1016665" data-name="Grupo 1016665" transform="translate(27.624 27.628)">
        <g id="Grupo_1016664" data-name="Grupo 1016664" clip-path="url(#clip-path-2)">
          <path id="Trazado_637187" data-name="Trazado 637187" d="M99.107,103.792H75.49v.873c0,5.825.007,11.651-.011,17.477,0,.591.1.87.767,1.046a11.726,11.726,0,1,1-14.76,12.647,11.45,11.45,0,0,1,8.607-12.7l.651-.182V103.833H47.194V88.655c-1.117.561-2.112,1.062-3.108,1.561C40.311,92.1,36.54,94,32.754,95.868c-.494.243-.608.463-.445,1,2.8,9.3-3.591,19.275-13.2,20.825a16.447,16.447,0,1,1-5.25-32.472,15.919,15.919,0,0,1,15.7,6.194c.344.432.586.579,1.138.3q7.867-3.938,15.772-7.8a1.089,1.089,0,0,0,.707-1.172q-.026-9.586.007-19.173a1.173,1.173,0,0,0-.8-1.243Q34.649,56.494,22.944,50.6c-.592-.3-1.229-.857-1.778-.786-.524.068-.952.813-1.439,1.242A11.425,11.425,0,0,1,8.074,53.613c-4.268-1.381-6.8-4.523-7.8-8.861A11.652,11.652,0,0,1,8.865,31.035a11.7,11.7,0,0,1,14.142,7.95,10.1,10.1,0,0,1,.283,5.732.816.816,0,0,0,.527,1.128q10.52,5.219,21.017,10.483c.742.371,1.469.77,2.3,1.2V42.469h23.6V32.776A16.573,16.573,0,0,1,56.7,15.132,16.479,16.479,0,1,1,75.528,32.761v9.645H99.06V57.577l1.714-.858c7.193-3.615,14.378-7.244,21.59-10.82.679-.337.725-.654.586-1.291a11.772,11.772,0,0,1,19.361-11,12.156,12.156,0,0,1,2.454,14.627c-3.184,5.977-12.9,8.8-19,2.011-.178-.2-.364-.389-.536-.571-5.57,2.8-11.086,5.586-16.615,8.348q-4.446,2.221-8.931,4.364a.936.936,0,0,0-.6,1.011c.015,6.317.027,12.635-.011,18.952a1.614,1.614,0,0,0,1.062,1.729c4.883,2.359,9.733,4.788,14.592,7.2.482.239.951.5,1.484.785.147-.171.3-.322.421-.492a16.387,16.387,0,0,1,23.478-2.929,16.161,16.161,0,0,1,6.144,13.016,16.48,16.48,0,0,1-32.834,1.765,14.868,14.868,0,0,1,.453-6.193c.3-1.058.282-1.042-.719-1.54q-6.756-3.362-13.5-6.742c-.147-.073-.3-.138-.541-.25ZM51.926,99.036h42.4V47.218h-42.4ZM72.85,28.248A11.658,11.658,0,0,0,84.916,17.4,11.8,11.8,0,0,0,73.633,4.709c-7.7-.406-11.986,5.991-12.3,10.976A11.733,11.733,0,0,0,72.85,28.248m56.515,84.935c6.035.392,11.826-4.627,12.181-10.6a11.825,11.825,0,1,0-12.181,10.6M16.1,113.169a11.769,11.769,0,0,0,1.4-23.491C9.755,88.94,5.2,95.165,4.7,100.424A11.763,11.763,0,0,0,16.1,113.169M4.69,42.428a7.118,7.118,0,0,0,7.121,7.1,6.965,6.965,0,0,0,7.037-6.84,7.207,7.207,0,0,0-7-7.348c-3.927-.075-7.4,3.639-7.153,7.089m122.72-.007c-.255,3.39,3.121,7.19,7.115,7.124a7.049,7.049,0,0,0,7.043-6.853,7.081,7.081,0,1,0-14.158-.27m-54.341,99.14a7.056,7.056,0,0,0,7.133-6.836,7.24,7.24,0,0,0-6.907-7.361c-4.407-.128-7.156,3.959-7.277,6.775-.177,4.144,3.6,7.6,7.052,7.423" transform="translate(0 0)" fill="#161615"/>
          <path id="Trazado_637188" data-name="Trazado 637188" d="M87.775,79.819h42.4v51.817h-42.4Zm37.695,23.595H111.322v4.673h-9.447v4.753H92.5v14.078H125.47Zm0-9.439H92.494V98.6h32.973Zm-23.535-4.824h23.507v-4.63H101.932Zm-4.8-4.61H92.5V89.17h4.631Z" transform="translate(-35.85 -32.6)" fill="#fff"/>
          <path id="Trazado_637189" data-name="Trazado 637189" d="M115.259,31.785c-.252,0-.5-.008-.757-.026a12.773,12.773,0,0,1-9.051-4.074,12.291,12.291,0,0,1-3.291-9.43c.31-4.911,4.391-11.826,12.494-11.826q.365,0,.739.02a12.718,12.718,0,0,1,8.877,4.161,12.984,12.984,0,0,1,3.247,9.466,12.638,12.638,0,0,1-12.257,11.71m-.544-18.847a6.14,6.14,0,0,0-4.276,10.485,6.054,6.054,0,0,0,4.239,1.881h0a6.184,6.184,0,1,0,.093-12.366Z" transform="translate(-41.713 -2.626)" fill="#ffe126"/>
          <path id="Trazado_637190" data-name="Trazado 637190" d="M114.041,6.7c.227,0,.458.005.692.018a11.789,11.789,0,0,1-.088,23.562q-.347,0-.7-.023A11.734,11.734,0,0,1,102.433,17.7c.305-4.833,4.346-10.994,11.608-10.994m.06,18.874a7.071,7.071,0,1,0,.064-14.14H114.1a7.071,7.071,0,0,0-.044,14.14h.043m-.06-20.649h0a13.5,13.5,0,0,0-13.379,12.657,13.157,13.157,0,0,0,3.529,10.092,13.721,13.721,0,0,0,9.7,4.358c.251.015.507.023.759.023a13.545,13.545,0,0,0,13.143-12.548A13.865,13.865,0,0,0,124.317,9.4a13.6,13.6,0,0,0-9.49-4.453c-.263-.014-.527-.021-.786-.021M114.1,23.8h-.033a5.163,5.163,0,0,1-3.609-1.613,5.253,5.253,0,0,1,3.642-8.978h.046A5.3,5.3,0,1,1,114.1,23.8" transform="translate(-41.1 -2.014)" fill="#040405"/>
          <path id="Trazado_637191" data-name="Trazado 637191" d="M210.85,175.356q-.36,0-.722-.023a12.4,12.4,0,0,1-9-4.192A12.678,12.678,0,0,1,210.473,150c.434,0,.878.021,1.319.064,6.068.579,11.953,5.518,11.46,13.837a12.634,12.634,0,0,1-12.4,11.454m-.313-18.817a6.188,6.188,0,0,0-6.14,6.071,6.3,6.3,0,0,0,1.811,4.453,6.085,6.085,0,0,0,4.366,1.834,6.179,6.179,0,1,0-.027-12.357l-.009-.887Z" transform="translate(-80.82 -61.264)" fill="#ffe126"/>
          <path id="Trazado_637192" data-name="Trazado 637192" d="M209.86,150.276q.605,0,1.235.06a11.766,11.766,0,0,1,10.658,12.9c-.341,5.752-5.727,10.619-11.516,10.619q-.332,0-.665-.021a11.783,11.783,0,0,1,.287-23.559m.1,18.895h0a7.066,7.066,0,1,0-.026-14.132h-.011a7.066,7.066,0,0,0,.037,14.132m-.1-20.67h0a13.565,13.565,0,0,0-10.009,22.619,13.3,13.3,0,0,0,9.644,4.488c.245.015.5.022.742.022,6.807,0,12.892-5.628,13.287-12.289a13.864,13.864,0,0,0-3.451-10.387,13.589,13.589,0,0,0-8.81-4.386c-.47-.044-.942-.067-1.4-.067m.1,20.67V167.4a5.2,5.2,0,0,1-3.733-1.569,5.418,5.418,0,0,1-1.556-3.83,5.3,5.3,0,0,1,10.605.172,5.353,5.353,0,0,1-5.316,5.228Z" transform="translate(-80.208 -60.652)" fill="#040405"/>
          <path id="Trazado_637193" data-name="Trazado 637193" d="M19.354,175.339q-.36,0-.716-.024a12.389,12.389,0,0,1-9-4.16A12.57,12.57,0,0,1,6.421,161.6c.528-5.628,5.066-11.61,12.436-11.61.435,0,.88.022,1.325.064a12.665,12.665,0,0,1-.828,25.284m-.37-18.8a6.131,6.131,0,0,0-6.087,5.981,6.384,6.384,0,0,0,1.863,4.561,6.073,6.073,0,0,0,4.321,1.816,6.179,6.179,0,1,0-.025-12.357Z" transform="translate(-2.601 -61.26)" fill="#ffe126"/>
          <path id="Trazado_637194" data-name="Trazado 637194" d="M18.243,150.266q.606,0,1.241.06a11.778,11.778,0,0,1-.744,23.513c-.22,0-.438-.007-.656-.022A11.763,11.763,0,0,1,6.691,161.071c.467-4.971,4.565-10.806,11.552-10.806m.232,18.9a7.066,7.066,0,1,0-.02-14.133h-.083A7.051,7.051,0,0,0,11.4,161.9a7.172,7.172,0,0,0,7.071,7.267h.007m-.231-20.676h0c-7.9,0-12.755,6.4-13.32,12.415A13.462,13.462,0,0,0,8.37,171.137a13.312,13.312,0,0,0,9.647,4.454c.239.015.482.023.723.023a13.552,13.552,0,0,0,.912-27.054c-.473-.045-.947-.068-1.409-.068m.224,20.676,0-1.775a5.194,5.194,0,0,1-3.693-1.555,5.5,5.5,0,0,1-1.6-3.932,5.3,5.3,0,0,1,5.2-5.1h.061a5.292,5.292,0,1,1,.042,10.583Z" transform="translate(-1.988 -60.647)" fill="#040405"/>
          <path id="Trazado_637195" data-name="Trazado 637195" d="M7.919,66.826c-.25-3.449,3.226-7.163,7.153-7.088a7.207,7.207,0,0,1,7,7.347,6.966,6.966,0,0,1-7.037,6.841,7.119,7.119,0,0,1-7.121-7.1" transform="translate(-3.229 -24.398)" fill="#60cb28"/>
          <path id="Trazado_637196" data-name="Trazado 637196" d="M215.366,66.832a7.081,7.081,0,1,1,14.158.271,7.049,7.049,0,0,1-7.043,6.853c-3.994.066-7.37-3.733-7.115-7.124" transform="translate(-87.955 -24.41)" fill="#60cb28"/>
          <path id="Trazado_637197" data-name="Trazado 637197" d="M118.643,229.492c-3.447.176-7.229-3.278-7.052-7.422.121-2.816,2.87-6.9,7.277-6.775a7.24,7.24,0,0,1,6.907,7.361,7.056,7.056,0,0,1-7.133,6.836" transform="translate(-45.574 -87.931)" fill="#60cb28"/>
          <path id="Trazado_637198" data-name="Trazado 637198" d="M128.731,119.7v23.5H95.76V129.13h9.376v-4.753h9.447V119.7Zm-4.744,4.7h-4.626V138.5h4.626Zm-14.053,14.062h4.626v-9.345h-4.626Zm-4.79-4.6h-4.653v4.6h4.653Z" transform="translate(-39.111 -48.89)" fill="#161615"/>
          <rect id="Rectángulo_349014" data-name="Rectángulo 349014" width="32.973" height="4.627" transform="translate(56.644 61.375)" fill="#161615"/>
          <rect id="Rectángulo_349015" data-name="Rectángulo 349015" width="23.507" height="4.63" transform="translate(66.082 51.921)" fill="#161615"/>
          <rect id="Rectángulo_349016" data-name="Rectángulo 349016" width="4.631" height="4.629" transform="translate(56.647 51.94)" fill="#161615"/>
          <path id="Trazado_637199" data-name="Trazado 637199" d="M125.8,23.019a7.1,7.1,0,0,1-7.252,7.053,7.071,7.071,0,0,1,.108-14.14,7.089,7.089,0,0,1,7.144,7.087m-4.711,0a2.3,2.3,0,0,0-2.311-2.412,2.391,2.391,0,1,0-.04,4.781,2.282,2.282,0,0,0,2.351-2.369" transform="translate(-45.592 -6.507)" fill="#161615"/>
          <path id="Trazado_637200" data-name="Trazado 637200" d="M214.458,173.685a7.066,7.066,0,1,1,7.091-7,7.11,7.11,0,0,1-7.091,7m2.382-7.076a2.289,2.289,0,0,0-2.337-2.4,2.389,2.389,0,1,0-.014,4.779,2.271,2.271,0,0,0,2.351-2.38" transform="translate(-84.705 -65.165)" fill="#161615"/>
          <path id="Trazado_637201" data-name="Trazado 637201" d="M30.065,166.612a7.1,7.1,0,0,1-7.089,7.071,7.172,7.172,0,0,1-7.071-7.267,7.082,7.082,0,0,1,14.161.2m-4.714.01a2.292,2.292,0,0,0-2.328-2.408,2.387,2.387,0,1,0-.041,4.775,2.281,2.281,0,0,0,2.37-2.366" transform="translate(-6.496 -65.164)" fill="#161615"/>
          <rect id="Rectángulo_349017" data-name="Rectángulo 349017" width="6.4" height="15.865" rx="1.5" transform="translate(79.363 74.629)" fill="#88e3f2"/>
          <path id="Trazado_637202" data-name="Trazado 637202" d="M139.056,140.519H134.43v-14.09h4.626Zm0-15.865H134.43a1.775,1.775,0,0,0-1.775,1.775v14.09a1.775,1.775,0,0,0,1.775,1.775h4.626a1.775,1.775,0,0,0,1.775-1.775v-14.09a1.775,1.775,0,0,0-1.775-1.775" transform="translate(-54.18 -50.912)" fill="#040405"/>
          <rect id="Rectángulo_349018" data-name="Rectángulo 349018" width="6.401" height="11.12" rx="1.5" transform="translate(69.936 79.346)" fill="#88e3f2"/>
          <path id="Trazado_637203" data-name="Trazado 637203" d="M123.12,143.747h-4.626V134.4h4.626Zm0-11.12h-4.626a1.775,1.775,0,0,0-1.775,1.775v9.345a1.775,1.775,0,0,0,1.775,1.775h4.626a1.775,1.775,0,0,0,1.775-1.775V134.4a1.775,1.775,0,0,0-1.775-1.775" transform="translate(-47.671 -54.168)" fill="#040405"/>
          <rect id="Rectángulo_349019" data-name="Rectángulo 349019" width="6.427" height="6.375" rx="1.5" transform="translate(60.492 84.096)" fill="#88e3f2"/>
          <path id="Trazado_637204" data-name="Trazado 637204" d="M107.184,147.03h-4.653v-4.6h4.653Zm0-6.375h-4.653a1.775,1.775,0,0,0-1.775,1.775v4.6a1.775,1.775,0,0,0,1.775,1.775h4.653a1.775,1.775,0,0,0,1.775-1.775v-4.6a1.775,1.775,0,0,0-1.775-1.775" transform="translate(-41.152 -57.447)" fill="#040405"/>
          <path id="Trazado_637205" data-name="Trazado 637205" d="M121.359,28.882a3.229,3.229,0,0,1-3.27-3.215,3.22,3.22,0,0,1,3.314-3.342,3.279,3.279,0,0,1-.019,6.556Z" transform="translate(-48.23 -9.119)" fill="#f8a92f"/>
          <path id="Trazado_637206" data-name="Trazado 637206" d="M120.79,22.6h.014a2.391,2.391,0,0,1-.04,4.781h-.019a2.391,2.391,0,1,1,.044-4.781m0-1.775h0a4.106,4.106,0,0,0-4.2,4.236,4.108,4.108,0,0,0,4.158,4.094h.032a4.166,4.166,0,0,0,.034-8.331h-.02" transform="translate(-47.617 -8.506)" fill="#040405"/>
          <path id="Trazado_637207" data-name="Trazado 637207" d="M217.1,172.478a3.277,3.277,0,0,1,.027-6.553,3.187,3.187,0,0,1,3.23,3.283,3.152,3.152,0,0,1-3.234,3.27Z" transform="translate(-87.338 -67.768)" fill="#f8a92f"/>
          <path id="Trazado_637208" data-name="Trazado 637208" d="M216.54,166.2a2.39,2.39,0,0,1-.031,4.779h-.017a2.39,2.39,0,1,1,.031-4.779h.017m0-1.775h-.028a4.164,4.164,0,0,0-.02,8.329,4.165,4.165,0,0,0,.048-8.329" transform="translate(-86.725 -67.155)" fill="#040405"/>
          <path id="Trazado_637209" data-name="Trazado 637209" d="M25.607,172.483a3.207,3.207,0,0,1-3.261-3.258,3.262,3.262,0,1,1,6.524,0,3.152,3.152,0,0,1-3.256,3.254Z" transform="translate(-9.127 -67.772)" fill="#f8a92f"/>
          <path id="Trazado_637210" data-name="Trazado 637210" d="M25.047,166.209A2.388,2.388,0,0,1,25,170.983h0a2.387,2.387,0,1,1,.046-4.775Zm0-1.775h-.012a4.162,4.162,0,1,0-.04,8.324,4.162,4.162,0,0,0,.052-8.324" transform="translate(-8.514 -67.159)" fill="#040405"/>
        </g>
      </g>
    </g>
  </g>
</svg>
