<svg id="Grupo_1015981" data-name="Grupo 1015981" xmlns="http://www.w3.org/2000/svg" xmlns:xlink="http://www.w3.org/1999/xlink" width="146" height="146" viewBox="0 0 146 146">
  <defs>
    <clipPath id="clip-path">
      <rect id="Rectángulo_348114" data-name="Rectángulo 348114" width="146" height="146" fill="none"/>
    </clipPath>
  </defs>
  <g id="Grupo_1015980" data-name="Grupo 1015980" clip-path="url(#clip-path)">
    <path id="Trazado_610327" data-name="Trazado 610327" d="M146,73A73,73,0,1,1,73,0a73,73,0,0,1,73,73" fill="#304c8e"/>
    <path id="Trazado_610328" data-name="Trazado 610328" d="M84.679,106.446v7.587c.152-.127.261-.2.355-.3.657-.649,1.281-1.335,1.972-1.945a2.262,2.262,0,0,1,3.821,1.258,2.147,2.147,0,0,1-.43,1.693,7.231,7.231,0,0,1-.774.869q-2.642,2.652-5.293,5.293a7.114,7.114,0,0,1-.572.526,2.131,2.131,0,0,1-3.023-.116c-.5-.479-.978-.992-1.471-1.485q-2.113-2.114-4.231-4.225a9.247,9.247,0,0,1-.723-.785,2.152,2.152,0,0,1,.217-3.059,2.224,2.224,0,0,1,3.118-.011c.626.586,1.217,1.211,1.81,1.832a3.23,3.23,0,0,1,.337.526l.17-.138v-7.488H66v.569q0,6.052,0,12.1a5.209,5.209,0,0,1-.082.916A2.256,2.256,0,0,1,63.741,122a2.336,2.336,0,0,1-2.307-1.792,3.719,3.719,0,0,1-.1-.912q-.01-6.1,0-12.2v-.65h-.584c-4.213,0-8.427.067-12.638-.016a24.36,24.36,0,0,1-15.646-5.84,22.656,22.656,0,0,1-7.117-10.357,23.427,23.427,0,0,1,1.818-19.77A23.917,23.917,0,0,1,38.514,60.23a30.7,30.7,0,0,1,3.577-1.21.8.8,0,0,0,.7-.826A23.049,23.049,0,0,1,47.036,46.78a23.589,23.589,0,0,1,11.547-8.894,24.5,24.5,0,0,1,9.832-1.378,23.171,23.171,0,0,1,11.1,3.59,24.45,24.45,0,0,1,10.05,12.6A22.054,22.054,0,0,1,90.8,58.712c.009.129.021.258.041.386a.459.459,0,0,0,.063.125c1.139-.238,2.265-.52,3.407-.7a22.6,22.6,0,0,1,12.345,1.371,23.858,23.858,0,0,1,14.455,16.088,21.784,21.784,0,0,1,.6,9.953,23.812,23.812,0,0,1-6.286,12.836,26.609,26.609,0,0,1-5.4,4.259,24.114,24.114,0,0,1-12.72,3.418c-4.018.011-8.037,0-12.055,0ZM80,101.756v-.621c0-4.034-.007-8.069.01-12.1a4.266,4.266,0,0,1,.233-1.376,2.226,2.226,0,0,1,3.888-.493,3.112,3.112,0,0,1,.537,1.882v12.718c.153.007.233.015.313.015,4.375,0,8.75.039,13.124-.014a17.668,17.668,0,0,0,7.261-1.535,19.783,19.783,0,0,0,9.982-9.374,19.369,19.369,0,0,0-6.359-24.479A19.529,19.529,0,0,0,93.9,63.268a18.647,18.647,0,0,0-4.491,1.52,2.25,2.25,0,0,1-3.222-1.682,8.833,8.833,0,0,1-.035-1.209,32.853,32.853,0,0,0-.21-4.644A18.775,18.775,0,0,0,79.514,45.87a19.166,19.166,0,0,0-15.97-4.492A18.457,18.457,0,0,0,50.86,49.4a18.769,18.769,0,0,0-3.535,11.151,2.349,2.349,0,0,1-2.164,2.536A18.525,18.525,0,0,0,33.829,69.16,18.976,18.976,0,0,0,28.84,84.928a18.554,18.554,0,0,0,6.347,11.9,19.339,19.339,0,0,0,13.152,4.957c4.148-.016,8.3,0,12.445,0H61.3V94.256l-.116-.093c-.173.2-.332.422-.521.61-.644.638-1.261,1.311-1.958,1.885a2.236,2.236,0,0,1-3.361-2.7,6.2,6.2,0,0,1,1.1-1.4c1.738-1.767,3.5-3.513,5.257-5.26a5.338,5.338,0,0,1,.774-.66,2.109,2.109,0,0,1,2.686.157c.186.156.359.328.531.5.814.813,1.629,1.624,2.438,2.443q1.622,1.642,3.234,3.294a2.44,2.44,0,0,1,.81,2,2.178,2.178,0,0,1-1.454,1.9,2.079,2.079,0,0,1-2.338-.436c-.674-.629-1.307-1.3-1.959-1.957-.115-.114-.238-.219-.4-.366v7.589Z" fill="#fff"/>
    <path id="Trazado_610329" data-name="Trazado 610329" d="M93,24.007a30.565,30.565,0,0,1,23.775,13.419,30.7,30.7,0,0,1,5.034,13.809c.111.995.162,2,.182,3a2.315,2.315,0,0,1-2.3,2.432,2.342,2.342,0,0,1-2.356-2.44,24.635,24.635,0,0,0-4.521-14.454A25.011,25.011,0,0,0,96.553,29.116a35.959,35.959,0,0,0-4.634-.435,2.552,2.552,0,0,1-2.471-1.62,2.327,2.327,0,0,1,2.238-3.05c.436-.026.874,0,1.311,0" fill="#fff"/>
    <path id="Trazado_610330" data-name="Trazado 610330" d="M112.679,53.837a6.358,6.358,0,0,1-.059.918,2.335,2.335,0,0,1-2.448,1.913,2.379,2.379,0,0,1-2.164-2.353,17.42,17.42,0,0,0-1.728-7.3A15.448,15.448,0,0,0,102,41.687a15.149,15.149,0,0,0-9.08-3.6c-.355-.019-.709-.071-1.064-.082a2.4,2.4,0,0,1-2.525-2.387,2.36,2.36,0,0,1,2.57-2.277,20.617,20.617,0,0,1,5.265.767,19.906,19.906,0,0,1,9.131,5.192,20.849,20.849,0,0,1,6.08,11.885c.1.657.187,1.314.265,1.972a5.912,5.912,0,0,1,0,.679h.036" fill="#fff"/>
    <path id="Trazado_610331" data-name="Trazado 610331" d="M103.329,53.913c.007,1.642-.9,2.7-2.215,2.756a2.354,2.354,0,0,1-2.451-2.344,6.927,6.927,0,0,0-1.915-4.843,6.728,6.728,0,0,0-4.735-2.146,2.53,2.53,0,0,1-2.429-1.3,2.317,2.317,0,0,1,2.3-3.355,11.423,11.423,0,0,1,9.029,4.581,11.576,11.576,0,0,1,2.418,6.655" fill="#fff"/>
  </g>
</svg>
