<svg id="Grupo_1015975" data-name="Grupo 1015975" xmlns="http://www.w3.org/2000/svg" xmlns:xlink="http://www.w3.org/1999/xlink" width="146" height="146" viewBox="0 0 146 146">
  <defs>
    <clipPath id="clip-path">
      <rect id="Rectángulo_348109" data-name="Rectángulo 348109" width="146" height="146" fill="none"/>
    </clipPath>
  </defs>
  <g id="Grupo_1015974" data-name="Grupo 1015974" clip-path="url(#clip-path)">
    <path id="Trazado_610304" data-name="Trazado 610304" d="M146,73A73,73,0,1,1,73,0a73,73,0,0,1,73,73" fill="#304c8e"/>
    <path id="Trazado_610305" data-name="Trazado 610305" d="M95.127,65.942H50.75a.877.877,0,0,1-.877-.877V48.744a.878.878,0,0,1,.556-.817l15.247-5.991a.876.876,0,0,1,.928.184l6.1,5.864L79.282,42.1a.875.875,0,0,1,.906-.162l15.26,5.991a.879.879,0,0,1,.557.817V65.065a.878.878,0,0,1-.878.877m-43.5-1.755H94.249V49.343l-14.2-5.575-6.78,6.067a.878.878,0,0,1-1.194-.021l-6.282-6.039L51.628,49.343Z" fill="#fff"/>
    <path id="Trazado_610306" data-name="Trazado 610306" d="M87.652,65.908H58.226a.878.878,0,0,1-.879-.878V54.8a.879.879,0,0,1,1.757,0v9.356h27.67V54.8a.878.878,0,1,1,1.756,0V65.03a.878.878,0,0,1-.878.878" fill="#fff"/>
    <path id="Trazado_610307" data-name="Trazado 610307" d="M80.279,51.461H65.6a.878.878,0,0,1-.878-.878v-7.83a.878.878,0,0,1,1.757,0v6.953H79.4V42.753a.878.878,0,0,1,1.756,0v7.83a.878.878,0,0,1-.878.878" fill="#fff"/>
    <path id="Trazado_610308" data-name="Trazado 610308" d="M75.146,56.57H70.733a.878.878,0,0,1-.879-.877v-5.11a.879.879,0,0,1,.879-.878h4.413a.879.879,0,0,1,.878.878v5.11a.878.878,0,0,1-.878.877m-3.535-1.755h2.656V51.461H71.611Z" fill="#fff"/>
    <path id="Trazado_610309" data-name="Trazado 610309" d="M76.946,65.942H68.47a.877.877,0,0,1-.854-1.083l2.264-9.372a.876.876,0,0,1,.853-.672h4.413a.877.877,0,0,1,.862.712l1.8,9.372a.878.878,0,0,1-.863,1.043m-7.362-1.755h6.3L74.421,56.57h-3Z" fill="#fff"/>
    <path id="Trazado_610310" data-name="Trazado 610310" d="M73.133,39.815A11.875,11.875,0,1,1,85.022,27.94,11.89,11.89,0,0,1,73.133,39.815m0-21.994A10.12,10.12,0,1,0,83.265,27.94,10.131,10.131,0,0,0,73.133,17.821" fill="#fff"/>
    <path id="Trazado_610311" data-name="Trazado 610311" d="M81.479,26.3a12.7,12.7,0,0,1-7.751-2.442.878.878,0,1,1,1.073-1.39,11.775,11.775,0,0,0,8.849,1.89.878.878,0,0,1,.3,1.73,14.457,14.457,0,0,1-2.472.212" fill="#fff"/>
    <path id="Trazado_610312" data-name="Trazado 610312" d="M67.34,26.086a13.645,13.645,0,0,1-4.931-.883.878.878,0,1,1,.633-1.638,11.885,11.885,0,0,0,4.3.766c4.93,0,8.94-2.755,8.94-6.141a.878.878,0,0,1,1.756,0c0,4.354-4.8,7.9-10.7,7.9" fill="#fff"/>
    <path id="Trazado_610313" data-name="Trazado 610313" d="M115,122.908a.878.878,0,0,1-.878-.878v-4.11a5.823,5.823,0,0,0-5.823-5.81H98.635a5.823,5.823,0,0,0-5.823,5.81v4.11a.878.878,0,1,1-1.756,0v-4.11a7.582,7.582,0,0,1,7.579-7.566H108.3a7.582,7.582,0,0,1,7.579,7.566v4.11a.878.878,0,0,1-.878.878m-31.711,0a.878.878,0,0,1-.878-.878v-4.11a5.821,5.821,0,0,0-5.818-5.81h-9.67a5.821,5.821,0,0,0-5.819,5.81v4.11a.879.879,0,0,1-1.757,0v-4.11a7.58,7.58,0,0,1,7.576-7.566H76.6a7.58,7.58,0,0,1,7.575,7.566v4.11a.878.878,0,0,1-.879.878m-29.353,0a.878.878,0,0,1-.877-.878v-4.11a5.822,5.822,0,0,0-5.82-5.81h-9.67a5.821,5.821,0,0,0-5.819,5.81v4.11a.878.878,0,0,1-1.756,0v-4.11a7.58,7.58,0,0,1,7.575-7.566h9.67a7.58,7.58,0,0,1,7.575,7.566v4.11a.878.878,0,0,1-.878.878m49.36-13.741A7.159,7.159,0,1,1,110.463,102a7.175,7.175,0,0,1-7.164,7.167m-5.393-6.714a5.41,5.41,0,0,0,10.8-.453,5.531,5.531,0,0,0-.033-.607,7.284,7.284,0,0,1-4.417-1.059,7.225,7.225,0,0,1-6.351,2.119m.141-1.758a5.252,5.252,0,0,0,1.024.1,5.4,5.4,0,0,0,4.34-2.171.883.883,0,0,1,.6-.343.892.892,0,0,1,.66.192,5.515,5.515,0,0,0,3.5,1.19,5.415,5.415,0,0,0-10.125,1.033M71.59,109.167A7.159,7.159,0,1,1,78.757,102a7.176,7.176,0,0,1-7.167,7.167M66.2,102.453A5.411,5.411,0,0,0,77,102a5.531,5.531,0,0,0-.033-.607,7.334,7.334,0,0,1-4.417-1.059,7.335,7.335,0,0,1-6.353,2.119m.141-1.758a5.36,5.36,0,0,0,1.036.1A5.421,5.421,0,0,0,71.7,98.627a.878.878,0,0,1,.6-.346.9.9,0,0,1,.662.19,5.456,5.456,0,0,0,3.51,1.191,5.417,5.417,0,0,0-10.128,1.033m-24.1,8.472A7.159,7.159,0,1,1,49.4,102a7.175,7.175,0,0,1-7.167,7.167m-5.392-6.714a5.411,5.411,0,0,0,10.8-.453,5.529,5.529,0,0,0-.034-.607,7.237,7.237,0,0,1-4.415-1.058,7.178,7.178,0,0,1-6.355,2.118m.141-1.759a5.4,5.4,0,0,0,5.361-2.067.878.878,0,0,1,1.254-.159,5.426,5.426,0,0,0,3.513,1.194,5.417,5.417,0,0,0-10.128,1.032" fill="#fff"/>
    <path id="Trazado_610314" data-name="Trazado 610314" d="M103.687,93.166a.878.878,0,0,1-.878-.878V80.215l-59.74-.663V92a.878.878,0,1,1-1.755,0V78.664a.879.879,0,0,1,.26-.625,1,1,0,0,1,.627-.253l61.495.683a.879.879,0,0,1,.869.878V92.288a.878.878,0,0,1-.878.878" fill="#fff"/>
    <path id="Trazado_610315" data-name="Trazado 610315" d="M72.707,86.347a.877.877,0,0,1-.878-.877V65.064a.878.878,0,0,1,1.756,0V85.47a.877.877,0,0,1-.878.877" fill="#fff"/>
  </g>
</svg>
