<svg xmlns="http://www.w3.org/2000/svg" xmlns:xlink="http://www.w3.org/1999/xlink" width="170.617" height="170.616" viewBox="0 0 170.617 170.616">
  <defs>
    <filter id="Trazado_150709" x="0" y="0" width="170.617" height="170.616" filterUnits="userSpaceOnUse">
      <feOffset dx="5" dy="5" input="SourceAlpha"/>
      <feGaussianBlur stdDeviation="12.5" result="blur"/>
      <feFlood flood-opacity="0.161"/>
      <feComposite operator="in" in2="blur"/>
      <feComposite in="SourceGraphic"/>
    </filter>
    <clipPath id="clip-path">
      <rect id="Rectángulo_348325" data-name="Rectángulo 348325" width="100" height="100" fill="none"/>
    </clipPath>
  </defs>
  <g id="Grupo_1016737" data-name="Grupo 1016737" transform="translate(5208.312 7452.082)">
    <g id="Grupo_1016220" data-name="Grupo 1016220" transform="translate(-5189 -7432.593)">
      <path id="Trazado_150708" data-name="Trazado 150708" d="M121.286,55.711A60.746,60.746,0,1,1,55.711.213a60.746,60.746,0,0,1,65.575,55.5" transform="translate(0 121.498) rotate(-90)" fill="#304c8e"/>
      <g transform="matrix(1, 0, 0, 1, -19.31, -19.49)" filter="url(#Trazado_150709)">
        <path id="Trazado_150709-2" data-name="Trazado 150709" d="M95.449,43.844A47.805,47.805,0,1,1,43.843.167,47.806,47.806,0,0,1,95.449,43.844" transform="translate(32.5 128.12) rotate(-90)" fill="#fff"/>
      </g>
      <g id="Grupo_1016237" data-name="Grupo 1016237" transform="translate(11 10.593)">
        <g id="Grupo_1016236" data-name="Grupo 1016236" clip-path="url(#clip-path)">
          <path id="Trazado_611121" data-name="Trazado 611121" d="M100,50A50,50,0,1,1,50,0a50,50,0,0,1,50,50" fill="#dee9f0"/>
          <path id="Trazado_611122" data-name="Trazado 611122" d="M80.232,86.677c.521.529.992,1.036,1.494,1.513a5.615,5.615,0,0,0,6.131,1.32,5.831,5.831,0,0,0,3.817-6.475,6.251,6.251,0,0,0-1.933-3.49c-2.995-2.972-5.969-5.964-8.958-8.942a1.085,1.085,0,0,1-.351-.836q.014-12.693,0-25.386a9.879,9.879,0,0,0-.1-1.408,4.262,4.262,0,0,0-1.3-2.413c-3-3-6.021-5.979-8.977-9.021a4.988,4.988,0,0,0-3.8-1.622c-2.427.012-4.855,0-7.283.008a.653.653,0,0,1-.59-.275,20.125,20.125,0,0,0-1.506-1.779,19.141,19.141,0,0,0-10.595-5.588,19.192,19.192,0,0,0-20.91,11.548,18.228,18.228,0,0,0-.208,14.282A18.646,18.646,0,0,0,37.049,59.45a.486.486,0,0,1,.4.562q-.015,12.481.008,24.962a5.724,5.724,0,0,0,.383,2.134,4.317,4.317,0,0,0,4.315,2.775q16.74.01,33.482,0a6.313,6.313,0,0,0,1.124-.1,4.5,4.5,0,0,0,3.468-3.1" transform="translate(-7.502 -6.931)" fill="#fff"/>
          <path id="Trazado_611123" data-name="Trazado 611123" d="M80.232,86.676a4.5,4.5,0,0,1-3.468,3.1,6.437,6.437,0,0,1-1.124.1q-16.741.007-33.482,0a4.317,4.317,0,0,1-4.315-2.776,5.73,5.73,0,0,1-.383-2.134q-.038-12.481-.008-24.962a.486.486,0,0,0-.4-.562A18.647,18.647,0,0,1,25.167,48.112a18.229,18.229,0,0,1,.208-14.283A19.194,19.194,0,0,1,46.285,22.28a19.146,19.146,0,0,1,10.595,5.588,20.224,20.224,0,0,1,1.506,1.779.655.655,0,0,0,.59.275c2.428-.008,4.855,0,7.284-.008a4.99,4.99,0,0,1,3.8,1.621c2.956,3.043,5.979,6.021,8.977,9.023a4.254,4.254,0,0,1,1.3,2.412,9.9,9.9,0,0,1,.1,1.409q.008,12.692,0,25.386a1.081,1.081,0,0,0,.351.836c2.989,2.979,5.964,5.971,8.958,8.942a6.251,6.251,0,0,1,1.933,3.49,5.829,5.829,0,0,1-3.817,6.475,5.612,5.612,0,0,1-6.131-1.319c-.5-.477-.973-.984-1.494-1.513m-21.7-23.99c-.793-.779-1.569-1.552-2.357-2.312a1.836,1.836,0,0,1-.636-1.108.4.4,0,0,0-.11-.212c-.523-.527-1.055-1.044-1.576-1.573-.15-.152-.26-.148-.451-.043a29.172,29.172,0,0,1-2.907,1.51A18.794,18.794,0,0,1,41.56,60.4c-.608-.057-1.211-.151-1.853-.234V85.241a2.274,2.274,0,0,0,2.369,2.379H75.1a4.9,4.9,0,0,0,.952-.01,3.262,3.262,0,0,0,1.141-.4A2.338,2.338,0,0,0,78.18,85a.772.772,0,0,0-.223-.592q-1.677-1.648-3.321-3.329a.734.734,0,0,0-.583-.249c-1.886.008-3.771,0-5.657,0h-.38V78.559h4.06c-.089-.1-.134-.167-.188-.221q-2.06-2.064-4.129-4.121a.671.671,0,0,0-.432-.164c-1.108-.013-2.216-.008-3.323-.007h-.51V71.765h1.8c-.1-.112-.158-.184-.221-.246-1.316-1.317-2.64-2.627-3.945-3.955a.963.963,0,0,0-.771-.312c-1.473.014-2.947.006-4.419.006h-.37V64.982h2.918c-.877-1.047-.873-1.257.054-2.3M78.174,68v-.523c0-7.66-.014-15.321.016-22.982A3.462,3.462,0,0,0,77.1,41.709c-.1-.087-.181-.185-.273-.277q-3.7-3.7-7.392-7.408c-.079-.08-.167-.152-.252-.229-.029.038-.053.055-.053.072,0,2.11-.017,4.22,0,6.329a1.023,1.023,0,0,0,1.108,1.038c1,.007,2,0,3.005,0h.375v2.253c-1.18,0-2.334.018-3.488-.005a3.277,3.277,0,0,1-2.4-1.109,3.525,3.525,0,0,1-.871-2.505c-.014-2.427,0-4.855,0-7.284v-.374H60.027a18.606,18.606,0,0,1,2.216,7.208,18.272,18.272,0,0,1-.8,7.488H64.57v2.25c-1.242,0-2.455,0-3.669.006a.462.462,0,0,0-.349.142c-.454.82-.886,1.652-1.351,2.533.5.506,1.049,1.042,1.577,1.594a.778.778,0,0,0,.621.254c2.439-.008,4.879,0,7.318,0H69.1v2.268H66.091c2.015,1.926,3.981,3.951,5.981,5.941s4.014,4.016,6.1,6.108M26.13,41.159A16.968,16.968,0,1,0,43.3,24.249,16.983,16.983,0,0,0,26.13,41.159M86.749,79.728l-21-21.022L60.6,63.837,81.624,84.866l5.125-5.138m-3.588,6.787a3.571,3.571,0,0,0,3.53,1.006,3.482,3.482,0,0,0,2.695-2.786,3.584,3.584,0,0,0-1-3.449l-5.22,5.228M61.232,56.436l-2.93,2.9,1.8,1.808,2.9-2.93-1.764-1.778m-4.217,1L59.3,55.12,57.965,53.7,55.53,56.1l1.486,1.342m7.573-.809.827-.658H63.892l.7.658" transform="translate(-7.502 -6.931)"/>
          <path id="Trazado_611124" data-name="Trazado 611124" d="M65.847,78.954c-.927,1.038-.931,1.248-.053,2.295H62.876v2.276h.369c1.473,0,2.947.008,4.42-.007a.961.961,0,0,1,.771.313c1.3,1.328,2.628,2.638,3.945,3.955.064.064.121.134.221.247h-1.8v2.281h.51c1.108,0,2.216-.006,3.323.008a.678.678,0,0,1,.433.164q2.074,2.05,4.129,4.121c.054.054.1.116.188.223h-4.06V97.1h.379c1.886,0,3.771,0,5.657,0a.738.738,0,0,1,.584.248q1.646,1.679,3.321,3.329a.775.775,0,0,1,.223.593,2.339,2.339,0,0,1-.988,2.213,3.263,3.263,0,0,1-1.142.4,4.847,4.847,0,0,1-.952.012H49.388a2.274,2.274,0,0,1-2.369-2.38V76.433c.642.082,1.245.177,1.853.234a18.8,18.8,0,0,0,8.939-1.451,29.382,29.382,0,0,0,2.906-1.51c.192-.1.3-.11.451.043.521.528,1.053,1.046,1.577,1.572a.394.394,0,0,1,.109.213,1.835,1.835,0,0,0,.637,1.107c.788.761,1.564,1.533,2.356,2.313M57.226,90.285H68.5V88.064H57.226Zm5.616,4.577H51.572v2.222H62.842ZM51.559,83.5h9.008V81.279H51.559ZM73.025,94.862H65.148v2.222h7.877ZM54.914,88.077H51.562V90.3h3.351Z" transform="translate(-14.814 -23.199)" fill="#fff"/>
          <path id="Trazado_611125" data-name="Trazado 611125" d="M94.454,72.692c-2.088-2.091-4.09-4.1-6.1-6.108s-3.966-4.015-5.981-5.942H85.38V58.375H85c-2.44,0-4.879,0-7.319,0a.773.773,0,0,1-.62-.254c-.528-.552-1.073-1.087-1.577-1.594.465-.881.9-1.713,1.35-2.532a.462.462,0,0,1,.349-.142c1.213-.01,2.427-.006,3.669-.006V51.6H77.728a18.27,18.27,0,0,0,.8-7.488A18.623,18.623,0,0,0,76.306,36.9h6.834v.375c0,2.428-.009,4.855,0,7.284a3.519,3.519,0,0,0,.871,2.505,3.278,3.278,0,0,0,2.4,1.109c1.153.023,2.308.005,3.487.005V45.929h-.374c-1,0-2,.008-3.005,0a1.023,1.023,0,0,1-1.108-1.038c-.021-2.109-.007-4.218,0-6.328,0-.017.023-.034.052-.073.086.077.173.149.253.229l7.392,7.408c.091.092.177.19.273.277a3.461,3.461,0,0,1,1.089,2.784c-.032,7.66-.016,15.321-.016,22.982v.523m-11.3-18.869H89.91V51.607H83.153Zm4.537,6.788H89.91v-2.22H87.69Z" transform="translate(-23.782 -11.627)" fill="#fff"/>
          <path id="Trazado_611126" data-name="Trazado 611126" d="M27.2,42.194A16.968,16.968,0,1,1,44.18,59.247,17.044,17.044,0,0,1,27.2,42.194M44.53,27.571a14.7,14.7,0,1,0,14.3,15.441,14.7,14.7,0,0,0-14.3-15.441" transform="translate(-8.568 -7.966)" fill="#4ca220"/>
          <path id="Trazado_611127" data-name="Trazado 611127" d="M103.672,96.612l-5.125,5.14L77.526,80.722l5.142-5.132,21,21.022" transform="translate(-24.426 -23.816)" fill="#ffe126"/>
          <path id="Trazado_611128" data-name="Trazado 611128" d="M110.46,113.786l5.221-5.228a3.587,3.587,0,0,1,1,3.449,3.484,3.484,0,0,1-2.7,2.786,3.57,3.57,0,0,1-3.53-1.007" transform="translate(-34.802 -34.203)" fill="#fff"/>
          <path id="Trazado_611129" data-name="Trazado 611129" d="M77.1,72.277l1.764,1.777-2.9,2.93-1.8-1.808,2.93-2.9" transform="translate(-23.368 -22.772)" fill="#fff"/>
          <path id="Trazado_611130" data-name="Trazado 611130" d="M71.606,72.022,70.12,70.68l2.435-2.4L73.891,69.7l-2.286,2.32" transform="translate(-22.093 -21.514)" fill="#fff"/>
          <path id="Trazado_611131" data-name="Trazado 611131" d="M83.026,72.26l-.7-.658h1.523l-.827.658" transform="translate(-25.939 -22.56)" fill="#fff"/>
          <rect id="Rectángulo_348317" data-name="Rectángulo 348317" width="11.271" height="2.221" transform="translate(42.412 64.866)"/>
          <rect id="Rectángulo_348318" data-name="Rectángulo 348318" width="11.271" height="2.222" transform="translate(36.758 71.663)"/>
          <rect id="Rectángulo_348319" data-name="Rectángulo 348319" width="9.008" height="2.221" transform="translate(36.745 58.08)"/>
          <rect id="Rectángulo_348320" data-name="Rectángulo 348320" width="7.877" height="2.222" transform="translate(50.334 71.663)"/>
          <rect id="Rectángulo_348321" data-name="Rectángulo 348321" width="3.351" height="2.221" transform="translate(36.748 64.878)"/>
          <rect id="Rectángulo_348322" data-name="Rectángulo 348322" width="6.758" height="2.216" transform="translate(59.371 39.98)"/>
          <rect id="Rectángulo_348323" data-name="Rectángulo 348323" width="2.221" height="2.22" transform="translate(63.908 46.764)"/>
          <path id="Trazado_611132" data-name="Trazado 611132" d="M45.577,28.623A14.7,14.7,0,1,1,30.544,42.575,14.694,14.694,0,0,1,45.577,28.623m12.07,15.819A14.431,14.431,0,0,0,57,39.2a.525.525,0,0,0-.6-.411c-3.075.014-6.15.008-9.225.008-2.179,0-4.359,0-6.539,0a2.229,2.229,0,0,0-2.2,2.066q-.016,6.344,0,12.689a.482.482,0,0,0,.2.353c.469.266.949.517,1.44.742a12.374,12.374,0,0,0,7.451.913,12.6,12.6,0,0,0,6.083-3.036c.028-.024.034-.073.068-.15H41.84V50.108h.439q6.539,0,13.078,0c.2,0,.364,0,.462-.221.426-.954.865-1.9,1.294-2.854a1.757,1.757,0,0,0,.073-.329H50.895V44.442ZM36.161,51.829v-.484c0-3.441-.008-6.882,0-10.322a4.372,4.372,0,0,1,1.19-3.015,4.788,4.788,0,0,1,3.788-1.479q7.035.012,14.069,0h.432a12.454,12.454,0,0,0-22.377,3.2,12.4,12.4,0,0,0,2.893,12.1" transform="translate(-9.615 -9.018)"/>
          <path id="Trazado_611133" data-name="Trazado 611133" d="M61.284,49.118H54.532v2.264h6.292a1.85,1.85,0,0,1-.073.328c-.429.953-.868,1.9-1.295,2.855-.1.22-.265.221-.462.221q-6.539,0-13.078,0h-.439v2.264H57.317c-.033.077-.039.126-.067.15a12.6,12.6,0,0,1-6.084,3.036,12.375,12.375,0,0,1-7.451-.913c-.49-.225-.971-.476-1.44-.742a.481.481,0,0,1-.2-.353q-.015-6.344,0-12.689a2.23,2.23,0,0,1,2.2-2.066c2.179,0,4.36,0,6.539,0,3.075,0,6.15.005,9.225-.008a.524.524,0,0,1,.6.411,14.416,14.416,0,0,1,.649,5.245M45.471,51.366h6.745v-2.22H45.471Z" transform="translate(-13.252 -13.694)" fill="#fff"/>
          <path id="Trazado_611134" data-name="Trazado 611134" d="M37.191,52.864a12.4,12.4,0,0,1-2.893-12.1,12.454,12.454,0,0,1,22.377-3.2h-.432q-7.035,0-14.069,0a4.788,4.788,0,0,0-3.788,1.479,4.372,4.372,0,0,0-1.19,3.015c-.012,3.44,0,6.881,0,10.322Z" transform="translate(-10.644 -10.053)" fill="#fff"/>
          <rect id="Rectángulo_348324" data-name="Rectángulo 348324" width="6.745" height="2.22" transform="translate(32.219 35.452)"/>
        </g>
      </g>
    </g>
    <g id="Group_43_" data-name="Group (43)" transform="translate(-5102 -7343.403)">
      <path id="Trazado_598926" data-name="Trazado 598926" d="M36.549,16.055,16.055,36.549a15.864,15.864,0,0,0,.655,1.582l21.422-21.42a15.863,15.863,0,0,0-1.582-.655Z" transform="translate(-15.17 -15.17)" fill="#4ca220"/>
      <path id="Trazado_598927" data-name="Trazado 598927" d="M18.367.8.8,18.367a16.022,16.022,0,0,0,.26,1.7L20.065,1.058A16.022,16.022,0,0,0,18.367.8Z" transform="translate(-0.754 -0.754)" fill="#4ca220"/>
      <path id="Trazado_598928" data-name="Trazado 598928" d="M299.7,283.668c0-.137-.008-.274-.01-.41l-16.454,16.453c.137,0,.273.01.41.01a16.091,16.091,0,0,0,1.678-.088l14.289-14.289a16.09,16.09,0,0,0,.088-1.678Z" transform="translate(-267.627 -267.648)" fill="#4ca220"/>
      <path id="Trazado_598929" data-name="Trazado 598929" d="M68.634,46.122q-.611-.481-1.267-.9L45.2,67.389q.42.656.9,1.267Z" transform="translate(-42.708 -42.73)" fill="#4ca220"/>
      <path id="Trazado_598930" data-name="Trazado 598930" d="M0,15.009,15.009,0c-.434.026-.863.07-1.287.131L.131,13.722C.07,14.145.026,14.575,0,15.009Z" fill="#4ca220"/>
      <path id="Trazado_598931" data-name="Trazado 598931" d="M106.76,84.058l-22.7,22.7a16.114,16.114,0,0,0,1.365,1.222l22.559-22.559A16.123,16.123,0,0,0,106.76,84.058Z" transform="translate(-79.426 -79.426)" fill="#4ca220"/>
      <path id="Trazado_598932" data-name="Trazado 598932" d="M159.927,138.548a16.093,16.093,0,0,0-.877-1.6l-22.108,22.108a15.959,15.959,0,0,0,1.6.877Z" transform="translate(-129.396 -129.396)" fill="#4ca220"/>
      <path id="Trazado_598933" data-name="Trazado 598933" d="M28.816,19.794a16.1,16.1,0,0,0-9.022,9.022Z" transform="translate(-18.704 -18.704)" fill="#4ca220"/>
      <path id="Trazado_598934" data-name="Trazado 598934" d="M382.436,392.617a16.085,16.085,0,0,0,10.18-10.18Z" transform="translate(-361.361 -361.361)" fill="#4ca220"/>
      <path id="Trazado_598935" data-name="Trazado 598935" d="M220.714,200.477l-20.237,20.237a15.962,15.962,0,0,0,2.154.537l18.619-18.619A16.154,16.154,0,0,0,220.714,200.477Z" transform="translate(-189.429 -189.429)" fill="#4ca220"/>
    </g>
  </g>
</svg>
