<svg xmlns="http://www.w3.org/2000/svg" width="168.439" height="182.134" viewBox="0 0 168.439 182.134">
  <g id="g2223_1_" data-name="g2223 (1)" transform="translate(-0.333 -0.333)">
    <path id="Trazado_604835" data-name="Trazado 604835" d="M8.55.333H123.582c4.538,0,8.217,3.978,8.217,8.885V173.583c0,4.907-3.678,8.885-8.217,8.885H8.55c-4.538,0-8.217-3.978-8.217-8.885V9.218C.333,4.311,4.012.333,8.55.333Z" transform="translate(0)" fill="#304c8e"/>
    <path id="Trazado_604836" data-name="Trazado 604836" d="M132.523,53.666h25.22V208.412H53.667V53.666h25.22" transform="translate(-39.639 -39.639)" fill="#fff"/>
    <path id="Trazado_604837" data-name="Trazado 604837" d="M163.386,24.983H200.3a7.275,7.275,0,0,0,7.275-7.275V.333H156.111V17.708A7.275,7.275,0,0,0,163.386,24.983Z" transform="translate(-115.779)" fill="#dabceb"/>
    <path id="Trazado_604838" data-name="Trazado 604838" d="M163.386,24.983H200.3a7.275,7.275,0,0,0,7.275-7.275V.333H156.111V17.708A7.275,7.275,0,0,0,163.386,24.983Z" transform="translate(-115.779)" fill="#b6c0d7"/>
    <path id="Trazado_604839" data-name="Trazado 604839" d="M410.166,210.624l40.113-40.113a9.055,9.055,0,0,1,12.805,12.8L422.971,223.43,399.89,233.706Z" transform="translate(-296.963 -118.769)" fill="#ffe126"/>
    <path id="Trazado_604840" data-name="Trazado 604840" d="M422.97,347.216l-12.805-12.805-10.276,23.081Z" transform="translate(-296.963 -240.216)" fill="#98a1b3"/>
    <path id="Trazado_604841" data-name="Trazado 604841" d="M591.8,187.718l4.4-4.4a9.054,9.054,0,1,0-12.8-12.805l-4.4,4.4Z" transform="translate(-430.078 -120.546)" fill="#f2e6f8"/>
    <path id="Trazado_604842" data-name="Trazado 604842" d="M584.307,200.646a3.423,3.423,0,0,0,0-4.842L571.5,183a3.424,3.424,0,0,0-4.842,4.842l12.805,12.805A3.423,3.423,0,0,0,584.307,200.646Z" transform="translate(-420.168 -130.725)" fill-rule="evenodd"/>
    <path id="Trazado_604843" data-name="Trazado 604843" d="M139.578,182.244H117.667V160.333h21.911Z" transform="translate(-87.206 -115.078)" fill="#60cb28"/>
    <path id="Trazado_604844" data-name="Trazado 604844" d="M139.578,328.911H117.667V307h21.911Z" transform="translate(-87.206 -220.566)" fill="#60cb28"/>
    <path id="Trazado_604845" data-name="Trazado 604845" d="M139.578,475.577H117.667V453.666h21.911Z" transform="translate(-87.206 -326.053)" fill="#f2e6f8"/>
    <path id="Trazado_604846" data-name="Trazado 604846" d="M275.91,181.873a3.423,3.423,0,0,0,2.421-1l15.456-15.456a3.424,3.424,0,1,0-4.842-4.842L275.91,173.607l-5.2-5.2a3.424,3.424,0,1,0-4.842,4.842l7.617,7.616A3.423,3.423,0,0,0,275.91,181.873Z" transform="translate(-196.612 -114.518)" fill-rule="evenodd"/>
    <path id="Trazado_604847" data-name="Trazado 604847" d="M275.91,328.539a3.424,3.424,0,0,0,2.421-1l15.456-15.456a3.424,3.424,0,0,0-4.842-4.842L275.91,320.274l-5.2-5.2a3.424,3.424,0,1,0-4.842,4.842l7.617,7.617A3.424,3.424,0,0,0,275.91,328.539Z" transform="translate(-196.612 -219.996)" fill-rule="evenodd"/>
    <path id="Trazado_604848" data-name="Trazado 604848" d="M280.7,474.2a3.424,3.424,0,0,0,4.842,0L301,458.747a3.423,3.423,0,0,0-4.842-4.842L280.7,469.361A3.423,3.423,0,0,0,280.7,474.2Z" transform="translate(-207.635 -325.475)" fill-rule="evenodd"/>
    <path id="Trazado_604849" data-name="Trazado 604849" d="M301,474.2a3.423,3.423,0,0,0,0-4.842l-15.456-15.456a3.424,3.424,0,0,0-4.842,4.842L296.16,474.2A3.424,3.424,0,0,0,301,474.2Z" transform="translate(-207.635 -325.475)" fill-rule="evenodd"/>
  </g>
</svg>
