<svg id="Grupo_1014955" data-name="Grupo 1014955" xmlns="http://www.w3.org/2000/svg" xmlns:xlink="http://www.w3.org/1999/xlink" width="85" height="85" viewBox="0 0 85 85">
  <defs>
    <clipPath id="clip-path">
      <rect id="Rectángulo_347754" data-name="Rectángulo 347754" width="85" height="85" fill="#fff"/>
    </clipPath>
  </defs>
  <g id="Grupo_1014952" data-name="Grupo 1014952" clip-path="url(#clip-path)">
    <path id="Trazado_609283" data-name="Trazado 609283" d="M84.329,42.165A42.165,42.165,0,1,1,42.165,0,42.165,42.165,0,0,1,84.329,42.165" fill="#304c8e"/>
    <path id="Trazado_609284" data-name="Trazado 609284" d="M76.389,79.972H34.081a3.142,3.142,0,0,1-3.138-3.139V46.369a3.141,3.141,0,0,1,3.138-3.138h11.3a.5.5,0,0,1,.5.5V60.623H65.542V43.728a.5.5,0,0,1,.5-.5H76.389a3.142,3.142,0,0,1,3.138,3.138V76.833a3.142,3.142,0,0,1-3.138,3.139M34.081,44.225a2.145,2.145,0,0,0-2.143,2.143V76.833a2.146,2.146,0,0,0,2.143,2.145H76.389a2.147,2.147,0,0,0,2.144-2.145V46.369a2.146,2.146,0,0,0-2.144-2.143H66.536V61.12a.5.5,0,0,1-.5.5H45.38a.5.5,0,0,1-.5-.5V44.225Z" transform="translate(-13.07 -18.261)" fill="#fff"/>
    <path id="Trazado_609285" data-name="Trazado 609285" d="M74.712,114.705H59.348a.5.5,0,0,1-.481-.623l2.258-8.591a.5.5,0,0,1,.481-.371H72.438a.5.5,0,0,1,.481.371l2.228,8.478a.5.5,0,0,1-.436.736m-14.72-.994H74.053l-2-7.6H61.989Z" transform="translate(-24.859 -44.403)" fill="#fff"/>
    <path id="Trazado_609286" data-name="Trazado 609286" d="M76.522,123.08H47.6a.5.5,0,0,1-.5-.5v-2.092a.5.5,0,0,1,.5-.5H76.522a.5.5,0,0,1,.5.5v2.092a.5.5,0,0,1-.5.5m-28.429-.994H76.025v-1.1H48.093Z" transform="translate(-19.894 -50.686)" fill="#fff"/>
    <path id="Trazado_609287" data-name="Trazado 609287" d="M78.225,73.744H35.948a.5.5,0,0,1-.5-.5V48.376a.5.5,0,0,1,.5-.5H47.284a.5.5,0,0,1,.5.5v14.21H67.446V48.376a.5.5,0,0,1,.5-.5H78.225a.5.5,0,0,1,.5.5V73.248a.5.5,0,0,1-.5.5m-41.78-.994H77.728V48.873H68.44v14.21a.5.5,0,0,1-.5.5H47.284a.5.5,0,0,1-.5-.5V48.873H36.445Z" transform="translate(-14.975 -20.224)" fill="#fff"/>
    <path id="Trazado_609288" data-name="Trazado 609288" d="M71.91,101.615a1.491,1.491,0,1,1,1.49-1.49,1.5,1.5,0,0,1-1.49,1.49m0-1.988a.5.5,0,1,0,.5.5.5.5,0,0,0-.5-.5" transform="translate(-29.743 -41.663)" fill="#fff"/>
    <path id="Trazado_609289" data-name="Trazado 609289" d="M76.948,75.037H50.971a.5.5,0,0,1-.5-.5v-5.5a.5.5,0,0,1,.995,0v5H76.451v-5a.5.5,0,0,1,.995,0v5.5a.5.5,0,0,1-.5.5" transform="translate(-21.32 -28.953)" fill="#fff"/>
    <path id="Trazado_609290" data-name="Trazado 609290" d="M76.233,57.207H55.574a.5.5,0,0,1-.5-.5V33.288a.5.5,0,0,1,.5-.5H76.233a.5.5,0,0,1,.5.5V56.71a.5.5,0,0,1-.5.5m-20.161-.994H75.736V33.785H56.072Z" transform="translate(-23.265 -13.851)" fill="#fff"/>
    <path id="Trazado_609291" data-name="Trazado 609291" d="M74.741,33.024a.5.5,0,0,1-.5-.5V25.95a4.292,4.292,0,1,0-8.583,0v6.578a.5.5,0,0,1-.995,0V25.95a5.286,5.286,0,1,1,10.572,0v6.578a.5.5,0,0,1-.5.5" transform="translate(-27.315 -8.728)" fill="#fff"/>
    <path id="Trazado_609292" data-name="Trazado 609292" d="M73.793,43.932a1.793,1.793,0,1,1,1.793-1.793,1.8,1.8,0,0,1-1.793,1.793m0-2.593a.8.8,0,1,0,.8.8.8.8,0,0,0-.8-.8m-9.578,2.593a1.793,1.793,0,1,1,1.8-1.793,1.8,1.8,0,0,1-1.8,1.793m0-2.593a.8.8,0,1,0,.8.8.8.8,0,0,0-.8-.8" transform="translate(-26.367 -17.042)" fill="#fff"/>
  </g>
</svg>
