<svg xmlns="http://www.w3.org/2000/svg" width="262.913" height="161.031" viewBox="0 0 262.913 161.031">
  <g id="Group_45" data-name="Group 45" transform="translate(-0.159)">
    <path id="Trazado_605934" data-name="Trazado 605934" d="M109.362,105.942H87.571a21.324,21.324,0,1,0,0,42.649H271.83a34.529,34.529,0,0,0,0-69.058,14.6,14.6,0,0,1,0-29.2h17.572a15.177,15.177,0,0,0,0-30.354H267.188a5.91,5.91,0,0,1,0-11.82h3.917a4.078,4.078,0,0,0,0-8.156h-25.7c-5.415,0-6.015,6.393-19.686,6.393H186.327a5.322,5.322,0,1,0,0,10.644h5.109a7.709,7.709,0,1,1,0,15.419h-7.689c-20.769,0-23.7,5.427-27.339,16.224s-22.528,11.666-22.528,11.666H108.046a11.618,11.618,0,0,0,0,23.237h1.329a11.176,11.176,0,1,1,0,22.351ZM282.543,8.156a4.078,4.078,0,1,1,4.078-4.078A4.078,4.078,0,0,1,282.543,8.156Z" transform="translate(-49.328)" fill="#f8fff5" fill-rule="evenodd"/>
    <path id="Trazado_605935" data-name="Trazado 605935" d="M243.479,326.223h1.868V314.886l7.077,7.077-4.259,4.259h1.759l3.382-3.378,3.378,3.378h1.759l-4.259-4.259,7.077-7.077v11.337h1.868V237.982h-1.868v2.15l-2.15-2.15h-1.759l3.909,3.909V242l-7.959,7.959L245.343,242v-.109l3.909-3.909h-1.759l-2.15,2.15v-2.15h-1.868v23.394a11.176,11.176,0,0,1,1.868.483v-.318l.515.511a11.3,11.3,0,0,1,6.131,6.131l.435.435-.2.2a11.473,11.473,0,0,1,.375,1.385l.7-.7,7.959,7.959v.109l-7.959,7.959L248.773,281a10.736,10.736,0,0,1-1.011.749l4.662,4.662-7.077,7.077V282.95a11.023,11.023,0,0,1-1.868.483v42.79Zm1.868-14.964V297.1l7.077,7.077Zm0-53.345V243.759l7.077,7.077Zm15.914-14.155v14.155l-7.077-7.077Zm0,17.782V275.7l-7.077-7.077Zm0,17.782v14.154l-7.077-7.077Zm0,17.782v14.154l-7.077-7.077Zm-15.914-37.432,7.959-7.959,7.959,7.959v.109l-7.959,7.959-7.959-7.959Zm0,35.564,7.959-7.959,7.959,7.959v.109l-7.959,7.959-7.959-7.959Zm0,17.782,7.959-7.959,7.959,7.959v.109l-7.959,7.959-7.959-7.959Z" transform="translate(-181.613 -177.632)" fill="#bfcce8" fill-rule="evenodd"/>
    <path id="Trazado_605936" data-name="Trazado 605936" d="M758.349,148.591h1.868V137.255l7.077,7.077-4.259,4.259h1.759l3.382-3.378,3.382,3.378h1.759l-4.259-4.259,7.077-7.077v11.337H778V75.133a14.98,14.98,0,0,1-1.868-2.339v7.488L769.058,73.2l5.113-5.113c-.109-.5-.193-1-.254-1.506l-5.741,5.741-7.959-7.959v-.109l7.959-7.959,5.906,5.906a13.623,13.623,0,0,1,.346-1.413l-5.37-5.37,7.077-7.077v8.732A14.751,14.751,0,0,1,778,54.738V15.326a5.867,5.867,0,0,1,0-2.52V0h-1.868V9.151l-7.077-7.077L771.131,0h-1.759l-1.2,1.2L766.98,0h-1.759l2.073,2.073-7.077,7.077V.254a8.012,8.012,0,0,0-1.868.866Zm1.868-14.964V119.473l7.077,7.077Zm0-17.782V101.691l7.077,7.077Zm0-17.782V83.909l7.077,7.077Zm0-17.782V66.127l7.077,7.077Zm0-17.782V48.345l7.077,7.077Zm0-17.782V30.564l7.077,7.077Zm0-17.782V12.778l7.077,7.077-7.077,7.077Zm15.914-14.155V26.937l-7.077-7.077Zm0,17.782V44.718l-7.077-7.077Zm0,53.346V98.064l-7.077-7.077Zm0,17.782v14.154l-7.077-7.077Zm0,17.782v14.154l-7.077-7.077ZM760.217,10.914l7.959-7.959,7.959,7.959v.109l-7.959,7.959-7.959-7.959Zm0,17.782,7.959-7.959,7.959,7.959V28.8l-7.959,7.959L760.217,28.8Zm0,17.782,7.959-7.959,7.959,7.959v.109l-7.959,7.959-7.959-7.959Zm0,35.564,7.959-7.959,7.959,7.959v.109l-7.959,7.959-7.959-7.959Zm0,17.782,7.959-7.959,7.959,7.959v.109l-7.959,7.959-7.959-7.959Zm0,17.782,7.959-7.959,7.959,7.959v.109l-7.959,7.959-7.959-7.959Zm0,17.782,7.959-7.959,7.959,7.959v.109l-7.959,7.959-7.959-7.959Z" transform="translate(-565.92)" fill="#bfcce8" fill-rule="evenodd"/>
    <path id="Trazado_605937" data-name="Trazado 605937" d="M132.22,285.115h-2.749v3.374l-3.374-3.374H123.5l5.966,5.966v.157l-11.727,11.723-11.727-11.723v-.157l5.672-5.672a21.034,21.034,0,0,0-3.49.9l-2.182,2.182v-1.28a20.9,20.9,0,0,0-2.75,1.586v35.29a21.848,21.848,0,0,0,2.75,1.586v-5.636l7.673,7.677c.5.036,1,.052,1.51.052h1.139l-10.322-10.322v-.157l11.727-11.727,11.727,11.727v.157l-10.322,10.322h2.592l7.73-7.729v7.729h2.749Zm0-45.069a11.71,11.71,0,0,0-6.546,5.177l3.792-3.792v19.533a11.56,11.56,0,0,0,2.749,1.276V240.046Zm-26.2,74.646V293.834l10.431,10.427Zm23.45-20.857v20.857L119.04,304.261Z" transform="translate(-76.961 -179.172)" fill="#bfcce8" fill-rule="evenodd"/>
    <path id="Trazado_605938" data-name="Trazado 605938" d="M861.874,148.591h2.75v-7.73l7.182,7.182c.721-.129,1.429-.286,2.133-.459l-9.315-9.316v-.157l11.723-11.727,11.723,11.727v.157l-6.337,6.337a34.885,34.885,0,0,0,9.086-6.936V90.459a35.145,35.145,0,0,0-3.828-3.514L876.343,97.593,864.62,85.87v-.157l5.841-5.841c-.773-.109-1.558-.193-2.347-.245L864.62,83.12V79.5a14.374,14.374,0,0,1-2.75-.471V148.6Zm0-97.75a14.448,14.448,0,0,1,2.75-.471V36.055L875.05,46.486,871.2,50.334h2.593l2.552-2.552,2.552,2.552h2.593l-3.849-3.849L888.07,36.055v13.49a15.131,15.131,0,0,0,2.749-1.248V22.013a15.141,15.141,0,0,0-2.749-1.248v9.948L877.643,20.286l.306-.306H874.74l.306.306L864.62,30.712V19.976h-2.75V50.841Zm0-42.685h3.08a3.845,3.845,0,0,0,.532-.036l-.861-.862V7.1l4.227-4.227a4.119,4.119,0,0,0-.966-1.626l-3.261,3.261V0h-2.75Zm2.75,127.359V114.658l10.427,10.427Zm0-26.2V88.454L875.05,98.881Zm23.45-20.857v20.857L877.647,98.881Zm0,26.2v20.858l-10.427-10.431ZM864.624,33.3l11.723-11.723L888.07,33.3v.157L876.347,45.181,864.624,33.454Zm0,78.6,11.723-11.727L888.07,111.9v.157L876.347,123.78l-11.723-11.723Z" transform="translate(-643.188)" fill="#bfcce8" fill-rule="evenodd"/>
    <path id="Trazado_605939" data-name="Trazado 605939" d="M216.209,452.1H197.453a1.381,1.381,0,0,0-1.381,1.381v13.229a1.381,1.381,0,0,0,1.381,1.381h18.756a1.381,1.381,0,0,0,1.381-1.381V453.485A1.381,1.381,0,0,0,216.209,452.1Z" transform="translate(-146.231 -337.454)" fill="#90a9d5"/>
    <path id="Trazado_605940" data-name="Trazado 605940" d="M264.723,452.1H245.967a1.381,1.381,0,0,0-1.381,1.381v13.229a1.381,1.381,0,0,0,1.381,1.381h18.756a1.381,1.381,0,0,0,1.381-1.381V453.485A1.381,1.381,0,0,0,264.723,452.1Z" transform="translate(-182.443 -337.454)" fill="#b6c7e6"/>
    <path id="Trazado_605941" data-name="Trazado 605941" d="M257.313,472.933H271.2a.79.79,0,0,1,.789.789v3.849a.79.79,0,0,1-.789.789H257.313a.79.79,0,0,1-.789-.789v-3.849A.79.79,0,0,1,257.313,472.933Z" transform="translate(-191.353 -353.001)" fill="#90a9d5"/>
    <path id="Trazado_605942" data-name="Trazado 605942" d="M263.063,476.568h6.828a.172.172,0,0,1,.173.173v.841a.172.172,0,0,1-.173.173h-6.828a.172.172,0,0,1-.173-.173v-.841A.172.172,0,0,1,263.063,476.568Z" transform="translate(-196.105 -355.714)" fill="#e6e4eb"/>
    <path id="Trazado_605943" data-name="Trazado 605943" d="M263.048,483.965h3.374a.172.172,0,0,1,.173.173v.841a.172.172,0,0,1-.173.173h-3.374a.172.172,0,0,1-.173-.173v-.841A.172.172,0,0,1,263.048,483.965Z" transform="translate(-196.094 -361.236)" fill="#e6e4eb"/>
    <path id="Trazado_605944" data-name="Trazado 605944" d="M245.066,515.16h22.472a1.655,1.655,0,0,1,1.654,1.655v15.849a1.654,1.654,0,0,1-1.654,1.654H245.066a1.654,1.654,0,0,1-1.654-1.654V516.815A1.655,1.655,0,0,1,245.066,515.16Z" transform="translate(-181.566 -384.52)" fill="#90a9d5"/>
    <path id="Trazado_605945" data-name="Trazado 605945" d="M186.916,515.16h22.472a1.655,1.655,0,0,1,1.654,1.655v15.849a1.654,1.654,0,0,1-1.654,1.654H186.916a1.654,1.654,0,0,1-1.654-1.654V516.815A1.655,1.655,0,0,1,186.916,515.16Z" transform="translate(-138.163 -384.52)" fill="#b6c7e6"/>
    <path id="Trazado_605946" data-name="Trazado 605946" d="M217.149,540.116H200.51a.946.946,0,0,0-.946.946v4.614a.946.946,0,0,0,.946.946h16.638a.946.946,0,0,0,.946-.946v-4.614A.946.946,0,0,0,217.149,540.116Z" transform="translate(-148.838 -403.147)" fill="#90a9d5"/>
    <path id="Trazado_605947" data-name="Trazado 605947" d="M239.515,544.465H231.33a.205.205,0,0,0-.205.205v1.011a.205.205,0,0,0,.205.205h8.184a.205.205,0,0,0,.205-.205V544.67A.206.206,0,0,0,239.515,544.465Z" transform="translate(-172.395 -406.393)" fill="#e6e4eb"/>
    <path id="Trazado_605948" data-name="Trazado 605948" d="M251.7,553.324h-4.046a.205.205,0,0,0-.205.205v1.011a.205.205,0,0,0,.205.205H251.7a.205.205,0,0,0,.205-.205v-1.011A.205.205,0,0,0,251.7,553.324Z" transform="translate(-184.576 -413.006)" fill="#e6e4eb"/>
    <path id="Trazado_605949" data-name="Trazado 605949" d="M628.661,146.908a6.058,6.058,0,0,1,6.6-1.316,5.979,5.979,0,0,1,1.969,1.316,6.1,6.1,0,0,1,1.316,1.969,6.011,6.011,0,0,1,.459,2.315,6.105,6.105,0,0,1-.459,2.319,6.036,6.036,0,0,1-1.316,1.969,6.1,6.1,0,0,1-1.969,1.316,6.056,6.056,0,0,1-6.6-1.316,6.1,6.1,0,0,1-1.316-1.969,6.056,6.056,0,0,1,1.316-6.6Zm2.182-.8a5.5,5.5,0,0,0,4.207,10.169,5.515,5.515,0,0,0,2.983-7.19,5.516,5.516,0,0,0-7.19-2.979Zm-.668-4.46a9.162,9.162,0,0,0-1.115.4,9.817,9.817,0,0,0-1.071.536,9.923,9.923,0,0,0-1.011.668,9.615,9.615,0,0,0-.922.789.625.625,0,0,1-.362.173.651.651,0,0,1-.395-.081c-.89-.515-1.828-1.022-2.7-1.558a.3.3,0,0,0-.133-.04.462.462,0,0,0-.149.012.424.424,0,0,0-.137.064.327.327,0,0,0-.1.113c-.648.982-1.3,2.25-1.9,3.293a.447.447,0,0,0-.048.141.4.4,0,0,0,.012.153.433.433,0,0,0,.064.137.331.331,0,0,0,.113.1c.8.527,1.832,1.059,2.681,1.55a.6.6,0,0,1,.266.3.552.552,0,0,1,.04.133l.056.02-.06.25c-.048.2-.093.394-.129.588s-.064.391-.089.6-.044.4-.056.6-.016.4-.016.608,0,.415.016.608.032.4.056.6.056.407.089.6.081.395.129.588a.635.635,0,0,1-.326.717l-2.375,1.373-.282.165a.375.375,0,0,0-.113.1.359.359,0,0,0-.064.137.506.506,0,0,0-.012.153.364.364,0,0,0,.048.141l1.759,3.048.141.245a.433.433,0,0,0,.1.113.358.358,0,0,0,.137.064.486.486,0,0,0,.153.012.365.365,0,0,0,.141-.048c.849-.536,1.812-1.043,2.685-1.55a.629.629,0,0,1,.395-.081.638.638,0,0,1,.362.173,10.183,10.183,0,0,0,.922.789,10.006,10.006,0,0,0,1.011.668,9.625,9.625,0,0,0,1.079.539,9.756,9.756,0,0,0,1.135.4.636.636,0,0,1,.334.229.644.644,0,0,1,.129.383v3.1a.419.419,0,0,0,.028.145.428.428,0,0,0,.084.125.38.38,0,0,0,.125.084.344.344,0,0,0,.145.028h3.8a.418.418,0,0,0,.145-.028.379.379,0,0,0,.125-.084.433.433,0,0,0,.084-.125.347.347,0,0,0,.028-.145v-3.1a.641.641,0,0,1,.137-.395.619.619,0,0,1,.35-.225,9.2,9.2,0,0,0,1.115-.4,9.807,9.807,0,0,0,1.071-.535,10,10,0,0,0,1.011-.668,9.629,9.629,0,0,0,.922-.789.621.621,0,0,1,.382-.173.638.638,0,0,1,.407.1l2.653,1.53a.447.447,0,0,0,.141.048.4.4,0,0,0,.153-.012.429.429,0,0,0,.137-.064.325.325,0,0,0,.1-.113c.632-1.1,1.272-2.194,1.9-3.293a.444.444,0,0,0,.048-.141.4.4,0,0,0-.012-.153.43.43,0,0,0-.064-.137.313.313,0,0,0-.109-.1l-2.685-1.55a.6.6,0,0,1-.266-.3.469.469,0,0,1-.032-.1l-.068-.016.068-.286c.048-.2.093-.395.129-.588s.064-.391.093-.6.044-.4.056-.6.016-.4.016-.608,0-.415-.016-.608-.032-.4-.056-.6-.056-.411-.093-.6-.081-.39-.129-.588a.644.644,0,0,1,.04-.419.661.661,0,0,1,.286-.3l2.657-1.534a.366.366,0,0,0,.109-.1.334.334,0,0,0,.064-.137.5.5,0,0,0,.012-.153.364.364,0,0,0-.048-.141c-.648-.966-1.3-2.254-1.9-3.293a.434.434,0,0,0-.1-.113.354.354,0,0,0-.137-.064.478.478,0,0,0-.153-.012.309.309,0,0,0-.141.048l-2.685,1.55a.626.626,0,0,1-.4.081.65.65,0,0,1-.362-.181,9.907,9.907,0,0,0-.918-.785,9.4,9.4,0,0,0-1.007-.664,9.791,9.791,0,0,0-2.214-.942.637.637,0,0,1-.334-.23.645.645,0,0,1-.129-.382v-3.1a.418.418,0,0,0-.028-.145.425.425,0,0,0-.084-.125.384.384,0,0,0-.125-.084.348.348,0,0,0-.145-.028h-3.8a.346.346,0,0,0-.145.028.389.389,0,0,0-.238.354v3.1a.641.641,0,0,1-.137.395.63.63,0,0,1-.354.225Zm-1.336-.117a10.413,10.413,0,0,0-2.2,1.276,11.2,11.2,0,0,0-.974.833.09.09,0,0,1-.044.02.1.1,0,0,1-.048-.008c-.9-.519-1.808-1.038-2.709-1.562a.939.939,0,0,0-.692-.077,1,1,0,0,0-.33.161.854.854,0,0,0-.242.278c-.652,1.059-1.276,2.206-1.9,3.289a.928.928,0,0,0-.117.35.959.959,0,0,0,.024.37.946.946,0,0,0,.443.572c.862.532,1.8,1.039,2.681,1.55a.071.071,0,0,1,.032.036.068.068,0,0,1,0,.048l-.06.25c-.028.121-.052.245-.077.37-.04.214-.072.427-.1.632s-.044.419-.056.636-.02.435-.02.644.008.423.02.64.032.431.056.636.057.419.1.632.085.423.133.624a.1.1,0,0,1,0,.048.1.1,0,0,1-.032.036c-.986.527-1.989,1.147-2.963,1.711l.036.044-.028.036a.9.9,0,0,0-.161.33.944.944,0,0,0-.024.37.922.922,0,0,0,.117.35l2.041,3.539.036-.024a.4.4,0,0,0,.064.053.981.981,0,0,0,.33.165.932.932,0,0,0,.366.024.977.977,0,0,0,.342-.113c.894-.475,1.811-1.047,2.7-1.558a.079.079,0,0,1,.044-.008.065.065,0,0,1,.044.02,9.538,9.538,0,0,0,.974.829,10.618,10.618,0,0,0,1.067.7,10.4,10.4,0,0,0,2.347,1,.093.093,0,0,1,.04.028.061.061,0,0,1,.016.044v3.1a.923.923,0,0,0,.073.362.954.954,0,0,0,.205.306.933.933,0,0,0,.306.205.908.908,0,0,0,.362.073h3.8a.945.945,0,0,0,.668-.278.958.958,0,0,0,.205-.306.912.912,0,0,0,.072-.362v-3.1a.109.109,0,0,1,.016-.048.068.068,0,0,1,.04-.024h.012a11.042,11.042,0,0,0,1.2-.431,10.4,10.4,0,0,0,2.2-1.276,10.667,10.667,0,0,0,.974-.833.065.065,0,0,1,.044-.02.073.073,0,0,1,.048.012l2.681,1.55a.957.957,0,0,0,.717.093.942.942,0,0,0,.33-.165.963.963,0,0,0,.237-.27c.7-1.135,1.373-2.375,2.045-3.539l-.036-.02a.681.681,0,0,0,.016-.089.933.933,0,0,0-.024-.366.943.943,0,0,0-.165-.33.873.873,0,0,0-.274-.241l-2.685-1.55a.154.154,0,0,1-.032-.036.069.069,0,0,1,0-.048l.068-.282c.024-.113.048-.225.068-.338.04-.214.072-.427.1-.632s.044-.419.056-.636.02-.435.02-.64-.008-.423-.02-.64-.032-.431-.056-.636-.056-.415-.1-.632-.084-.419-.133-.62a.2.2,0,0,1,0-.048.1.1,0,0,1,.032-.036l2.681-1.546a.937.937,0,0,0,.274-.241.978.978,0,0,0,.165-.33.933.933,0,0,0,.024-.366.98.98,0,0,0-.113-.342c-.64-1.184-1.373-2.375-2.045-3.547l-.036.024a.413.413,0,0,0-.064-.052.9.9,0,0,0-.33-.161.957.957,0,0,0-.717.093l-.2.113-2.488,1.437a.12.12,0,0,1-.048.008.065.065,0,0,1-.044-.02l-.008-.008a10.694,10.694,0,0,0-.97-.829,10.6,10.6,0,0,0-2.2-1.276,10.388,10.388,0,0,0-1.2-.427.09.09,0,0,1-.04-.028.06.06,0,0,1-.016-.044v-3.1a.926.926,0,0,0-.072-.362.955.955,0,0,0-.205-.306.928.928,0,0,0-.306-.205.907.907,0,0,0-.362-.073h-3.8a.908.908,0,0,0-.362.073.933.933,0,0,0-.306.205.955.955,0,0,0-.278.668v3.1a.111.111,0,0,1-.016.048.07.07,0,0,1-.04.024h-.012a11.958,11.958,0,0,0-1.2.427Z" transform="translate(-462.334 -102.259)" fill="#bfcce8" fill-rule="evenodd"/>
    <path id="Trazado_605950" data-name="Trazado 605950" d="M9.249,266.756a6.142,6.142,0,0,1,1.969-1.316,6.056,6.056,0,0,1,6.6,1.316,6.146,6.146,0,0,1,1.316,1.969,6.052,6.052,0,0,1-1.316,6.6,6.1,6.1,0,0,1-1.969,1.316,6.056,6.056,0,0,1-6.6-1.316,6.146,6.146,0,0,1-1.316-1.969,6.056,6.056,0,0,1,1.316-6.6Zm2.182-.8a5.5,5.5,0,0,0,4.207,10.169,5.515,5.515,0,0,0,2.983-7.19,5.517,5.517,0,0,0-7.19-2.979Zm-.668-4.461a9.216,9.216,0,0,0-1.115.4,9.829,9.829,0,0,0-1.071.535,9.961,9.961,0,0,0-1.01.668,9.612,9.612,0,0,0-.922.789.625.625,0,0,1-.362.173.651.651,0,0,1-.395-.081c-.89-.515-1.828-1.022-2.7-1.558a.3.3,0,0,0-.133-.04.471.471,0,0,0-.149.012.429.429,0,0,0-.137.064.329.329,0,0,0-.1.113c-.648.982-1.3,2.25-1.9,3.293a.449.449,0,0,0-.048.141.4.4,0,0,0,.012.153A.426.426,0,0,0,.8,266.3a.327.327,0,0,0,.113.1c.8.527,1.832,1.059,2.681,1.55a.6.6,0,0,1,.266.3.553.553,0,0,1,.04.133l.056.02-.06.25c-.048.2-.093.395-.129.588s-.064.391-.089.6-.044.4-.056.6-.016.4-.016.608.008.415.016.608.032.4.056.6.056.407.093.6.081.394.129.588a.635.635,0,0,1-.326.717L1.2,275.533.92,275.7a.383.383,0,0,0-.113.1.359.359,0,0,0-.064.137.5.5,0,0,0-.012.153.367.367,0,0,0,.048.141l1.759,3.044.141.245a.381.381,0,0,0,.234.181.48.48,0,0,0,.153.012.364.364,0,0,0,.141-.048c.849-.535,1.812-1.043,2.689-1.55a.627.627,0,0,1,.753.093,10.131,10.131,0,0,0,.922.789,9.907,9.907,0,0,0,1.01.668,9.795,9.795,0,0,0,2.214.942.636.636,0,0,1,.334.23.643.643,0,0,1,.129.382v3.1a.42.42,0,0,0,.028.145.428.428,0,0,0,.085.125.382.382,0,0,0,.125.084.425.425,0,0,0,.145.028h3.8a.425.425,0,0,0,.145-.028.382.382,0,0,0,.125-.084.428.428,0,0,0,.085-.125.344.344,0,0,0,.028-.145v-3.1a.642.642,0,0,1,.137-.395.621.621,0,0,1,.35-.225,9.168,9.168,0,0,0,1.115-.4,10.255,10.255,0,0,0,1.075-.536,9.9,9.9,0,0,0,1.01-.668,9.615,9.615,0,0,0,.922-.789.62.62,0,0,1,.382-.173.634.634,0,0,1,.407.1l2.653,1.53a.447.447,0,0,0,.141.048.4.4,0,0,0,.153-.012.364.364,0,0,0,.137-.068.327.327,0,0,0,.1-.113c.632-1.1,1.272-2.194,1.9-3.293a.445.445,0,0,0,.048-.141.4.4,0,0,0-.012-.153.428.428,0,0,0-.064-.137.313.313,0,0,0-.109-.1l-2.685-1.55a.6.6,0,0,1-.266-.3.485.485,0,0,1-.032-.1l-.068-.016.068-.286c.048-.2.093-.395.129-.588s.064-.391.093-.6.044-.4.056-.6.016-.4.016-.608-.008-.415-.016-.608-.032-.4-.056-.6-.056-.411-.093-.6-.077-.391-.129-.588a.619.619,0,0,1,.04-.419.658.658,0,0,1,.286-.3l2.657-1.534a.432.432,0,0,0,.113-.1.391.391,0,0,0,.064-.137.5.5,0,0,0,.012-.153.364.364,0,0,0-.048-.141c-.648-.966-1.3-2.254-1.9-3.293a.433.433,0,0,0-.1-.113.355.355,0,0,0-.137-.064.5.5,0,0,0-.153-.012.311.311,0,0,0-.141.048l-2.685,1.55a.635.635,0,0,1-.765-.1,9.946,9.946,0,0,0-.918-.785,9.451,9.451,0,0,0-1.006-.664,9.814,9.814,0,0,0-2.214-.942.639.639,0,0,1-.463-.612v-3.1a.422.422,0,0,0-.028-.145.431.431,0,0,0-.085-.125.378.378,0,0,0-.125-.084.342.342,0,0,0-.145-.028h-3.8a.419.419,0,0,0-.145.028.378.378,0,0,0-.125.084.384.384,0,0,0-.113.27v3.1a.641.641,0,0,1-.137.394.63.63,0,0,1-.354.225Zm-1.337-.117a10.4,10.4,0,0,0-2.2,1.276,10.674,10.674,0,0,0-.974.833.089.089,0,0,1-.044.02.1.1,0,0,1-.048-.008c-.9-.519-1.808-1.039-2.709-1.562a.936.936,0,0,0-.338-.1.947.947,0,0,0-.354.028,1.006,1.006,0,0,0-.33.161.852.852,0,0,0-.242.278c-.652,1.059-1.276,2.206-1.9,3.289a.925.925,0,0,0-.117.35.957.957,0,0,0,.024.371.944.944,0,0,0,.165.33.849.849,0,0,0,.278.241c.862.532,1.8,1.039,2.685,1.55a.1.1,0,0,1,.032.036.067.067,0,0,1,0,.048l-.06.25c-.028.121-.052.245-.076.37-.04.213-.072.427-.1.632s-.044.419-.056.636-.02.435-.02.644.008.423.02.64.032.431.056.636.056.419.1.632.085.419.133.624a.1.1,0,0,1,0,.048.094.094,0,0,1-.032.036c-.986.527-1.989,1.147-2.963,1.711l.036.044-.028.036a.9.9,0,0,0-.161.33.945.945,0,0,0-.024.37.923.923,0,0,0,.117.35l2.041,3.539.036-.024a.406.406,0,0,0,.064.052.9.9,0,0,0,.33.161.933.933,0,0,0,.366.024.982.982,0,0,0,.342-.113c.894-.475,1.812-1.047,2.7-1.558a.079.079,0,0,1,.044-.008.065.065,0,0,1,.044.02,9.537,9.537,0,0,0,.974.829,10.613,10.613,0,0,0,1.067.7,10.405,10.405,0,0,0,2.347,1,.089.089,0,0,1,.04.028.067.067,0,0,1,.016.044v3.1a.925.925,0,0,0,.072.362.95.95,0,0,0,.205.306.929.929,0,0,0,.306.205.912.912,0,0,0,.362.073h3.8a.943.943,0,0,0,.668-.278.95.95,0,0,0,.205-.306.911.911,0,0,0,.072-.362v-3.1a.108.108,0,0,1,.016-.048.067.067,0,0,1,.04-.024h.012a12.4,12.4,0,0,0,1.2-.427,9.933,9.933,0,0,0,1.135-.568,10.332,10.332,0,0,0,2.041-1.538.065.065,0,0,1,.044-.02.073.073,0,0,1,.048.012l2.685,1.55a.954.954,0,0,0,.717.093,1.006,1.006,0,0,0,.33-.161.9.9,0,0,0,.238-.27c.7-1.135,1.373-2.375,2.045-3.539l-.036-.02a.677.677,0,0,0,.016-.089.934.934,0,0,0-.024-.366.945.945,0,0,0-.165-.33.85.85,0,0,0-.278-.242l-2.685-1.55a.154.154,0,0,1-.032-.036.067.067,0,0,1,0-.048l.068-.282c.024-.113.048-.225.068-.338.04-.213.072-.427.1-.632s.044-.419.056-.636.02-.435.02-.64-.008-.423-.02-.64-.032-.431-.056-.636-.056-.415-.1-.632-.085-.419-.133-.62a.2.2,0,0,1,0-.048.094.094,0,0,1,.032-.036l2.681-1.546a.94.94,0,0,0,.274-.242.9.9,0,0,0,.161-.33.932.932,0,0,0,.024-.366.977.977,0,0,0-.113-.342c-.64-1.184-1.373-2.375-2.045-3.547l-.036.024a.407.407,0,0,0-.064-.053.9.9,0,0,0-.33-.161.957.957,0,0,0-.717.093l-.2.113-2.488,1.437a.114.114,0,0,1-.048.008.065.065,0,0,1-.044-.02l-.008-.008a10.634,10.634,0,0,0-.97-.829,10.617,10.617,0,0,0-2.2-1.276,10.385,10.385,0,0,0-1.2-.427.092.092,0,0,1-.04-.028.06.06,0,0,1-.016-.044v-3.1a.925.925,0,0,0-.072-.362.95.95,0,0,0-.205-.306.933.933,0,0,0-.306-.205.912.912,0,0,0-.362-.073h-3.8a.943.943,0,0,0-.668.278.936.936,0,0,0-.278.668v3.1a.215.215,0,0,1-.016.048.069.069,0,0,1-.04.024H10.63a11.945,11.945,0,0,0-1.2.427Z" transform="translate(0 -191.72)" fill="#bfcce8" fill-rule="evenodd"/>
    <path id="Trazado_605951" data-name="Trazado 605951" d="M122.477,333.568a2.576,2.576,0,1,1-.753,1.82A2.558,2.558,0,0,1,122.477,333.568Zm.556-2.548a4.559,4.559,0,0,0-1.892,1.1.165.165,0,0,1-.189.024l-1.2-.689h-.008a.277.277,0,0,0-.217-.028.306.306,0,0,0-.181.137v.008l-.845,1.457a.3.3,0,0,0-.028.225.308.308,0,0,0,.137.181h.008l1.188.688a.162.162,0,0,1,.077.173,4.756,4.756,0,0,0-.1.543,4.808,4.808,0,0,0,0,1.111,4.766,4.766,0,0,0,.1.543.165.165,0,0,1-.084.181l-1.184.684a.306.306,0,0,0-.137.181.3.3,0,0,0,.028.225l.845,1.465a.3.3,0,0,0,.407.109h.008l1.188-.688a.159.159,0,0,1,.189.024,4.528,4.528,0,0,0,1.9,1.1.163.163,0,0,1,.117.153v1.377a.286.286,0,0,0,.089.209.3.3,0,0,0,.209.089h1.691a.286.286,0,0,0,.209-.089.3.3,0,0,0,.089-.209v-1.377a.156.156,0,0,1,.121-.153,4.569,4.569,0,0,0,1.892-1.1.158.158,0,0,1,.2-.016l1.188.684a.3.3,0,0,0,.225.028.308.308,0,0,0,.181-.137v-.008l.845-1.457a.3.3,0,0,0,.028-.225.306.306,0,0,0-.137-.181l-1.2-.688a.154.154,0,0,1-.072-.173,4.8,4.8,0,0,0,.1-.543,4.8,4.8,0,0,0,0-1.111,4.812,4.812,0,0,0-.1-.543.157.157,0,0,1,.084-.177l1.188-.684a.3.3,0,0,0,.137-.181.3.3,0,0,0-.028-.225v-.008l-.845-1.457a.3.3,0,0,0-.407-.109l-1.2.689a.159.159,0,0,1-.193-.028,4.6,4.6,0,0,0-.882-.664,4.451,4.451,0,0,0-1.014-.431.163.163,0,0,1-.117-.153V329.5a.286.286,0,0,0-.089-.209.3.3,0,0,0-.209-.089h-1.691a.286.286,0,0,0-.209.089.3.3,0,0,0-.089.209v1.377a.156.156,0,0,1-.121.153Z" transform="translate(-88.305 -245.718)" fill="#bfcce8" fill-rule="evenodd"/>
    <path id="Trazado_605952" data-name="Trazado 605952" d="M340.187,195.451a.443.443,0,1,0-.886,0v1.038h-1.038a.443.443,0,1,0,0,.886H339.3v1.039a.443.443,0,0,0,.886,0v-1.039h1.039a.443.443,0,0,0,0-.886h-1.039Z" transform="translate(-252.033 -145.556)" fill="#bfcce8" fill-rule="evenodd"/>
    <path id="Trazado_605953" data-name="Trazado 605953" d="M447.424,50.7a2.575,2.575,0,1,1-.753,1.82A2.557,2.557,0,0,1,447.424,50.7Zm.555-2.548a4.569,4.569,0,0,0-1.006.431,4.49,4.49,0,0,0-.886.668.165.165,0,0,1-.189.024l-1.2-.688h-.008a.276.276,0,0,0-.217-.028.307.307,0,0,0-.181.137V48.7l-.845,1.457a.3.3,0,0,0-.028.225.307.307,0,0,0,.137.181h.008l1.188.688a.153.153,0,0,1,.072.173,4.88,4.88,0,0,0-.1.543,4.8,4.8,0,0,0,0,1.111,4.881,4.881,0,0,0,.1.543.157.157,0,0,1-.084.177l-1.184.684a.307.307,0,0,0-.137.181.3.3,0,0,0,.028.225l.845,1.465a.3.3,0,0,0,.406.109h.008l1.188-.688a.159.159,0,0,1,.189.024,4.65,4.65,0,0,0,.886.668,4.441,4.441,0,0,0,1.014.431.163.163,0,0,1,.117.153v1.381a.286.286,0,0,0,.089.209.3.3,0,0,0,.209.089h1.691a.285.285,0,0,0,.209-.089.3.3,0,0,0,.089-.209V57.056a.156.156,0,0,1,.121-.153,4.313,4.313,0,0,0,1.007-.431,4.488,4.488,0,0,0,.886-.668.158.158,0,0,1,.2-.016l1.188.684a.294.294,0,0,0,.225.028.306.306,0,0,0,.181-.137v-.008l.845-1.457a.3.3,0,0,0,.028-.225.307.307,0,0,0-.137-.181l-1.2-.688a.162.162,0,0,1-.077-.173,4.758,4.758,0,0,0,.1-.543,4.211,4.211,0,0,0,.032-.556,5.044,5.044,0,0,0-.032-.556,4.758,4.758,0,0,0-.1-.543.165.165,0,0,1,.084-.181l1.188-.684a.3.3,0,0,0,.109-.407v-.008l-.845-1.457a.3.3,0,0,0-.181-.137.3.3,0,0,0-.225.028l-1.2.688a.164.164,0,0,1-.193-.024,4.6,4.6,0,0,0-.881-.664,4.45,4.45,0,0,0-1.015-.431.163.163,0,0,1-.117-.153V46.622a.285.285,0,0,0-.089-.209.3.3,0,0,0-.209-.089H448.4a.285.285,0,0,0-.209.089.3.3,0,0,0-.089.209V48a.156.156,0,0,1-.121.153Z" transform="translate(-330.847 -34.576)" fill="#bfcce8" fill-rule="evenodd"/>
    <path id="Trazado_605954" data-name="Trazado 605954" d="M1017.559,36.511a.444.444,0,0,0-.888,0V37.55h-1.037a.443.443,0,1,0,0,.886h1.037v1.039a.444.444,0,0,0,.888,0V38.436h1.037a.443.443,0,1,0,0-.886h-1.037Z" transform="translate(-757.628 -26.922)" fill="#bfcce8" fill-rule="evenodd"/>
    <path id="Trazado_605955" data-name="Trazado 605955" d="M3.379,490.409a.443.443,0,1,0-.886,0v1.038H1.459a.443.443,0,0,0,0,.886H2.5v1.039a.443.443,0,0,0,.886,0v-1.039H4.422a.443.443,0,0,0,0-.886H3.383v-1.038Z" transform="translate(-0.64 -365.715)" fill="#bfcce8" fill-rule="evenodd"/>
    <path id="Trazado_605956" data-name="Trazado 605956" d="M558.485,142.727a2.576,2.576,0,1,1-.753,1.82A2.558,2.558,0,0,1,558.485,142.727Zm.556-2.548a4.559,4.559,0,0,0-1.892,1.1.165.165,0,0,1-.189.024l-1.2-.689h-.008a.278.278,0,0,0-.217-.028.308.308,0,0,0-.181.137v.008l-.845,1.457a.3.3,0,0,0-.028.225.308.308,0,0,0,.137.181h.008l1.188.688a.16.16,0,0,1,.073.173,4.772,4.772,0,0,0-.1.543,4.806,4.806,0,0,0,0,1.111,4.771,4.771,0,0,0,.1.543.157.157,0,0,1-.085.177l-1.183.684a.308.308,0,0,0-.137.181.3.3,0,0,0,.028.225l.845,1.465a.3.3,0,0,0,.181.137.3.3,0,0,0,.225-.028h.008l1.188-.689a.159.159,0,0,1,.189.024,4.642,4.642,0,0,0,.885.668,4.441,4.441,0,0,0,1.015.431.168.168,0,0,1,.117.153v1.381a.286.286,0,0,0,.089.209.3.3,0,0,0,.209.089h1.691a.286.286,0,0,0,.209-.089.3.3,0,0,0,.089-.209v-1.381a.156.156,0,0,1,.121-.153,4.306,4.306,0,0,0,1.007-.431,4.488,4.488,0,0,0,.886-.668.158.158,0,0,1,.2-.016l1.188.684a.294.294,0,0,0,.225.028.308.308,0,0,0,.181-.137v-.008l.846-1.457a.3.3,0,0,0,.028-.225.307.307,0,0,0-.137-.181l-1.2-.689a.159.159,0,0,1-.073-.173,4.784,4.784,0,0,0,.1-.543,4.815,4.815,0,0,0,0-1.111,4.775,4.775,0,0,0-.1-.543.16.16,0,0,1,.085-.181l1.183-.684a.3.3,0,0,0,.109-.407v-.008l-.846-1.457a.308.308,0,0,0-.181-.137.3.3,0,0,0-.225.028l-1.2.689a.164.164,0,0,1-.193-.024,4.615,4.615,0,0,0-.882-.664,4.453,4.453,0,0,0-1.014-.431.164.164,0,0,1-.117-.153v-1.381a.285.285,0,0,0-.089-.209.3.3,0,0,0-.21-.089h-1.691a.287.287,0,0,0-.209.089.3.3,0,0,0-.089.209v1.381a.156.156,0,0,1-.121.153Z" transform="translate(-413.744 -103.266)" fill="#bfcce8" fill-rule="evenodd"/>
    <path id="Trazado_605957" data-name="Trazado 605957" d="M494.746,148.462a.443.443,0,0,0-.886,0V149.5h-1.038a.443.443,0,1,0,0,.886h1.038v1.038a.443.443,0,1,0,.886,0v-1.038h1.039a.443.443,0,0,0,0-.886h-1.039Z" transform="translate(-367.397 -110.483)" fill="#bfcce8" fill-rule="evenodd"/>
    <path id="Trazado_605958" data-name="Trazado 605958" d="M501.826,341.136a.443.443,0,1,0-.886,0v1.038H499.9a.443.443,0,1,0,0,.886h1.038V344.1a.443.443,0,0,0,.886,0V343.06h1.039a.443.443,0,0,0,0-.886h-1.039Z" transform="translate(-372.682 -254.296)" fill="#bfcce8" fill-rule="evenodd"/>
    <path id="Trazado_605959" data-name="Trazado 605959" d="M349.347,254.84a.443.443,0,0,0-.886,0v1.039h-1.038a.443.443,0,1,0,0,.886h1.038V257.8a.443.443,0,0,0,.886,0v-1.039h1.039a.443.443,0,1,0,0-.886h-1.039Z" transform="translate(-258.87 -189.884)" fill="#bfcce8" fill-rule="evenodd"/>
    <path id="Trazado_605960" data-name="Trazado 605960" d="M927.721,244.553a.443.443,0,0,0-.886,0v1.039H925.8a.443.443,0,0,0,0,.886h1.039v1.039a.443.443,0,0,0,.886,0v-1.039h1.038a.443.443,0,1,0,0-.886h-1.038Z" transform="translate(-690.573 -182.206)" fill="#bfcce8" fill-rule="evenodd"/>
    <path id="Trazado_605961" data-name="Trazado 605961" d="M672.831,374.19a11.435,11.435,0,0,1,4.7,3.39c1.172,1.425,15.52,28.9,16.441,30.7s.918,6.312-1.256,9.094c-.845,1.083-3.269,4.106-5.922,7.4H678.2c3.12-4.682,7.194-10.805,7.488-11.3a2.4,2.4,0,0,0-.153-2.947c-.874-1.361-12.355-15.362-12.355-15.362S667.537,379.383,672.831,374.19Z" transform="translate(-500.397 -279.299)" fill="#0f1630" stroke="#1c2d55" stroke-miterlimit="22.93" stroke-width="0.349" fill-rule="evenodd"/>
    <path id="Trazado_605962" data-name="Trazado 605962" d="M528.858,365.474s14.465,2.057,15.089,2.21,1.679,1.61,2.246,2.592,1.236,15.1,1.562,19.054-.95,21.188-.572,25.817c.064.769.181,1.848.334,3.12H504.249c-.556-5.121-4.412-21.135-4.73-24.984-.322-3.953-1.965-18-1.562-19.054s1.208-2.669,1.8-2.923,14.7-4.65,14.7-4.65l7.23.8,7.174-1.981Z" transform="translate(-371.513 -272.793)" fill="#cec9d0" fill-rule="evenodd"/>
    <path id="Trazado_605963" data-name="Trazado 605963" d="M570.8,365.474l2.391.342a2.075,2.075,0,0,1-.495.982c-5.62,6.441-11.365,6.912-17.959,1.473a2.109,2.109,0,0,1-.652-.894l2.307-.721,7.23.8,7.174-1.981Z" transform="translate(-413.455 -272.793)" fill="#fff" fill-rule="evenodd"/>
    <path id="Trazado_605964" data-name="Trazado 605964" d="M575.047,310.531l.125,3.6s.6,7.347.692,8.466c.044.539.668,1.272,1.711,1.868-4.73,5.419-8.857,5.757-14.408,1.179a3.061,3.061,0,0,0,1.385-2.122c-.093-1.115-.693-8.466-.693-8.466l-.463-3.575s2.9.225,5.914.636c2.9-.894,5.733-1.59,5.733-1.59Z" transform="translate(-420.234 -231.783)" fill="#e8685b" fill-rule="evenodd"/>
    <path id="Trazado_605965" data-name="Trazado 605965" d="M613.839,366.141s-1.671,7.23-1.8,8.7-2.089,16.28-1.884,18.784c.093,1.139,2.355,12.71,4.819,25.141h19.71c-.483-3.031-.9-5.64-1.123-7.118a170.3,170.3,0,0,1-1.164-23.132c.173-6.808-1.518-17.025-1.719-18s-2.134-2.182-2.733-2.408Z" transform="translate(-455.299 -273.291)" fill="#0f1630" fill-rule="evenodd"/>
    <path id="Trazado_605966" data-name="Trazado 605966" d="M611.665,399.439c-.592,4.879-1.679,13.8-1.522,15.688,0,0,9.586-10.435,9.44-11.465s-4.046-8.708-4.046-8.708-1.675,1.928-3.873,4.481Z" transform="translate(-455.286 -294.797)" fill="#3d4155" fill-rule="evenodd"/>
    <path id="Trazado_605967" data-name="Trazado 605967" d="M616.541,364.721s.422-.378.576-.391,2.753.87,2.753.87,3.792,5.966,3.857,6.727-9.315,8.434-9.315,8.434l.833-7.017s1.361-6.86,1.779-8.551l-.479-.068Z" transform="translate(-458.483 -271.939)" fill="#545a6c" fill-rule="evenodd"/>
    <path id="Trazado_605968" data-name="Trazado 605968" d="M460.224,388.414a11.456,11.456,0,0,0-4.086,4.11c-.926,1.594-10.6,31.047-11.224,32.963s.121,6.377,2.717,8.772c.282.258.709.648,1.248,1.135H459.6c-2.842-3.047-5.415-5.813-5.672-6.123a2.4,2.4,0,0,1-.326-2.935c.64-1.486,9.69-17.17,9.69-17.17S466.3,392.677,460.224,388.414Z" transform="translate(-331.816 -289.915)" fill="#0f1630" fill-rule="evenodd"/>
    <path id="Trazado_605969" data-name="Trazado 605969" d="M511.775,371.554s2.826,6.86,3.188,8.289,4.71,15.721,4.915,18.225c.093,1.111-.241,12.4-.636,24.734h-19.5c-.008-1.288-.016-2.367-.028-3.14a169.539,169.539,0,0,0-2.621-23.015c-1.28-6.687-1.276-17.045-1.232-18.031s1.751-2.5,2.3-2.818l13.6-4.243Z" transform="translate(-369.99 -277.331)" fill="#0f1630" fill-rule="evenodd"/>
    <path id="Trazado_605970" data-name="Trazado 605970" d="M553.65,404.9c1.381,4.718,3.9,13.341,4.058,15.234,0,0-11.155-8.736-11.18-9.774s2.573-9.247,2.573-9.247,1.965,1.626,4.549,3.792Z" transform="translate(-407.815 -299.395)" fill="#3d4155" fill-rule="evenodd"/>
    <path id="Trazado_605971" data-name="Trazado 605971" d="M543.046,370.117a2.123,2.123,0,0,0-.632-.294c-.153.012-2.576,1.3-2.576,1.3s-2.774,6.5-2.709,7.266,10.564,6.808,10.564,6.808l-1.961-6.788s-2.46-6.546-3.148-8.148l.463-.145Z" transform="translate(-400.797 -276.039)" fill="#545a6c" fill-rule="evenodd"/>
    <path id="Trazado_605972" data-name="Trazado 605972" d="M532.7,319.155c-.072.016-.145.036-.213.056a2.977,2.977,0,1,0,2.524.37c.157.87.117,1.965-.991,2.174l-.125-1.711A1.021,1.021,0,0,0,532.7,319.155Z" transform="translate(-395.766 -238.213)" fill="#e8685b" fill-rule="evenodd"/>
    <path id="Trazado_605973" data-name="Trazado 605973" d="M614.71,311.472a2.025,2.025,0,0,1,.221.016,2.978,2.978,0,1,1-2.419.821c0,.882.241,1.952,1.369,1.956l-.189-1.707a1.02,1.02,0,0,1,1.014-1.091Z" transform="translate(-456.391 -232.482)" fill="#e8685b" fill-rule="evenodd"/>
    <path id="Trazado_605974" data-name="Trazado 605974" d="M549.1,256.844a10.217,10.217,0,0,0-9.219,11.071l.841,9.227a10.187,10.187,0,0,0,20.29-1.852l-.841-9.227A10.214,10.214,0,0,0,549.1,256.844Z" transform="translate(-402.822 -191.678)" fill="#f4ad85" fill-rule="evenodd"/>
    <path id="Trazado_605975" data-name="Trazado 605975" d="M540.492,278.722a10.084,10.084,0,0,0-.628,4.541l.841,9.227a10.229,10.229,0,0,0,10.1,9.263c-5.9-.455-6.989-7.424-7.44-11.1s.926-4.493,1.469-4.674,9.11-1.6,11.006-1.824a3.39,3.39,0,0,1,2.85.833l.8-1.159-.765-2.48s.652.02,1.425,0a9.967,9.967,0,0,0-.375-1.916,16.246,16.246,0,0,1-3.345-1.51c-2.259-1.457-13.048.366-14.8.366a2.757,2.757,0,0,0-1.139.427Z" transform="translate(-402.809 -207.027)" fill="#ed9072" fill-rule="evenodd"/>
    <path id="Trazado_605976" data-name="Trazado 605976" d="M543.623,258.755s.06.676.121,1.309.7,1.28,1.188,1.236l-.129-1.429a1.429,1.429,0,0,1,1.409-1.192c3.575-4.956,2.383-12.194-2.226-15.584s-13.784-2.8-15.334-2.118-2.951,3.543-2.951,3.543-1.469-1.087-2.669-.342-4.69,9.074-4.509,11.059,4.384,5.572,4.384,5.572a1.431,1.431,0,0,1,1.6.918l.129,1.429a1.406,1.406,0,0,0,.946-1.429c-.057-.628-.121-1.308-.121-1.308.044-.024.089-.052.133-.077,1.232-.8.987-3.241.987-3.241l-1.135-1.586,2.25-2.959,2.589-.854,5.882.225s6.937.862,6.329,2.883,1.119,3.953,1.119,3.953Z" transform="translate(-386.906 -179.476)" fill="#1c2d55" fill-rule="evenodd"/>
    <path id="Trazado_605977" data-name="Trazado 605977" d="M543.62,273.56c.073.777.592,4.247,1.5,4.167,2.7-5.684,5.189-11.618,1.171-17.44-.471,3.748-4.207,6.034-7.943,6.82,1.977.431,4.537,1.24,4.159,2.5-.608,2.021,1.119,3.953,1.119,3.953Zm-24.843-5.266a5.859,5.859,0,0,0-.258,1.743c.141,1.53,5.238,8.921,6.369,10.6.588-.052.668-4.432.576-5.423.044-.024.089-.052.133-.076,1.232-.8.986-3.241.986-3.241l-1.135-1.586,2.251-2.959,2.472-.813a3.619,3.619,0,0,1-1.6-1.031C523.464,270.673,520.5,270.392,518.778,268.294Z" transform="translate(-386.904 -194.28)" fill="#010518" fill-rule="evenodd"/>
    <path id="Trazado_605978" data-name="Trazado 605978" d="M533.041,268.78s-4.267-9.251,4.316-10.833c0,0,2.271-4.485,6.824-3.361s7.4,1.095,9.445-.918a4.115,4.115,0,0,1-.249,4.13c4.312,3.345,2.814,7.633,1.051,9.944-.7-4.795-13.341.543-14.992-4.066C539.269,268.079,534.651,266.984,533.041,268.78Z" transform="translate(-396.956 -189.339)" fill="#1c2d55" fill-rule="evenodd"/>
    <path id="Trazado_605979" data-name="Trazado 605979" d="M533.142,284.314a13.415,13.415,0,0,1-1.027-4.03c1.659-.157,3.812-1.349,6.61-4.179,0,0,1.143,1.679,6.413,1.9,3.2.133,7.275-1.055,9.569-3.522,2.746,3.128,1.389,6.743-.181,8.8-.7-4.795-13.337.543-14.992-4.066-.165,4.4-4.783,3.309-6.393,5.1Z" transform="translate(-397.057 -204.873)" fill="#010518" fill-rule="evenodd"/>
    <path id="Trazado_605980" data-name="Trazado 605980" d="M947.925,306.489c-1.8-6.767-8.111-3.047-10.808,2.75s-8.885,28.4-14.231,34.247c-2.073,2.267-1.437,2.46.467,1.353C932.854,339.331,950.41,315.8,947.925,306.489Z" transform="translate(-687.771 -226.054)" fill="#05304b" fill-rule="evenodd"/>
    <path id="Trazado_605981" data-name="Trazado 605981" d="M921.614,352.948c-.064.306.221.318.761.093,14.408-12.186,22.057-39.424,22.08-39.509a.282.282,0,0,0-.193-.35.285.285,0,0,0-.35.193c-.023.089-7.781,27.7-22.3,39.569Z" transform="translate(-687.775 -233.752)" fill="#0076bd" fill-rule="evenodd"/>
    <path id="Trazado_605982" data-name="Trazado 605982" d="M929.591,325.2c-3.148-4.936-7.23-.379-7.915,4.919s.1,24.863-2.681,30.874c-1.079,2.331-.523,2.323.713.962C925.884,355.164,933.923,331.988,929.591,325.2Z" transform="translate(-685.398 -241.15)" fill="#0076bd" fill-rule="evenodd"/>
    <path id="Trazado_605983" data-name="Trazado 605983" d="M918.433,369.31c.024.258.258.2.632-.117,8.4-13.346,7.609-36.973,7.6-37.049a.236.236,0,0,0-.471.012C926.2,332.233,927,356.182,918.433,369.31Z" transform="translate(-685.408 -247.744)" fill="#05304b" fill-rule="evenodd"/>
    <path id="Trazado_605984" data-name="Trazado 605984" d="M944.817,397.571c5.437.568,3.337,5.886-.8,8.675S923.194,416.56,919.333,421.4c-1.5,1.876-1.723,1.409-1.1-.193,3.092-8,19.1-24.412,26.587-23.631Z" transform="translate(-685.015 -296.733)" fill="#0076bd" fill-rule="evenodd"/>
    <path id="Trazado_605985" data-name="Trazado 605985" d="M918.117,430.26c-.225.089-.274-.133-.165-.576,7.641-12.6,27.721-21.82,27.785-21.852a.222.222,0,1,1,.185.4c-.063.028-20.413,9.38-27.8,22.029Z" transform="translate(-685.007 -304.394)" fill="#05304b" fill-rule="evenodd"/>
    <path id="Trazado_605986" data-name="Trazado 605986" d="M713.633,370.824,712.28,382.7s2.041,27.8,3.047,39.565h15.161l.334-47.315-17.19-4.118Z" transform="translate(-531.533 -276.786)" fill="#1c2d55" fill-rule="evenodd"/>
    <path id="Trazado_605987" data-name="Trazado 605987" d="M747.35,411.213l-.668,4.195,1.328,36.944h18.482c.31-2.556.588-4.742.813-6.32a241.11,241.11,0,0,0,1.856-26.417c-.008-3.2-3.708-7.939-4.98-8.285S747.35,411.213,747.35,411.213Z" transform="translate(-557.211 -306.877)" fill="#1c2d55" fill-rule="evenodd"/>
    <path id="Trazado_605988" data-name="Trazado 605988" d="M668.5,183.61s-.632-1.176-1.131-.954-17.234,24.843-17.8,26.965-.334,5.874,2.906,11.087,10.169,18.007,10.415,18.281,4.03-2.29,4.436-3.007c0,0,.165-.238-.076-.717s-8.482-20-9-21.4S672.4,195.1,673.1,193.7s3.4-8.679-4.6-10.1Z" transform="translate(-484.54 -136.315)" fill="#171c3a" fill-rule="evenodd"/>
    <path id="Trazado_605989" data-name="Trazado 605989" d="M735.1,158.687l-7.287,5.205s-5.2,20.354-5.217,21.28-2.013,12.15-2.013,12.15,7.287,2.89,8.329.117,12.725-22.673,13.305-25.8-.809-10.527-1.506-11.337S735.1,158.687,735.1,158.687Z" transform="translate(-537.731 -118.445)" fill="#c9c4d1" fill-rule="evenodd"/>
    <path id="Trazado_605990" data-name="Trazado 605990" d="M711.815,172.212s-6.6,2.323-7.206,2.669-4.171,13.337-4.46,14.553,1.618,23.482,1.618,25.451-2.488,26.55-2.545,26.952a.729.729,0,0,0,.753.87c.58,0,7.057-12.206,7.577-13.591s-1.163-22.327-1.163-22.327l4.4-29.964,1.027-4.614Z" transform="translate(-521.78 -128.54)" fill="#171c3a" fill-rule="evenodd"/>
    <path id="Trazado_605991" data-name="Trazado 605991" d="M747.524,185.182s9.461,9.537,9.807,10.113-9.485,33.144-9.6,34.646,4.859,23.655,5.032,24.235a1.13,1.13,0,0,1-.145.58,2.127,2.127,0,0,1-.781.692c-.2.145-23.337-3.587-25.189-4.742s-5.841-19.146-5.841-21.574,1.4-11.727,1.4-11.727l11.385-19.275s8.225-12.335,13.937-12.947Z" transform="translate(-537.896 -138.221)" fill="#1c2344" fill-rule="evenodd"/>
    <path id="Trazado_605992" data-name="Trazado 605992" d="M800.652,179.277s10.958,11.035,11.3,11.614-9.485,33.144-9.6,34.646,4.859,23.655,5.032,24.235a1.13,1.13,0,0,1-.145.58,2.128,2.128,0,0,1-.781.693c-.1.072-6.26-.874-12.472-1.969,5.39-7.766,5.109-20.636,4.638-21.417-.547-.91-3.426-2.879-2.987-3.023s3.39-.218,3.607-.946,4.372-23.788,4.372-23.788l2.774-1.868s1.24-8.965.366-10.278-6.643-6.272-6.691-6.312c.717-.354-.08-2.081.584-2.154Z" transform="translate(-592.522 -133.814)" fill="#101937" fill-rule="evenodd"/>
    <path id="Trazado_605993" data-name="Trazado 605993" d="M836.036,219.345a16.5,16.5,0,0,1,2.424,2.436c.99,1.292,13.333,27.1,13.591,29.513s-.648,6.493-5.1,11.642-14.247,17.967-14.561,18.225-4.022-3.2-4.34-4.062c0,0-.141-.286.209-.769S841,255.895,841.817,254.45s-12.266-23.007-12.794-24.65S827.031,219.514,836.036,219.345Z" transform="translate(-617.927 -163.721)" fill="#383d5d" fill-rule="evenodd"/>
    <path id="Trazado_605994" data-name="Trazado 605994" d="M767.127,122.952c.068,3.607-.87,7.331-.632,10.942.048.737.4.982,1.309,1.574,1.26,1.872-2.182,7.8-4.448,8.148-.149.024-3.837-2.87-6.449-3.539-1.341-.346-2.444,1.369-2.544,1.3-.543-.395.624-3.458.246-4.621.459-.125.87-1.152,1.2-1.449,2.118-1.953,1.425-6.824-.306-8.663-1.3-1.373,11.635-3.684,11.635-3.684Z" transform="translate(-562.834 -91.772)" fill="#ed9072" fill-rule="evenodd"/>
    <path id="Trazado_605995" data-name="Trazado 605995" d="M777.538,162.725c-.286.817-7.278,10.149-7.278,10.149s-.25.334-.616-.088-4.674-6.437-4.674-6.437l9.569-7.13-.218-1.638c.141-.149,3.515,4.312,3.221,5.149Z" transform="translate(-570.862 -117.617)" fill="#fff" fill-rule="evenodd"/>
    <path id="Trazado_605996" data-name="Trazado 605996" d="M753.88,165.866a.07.07,0,0,0-.036-.016c-3.269-.23-3.764,9.034-3.192,10.853A29.382,29.382,0,0,1,754,172.46c.62-.548-1.316-4.734-.129-6.594Z" transform="translate(-560.021 -123.788)" fill="#fff" fill-rule="evenodd"/>
    <path id="Trazado_605997" data-name="Trazado 605997" d="M747.876,167.386s-12.235,15.165-13.1,16.437a215.908,215.908,0,0,0-8.446,20.3s10.237-12.782,11.683-13.941,6.8-5.612,6.8-5.612a.771.771,0,0,0,.073-.491c-.073-.2-1.562-3.571-1.562-3.571s4.453.664,4.859.636,2.4-9.964,2.464-10.254S747.876,167.386,747.876,167.386Z" transform="translate(-542.02 -124.938)" fill="#383d5d" fill-rule="evenodd"/>
    <path id="Trazado_605998" data-name="Trazado 605998" d="M736.767,165.83a35.5,35.5,0,0,0-3.756,1.039c-.519.29-4.626,7.113-4.742,7.693a.367.367,0,0,0,.173.391,12.743,12.743,0,0,1,1.171.737,6.927,6.927,0,0,1-1.433.262s-.173.064-.145.334-.547,25.741-.547,25.741,5.048-28.164,5.8-30.02a34.309,34.309,0,0,1,2.758-4.787l.724-1.385Z" transform="translate(-542.885 -123.777)" fill="#383d5d" fill-rule="evenodd"/>
    <path id="Trazado_605999" data-name="Trazado 605999" d="M733.93,102.267a2.887,2.887,0,1,1-2.87,2.9A2.889,2.889,0,0,1,733.93,102.267Z" transform="translate(-545.551 -76.333)" fill="#e8685b" fill-rule="evenodd"/>
    <path id="Trazado_606000" data-name="Trazado 606000" d="M809.849,101.838a2.887,2.887,0,1,1-2.875,2.9,2.883,2.883,0,0,1,2.875-2.9Z" transform="translate(-602.214 -76.013)" fill="#e8685b" fill-rule="evenodd"/>
    <path id="Trazado_606001" data-name="Trazado 606001" d="M747.49,43.8c5.435-.032,9.908,4.791,9.936,10.717l.048,9.795c.028,5.926-4.392,10.8-9.827,10.837s-9.907-4.791-9.935-10.717l-.048-9.795C737.631,48.71,742.056,43.835,747.49,43.8Z" transform="translate(-550.48 -32.692)" fill="#f4ad85" fill-rule="evenodd"/>
    <path id="Trazado_606002" data-name="Trazado 606002" d="M757.057,60.026a11.713,11.713,0,0,1,.386,2.911l.048,9.795c.028,5.451-3.708,10.012-8.535,10.737-.475.048-.777.081-.845.085h0c5.4-.536,6.538-7.625,6.538-9.763V68.239c0-5.246-2.9-5.793-4.887-5.793H739.9a1.925,1.925,0,0,0-1.731,1.172l-.491-.374v-.189a11.218,11.218,0,0,1,3.184-7.967c4.948.966,13.176,2.609,13.744,2.967C754.919,58.247,755.925,59.072,757.057,60.026Z" transform="translate(-550.492 -41.117)" fill="#ed9072" fill-rule="evenodd"/>
    <path id="Trazado_606003" data-name="Trazado 606003" d="M730.85,56.123l1.775,1.783s.85-3.313,8.007-2.291-6.6-6.651-8.156-5.813-2.915,3.3-1.627,6.324Z" transform="translate(-545.011 -37.125)" fill="#01020e" fill-rule="evenodd"/>
    <path id="Trazado_606004" data-name="Trazado 606004" d="M742.252,38.554s-7.045.773-10.628-1.5-6.618-3.329-7.536-2.093c-.87,1.171,2.633,4.34,1.224,9.726-.076.294-.262,5.274-.366,5.58-.032-1.949-.66-6.932-1.3-8.176-1.928-3.72-4.944-6.518-1.027-12.1,2.4-3.426,6.49-5.032,8.386-3.3,6.184,5.648,14.694-1.691,14.742,7.669,0,0,4.585,1.542.322,10.926a1.217,1.217,0,0,0-1.26,1.353l.036,5.008c-3.442,0-3.515-9.026-2.589-13.088Z" transform="translate(-537.822 -19.396)" fill="#1c2d55" fill-rule="evenodd"/>
    <path id="Trazado_606005" data-name="Trazado 606005" d="M788.549,410.02h19.932a1.752,1.752,0,0,1,1.751,1.751v34.267a1.752,1.752,0,0,1-1.751,1.751H788.549a1.752,1.752,0,0,1-1.751-1.751V411.771A1.752,1.752,0,0,1,788.549,410.02Z" transform="translate(-587.154 -306.042)" fill="#e0e4ee"/>
    <path id="Trazado_606006" data-name="Trazado 606006" d="M885.818,410.02H869.694a1.473,1.473,0,0,0-1.473,1.473v34.823a1.473,1.473,0,0,0,1.473,1.473h16.123a1.474,1.474,0,0,0,1.474-1.473V411.493A1.474,1.474,0,0,0,885.818,410.02Z" transform="translate(-647.929 -306.042)" fill="#fff"/>
    <path id="Trazado_606007" data-name="Trazado 606007" d="M771.065,454.5h20.648c0-3.7,3.99-4.11,3.99-4.11H775.055S771.065,450.8,771.065,454.5Z" transform="translate(-575.411 -336.175)" fill="#fff" fill-rule="evenodd"/>
    <path id="Trazado_606008" data-name="Trazado 606008" d="M804.777,535H783.412a1.155,1.155,0,0,0-1.155,1.156v7.492a1.155,1.155,0,0,0,1.155,1.155h21.365a1.155,1.155,0,0,0,1.155-1.155v-7.492A1.155,1.155,0,0,0,804.777,535Z" transform="translate(-583.765 -399.331)" fill="#304c8e"/>
    <path id="Trazado_606009" data-name="Trazado 606009" d="M865.022,535h4.694a2.207,2.207,0,0,1,1.888,1.441c.673,1.465.6,2.931,2.6,2.931h.857c1.993,0,1.936-1.5,2.6-2.931A2.146,2.146,0,0,1,879.547,535H884a1.158,1.158,0,0,1,1.155,1.156v7.5A1.158,1.158,0,0,1,884,544.81H865.026a1.158,1.158,0,0,1-1.155-1.155v-7.5A1.158,1.158,0,0,1,865.026,535Z" transform="translate(-644.682 -399.331)" fill="#182a54" fill-rule="evenodd"/>
    <path id="Trazado_606010" data-name="Trazado 606010" d="M771.065,505.522h20.648c0-3.7,3.99-4.11,3.99-4.11H775.055S771.065,501.818,771.065,505.522Z" transform="translate(-575.411 -374.258)" fill="#fff" fill-rule="evenodd"/>
    <path id="Trazado_606011" data-name="Trazado 606011" d="M890.636,481.185h-18.78a4.11,4.11,0,0,0-3.651-4.11h18.776a4.106,4.106,0,0,1,3.651,4.11Z" transform="translate(-647.917 -356.093)" fill="#acabbb" fill-rule="evenodd"/>
    <path id="Trazado_606012" data-name="Trazado 606012" d="M878.128,426.212H892.52a.636.636,0,0,1,0,1.272H878.128a.636.636,0,0,1,0-1.272Z" transform="translate(-654.849 -318.128)" fill="#e0e4ee" fill-rule="evenodd"/>
    <path id="Trazado_606013" data-name="Trazado 606013" d="M878.128,453.771H892.52a.636.636,0,0,1,0,1.272H878.128a.636.636,0,0,1,0-1.272Z" transform="translate(-654.849 -338.698)" fill="#e0e4ee" fill-rule="evenodd"/>
    <path id="Trazado_606014" data-name="Trazado 606014" d="M878.128,511.35H892.52a.636.636,0,0,1,0,1.272H878.128a.636.636,0,0,1,0-1.272Z" transform="translate(-654.849 -381.676)" fill="#e0e4ee" fill-rule="evenodd"/>
    <path id="Trazado_606015" data-name="Trazado 606015" d="M796.959,424.18h13.905a.636.636,0,0,1,0,1.272H796.959a.636.636,0,0,1,0-1.272Z" transform="translate(-594.264 -316.611)" fill="#acabbb" fill-rule="evenodd"/>
    <path id="Trazado_606016" data-name="Trazado 606016" d="M796.959,486.283h13.905a.636.636,0,0,1,0,1.272H796.959a.636.636,0,0,1,0-1.272Z" transform="translate(-594.264 -362.966)" fill="#acabbb"/>
    <path id="Trazado_606017" data-name="Trazado 606017" d="M796.959,526h13.905a.636.636,0,0,1,0,1.272H796.959a.636.636,0,0,1,0-1.272Z" transform="translate(-594.264 -392.612)" fill="#acabbb" fill-rule="evenodd"/>
    <path id="Trazado_606018" data-name="Trazado 606018" d="M762.377,474.63H750.312a1.059,1.059,0,0,0-1.059,1.059V496.43a1.059,1.059,0,0,0,1.059,1.059h12.065a1.059,1.059,0,0,0,1.059-1.059V475.689A1.059,1.059,0,0,0,762.377,474.63Z" transform="translate(-559.13 -354.268)" fill="#e0e4ee"/>
    <path id="Trazado_606019" data-name="Trazado 606019" d="M799.395,474.619h9.758a.89.89,0,0,1,.89.89v21.075a.894.894,0,0,1-.894.894h-9.758a.894.894,0,0,1-.894-.894V475.509a.894.894,0,0,1,.894-.894Z" transform="translate(-595.886 -354.257)" fill="#fff"/>
    <path id="Trazado_606020" data-name="Trazado 606020" d="M739.728,501.534h12.5c0-2.238,2.415-2.488,2.415-2.488h-12.5S739.728,499.292,739.728,501.534Z" transform="translate(-552.021 -372.492)" fill="#fff" fill-rule="evenodd"/>
    <path id="Trazado_606021" data-name="Trazado 606021" d="M747.2,550.259h12.931a.7.7,0,0,1,.7.7v4.537a.7.7,0,0,1-.7.7H747.2a.7.7,0,0,1-.7-.7v-4.537A.7.7,0,0,1,747.2,550.259Z" transform="translate(-557.08 -410.718)" fill="#304c8e"/>
    <path id="Trazado_606022" data-name="Trazado 606022" d="M796.578,550.259h2.838a1.337,1.337,0,0,1,1.143.874c.406.886.362,1.775,1.57,1.775h.519c1.208,0,1.171-.906,1.57-1.775a1.306,1.306,0,0,1,1.143-.874h2.693a.7.7,0,0,1,.7.7v4.537a.7.7,0,0,1-.7.7H796.574a.7.7,0,0,1-.7-.7v-4.537a.7.7,0,0,1,.7-.7Z" transform="translate(-593.932 -410.718)" fill="#182a54" fill-rule="evenodd"/>
    <path id="Trazado_606023" data-name="Trazado 606023" d="M739.728,532.427h12.5c0-2.238,2.415-2.488,2.415-2.488h-12.5S739.728,530.185,739.728,532.427Z" transform="translate(-552.021 -395.551)" fill="#fff" fill-rule="evenodd"/>
    <path id="Trazado_606024" data-name="Trazado 606024" d="M812.088,517.695H800.723a2.489,2.489,0,0,0-2.21-2.488h11.365A2.485,2.485,0,0,1,812.088,517.695Z" transform="translate(-595.898 -384.555)" fill="#acabbb" fill-rule="evenodd"/>
    <path id="Trazado_606025" data-name="Trazado 606025" d="M804.531,484.426h8.712a.382.382,0,1,1,0,.765h-8.712a.382.382,0,1,1,0-.765Z" transform="translate(-600.105 -361.58)" fill="#e0e4ee" fill-rule="evenodd"/>
    <path id="Trazado_606026" data-name="Trazado 606026" d="M804.531,501.11h8.712a.382.382,0,1,1,0,.765h-8.712a.382.382,0,1,1,0-.765Z" transform="translate(-600.105 -374.033)" fill="#e0e4ee" fill-rule="evenodd"/>
    <path id="Trazado_606027" data-name="Trazado 606027" d="M804.531,535.956h8.712a.382.382,0,1,1,0,.765h-8.712a.382.382,0,1,1,0-.765Z" transform="translate(-600.105 -400.042)" fill="#e0e4ee" fill-rule="evenodd"/>
    <path id="Trazado_606028" data-name="Trazado 606028" d="M755.414,483.187h8.414a.384.384,0,0,1,0,.769h-8.414a.382.382,0,1,1,0-.765Z" transform="translate(-563.444 -360.655)" fill="#acabbb"/>
    <path id="Trazado_606029" data-name="Trazado 606029" d="M755.414,520.779h8.414a.384.384,0,0,1,0,.769h-8.414a.382.382,0,1,1,0-.765Z" transform="translate(-563.444 -388.714)" fill="#acabbb"/>
    <path id="Trazado_606030" data-name="Trazado 606030" d="M755.414,544.814h8.414a.383.383,0,0,1,0,.765h-8.414a.383.383,0,0,1,0-.765Z" transform="translate(-563.444 -406.654)" fill="#acabbb" fill-rule="evenodd"/>
    <path id="Trazado_606031" data-name="Trazado 606031" d="M218.919,352.155l16.5.077a.4.4,0,0,1,.395.395v1.727a.4.4,0,0,1-.4.395l-16.5-.077a.4.4,0,0,1-.395-.395V352.55A.4.4,0,0,1,218.919,352.155Zm16.1.866-15.709-.076v.938l15.709.076Z" transform="translate(-162.987 -262.851)" fill="#1c2d55" fill-rule="evenodd"/>
    <path id="Trazado_606032" data-name="Trazado 606032" d="M134.33,375.847l21.8-24.835a.391.391,0,0,1,.556-.036l1.3,1.139a.391.391,0,0,1,.036.556l-21.8,24.835a.391.391,0,0,1-.556.036l-1.3-1.139A.391.391,0,0,1,134.33,375.847Zm22.13-24.022-21.276,24.243.7.62,21.276-24.243Z" transform="translate(-100.072 -261.897)" fill="#1c2d55" fill-rule="evenodd"/>
    <path id="Trazado_606033" data-name="Trazado 606033" d="M215.307,348.595a2.2,2.2,0,1,1-1.9,2.456A2.2,2.2,0,0,1,215.307,348.595Z" transform="translate(-159.154 -260.181)" fill="#383d5d" fill-rule="evenodd"/>
    <path id="Trazado_606034" data-name="Trazado 606034" d="M134.426,445.766l15.326,29.275a.4.4,0,0,0,.532.169l1.53-.8a.4.4,0,0,0,.169-.531L136.657,444.6a.394.394,0,0,0-.532-.169l-1.53.8A.394.394,0,0,0,134.426,445.766Zm15.841,28.563-14.96-28.579.834-.435,14.96,28.579Z" transform="translate(-100.185 -331.696)" fill="#1c2d55" fill-rule="evenodd"/>
    <path id="Trazado_606035" data-name="Trazado 606035" d="M190.567,555.542a2.2,2.2,0,1,0-1.268-2.834A2.2,2.2,0,0,0,190.567,555.542Z" transform="translate(-141.068 -411.492)" fill="#383d5d" fill-rule="evenodd"/>
    <path id="Trazado_606036" data-name="Trazado 606036" d="M133.837,441.417a2.2,2.2,0,1,1-1.9,2.456A2.2,2.2,0,0,1,133.837,441.417Z" transform="translate(-98.344 -329.464)" fill="#383d5d" fill-rule="evenodd"/>
    <path id="Trazado_606037" data-name="Trazado 606037" d="M142.44,560.706H111.82a2.774,2.774,0,1,0,0,5.547h30.62a2.774,2.774,0,1,0,0-5.547Z" transform="translate(-81.274 -418.516)" fill="#383d5d"/>
    <path id="Trazado_606038" data-name="Trazado 606038" d="M185.461,560.706h-30.62a2.774,2.774,0,1,0,0,5.547h30.62a2.774,2.774,0,0,0,0-5.547Z" transform="translate(-113.386 -418.516)" fill="#1c2d55"/>
    <path id="Trazado_606039" data-name="Trazado 606039" d="M258.621,361.839h8.072a4.267,4.267,0,0,0,4.255-4.255H254.366A4.267,4.267,0,0,0,258.621,361.839Z" transform="translate(-189.742 -266.904)" fill="#fff" fill-rule="evenodd"/>
    <path id="Trazado_606040" data-name="Trazado 606040" d="M264.213,363.491h4.847a2.565,2.565,0,0,0,2.556-2.556h-9.964a2.565,2.565,0,0,0,2.556,2.556Z" transform="translate(-195.181 -269.405)" fill="#dff0f2" fill-rule="evenodd"/>
    <path id="Trazado_606041" data-name="Trazado 606041" d="M250.872,349.87h13.5a3.266,3.266,0,0,1,3.257,3.257H247.619a3.266,3.266,0,0,1,3.257-3.257Z" transform="translate(-184.706 -261.146)" fill="#383d5d" fill-rule="evenodd"/>
    <path id="Trazado_606042" data-name="Trazado 606042" d="M250.872,349.87h6.172a3.266,3.266,0,0,1,3.257,3.257H247.619a3.266,3.266,0,0,1,3.257-3.257Z" transform="translate(-184.706 -261.146)" fill="#01020e" fill-rule="evenodd"/>
    <path id="Trazado_606043" data-name="Trazado 606043" d="M895.6,94.485a.3.3,0,1,1-.483-.346,12.609,12.609,0,1,1-1.981,10.374.3.3,0,0,1,.217-.358.3.3,0,0,1,.362.218,12.034,12.034,0,1,0,1.888-9.9Z" transform="translate(-666.517 -66.32)" fill="#1c2d55" fill-rule="evenodd"/>
    <path id="Trazado_606044" data-name="Trazado 606044" d="M939.6,115.107a6.589,6.589,0,0,0-1.812,3.192c.5.33,1.86,1.373,1.22,2.484l-2.665,4.61c-.648,1.079-2.214.427-2.746.165a6.591,6.591,0,0,0-1.86,3.164,4.168,4.168,0,0,0,2.444.515,2.616,2.616,0,0,0,1.945-1.091l5.173-8.957a2.646,2.646,0,0,0-.032-2.222,4.167,4.167,0,0,0-1.671-1.856Zm-2.355,3.241a6.824,6.824,0,0,1,2.178-3.752.254.254,0,0,1,.29-.02,4.735,4.735,0,0,1,2.029,2.19,3.176,3.176,0,0,1,.008,2.673l-5.173,8.961a3.155,3.155,0,0,1-2.327,1.349,4.733,4.733,0,0,1-2.9-.656.259.259,0,0,1-.141-.25,6.739,6.739,0,0,1,2.154-3.772.252.252,0,0,1,.318-.048s1.711.986,2.23.1l2.657-4.6c.495-.858-1.055-1.8-1.192-1.884A.255.255,0,0,1,937.249,118.348Z" transform="translate(-694.944 -85.493)" fill="#1c2d55" fill-rule="evenodd"/>
    <path id="Trazado_606045" data-name="Trazado 606045" d="M618.234,56.673h17.19A2.684,2.684,0,0,1,638.1,59.35V74.322a.3.3,0,0,1-.511.214l-4.565-4.565H618.23a2.684,2.684,0,0,1-2.677-2.677V59.35a2.684,2.684,0,0,1,2.677-2.677Z" transform="translate(-459.335 -42.301)" fill="#bfcce8" fill-rule="evenodd"/>
    <path id="Trazado_606046" data-name="Trazado 606046" d="M609.214,49.815H626.4a3.037,3.037,0,0,1,3.031,3.031V67.819a.663.663,0,0,1-.109.362.648.648,0,0,1-.294.242.638.638,0,0,1-.375.04.623.623,0,0,1-.334-.181l-4.461-4.46H609.218a3.038,3.038,0,0,1-3.031-3.032V52.847a3.038,3.038,0,0,1,3.031-3.031Zm17.19.709h-17.19a2.337,2.337,0,0,0-2.327,2.327v7.943a2.337,2.337,0,0,0,2.327,2.327h14.94l4.573,4.573V52.847A2.337,2.337,0,0,0,626.4,50.52Z" transform="translate(-452.345 -37.183)" fill="#fff" fill-rule="evenodd"/>
    <path id="Trazado_606047" data-name="Trazado 606047" d="M616.985,60.346a.193.193,0,0,1-.193-.193.2.2,0,0,1,.193-.193h17.476a.193.193,0,0,1,.193.193.2.2,0,0,1-.193.193Z" transform="translate(-460.26 -44.755)" fill="#fff" fill-rule="evenodd"/>
    <path id="Trazado_606048" data-name="Trazado 606048" d="M616.985,67.792a.193.193,0,0,1-.193-.193.2.2,0,0,1,.193-.193h1.852a.193.193,0,1,1,0,.386Zm4.316,0a.193.193,0,1,1,0-.386h13.16a.193.193,0,0,1,.193.193.2.2,0,0,1-.193.193Z" transform="translate(-460.26 -50.312)" fill="#fff" fill-rule="evenodd"/>
    <path id="Trazado_606049" data-name="Trazado 606049" d="M616.985,75.237a.191.191,0,0,1-.193-.193.193.193,0,0,1,.193-.193h17.476a.193.193,0,0,1,.193.193.2.2,0,0,1-.193.193Z" transform="translate(-460.26 -55.869)" fill="#fff" fill-rule="evenodd"/>
    <path id="Trazado_606050" data-name="Trazado 606050" d="M636.146,85.349a.193.193,0,0,1-.193-.193.2.2,0,0,1,.193-.193h12.617a.193.193,0,0,1,.193.193.2.2,0,0,1-.193.193Z" transform="translate(-474.562 -63.417)" fill="#fff" fill-rule="evenodd"/>
    <path id="Trazado_606051" data-name="Trazado 606051" d="M658.371,93.414a.193.193,0,0,1,0-.386h6.981a.193.193,0,0,1,.193.193.2.2,0,0,1-.193.193Z" transform="translate(-491.151 -69.437)" fill="#fff" fill-rule="evenodd"/>
    <path id="Trazado_606052" data-name="Trazado 606052" d="M642.591,93.414a.193.193,0,0,1-.193-.193.2.2,0,0,1,.193-.193h2.5a.193.193,0,0,1,.193.193.2.2,0,0,1-.193.193Z" transform="translate(-479.373 -69.437)" fill="#fff" fill-rule="evenodd"/>
    <path id="Trazado_606053" data-name="Trazado 606053" d="M1010.479,580.246a.444.444,0,0,0-.888,0v1.039h-1.037a.441.441,0,1,0,0,.881h1.037V583.2a.444.444,0,0,0,.888,0v-1.039h1.037a.441.441,0,1,0,0-.881h-1.037Z" transform="translate(-752.343 -432.77)" fill="#bfcce8" fill-rule="evenodd"/>
    <path id="Trazado_606054" data-name="Trazado 606054" d="M287.613,554.022H272.665a2.234,2.234,0,0,0,0,4.469h14.948a2.234,2.234,0,0,0,0-4.469Z" transform="translate(-201.734 -413.527)" fill="#0076bd" fill-rule="evenodd"/>
    <path id="Trazado_606055" data-name="Trazado 606055" d="M206.328,555.043h19.114a1.973,1.973,0,1,1,0,3.945H206.328v-3.945Z" transform="translate(-153.886 -414.286)" fill="#fff" fill-rule="evenodd"/>
    <path id="Trazado_606056" data-name="Trazado 606056" d="M205.558,554.022a.262.262,0,0,0,0,.523h19.114a1.715,1.715,0,0,1,0,3.43H205.558a.262.262,0,0,0,0,.523h19.114a2.234,2.234,0,0,0,0-4.469H205.558Z" transform="translate(-153.116 -413.527)" fill="#004a82" fill-rule="evenodd"/>
    <path id="Trazado_606057" data-name="Trazado 606057" d="M328.9,556.256a2.24,2.24,0,0,0-2.234-2.234h1.944a2.234,2.234,0,0,1,0,4.469h-1.944a2.24,2.24,0,0,0,2.234-2.234Z" transform="translate(-243.704 -413.527)" fill="#004a82" fill-rule="evenodd"/>
    <path id="Trazado_606058" data-name="Trazado 606058" d="M317.782,556.256a2.241,2.241,0,0,0-2.234-2.234h1.945a2.234,2.234,0,0,1,0,4.469h-1.945a2.24,2.24,0,0,0,2.234-2.234Z" transform="translate(-235.409 -413.527)" fill="#004a82" fill-rule="evenodd"/>
    <path id="Trazado_606059" data-name="Trazado 606059" d="M216.063,538.591H229.15a1.957,1.957,0,0,1,0,3.913H216.063a1.957,1.957,0,0,1,0-3.913Z" transform="translate(-159.692 -402.009)" fill="#ffe126" fill-rule="evenodd"/>
    <path id="Trazado_606060" data-name="Trazado 606060" d="M282.928,539.484H266.189a1.727,1.727,0,0,0,0,3.454h16.739v-3.454Z" transform="translate(-197.278 -402.672)" fill="#fff" fill-rule="evenodd"/>
    <path id="Trazado_606061" data-name="Trazado 606061" d="M282.253,538.591a.229.229,0,0,1,.229.229.227.227,0,0,1-.229.229H265.513a1.5,1.5,0,0,0,0,3h16.739a.229.229,0,0,1,.229.229.227.227,0,0,1-.229.229H265.513a1.957,1.957,0,0,1,0-3.913Z" transform="translate(-196.603 -402.009)" fill="#7e19b8" fill-rule="evenodd"/>
    <path id="Trazado_606062" data-name="Trazado 606062" d="M219.19,540.548a1.966,1.966,0,0,1,1.957-1.957h-1.7a1.957,1.957,0,0,0,0,3.913h1.7a1.966,1.966,0,0,1-1.957-1.956Z" transform="translate(-162.216 -402.009)" fill="#304c8e" fill-rule="evenodd"/>
    <path id="Trazado_606063" data-name="Trazado 606063" d="M228.906,540.548a1.966,1.966,0,0,1,1.957-1.957h-1.7a1.957,1.957,0,0,0,0,3.913h1.7a1.965,1.965,0,0,1-1.957-1.956Z" transform="translate(-169.468 -402.009)" fill="#60cb28" fill-rule="evenodd"/>
    <path id="Trazado_606064" data-name="Trazado 606064" d="M492.3,561.644H428.013a2.2,2.2,0,0,1-2.162-2.041,1.906,1.906,0,0,1,1.92-2.041H492.06a2.2,2.2,0,0,1,2.162,2.041A1.906,1.906,0,0,1,492.3,561.644Z" transform="translate(-317.738 -416.169)" fill="#a8a6b5" fill-rule="evenodd"/>
    <path id="Trazado_606065" data-name="Trazado 606065" d="M493.414,568H429.126a2.189,2.189,0,0,1-1.787-.962,1.907,1.907,0,0,1,1.675-.962H493.3a2.189,2.189,0,0,1,1.787.962A1.907,1.907,0,0,1,493.414,568Z" transform="translate(-318.851 -422.52)" fill="#96929f" fill-rule="evenodd"/>
    <path id="Trazado_606066" data-name="Trazado 606066" d="M534.462,443.793H483.04a2.487,2.487,0,0,1-2.5-2.673l2.106-33.305a2.89,2.89,0,0,1,2.838-2.669H536.9a2.486,2.486,0,0,1,2.5,2.669L537.3,441.12A2.894,2.894,0,0,1,534.462,443.793Z" transform="translate(-358.554 -302.404)" fill="#96929f" fill-rule="evenodd"/>
    <path id="Trazado_606067" data-name="Trazado 606067" d="M538.929,443.793h-49.9a2.487,2.487,0,0,1-2.5-2.673l2.106-33.305a2.89,2.89,0,0,1,2.838-2.669h49.9a2.481,2.481,0,0,1,2.5,2.669l-2.106,33.305a2.894,2.894,0,0,1-2.838,2.673Z" transform="translate(-363.021 -302.404)" fill="#fff" fill-rule="evenodd"/>
    <path id="Trazado_606068" data-name="Trazado 606068" d="M542.053,443.781h-5.137l-42.568-34.026.125-1.953a2.831,2.831,0,0,1,.608-1.566Zm-41.208-38.647,46.437,37.114a2.762,2.762,0,0,0,.326-1.139l.326-5.181L509.4,405.13h-8.559Z" transform="translate(-368.867 -302.392)" fill="#f0eef0" fill-rule="evenodd"/>
    <path id="Trazado_606069" data-name="Trazado 606069" d="M439.684,561.644H428a2.205,2.205,0,0,1-2.166-2.041,1.906,1.906,0,0,1,1.92-2.041h11.683A2.2,2.2,0,0,1,441.6,559.6a1.906,1.906,0,0,1-1.92,2.041Z" transform="translate(-317.726 -416.169)" fill="#fff" fill-rule="evenodd"/>
    <path id="Trazado_606070" data-name="Trazado 606070" d="M530.552,555.56H477.058a1.106,1.106,0,0,1-1.083-1.022.954.954,0,0,1,.958-1.022h53.494a1.106,1.106,0,0,1,1.083,1.022A.954.954,0,0,1,530.552,555.56Z" transform="translate(-355.152 -413.148)" fill="#d2ced6" fill-rule="evenodd"/>
    <path id="Trazado_606071" data-name="Trazado 606071" d="M378.5,294.955a10.633,10.633,0,0,1,.08-4.923l-8.43-.713,11.735-5.141a27.039,27.039,0,0,0,3.663-6.055c1.176-3-2.009-10.632-3.2-12.524s-3.68-1.61-5.318-.584c0,0-2.456-3.7-5.391-3.949s-12.258.612-14.968,7.456,1.651,13.684-2.713,20.725a1.764,1.764,0,0,0,.181,1.643c.568.749,7.444,8.768,23.124,5.535a1.594,1.594,0,0,0,1.244-1.461Z" transform="translate(-263.984 -194.835)" fill="#1c2d55" fill-rule="evenodd"/>
    <path id="Trazado_606072" data-name="Trazado 606072" d="M367.456,342.509c.866-9.428,1.473-17.621,1.473-17.621l-.8-2.657s-7.218,5.833-12.343-.3c.242,4.211.845,8.45-1.828,12.766a1.764,1.764,0,0,0,.181,1.642l.024.032.008.012.02.024.02.024.012.016.036.044.044.056.012.016.036.044.032.036.024.028.052.061.008.008.064.073.016.016.056.06.04.044.036.04.028.028.056.056.088.089.06.06.048.044a20.02,20.02,0,0,0,10.882,5.065h.016c.511.085,1.039.149,1.586.2h0Z" transform="translate(-263.984 -240.29)" fill="#010518" fill-rule="evenodd"/>
    <path id="Trazado_606073" data-name="Trazado 606073" d="M390.1,367.107c-.536-2.665-.161-3.74.588-7.3l-13.414-2.11-5.862,1.135a39.18,39.18,0,0,1-2.045,7.259c3.571,2.21,9.875,4.46,19.493,2.48a1.594,1.594,0,0,0,1.244-1.461Z" transform="translate(-275.578 -266.987)" fill="#010518" fill-rule="evenodd"/>
    <path id="Trazado_606074" data-name="Trazado 606074" d="M329.938,395.921c3.712,1.163,8.788,2.556,13.164,4.706.3.149-.314,1.312-.032,1.469a10.333,10.333,0,0,1,1.92,1.562c2.045,2.021,6.2,17.838,5.829,19.412-.6,2.536-5.849,9.5-5.849,9.5-1.043,2.017-2.339,4.952-3.607,8.124h-26.1c1.82-5.91,2.5-9.911,2.544-13.518,1.393-12.263-5.2-14.932-5.2-14.932l6.828-16.071c2.657-.942,7.955-.588,7.955-.588a5.442,5.442,0,0,1,2.548.334Z" transform="translate(-233.217 -295.221)" fill="#ffe126" fill-rule="evenodd"/>
    <path id="Trazado_606075" data-name="Trazado 606075" d="M385.775,460h-3.684c.684-1.836,3.881-10.523,4.561-12.379-3.1-.54-7.375-1.28-8.128-1.461s-3.639,1.469-3.639,1.469l.322-1.876-3.1,3.12,5.294-9.891s8.643,1.952,10.479,2.287.717.08,1.059.052c1.022-2.87-.652-3.676-.451-5.064s.258-14.871.258-14.871c1.115.58,1.622,1.836,2.254,3.821.415,1.3,2.621,9.887,3.535,14.96.218,1.208.391,2.11.5,2.83-2.049,5.221-6.643,10.475-9.255,17Z" transform="translate(-277.628 -314.526)" fill="#cfb300" fill-rule="evenodd"/>
    <path id="Trazado_606076" data-name="Trazado 606076" d="M390.973,338.666l-1.309,3.925s-1.977,9.263-2.431,10.463c-.157.419-.68.543-1.486.523,1.155,1.654,3.4,4.183,6.647,4.8a6.286,6.286,0,0,0,4.5-.576c-.693-.366-1.357-.8-1.353-1.159.028-3.16.572-8.724,2.283-9.754,1.961-1.179-6.86-8.224-6.86-8.224Z" transform="translate(-287.806 -252.78)" fill="#e8685b" fill-rule="evenodd"/>
    <path id="Trazado_606077" data-name="Trazado 606077" d="M382.81,397.169a8.417,8.417,0,0,1-1.872-.072,14.164,14.164,0,0,0,4.155,3.756c5.117,3.245,7.584,1.477,8.361.644a5.619,5.619,0,0,1-1.248-.8c-4.779,2.335-9.4-3.523-9.4-3.523Z" transform="translate(-284.217 -296.396)" fill="#fff" fill-rule="evenodd"/>
    <path id="Trazado_606078" data-name="Trazado 606078" d="M418.646,415.255s2.041,20.543,1.792,22.275-3.494,10.282-6.336,17.89h4.891c.966-1.86,1.7-3.313,1.84-3.663.089-.225.427-.882.89-1.743.837-1.546,2.085-3.752,3.023-5.3,3-4.923,2.991-3.772,1.952-9.541-.914-5.077-3.716-14.465-4.13-15.773C421.935,417.417,419.177,415.11,418.646,415.255Z" transform="translate(-308.97 -309.945)" fill="#1c2344" fill-rule="evenodd"/>
    <path id="Trazado_606079" data-name="Trazado 606079" d="M424.225,521.312c-.672,1.88-1.453,4.018-2.267,6.216a16.43,16.43,0,0,1,3.1.443c1.486.584,1.643,1.252,1.643,1.252.089-.225.427-.882.89-1.743.837-1.546,2.086-3.752,3.023-5.3.9-1.482,1.53-2.411,1.945-3.148a8.366,8.366,0,0,1-1.945,1.4C430.066,520.6,425.9,521.11,424.225,521.312Z" transform="translate(-314.835 -387.411)" fill="#1c2d55" fill-rule="evenodd"/>
    <path id="Trazado_606080" data-name="Trazado 606080" d="M326.586,394.541s3.744,18.144,4.259,23.418-1.135,9.05-2.991,13.011c-.624,1.336-2.633,4.746-5.1,8.78h-11.53l1.232-28.5-3.305-.765c.2-1.433.358-2.617.467-3.45l6.51-11.51s2.456-1.993,10.463-.982Z" transform="translate(-230.634 -294.276)" fill="#1c2344" fill-rule="evenodd"/>
    <path id="Trazado_606081" data-name="Trazado 606081" d="M319.577,422.552c-1.84,7.387-.564,10.451-.564,10.451l.986-4.6s.934,6.787,1.968,7.653c.515.431,6.647,1.606,8.941,2.033a19.329,19.329,0,0,1-1.127,7.6c-1.651.169-11.566-1.228-12.041,1.977-.238,1.6-.181-3.543-.181-3.543l-.588,14.9h-5.749l1.232-28.5-3.305-.765.008-.068.008-.064.008-.068.008-.064.008-.064.008-.064.008-.064.008-.064.008-.064.008-.064.008-.064.008-.064.008-.064.008-.06.008-.06.008-.061.008-.06.008-.06.008-.06.008-.06.008-.06.008-.06.008-.057.008-.056.008-.056.008-.056.008-.057.008-.056.008-.056.008-.056.008-.057.008-.056.008-.052.008-.052.008-.052.008-.052.008-.052.008-.052.008-.052.008-.052.008-.048.008-.048.008-.048.008-.048.008-.048.008-.048.008-.048.008-.048.008-.048.008-.048.008-.044.008-.044.008-.044v-.044h0v-.044h0v-.044h0V426.6h0v-.04h0v-.04h0v-.04h0v-.04h0v-.04h0v-.04h0v-.04l3.53-6.232,6.437,2.472Z" transform="translate(-230.634 -313.554)" fill="#1c2d55" fill-rule="evenodd"/>
    <path id="Trazado_606082" data-name="Trazado 606082" d="M308.506,405.466c-2.109,5.769-2.685,25.552-.946,36.176h9.263c-3.788-21.083,4.171-36.163,2.42-41.506-2.8-8.555-9.348,1.542-10.737,5.334Z" transform="translate(-228.681 -296.166)" fill="#383d5d" fill-rule="evenodd"/>
    <path id="Trazado_606083" data-name="Trazado 606083" d="M451.829,339.237l1.031-.451a29.645,29.645,0,0,0,3-4.6c-.246.467-1.872,3.313-4.255,1.574-2.589-1.892-2.693,1.1-2.693,1.1a11.919,11.919,0,0,0,2.476,2.194c.117.052.266.117.435.181Z" transform="translate(-334.955 -249.438)" fill="#010518" fill-rule="evenodd"/>
    <path id="Trazado_606084" data-name="Trazado 606084" d="M446.487,347.266a2.953,2.953,0,1,0,2.633,3.241A2.952,2.952,0,0,0,446.487,347.266Z" transform="translate(-330.712 -259.19)" fill="#e8685b" fill-rule="evenodd"/>
    <path id="Trazado_606085" data-name="Trazado 606085" d="M366.709,339.059a1.317,1.317,0,0,0-.217.02,2.956,2.956,0,1,0,2.407.8c0,.874-.225,1.936-1.345,1.952l.177-1.695a1.014,1.014,0,0,0-1.015-1.075Z" transform="translate(-271.502 -253.076)" fill="#e8685b" fill-rule="evenodd"/>
    <path id="Trazado_606086" data-name="Trazado 606086" d="M389.494,284.767a10.146,10.146,0,0,0-11.1,9.018l-.946,9.142a10.114,10.114,0,0,0,20.121,2.085l.946-9.143A10.149,10.149,0,0,0,389.494,284.767Z" transform="translate(-281.57 -212.512)" fill="#f4ad85" fill-rule="evenodd"/>
    <path id="Trazado_606087" data-name="Trazado 606087" d="M378.226,311.182l-.781,7.54a10.154,10.154,0,0,0,6.445,10.487c-5.886-2.44-2.87-12.669-2.87-12.669,1.192-.2,3.072-2.424,4.167-3.72s1.94-2.6,3.824-2.56a38.867,38.867,0,0,1,5.874,1.027,11.137,11.137,0,0,0,3.241,4.106l.387-3.732a9.923,9.923,0,0,0-.193-3.249c-.245-.145-.495-.29-.761-.439-8.1-4.553-14.976-.87-19.336,3.2Z" transform="translate(-281.569 -228.307)" fill="#ed9072" fill-rule="evenodd"/>
    <path id="Trazado_606088" data-name="Trazado 606088" d="M420.869,309.673l-1.634.7a4.826,4.826,0,0,0-3.3-.531s-3.591-1.32-5.5-.584-.785-1.908-.435-2.021a23.032,23.032,0,0,1,5.527-.04c1.574.3,3.941.672,3.941.672l1.4,1.812Z" transform="translate(-305.432 -229.178)" fill="#010518" fill-rule="evenodd"/>
    <path id="Trazado_606089" data-name="Trazado 606089" d="M378.56,337.109l.97.169s.672,3.063-1.228,3.088l.177-1.7a1.08,1.08,0,0,0-.02-.326l.1-1.24Z" transform="translate(-282.249 -251.618)" fill="#010518" fill-rule="evenodd"/>
    <path id="Trazado_606090" data-name="Trazado 606090" d="M390.649,288.964c-1.477-2-3.893-2.4-5.773.4-1.715,2.561-4.263,6.989-8.555,6.627l-.02-.081h.012l.241-2.858s-.362.093-.8.2a18.537,18.537,0,0,1-.149-5.121c.5-3.591,5.5-8.837,11.131-9.038s9.714,3.144,10.519,5.052a42.443,42.443,0,0,1,1.606,6.24l-.99,1.417-1.067,2.818c-2.592-2.52-2.327-4.907-3.454-6.107-.612-.652-1.522-.652-2.7.451Z" transform="translate(-280.148 -208.308)" fill="#1c2d55" fill-rule="evenodd"/>
    <path id="Trazado_606091" data-name="Trazado 606091" d="M384.782,323.124c-1.7,2.572-4.143,6.063-7.967,5.741l-.02-.081h.012l.242-2.858s-.362.093-.8.2c-.036-.245-.073-.5-.1-.773,4.32,1.252,8.627-2.218,8.643-2.23Z" transform="translate(-280.638 -241.179)" fill="#010518" fill-rule="evenodd"/>
    <path id="Trazado_606092" data-name="Trazado 606092" d="M426.729,412.141s2.633,21.59,2.58,22.291-.753,4.078-.753,4.078a14.179,14.179,0,0,0,1.582-3.9c.31-1.767,1.143-13.708,1.143-13.708l-1.4-.753,1.3-.076-2.142-6.707a1.882,1.882,0,0,0-.584-.693c-.338-.193-1.566-.813-1.586-.821a.815.815,0,0,0-.479.056s.254.173.346.23Z" transform="translate(-318.14 -307.402)" fill="#484e6a" fill-rule="evenodd"/>
    <path id="Trazado_606093" data-name="Trazado 606093" d="M367.181,394.636s3.744,18.144,4.259,23.418a18.738,18.738,0,0,1-.326,5.846c.688-5.395-6.9-18.088-6.9-18.088l1.973-.934-2.649-1.2s1.22-6.828,1.3-7.971c.076-1.111-.511-1.316-.548-1.329.87.04,1.832.121,2.89.254Z" transform="translate(-271.229 -294.37)" fill="#484e6a" fill-rule="evenodd"/>
    <path id="Trazado_606094" data-name="Trazado 606094" d="M46.039,580.165h3.277a2.375,2.375,0,1,0,0-4.75H40.652a1.886,1.886,0,1,1,0-3.772H269.485a1.886,1.886,0,0,1,0,3.772H257.6a2.375,2.375,0,1,0,0,4.75h2.786a3.772,3.772,0,1,1,0,7.544H46.039a3.772,3.772,0,0,1,0-7.544Zm-10.479-8.522a1.886,1.886,0,1,1-1.888,1.888A1.888,1.888,0,0,1,35.559,571.643Z" transform="translate(-25.014 -426.679)" fill="#01020e" fill-rule="evenodd"/>
    <path id="Trazado_606095" data-name="Trazado 606095" d="M484.8,181.833h-17.19a3.037,3.037,0,0,0-3.031,3.031v14.972a.66.66,0,0,0,.109.362.648.648,0,0,0,.294.242.64.64,0,0,0,.374.04.625.625,0,0,0,.334-.181l4.461-4.46H484.8a3.038,3.038,0,0,0,3.031-3.031v-7.943a3.038,3.038,0,0,0-3.031-3.031Zm-17.19.709H484.8a2.336,2.336,0,0,1,2.327,2.327v7.943a2.336,2.336,0,0,1-2.327,2.327h-14.94l-4.573,4.573V184.868a2.336,2.336,0,0,1,2.327-2.327Z" transform="translate(-346.65 -135.722)" fill="#1a293d" fill-rule="evenodd"/>
    <path id="Trazado_606096" data-name="Trazado 606096" d="M492.872,192.363a.193.193,0,1,0,0-.386H475.4a.193.193,0,0,0-.193.193.2.2,0,0,0,.193.193Z" transform="translate(-354.577 -143.293)" fill="#1a293d" fill-rule="evenodd"/>
    <path id="Trazado_606097" data-name="Trazado 606097" d="M492.872,199.808a.193.193,0,0,0,0-.386H491.02a.193.193,0,0,0,0,.386Zm-4.316,0a.193.193,0,0,0,0-.386H475.4a.193.193,0,0,0-.193.193.2.2,0,0,0,.193.193Z" transform="translate(-354.577 -148.85)" fill="#1a293d" fill-rule="evenodd"/>
    <path id="Trazado_606098" data-name="Trazado 606098" d="M492.872,207.253a.193.193,0,0,0,0-.386H475.4a.193.193,0,0,0-.193.193.2.2,0,0,0,.193.193Z" transform="translate(-354.577 -154.407)" fill="#1a293d" fill-rule="evenodd"/>
    <path id="Trazado_606099" data-name="Trazado 606099" d="M488.013,217.349a.193.193,0,0,0,0-.386H475.4a.191.191,0,0,0-.193.193.193.193,0,0,0,.193.193Z" transform="translate(-354.577 -161.943)" fill="#1a293d" fill-rule="evenodd"/>
    <path id="Trazado_606100" data-name="Trazado 606100" d="M482.366,225.43a.193.193,0,0,0,.193-.193.2.2,0,0,0-.193-.193h-6.985a.193.193,0,0,0-.193.193.2.2,0,0,0,.193.193Z" transform="translate(-354.566 -167.975)" fill="#1a293d" fill-rule="evenodd"/>
    <path id="Trazado_606101" data-name="Trazado 606101" d="M511.356,225.43a.193.193,0,0,0,.193-.193.2.2,0,0,0-.193-.193h-2.5a.194.194,0,0,0-.193.193.2.2,0,0,0,.193.193Z" transform="translate(-379.555 -167.975)" fill="#1a293d" fill-rule="evenodd"/>
  </g>
</svg>
