<svg xmlns="http://www.w3.org/2000/svg" xmlns:xlink="http://www.w3.org/1999/xlink" width="170.617" height="170.616" viewBox="0 0 170.617 170.616">
  <defs>
    <filter id="Trazado_150709" x="0" y="0" width="170.617" height="170.616" filterUnits="userSpaceOnUse">
      <feOffset dx="5" dy="5" input="SourceAlpha"/>
      <feGaussianBlur stdDeviation="12.5" result="blur"/>
      <feFlood flood-opacity="0.161"/>
      <feComposite operator="in" in2="blur"/>
      <feComposite in="SourceGraphic"/>
    </filter>
    <clipPath id="clip-path">
      <rect id="Rectángulo_348311" data-name="Rectángulo 348311" width="96" height="96" transform="translate(-0.441)" fill="none"/>
    </clipPath>
  </defs>
  <g id="Grupo_1016739" data-name="Grupo 1016739" transform="translate(4488.059 7452.082)">
    <g id="Grupo_1016225" data-name="Grupo 1016225" transform="translate(-4468.498 -7432.522)">
      <path id="Trazado_150708" data-name="Trazado 150708" d="M121.286,55.711A60.746,60.746,0,1,1,55.711.213a60.746,60.746,0,0,1,65.575,55.5" transform="translate(0 121.498) rotate(-90)" fill="#304c8e"/>
      <g transform="matrix(1, 0, 0, 1, -19.56, -19.56)" filter="url(#Trazado_150709)">
        <path id="Trazado_150709-2" data-name="Trazado 150709" d="M95.449,43.844A47.805,47.805,0,1,1,43.843.167,47.806,47.806,0,0,1,95.449,43.844" transform="translate(32.5 128.12) rotate(-90)" fill="#fff"/>
      </g>
      <g id="Grupo_1016233" data-name="Grupo 1016233" transform="translate(12.939 12.522)">
        <g id="Grupo_1016232" data-name="Grupo 1016232" clip-path="url(#clip-path)">
          <path id="Trazado_611096" data-name="Trazado 611096" d="M95.559,47.779A47.779,47.779,0,1,1,47.779,0,47.779,47.779,0,0,1,95.559,47.779" fill="#dee9f0"/>
          <path id="Trazado_611097" data-name="Trazado 611097" d="M76.967,87.1c.357-.09.661-.149.955-.242C85.193,84.56,89.933,79.777,92,72.421a19.046,19.046,0,0,0,.5-7.539,3.616,3.616,0,0,1,2.744-4.2,3.408,3.408,0,0,1,4.112,2.551,17.8,17.8,0,0,1,.38,3.223A26.973,26.973,0,0,1,98.1,76.582a23.28,23.28,0,0,1-2.122,4.586,26.132,26.132,0,0,1-3.358,4.546c-.612.627-1.2,1.278-1.857,1.859A27.616,27.616,0,0,1,80.7,93.365c-.338.107-.677.207-1.016.311a.835.835,0,0,0-.111.077c.323.091.6.173.884.247,1.57.416,3.151.795,4.709,1.253A3.351,3.351,0,0,1,87.7,98.341a3.428,3.428,0,0,1-3.7,3.748,26.828,26.828,0,0,1-3.314-.76q-5.069-1.3-10.131-2.63a3.573,3.573,0,0,1-2.844-2.976,4.218,4.218,0,0,1,.153-1.855q1.48-5.633,2.952-11.271c.127-.482.261-.966.434-1.434a3.5,3.5,0,0,1,6.781,1.115,6.364,6.364,0,0,1-.237,1.538c-.232.972-.5,1.934-.759,2.9-.026.1-.038.2-.07.381" transform="translate(-23.377 -20.933)" fill="#ffe600"/>
          <path id="Trazado_611098" data-name="Trazado 611098" d="M76.967,87.1c.357-.09.661-.149.955-.242C85.193,84.56,89.933,79.777,92,72.421a19.046,19.046,0,0,0,.5-7.539,3.616,3.616,0,0,1,2.744-4.2,3.408,3.408,0,0,1,4.112,2.551,17.8,17.8,0,0,1,.38,3.223A26.973,26.973,0,0,1,98.1,76.582a23.28,23.28,0,0,1-2.122,4.586,26.132,26.132,0,0,1-3.358,4.546c-.612.627-1.2,1.278-1.857,1.859A27.616,27.616,0,0,1,80.7,93.365c-.338.107-.677.207-1.016.311a.835.835,0,0,0-.111.077c.323.091.6.173.884.247,1.57.416,3.151.795,4.709,1.253A3.351,3.351,0,0,1,87.7,98.341a3.428,3.428,0,0,1-3.7,3.748,26.828,26.828,0,0,1-3.314-.76q-5.069-1.3-10.131-2.63a3.573,3.573,0,0,1-2.844-2.976,4.218,4.218,0,0,1,.153-1.855q1.48-5.633,2.952-11.271c.127-.482.261-.966.434-1.434a3.5,3.5,0,0,1,6.781,1.115,6.364,6.364,0,0,1-.237,1.538c-.232.972-.5,1.934-.759,2.9C77.011,86.816,77,86.919,76.967,87.1Z" transform="translate(-23.377 -20.933)" fill="none" stroke="#000" stroke-miterlimit="10" stroke-width="3"/>
          <path id="Trazado_611099" data-name="Trazado 611099" d="M79.081,36.947c-.183-.648-.37-1.295-.547-1.945-.353-1.3-.768-2.579-1.033-3.893a3.484,3.484,0,0,1,6.694-1.8c.4,1.15.7,2.332,1.035,3.5q1.354,4.779,2.694,9.562a3.493,3.493,0,0,1-1.518,4.155,5.435,5.435,0,0,1-1.27.507q-6.146,1.749-12.3,3.47a3.444,3.444,0,0,1-3.788-1.177,3.51,3.51,0,0,1,1.428-5.408c1.1-.425,2.271-.687,3.409-1.023.236-.069.472-.141.732-.219a.624.624,0,0,0-.065-.135,19.542,19.542,0,0,0-5.34-3.986,20.288,20.288,0,0,0-21.26,1.66A5.354,5.354,0,0,1,45.865,41.3a3.467,3.467,0,0,1-4.119-2.969,3.375,3.375,0,0,1,1.268-3.191A26.07,26.07,0,0,1,48.6,31.716a27.044,27.044,0,0,1,8.31-2.285,26.691,26.691,0,0,1,13.76,2.034,25.492,25.492,0,0,1,7.853,5.093c.156.149.324.287.487.43l.075-.042" transform="translate(-14.411 -9.351)" fill="#ffe600"/>
          <path id="Trazado_611100" data-name="Trazado 611100" d="M79.081,36.947c-.183-.648-.37-1.295-.547-1.945-.353-1.3-.768-2.579-1.033-3.893a3.484,3.484,0,0,1,6.694-1.8c.4,1.15.7,2.332,1.035,3.5q1.354,4.779,2.694,9.562a3.493,3.493,0,0,1-1.518,4.155,5.435,5.435,0,0,1-1.27.507q-6.146,1.749-12.3,3.47a3.444,3.444,0,0,1-3.788-1.177,3.51,3.51,0,0,1,1.428-5.408c1.1-.425,2.271-.687,3.409-1.023.236-.069.472-.141.732-.219a.624.624,0,0,0-.065-.135,19.542,19.542,0,0,0-5.34-3.986,20.288,20.288,0,0,0-21.26,1.66A5.354,5.354,0,0,1,45.865,41.3a3.467,3.467,0,0,1-4.119-2.969,3.375,3.375,0,0,1,1.268-3.191A26.07,26.07,0,0,1,48.6,31.716a27.044,27.044,0,0,1,8.31-2.285,26.691,26.691,0,0,1,13.76,2.034,25.492,25.492,0,0,1,7.853,5.093c.156.149.324.287.487.43Z" transform="translate(-14.411 -9.351)" fill="none" stroke="#000" stroke-miterlimit="10" stroke-width="3"/>
          <path id="Trazado_611101" data-name="Trazado 611101" d="M27.652,61.33c-.139.123-.224.19-.3.267-.726.721-1.448,1.445-2.176,2.164a4.748,4.748,0,0,1-2.057,1.319A3.587,3.587,0,0,1,18.776,62.2a3.1,3.1,0,0,1,.692-2.634c.789-.928,1.662-1.786,2.53-2.643,2.183-2.156,4.388-4.29,6.575-6.442a3.9,3.9,0,0,1,2.257-1.239,3.347,3.347,0,0,1,2.858.977c1.237,1.2,2.447,2.422,3.659,3.645q2.555,2.58,5.094,5.176a4.053,4.053,0,0,1,1.087,2.038,3.573,3.573,0,0,1-1.7,3.59,3.276,3.276,0,0,1-3.907-.266c-.708-.6-1.332-1.291-2-1.939-.328-.319-.665-.63-1.034-.978-.132.556-.278,1.116-.4,1.681a19.448,19.448,0,0,0-.3,5.824A20.128,20.128,0,0,0,42.756,83.8a17.733,17.733,0,0,0,3.37,1.9,3.98,3.98,0,0,1,2.316,2.116,3.3,3.3,0,0,1-.632,3.746,3.26,3.26,0,0,1-3.769.907,24.817,24.817,0,0,1-6.476-3.739,27.52,27.52,0,0,1-8.075-10.25,27.145,27.145,0,0,1-2.146-7.321,26.034,26.034,0,0,1-.3-4.956,29.72,29.72,0,0,1,.588-4.586c.012-.065.012-.134.024-.285" transform="translate(-6.468 -17.001)" fill="#ffe600"/>
          <path id="Trazado_611102" data-name="Trazado 611102" d="M27.652,61.33c-.139.123-.224.19-.3.267-.726.721-1.448,1.445-2.176,2.164a4.748,4.748,0,0,1-2.057,1.319A3.587,3.587,0,0,1,18.776,62.2a3.1,3.1,0,0,1,.692-2.634c.789-.928,1.662-1.786,2.53-2.643,2.183-2.156,4.388-4.29,6.575-6.442a3.9,3.9,0,0,1,2.257-1.239,3.347,3.347,0,0,1,2.858.977c1.237,1.2,2.447,2.422,3.659,3.645q2.555,2.58,5.094,5.176a4.053,4.053,0,0,1,1.087,2.038,3.573,3.573,0,0,1-1.7,3.59,3.276,3.276,0,0,1-3.907-.266c-.708-.6-1.332-1.291-2-1.939-.328-.319-.665-.63-1.034-.978-.132.556-.278,1.116-.4,1.681a19.448,19.448,0,0,0-.3,5.824A20.128,20.128,0,0,0,42.756,83.8a17.733,17.733,0,0,0,3.37,1.9,3.98,3.98,0,0,1,2.316,2.116,3.3,3.3,0,0,1-.632,3.746,3.26,3.26,0,0,1-3.769.907,24.817,24.817,0,0,1-6.476-3.739,27.52,27.52,0,0,1-8.075-10.25,27.145,27.145,0,0,1-2.146-7.321,26.034,26.034,0,0,1-.3-4.956,29.72,29.72,0,0,1,.588-4.586C27.64,61.549,27.64,61.481,27.652,61.33Z" transform="translate(-6.468 -17.001)" fill="none" stroke="#000" stroke-miterlimit="10" stroke-width="3"/>
        </g>
      </g>
    </g>
    <g id="Group_43_" data-name="Group (43)" transform="translate(-4383 -7343.403)">
      <path id="Trazado_598926" data-name="Trazado 598926" d="M36.549,16.055,16.055,36.549a15.864,15.864,0,0,0,.655,1.582l21.422-21.42a15.863,15.863,0,0,0-1.582-.655Z" transform="translate(-15.17 -15.17)" fill="#4ca220"/>
      <path id="Trazado_598927" data-name="Trazado 598927" d="M18.367.8.8,18.367a16.022,16.022,0,0,0,.26,1.7L20.065,1.058A16.022,16.022,0,0,0,18.367.8Z" transform="translate(-0.754 -0.754)" fill="#4ca220"/>
      <path id="Trazado_598928" data-name="Trazado 598928" d="M299.7,283.668c0-.137-.008-.274-.01-.41l-16.454,16.453c.137,0,.273.01.41.01a16.091,16.091,0,0,0,1.678-.088l14.289-14.289a16.09,16.09,0,0,0,.088-1.678Z" transform="translate(-267.627 -267.648)" fill="#4ca220"/>
      <path id="Trazado_598929" data-name="Trazado 598929" d="M68.634,46.122q-.611-.481-1.267-.9L45.2,67.389q.42.656.9,1.267Z" transform="translate(-42.708 -42.73)" fill="#4ca220"/>
      <path id="Trazado_598930" data-name="Trazado 598930" d="M0,15.009,15.009,0c-.434.026-.863.07-1.287.131L.131,13.722C.07,14.145.026,14.575,0,15.009Z" fill="#4ca220"/>
      <path id="Trazado_598931" data-name="Trazado 598931" d="M106.76,84.058l-22.7,22.7a16.114,16.114,0,0,0,1.365,1.222l22.559-22.559A16.123,16.123,0,0,0,106.76,84.058Z" transform="translate(-79.426 -79.426)" fill="#4ca220"/>
      <path id="Trazado_598932" data-name="Trazado 598932" d="M159.927,138.548a16.093,16.093,0,0,0-.877-1.6l-22.108,22.108a15.959,15.959,0,0,0,1.6.877Z" transform="translate(-129.396 -129.396)" fill="#4ca220"/>
      <path id="Trazado_598933" data-name="Trazado 598933" d="M28.816,19.794a16.1,16.1,0,0,0-9.022,9.022Z" transform="translate(-18.704 -18.704)" fill="#4ca220"/>
      <path id="Trazado_598934" data-name="Trazado 598934" d="M382.436,392.617a16.085,16.085,0,0,0,10.18-10.18Z" transform="translate(-361.361 -361.361)" fill="#4ca220"/>
      <path id="Trazado_598935" data-name="Trazado 598935" d="M220.714,200.477l-20.237,20.237a15.962,15.962,0,0,0,2.154.537l18.619-18.619A16.154,16.154,0,0,0,220.714,200.477Z" transform="translate(-189.429 -189.429)" fill="#4ca220"/>
    </g>
  </g>
</svg>
