<svg xmlns="http://www.w3.org/2000/svg" xmlns:xlink="http://www.w3.org/1999/xlink" width="170.617" height="170.616" viewBox="0 0 170.617 170.616">
  <defs>
    <filter id="Trazado_150709" x="0" y="0" width="170.617" height="170.616" filterUnits="userSpaceOnUse">
      <feOffset dx="5" dy="5" input="SourceAlpha"/>
      <feGaussianBlur stdDeviation="12.5" result="blur"/>
      <feFlood flood-opacity="0.161"/>
      <feComposite operator="in" in2="blur"/>
      <feComposite in="SourceGraphic"/>
    </filter>
    <clipPath id="clip-path">
      <rect id="Rectángulo_348316" data-name="Rectángulo 348316" width="96" height="96" fill="none"/>
    </clipPath>
  </defs>
  <g id="Grupo_1016738" data-name="Grupo 1016738" transform="translate(4846.312 7452.082)">
    <g id="Grupo_1016221" data-name="Grupo 1016221" transform="translate(-4827 -7432.593)">
      <path id="Trazado_150708" data-name="Trazado 150708" d="M121.286,55.711A60.746,60.746,0,1,1,55.711.213a60.746,60.746,0,0,1,65.575,55.5" transform="translate(0 121.498) rotate(-90)" fill="#304c8e"/>
      <g transform="matrix(1, 0, 0, 1, -19.31, -19.49)" filter="url(#Trazado_150709)">
        <path id="Trazado_150709-2" data-name="Trazado 150709" d="M95.449,43.844A47.805,47.805,0,1,1,43.843.167,47.806,47.806,0,0,1,95.449,43.844" transform="translate(32.5 128.12) rotate(-90)" fill="#fff"/>
      </g>
      <g id="Grupo_1016235" data-name="Grupo 1016235" transform="translate(13 12.593)">
        <g id="Grupo_1016234" data-name="Grupo 1016234" clip-path="url(#clip-path)">
          <path id="Trazado_611103" data-name="Trazado 611103" d="M96,48A48,48,0,1,1,48,0,48,48,0,0,1,96,48" fill="#dee9f0"/>
          <path id="Trazado_611104" data-name="Trazado 611104" d="M49.227,44.661a24.7,24.7,0,1,0-6.08,48.932A23.721,23.721,0,0,0,61.3,87.257c6.677-6.118,9.079-13.833,7.807-22.785h.347q1.51,0,3.021,0c1.03,0,1.487-.454,1.488-1.472,0-.316.022-.634-.006-.948s.066-.46.4-.548a15.277,15.277,0,0,0,3.965-1.658.354.354,0,0,1,.537.067c.312.348.647.678.993.994a1.013,1.013,0,0,0,1.481.019c.16-.136.308-.287.457-.436q1.739-1.739,3.476-3.479c.281-.281.57-.556.837-.852a1.047,1.047,0,0,0-.032-1.612c-.245-.252-.5-.5-.745-.746-.4-.4-.406-.406-.122-.887a16.127,16.127,0,0,0,1.545-3.826c.077-.269.187-.385.482-.362a10.474,10.474,0,0,0,1.159.005,1.226,1.226,0,0,0,1.309-1.33q.01-3.161,0-6.323a1.235,1.235,0,0,0-1.341-1.337c-.421-.008-.844.009-1.264-.011a.358.358,0,0,1-.27-.183,17.863,17.863,0,0,0-1.774-4.261.423.423,0,0,1,.066-.384c.295-.332.626-.631.934-.953a1.063,1.063,0,0,0,.009-1.691Q83.732,29.914,81.38,27.6a1.027,1.027,0,0,0-1.559-.007c-.334.31-.659.633-.97.967a.355.355,0,0,1-.515.078,11.053,11.053,0,0,0-1.423-.756c-.877-.35-1.776-.646-2.673-.946-.214-.072-.3-.162-.287-.391.02-.373.007-.749.005-1.124A1.262,1.262,0,0,0,72.553,24c-.913-.005-1.827,0-2.74,0-1.159,0-2.318-.008-3.478,0a1.246,1.246,0,0,0-1.371,1.378c0,.34-.024.681.006,1.019s-.084.482-.42.573a15,15,0,0,0-4.031,1.682.414.414,0,0,1-.379-.058c-.341-.3-.652-.638-.98-.956a1.022,1.022,0,0,0-1.651-.02q-2.331,2.314-4.639,4.65a1.05,1.05,0,0,0,0,1.662c.314.331.642.65.964.973.113.113.191.2.074.387a13.8,13.8,0,0,0-1.746,4.15.337.337,0,0,1-.412.3c-.409-.02-.82-.018-1.229,0a1.231,1.231,0,0,0-1.294,1.313c0,.141,0,.281,0,.421v3.181M35.737,27.375h-.421c-1.627,0-3.255.007-4.883,0a9.839,9.839,0,0,0-6.763,2.368A9.994,9.994,0,0,0,20,37.581q0,3.707,0,7.412c0,1.04.454,1.493,1.505,1.493q3,0,6.007,0c1.024,0,1.482-.458,1.482-1.477q0-3.2,0-6.393a2.211,2.211,0,0,1,2.244-2.245q2.072,0,4.144,0c.112,0,.225.011.356.016,0,.721-.009,1.411,0,2.1a1.135,1.135,0,0,0,.975,1.226,1.279,1.279,0,0,0,1.1-.511q3.176-3.183,6.356-6.362c.723-.723.725-1.2-.007-1.935q-2.855-2.856-5.714-5.711c-.3-.3-.586-.608-.9-.885a.968.968,0,0,0-1.481.118,1.867,1.867,0,0,0-.314.934c-.047.651-.014,1.308-.014,2.015m39.4,53.955c-.032-.048-.044-.058-.044-.067,0-.667,0-1.334-.012-2A1.182,1.182,0,0,0,74.09,78a1.2,1.2,0,0,0-1.067.488q-2.826,2.836-5.656,5.667c-.331.331-.671.654-.984,1a.957.957,0,0,0-.077,1.229,3.161,3.161,0,0,0,.391.448q2.94,2.945,5.884,5.886c.24.24.469.493.727.712a.946.946,0,0,0,1.309,0,1.271,1.271,0,0,0,.464-1.053c.005-.675,0-1.351,0-2.06h.411c1.358,0,2.716.027,4.073-.011a11.61,11.61,0,0,0,2.192-.243,10.126,10.126,0,0,0,7.936-9.9q.007-3.74,0-7.479c0-1.015-.463-1.475-1.485-1.476q-2.986,0-5.97,0c-1.1,0-1.538.438-1.539,1.529,0,2.107.006,4.214,0,6.321a2.226,2.226,0,0,1-1.984,2.257c-1.192.034-2.386.008-3.578.008" transform="translate(-6.849 -8.219)" fill="#fff"/>
          <path id="Trazado_611105" data-name="Trazado 611105" d="M49.248,44.66V41.48c0-.141,0-.281,0-.421a1.23,1.23,0,0,1,1.293-1.313c.409-.016.821-.019,1.229,0a.337.337,0,0,0,.412-.3A13.8,13.8,0,0,1,53.93,35.3c.118-.183.039-.274-.074-.387-.323-.324-.65-.642-.965-.973a1.051,1.051,0,0,1,0-1.663q2.308-2.336,4.639-4.65a1.022,1.022,0,0,1,1.651.02c.327.318.639.654.98.956a.413.413,0,0,0,.378.058,15.033,15.033,0,0,1,4.031-1.683c.336-.09.45-.235.42-.573s-.01-.679-.007-1.018a1.247,1.247,0,0,1,1.372-1.379c1.159-.011,2.318,0,3.477,0,.913,0,1.827,0,2.74,0a1.262,1.262,0,0,1,1.4,1.416c0,.375.015.75,0,1.124-.012.23.073.32.287.391.9.3,1.8.6,2.672.946a11.175,11.175,0,0,1,1.423.756.354.354,0,0,0,.515-.077q.468-.5.97-.967a1.027,1.027,0,0,1,1.56.007q2.349,2.319,4.674,4.661a1.062,1.062,0,0,1-.009,1.69c-.308.322-.638.621-.933.953a.422.422,0,0,0-.067.384,17.869,17.869,0,0,1,1.774,4.26.358.358,0,0,0,.27.184c.421.02.843,0,1.264.01a1.235,1.235,0,0,1,1.34,1.337q.011,3.161,0,6.323a1.225,1.225,0,0,1-1.31,1.33,10.475,10.475,0,0,1-1.159,0c-.3-.023-.405.092-.482.361a16.087,16.087,0,0,1-1.544,3.826c-.285.481-.281.484.122.888.248.249.5.493.744.745a1.048,1.048,0,0,1,.032,1.612c-.266.3-.556.569-.837.852q-1.737,1.74-3.476,3.478c-.149.149-.3.3-.458.437a1.013,1.013,0,0,1-1.481-.02c-.345-.316-.68-.646-.992-.994a.354.354,0,0,0-.537-.066A15.313,15.313,0,0,1,74.373,61.5c-.334.089-.427.229-.4.548s.006.632.006.948c0,1.017-.459,1.47-1.488,1.472q-1.511,0-3.021,0h-.347c1.272,8.953-1.13,16.667-7.807,22.785a23.723,23.723,0,0,1-18.148,6.337,24.7,24.7,0,1,1,6.08-48.933m4.721,8.894a18.063,18.063,0,1,0,6.173,6.177c-.311.364-.581.719-.892,1.035a1.1,1.1,0,0,1-1.771.027c-.51-.484-1.009-.977-1.507-1.474-1.011-1.009-2.028-2.013-3.022-3.038a1.1,1.1,0,0,1,.02-1.819c.305-.305.639-.582,1-.908M83.817,55.4c-.311-.322-.594-.632-.895-.924a1.131,1.131,0,0,1-.221-1.7A16.525,16.525,0,0,0,84.887,47.6a1.249,1.249,0,0,1,1.424-1.111c.381,0,.762,0,1.139,0V41.989h-1.1a1.293,1.293,0,0,1-1.485-1.169,12.784,12.784,0,0,0-.612-1.969c-.5-1.106-1.066-2.179-1.627-3.255a1.083,1.083,0,0,1,.216-1.51c.244-.236.477-.486.741-.7.243-.195.212-.334.008-.533-.777-.762-1.545-1.534-2.311-2.307-.212-.214-.406-.448-.636-.7-.349.354-.641.654-.938.949a1.135,1.135,0,0,1-1.737.2A14.75,14.75,0,0,0,72.9,28.845a1.26,1.26,0,0,1-1.168-1.477c0-.369,0-.738,0-1.1h-4.5c0,.357,0,.694,0,1.032,0,1-.262,1.346-1.241,1.559a15.353,15.353,0,0,0-4.884,2.063c-.871.544-1.193.519-1.927-.223-.27-.272-.519-.564-.763-.832l-3.271,3.256c.229.233.456.466.685.7.837.841.87,1.084.278,2.1l-.106.181a16.156,16.156,0,0,0-1.931,4.79,1.231,1.231,0,0,1-1.4,1.091c-.383,0-.765,0-1.153,0v4.495c.421,0,.817,0,1.214,0A1.166,1.166,0,0,1,54.044,47.5a17,17,0,0,0,2.294,5.39,1,1,0,0,1-.113,1.349,11.268,11.268,0,0,1-.86.876c-.183.168-.185.29-.014.46q1.418,1.412,2.825,2.835c.158.16.262.128.4-.022.254-.274.523-.536.793-.8a1.066,1.066,0,0,1,1.545-.163,16.8,16.8,0,0,0,5.206,2.2,1.256,1.256,0,0,1,1.113,1.424c0,.382,0,.763,0,1.138h4.5c0-.4,0-.777,0-1.151a1.236,1.236,0,0,1,1.092-1.4,16.923,16.923,0,0,0,5.239-2.211,1.051,1.051,0,0,1,1.539.162c.281.265.552.541.822.816.13.132.231.158.378.009,1-1.006,2-2,3.016-3.022M49.249,46.922A22.544,22.544,0,1,0,66.76,64.471c-.122,0-.249,0-.377,0a1.265,1.265,0,0,1-1.4-1.426c0-.4,0-.8,0-1.194,0-.083-.034-.221-.084-.239-.477-.166-.962-.311-1.534-.49a19.907,19.907,0,0,1,.5,14.439,19.475,19.475,0,0,1-9.184,11.051,20.232,20.232,0,0,1-28.5-25.7,19.412,19.412,0,0,1,8.037-9.219,20.165,20.165,0,0,1,18.349-1.4c-.1-.306-.173-.546-.247-.787s-.154-.508-.235-.776c-.522,0-1.025.01-1.527,0a1.236,1.236,0,0,1-1.3-1.269c-.006-.174,0-.348,0-.54" transform="translate(-6.871 -8.219)"/>
          <path id="Trazado_611106" data-name="Trazado 611106" d="M35.738,27.385c0-.707-.033-1.364.014-2.015a1.867,1.867,0,0,1,.314-.934.969.969,0,0,1,1.482-.118c.316.277.6.587.9.885q2.857,2.855,5.715,5.711c.731.731.729,1.212.006,1.935q-3.179,3.18-6.356,6.362a1.279,1.279,0,0,1-1.1.511A1.135,1.135,0,0,1,35.74,38.5c-.01-.689,0-1.379,0-2.1-.13-.006-.243-.016-.354-.016q-2.073,0-4.146,0a2.212,2.212,0,0,0-2.243,2.245q0,3.2,0,6.393c0,1.019-.459,1.477-1.483,1.477q-3,0-6.006,0C20.455,46.5,20,46.043,20,45q0-3.706,0-7.412a10,10,0,0,1,3.67-7.839,9.836,9.836,0,0,1,6.763-2.368c1.627.008,3.255,0,4.883,0h.421M38,27.873c-.006.072-.013.139-.016.205-.027,1.159-.431,1.557-1.581,1.557-2,0-4-.011-6.006.007a10.311,10.311,0,0,0-1.744.142,7.752,7.752,0,0,0-6.4,7.511c-.013,2.19,0,4.379,0,6.568v.365h4.495v-.4c0-1.768-.008-3.536,0-5.3a4.355,4.355,0,0,1,3.964-4.313c2.007-.114,4.024-.078,6.037-.072a1.193,1.193,0,0,1,1.237,1.289c0,.146,0,.291,0,.441l4.033-4.029L38,27.873" transform="translate(-6.85 -8.229)"/>
          <path id="Trazado_611107" data-name="Trazado 611107" d="M99.158,105.921c1.192,0,2.386.026,3.578-.008a2.226,2.226,0,0,0,1.984-2.257c.01-2.107,0-4.214,0-6.321,0-1.092.439-1.529,1.539-1.53q2.985,0,5.97,0c1.022,0,1.485.461,1.485,1.476q0,3.74,0,7.48a10.127,10.127,0,0,1-7.936,9.9,11.664,11.664,0,0,1-2.192.243c-1.356.037-2.715.011-4.073.011H99.1c0,.709,0,1.385,0,2.06a1.27,1.27,0,0,1-.464,1.053.947.947,0,0,1-1.309,0c-.256-.22-.487-.472-.727-.712q-2.942-2.942-5.884-5.886a3.161,3.161,0,0,1-.391-.448.957.957,0,0,1,.077-1.229c.313-.348.654-.671.984-1q2.829-2.834,5.657-5.667a1.2,1.2,0,0,1,1.066-.489,1.182,1.182,0,0,1,.99,1.259c.012.667.009,1.334.012,2,0,.009.012.018.044.067m-2.3,8.543c0-.2-.009-.365,0-.526a1.224,1.224,0,0,1,1.268-1.266c.117-.007.234,0,.351,0,1.721,0,3.442.009,5.162-.007a7.932,7.932,0,0,0,1.428-.138,7.754,7.754,0,0,0,6.4-7.758V98.084h-4.5c0,.274,0,.52,0,.765-.02,1.766.022,3.536-.076,5.3a4.057,4.057,0,0,1-3.509,3.863,44.311,44.311,0,0,1-5.428.124,1.144,1.144,0,0,1-1.1-1.261c0-.155,0-.311,0-.4l-4.046,3.973,4.048,4.02" transform="translate(-30.87 -32.81)"/>
          <path id="Trazado_611108" data-name="Trazado 611108" d="M57.431,67.6c-.36.326-.694.6-1,.908a1.1,1.1,0,0,0-.02,1.819c.994,1.025,2.011,2.029,3.022,3.038.5.5,1,.99,1.506,1.474a1.1,1.1,0,0,0,1.772-.028c.31-.316.581-.671.892-1.034A18,18,0,1,1,57.431,67.6m1.632,24.743c-.044-.049-.079-.094-.118-.133q-3.353-3.351-6.711-6.7a.327.327,0,0,1-.07-.471,3.872,3.872,0,0,0,.527-2.322.664.664,0,0,1,.218-.619c1.245-1.238,2.489-2.477,3.718-3.731a2.273,2.273,0,0,0,.527-.769c.377-1.043.706-2.1,1.062-3.154a1.073,1.073,0,0,0-.251-1.195,1.062,1.062,0,0,0-1.167-.239c-1,.331-2,.64-2.988,1a2.734,2.734,0,0,0-.935.585c-1.1,1.066-2.2,2.134-3.246,3.258a1.8,1.8,0,0,1-1.754.715,1.123,1.123,0,0,1-.544-.229c-.529-.5-1.026-1.026-1.546-1.533a1.611,1.611,0,0,0-.527-.4c-1.189-.418-2.381-.832-3.586-1.2a1,1,0,0,0-1.234.761,2.062,2.062,0,0,0,.088.892c.285.926.581,1.851.926,2.756a3.541,3.541,0,0,0,.642,1.022c.475.547,1.005,1.045,1.5,1.578a.689.689,0,0,1,.156.391,11.162,11.162,0,0,0,.053,1.218,4.379,4.379,0,0,0,4.91,3.6c.609-.135,1.2-.346,1.813-.526l7.021,6.926,1.518-1.5M47.106,71.758h2.211V67.3H47.106ZM32.5,84.114h4.453V81.908H32.5Zm31.435-2.2H59.483v2.206h4.453ZM47.114,98.727H49.32V94.274H47.114Z" transform="translate(-10.332 -22.269)" fill="#fff"/>
          <path id="Trazado_611109" data-name="Trazado 611109" d="M100.2,56.579c-1.018,1.018-2.021,2.016-3.016,3.022-.147.149-.249.123-.377-.009-.271-.276-.542-.551-.823-.816a1.051,1.051,0,0,0-1.539-.162,16.937,16.937,0,0,1-5.239,2.211,1.236,1.236,0,0,0-1.092,1.4c0,.374,0,.749,0,1.151H83.621c0-.374,0-.756,0-1.137a1.257,1.257,0,0,0-1.113-1.424,16.8,16.8,0,0,1-5.206-2.2,1.066,1.066,0,0,0-1.545.163c-.27.26-.539.521-.793.8-.139.15-.243.182-.4.022q-1.406-1.423-2.825-2.835c-.171-.17-.17-.292.014-.46a11.277,11.277,0,0,0,.861-.876,1,1,0,0,0,.112-1.349,17,17,0,0,1-2.294-5.39,1.166,1.166,0,0,0-1.308-1.017c-.4-.005-.793,0-1.214,0V43.173c.388,0,.771,0,1.153,0a1.231,1.231,0,0,0,1.4-1.091,16.153,16.153,0,0,1,1.931-4.789l.107-.182c.591-1.018.558-1.261-.279-2.1-.229-.23-.456-.464-.685-.7l3.271-3.256c.245.268.494.56.763.832.734.742,1.056.767,1.927.223a15.354,15.354,0,0,1,4.884-2.063c.979-.213,1.241-.562,1.241-1.559V27.456h4.495c0,.358,0,.727,0,1.1a1.26,1.26,0,0,0,1.168,1.477,14.738,14.738,0,0,1,5.071,2.144,1.135,1.135,0,0,0,1.737-.2c.3-.3.589-.6.938-.949.23.256.424.489.636.7.766.773,1.534,1.545,2.311,2.307.2.2.236.339-.008.533-.264.212-.5.462-.741.7a1.083,1.083,0,0,0-.216,1.51c.561,1.076,1.132,2.149,1.627,3.255A12.806,12.806,0,0,1,101.251,42a1.294,1.294,0,0,0,1.485,1.169h1.1v4.495c-.377,0-.758,0-1.139,0a1.249,1.249,0,0,0-1.424,1.111,16.525,16.525,0,0,1-2.186,5.173,1.131,1.131,0,0,0,.221,1.7c.3.292.584.6.895.924M98.234,45.422A12.354,12.354,0,1,0,85.677,57.764,12.389,12.389,0,0,0,98.234,45.422" transform="translate(-23.256 -9.403)" fill="#60cb28"/>
          <path id="Trazado_611110" data-name="Trazado 611110" d="M50.371,58.632c0,.191-.005.366,0,.54a1.236,1.236,0,0,0,1.3,1.269c.5.012,1,0,1.527,0,.081.268.156.522.235.776s.151.481.247.787a20.165,20.165,0,0,0-18.349,1.4A19.412,19.412,0,0,0,27.3,72.622a20.232,20.232,0,0,0,28.5,25.7,19.475,19.475,0,0,0,9.184-11.051,19.907,19.907,0,0,0-.5-14.439c.572.179,1.057.324,1.534.49.051.018.082.156.084.239.009.4,0,.8,0,1.194a1.265,1.265,0,0,0,1.4,1.426c.128,0,.255,0,.377,0A22.482,22.482,0,1,1,50.371,58.632" transform="translate(-7.993 -19.929)" fill="#ffe126"/>
          <path id="Trazado_611111" data-name="Trazado 611111" d="M39.174,29.874l4.016,3.971-4.033,4.029c0-.15,0-.3,0-.441a1.193,1.193,0,0,0-1.237-1.289c-2.013-.005-4.031-.041-6.037.072a4.355,4.355,0,0,0-3.964,4.313c-.011,1.768,0,3.536,0,5.3v.4H23.42v-.365c0-2.189-.011-4.379,0-6.568a7.752,7.752,0,0,1,6.4-7.511,10.311,10.311,0,0,1,1.744-.142c2-.017,4-.007,6.006-.007,1.15,0,1.554-.4,1.581-1.557,0-.066.01-.133.016-.205" transform="translate(-8.019 -10.231)" fill="#4ca220"/>
          <path id="Trazado_611112" data-name="Trazado 611112" d="M98.245,115.651l-4.048-4.02,4.046-3.973c0,.091,0,.247,0,.4a1.144,1.144,0,0,0,1.1,1.261,44.311,44.311,0,0,0,5.428-.124,4.057,4.057,0,0,0,3.509-3.863c.1-1.762.057-3.532.076-5.3,0-.245,0-.491,0-.765h4.5v6.681a7.754,7.754,0,0,1-6.4,7.758,7.932,7.932,0,0,1-1.428.138c-1.72.016-3.441.006-5.162.007-.117,0-.234,0-.351,0a1.224,1.224,0,0,0-1.268,1.266c-.01.161,0,.323,0,.526" transform="translate(-32.259 -33.997)" fill="#85ce5f"/>
          <path id="Trazado_611113" data-name="Trazado 611113" d="M64.4,96.471l-1.518,1.5-7.022-6.927c-.612.18-1.2.391-1.813.526a4.378,4.378,0,0,1-4.91-3.6,11.331,11.331,0,0,1-.053-1.218.689.689,0,0,0-.156-.391c-.493-.533-1.024-1.031-1.5-1.578a3.525,3.525,0,0,1-.642-1.022c-.345-.9-.642-1.829-.926-2.756a2.05,2.05,0,0,1-.089-.891,1,1,0,0,1,1.234-.761c1.205.367,2.4.78,3.586,1.2a1.611,1.611,0,0,1,.527.4c.519.507,1.017,1.037,1.546,1.533a1.123,1.123,0,0,0,.544.229,1.8,1.8,0,0,0,1.754-.715c1.042-1.124,2.144-2.192,3.246-3.258a2.74,2.74,0,0,1,.935-.585c.986-.362,1.992-.672,2.989-1a1.061,1.061,0,0,1,1.167.238,1.074,1.074,0,0,1,.25,1.195c-.356,1.051-.684,2.111-1.062,3.154a2.274,2.274,0,0,1-.526.769c-1.23,1.254-2.474,2.493-3.718,3.732a.664.664,0,0,0-.218.618,3.871,3.871,0,0,1-.527,2.323.326.326,0,0,0,.07.471q3.363,3.341,6.711,6.7c.039.04.074.084.118.134M53.518,89.4A2.244,2.244,0,0,0,55.79,87.2a2.273,2.273,0,0,0-2.158-2.317,2.256,2.256,0,1,0-.114,4.51m7.239-9.455a2.305,2.305,0,0,0-1.429.683c-.831.855-1.682,1.692-2.52,2.541-.513.519-.506.519.047,1.02.138.126.229.158.376.01q1.492-1.509,3-3.006a2.144,2.144,0,0,0,.53-1.248M48.595,82.194a3.161,3.161,0,0,0,1.536,2.112l.6-.629a2.964,2.964,0,0,0-2.132-1.483" transform="translate(-15.67 -26.391)"/>
          <rect id="Rectángulo_348312" data-name="Rectángulo 348312" width="2.211" height="4.453" transform="translate(36.773 45.036)"/>
          <rect id="Rectángulo_348313" data-name="Rectángulo 348313" width="4.453" height="2.206" transform="translate(22.169 59.639)"/>
          <rect id="Rectángulo_348314" data-name="Rectángulo 348314" width="4.453" height="2.206" transform="translate(49.151 59.648)"/>
          <rect id="Rectángulo_348315" data-name="Rectángulo 348315" width="2.206" height="4.453" transform="translate(36.782 72.005)"/>
          <path id="Trazado_611114" data-name="Trazado 611114" d="M101.161,48.343A12.354,12.354,0,1,1,88.768,35.985a12.356,12.356,0,0,1,12.393,12.358M88.508,58.44a10.113,10.113,0,1,0-9.824-10.79,10.118,10.118,0,0,0,9.824,10.79" transform="translate(-26.183 -12.324)"/>
          <path id="Trazado_611115" data-name="Trazado 611115" d="M56.409,93.471a2.256,2.256,0,1,1,2.272-2.192,2.262,2.262,0,0,1-2.272,2.192" transform="translate(-18.561 -30.466)" fill="#fff"/>
          <path id="Trazado_611116" data-name="Trazado 611116" d="M66.316,81.442a2.147,2.147,0,0,1-.529,1.248c-1,1-2,2-3,3.006-.147.148-.238.115-.375-.01-.552-.5-.56-.5-.047-1.02.838-.849,1.689-1.685,2.52-2.541a2.305,2.305,0,0,1,1.429-.683" transform="translate(-21.23 -27.891)" fill="#fff"/>
          <path id="Trazado_611117" data-name="Trazado 611117" d="M50.073,84.867a2.964,2.964,0,0,1,2.132,1.483l-.6.629a3.161,3.161,0,0,1-1.536-2.112" transform="translate(-17.148 -29.064)" fill="#fff"/>
          <path id="Trazado_611118" data-name="Trazado 611118" d="M89.659,59.6a10.091,10.091,0,0,1-9.824-10.79A10.132,10.132,0,1,1,89.659,59.6m-1.967-9.309c-.548-.571-1.019-1.095-1.525-1.579a.946.946,0,0,0-1.389-.036c-.819.785-1.618,1.592-2.405,2.41a.943.943,0,0,0-.075,1.228,2.989,2.989,0,0,0,.367.423q2.056,2.064,4.119,4.124a1.089,1.089,0,0,0,1.831.008q4.357-4.358,8.711-8.72a1.08,1.08,0,0,0,0-1.785c-.634-.64-1.276-1.274-1.909-1.914-.721-.729-1.211-.732-1.932-.009q-2.418,2.423-4.837,4.847c-.3.306-.6.625-.954,1" transform="translate(-27.334 -13.488)" fill="#fff"/>
          <path id="Trazado_611119" data-name="Trazado 611119" d="M88.884,52.649c.358-.377.65-.7.954-1q2.415-2.426,4.837-4.847c.721-.723,1.211-.72,1.932.009.634.64,1.276,1.273,1.909,1.914a1.08,1.08,0,0,1,0,1.785q-4.354,4.361-8.711,8.72a1.089,1.089,0,0,1-1.831-.008q-2.06-2.061-4.119-4.125a2.873,2.873,0,0,1-.367-.423.942.942,0,0,1,.075-1.228c.787-.818,1.586-1.625,2.405-2.41a.945.945,0,0,1,1.389.036c.507.485.976,1.008,1.525,1.579m-2.89,1.425,2.9,2.959,7.412-7.439-.692-.663c-.068.06-.149.125-.222.2q-2.767,2.77-5.53,5.542c-.751.756-1.218.754-1.978-.014-.41-.413-.838-.808-1.26-1.214l-.633.632" transform="translate(-28.527 -15.843)"/>
          <path id="Trazado_611120" data-name="Trazado 611120" d="M87.4,55.465l.633-.632c.422.406.85.8,1.26,1.214.76.768,1.227.77,1.978.014q2.76-2.776,5.53-5.542c.072-.073.153-.137.222-.2l.692.663L90.3,58.424l-2.9-2.959" transform="translate(-29.931 -17.234)" fill="#60cb28"/>
        </g>
      </g>
    </g>
    <g id="Group_43_" data-name="Group (43)" transform="translate(-4742 -7343.403)">
      <path id="Trazado_598926" data-name="Trazado 598926" d="M36.549,16.055,16.055,36.549a15.864,15.864,0,0,0,.655,1.582l21.422-21.42a15.863,15.863,0,0,0-1.582-.655Z" transform="translate(-15.17 -15.17)" fill="#4ca220"/>
      <path id="Trazado_598927" data-name="Trazado 598927" d="M18.367.8.8,18.367a16.022,16.022,0,0,0,.26,1.7L20.065,1.058A16.022,16.022,0,0,0,18.367.8Z" transform="translate(-0.754 -0.754)" fill="#4ca220"/>
      <path id="Trazado_598928" data-name="Trazado 598928" d="M299.7,283.668c0-.137-.008-.274-.01-.41l-16.454,16.453c.137,0,.273.01.41.01a16.091,16.091,0,0,0,1.678-.088l14.289-14.289a16.09,16.09,0,0,0,.088-1.678Z" transform="translate(-267.627 -267.648)" fill="#4ca220"/>
      <path id="Trazado_598929" data-name="Trazado 598929" d="M68.634,46.122q-.611-.481-1.267-.9L45.2,67.389q.42.656.9,1.267Z" transform="translate(-42.708 -42.73)" fill="#4ca220"/>
      <path id="Trazado_598930" data-name="Trazado 598930" d="M0,15.009,15.009,0c-.434.026-.863.07-1.287.131L.131,13.722C.07,14.145.026,14.575,0,15.009Z" fill="#4ca220"/>
      <path id="Trazado_598931" data-name="Trazado 598931" d="M106.76,84.058l-22.7,22.7a16.114,16.114,0,0,0,1.365,1.222l22.559-22.559A16.123,16.123,0,0,0,106.76,84.058Z" transform="translate(-79.426 -79.426)" fill="#4ca220"/>
      <path id="Trazado_598932" data-name="Trazado 598932" d="M159.927,138.548a16.093,16.093,0,0,0-.877-1.6l-22.108,22.108a15.959,15.959,0,0,0,1.6.877Z" transform="translate(-129.396 -129.396)" fill="#4ca220"/>
      <path id="Trazado_598933" data-name="Trazado 598933" d="M28.816,19.794a16.1,16.1,0,0,0-9.022,9.022Z" transform="translate(-18.704 -18.704)" fill="#4ca220"/>
      <path id="Trazado_598934" data-name="Trazado 598934" d="M382.436,392.617a16.085,16.085,0,0,0,10.18-10.18Z" transform="translate(-361.361 -361.361)" fill="#4ca220"/>
      <path id="Trazado_598935" data-name="Trazado 598935" d="M220.714,200.477l-20.237,20.237a15.962,15.962,0,0,0,2.154.537l18.619-18.619A16.154,16.154,0,0,0,220.714,200.477Z" transform="translate(-189.429 -189.429)" fill="#4ca220"/>
    </g>
  </g>
</svg>
