<svg id="Grupo_1016599" data-name="Grupo 1016599" xmlns="http://www.w3.org/2000/svg" xmlns:xlink="http://www.w3.org/1999/xlink" width="225" height="225" viewBox="0 0 225 225">
  <defs>
    <clipPath id="clip-path">
      <rect id="Rectángulo_348888" data-name="Rectángulo 348888" width="225" height="225" fill="none"/>
    </clipPath>
  </defs>
  <g id="Grupo_1016598" data-name="Grupo 1016598" clip-path="url(#clip-path)">
    <path id="Trazado_637021" data-name="Trazado 637021" d="M225,112.5A112.5,112.5,0,1,1,112.5,0,112.5,112.5,0,0,1,225,112.5" fill="#4ca220"/>
    <path id="Trazado_637022" data-name="Trazado 637022" d="M160.64,97.042c-.684-1.083-1.29-2.053-1.906-3.016-.522-.815-.522-.8.3-1.316,2.188-1.362,4.374-2.731,6.611-4.13.136.2.264.371.378.552,2.486,3.95,4.978,7.9,7.442,11.86a1.044,1.044,0,0,1,.043.9c-2.475,4.041-4.982,8.063-7.487,12.088a4.628,4.628,0,0,1-.358.433l-7.4-4.66c.808-1.279,1.57-2.489,2.415-3.825H102.864v57.736c1.307-.8,2.509-1.532,3.8-2.319,1.546,2.478,3.071,4.927,4.645,7.45-.5.331-.935.635-1.385.918-3.662,2.3-7.328,4.589-10.982,6.9a.846.846,0,0,1-1.056-.009q-5.855-3.7-11.74-7.356c-.624-.387-.606-.657-.22-1.234,1.265-1.9,2.455-3.851,3.677-5.781.182-.287.373-.567.586-.889l3.77,2.4c.022-.384.049-.656.049-.929q0-15.416,0-30.834,0-12.652.018-25.3c0-.644-.151-.823-.815-.823q-28.214.032-56.43.023c-.168,0-.336.019-.66.035.806,1.3,1.558,2.521,2.372,3.836l-7.288,4.629c-.18-.228-.314-.367-.415-.527-2.453-3.913-4.893-7.833-7.362-11.735a1.057,1.057,0,0,1,.015-1.322c2.433-3.837,4.837-7.695,7.252-11.544.126-.2.276-.393.469-.666L38.58,93.2c-.787,1.265-1.541,2.48-2.367,3.808.427.022.734.051,1.042.051q19.4.012,38.8.017c5.754,0,11.507-.008,17.262.011.536,0,.706-.111.7-.687Q94,69.028,94.011,41.66V39.207c-1.332.846-2.537,1.612-3.811,2.424-1.572-2.487-3.122-4.944-4.72-7.476.388-.247.772-.5,1.16-.74q5.68-3.565,11.369-7.114a.874.874,0,0,1,.767-.028q6.2,3.851,12.36,7.753a1.323,1.323,0,0,1,.2.217l-4.642,7.406-3.783-2.362a2.653,2.653,0,0,0-.116.522q0,27.994.018,55.99c0,1.271,0,1.278,1.27,1.276q28.033,0,56.064-.011c.1,0,.194-.009.5-.023" transform="translate(12.556 14.175)"/>
    <path id="Trazado_637023" data-name="Trazado 637023" d="M86.037,26.047h53.881V73.232h-.761q-26.112,0-52.225.014c-.669,0-.943-.116-.942-.871q.032-22.83.017-45.66c0-.193.017-.387.029-.669m8.753,38.276h36.293V34.87h-.606q-17.483,0-34.964-.015c-.669,0-.749.26-.747.821q.028,13.387.025,26.777v1.871" transform="translate(46.529 14.094)"/>
    <path id="Trazado_637024" data-name="Trazado 637024" d="M139.938,93.459v47.17H86.969c-.966,0-.966,0-.966-.966q0-22.717,0-45.436v-.767Zm-8.875,38.281v-29.45c-.176-.009-.3-.022-.418-.022q-17.592,0-35.185-.017c-.658,0-.7.287-.7.8q.023,13.9.028,27.809v.885Z" transform="translate(46.535 50.57)"/>
    <path id="Trazado_637025" data-name="Trazado 637025" d="M23,73.244V26.026H75.961c1,0,.991,0,.991,1.011q0,22.68.008,45.361c0,.623-.123.86-.8.86q-26.295-.025-52.59-.014ZM68.134,34.93H31.88V64.344H68.134Z" transform="translate(12.445 14.083)"/>
    <path id="Trazado_637026" data-name="Trazado 637026" d="M23,140.646V93.428H75.991c.968,0,.959,0,.959.969q0,22.717.011,45.435c0,.666-.2.826-.838.826q-26.219-.023-52.44-.012Zm8.852-8.915H68.115V102.323H31.856Z" transform="translate(12.447 50.554)"/>
    <path id="Trazado_637027" data-name="Trazado 637027" d="M91.711,61.231V59.36q-.009-13.389-.025-26.777c0-.562.077-.823.747-.821q17.481.032,34.963.015H128V61.231Zm18.18-19.091v-.018c-2.849,0-5.7.006-8.55-.006-.458,0-.743.06-.737.629.023,2.529.02,5.061.012,7.591,0,.442.168.613.607.612q8.659-.016,17.319-.014c.521,0,.661-.213.657-.71q-.032-3.722,0-7.445c0-.533-.183-.653-.686-.649-2.874.022-5.75.011-8.624.011" transform="translate(49.611 17.186)" fill="#fff"/>
    <path id="Trazado_637028" data-name="Trazado 637028" d="M127.985,128.652H91.717v-.885q-.012-13.9-.029-27.808c0-.509.037-.8.7-.8q17.592.032,35.185.017c.122,0,.242.011.416.02Zm-8.8-19.023a1.957,1.957,0,0,0-.336-.085q-8.807-.014-17.615-.029c-.562,0-.635.27-.632.732.017,2.433.037,4.865,0,7.3-.009.683.25.818.865.811,2.383-.031,4.765-.018,7.149-.02,3.242,0,6.485-.012,9.727.014.683.006.882-.233.854-.9-.051-1.227-.014-2.457-.014-3.685v-4.135" transform="translate(49.612 53.658)" fill="#ffe126"/>
    <path id="Trazado_637029" data-name="Trazado 637029" d="M65.017,61.217H28.763V31.8H65.017ZM46.778,50.9v.022c2.876,0,5.751-.009,8.629.008.465,0,.747-.069.743-.624-.019-2.532-.019-5.064-.019-7.6,0-.416-.122-.618-.593-.616q-8.664.023-17.33.009c-.522,0-.666.193-.661.7.022,2.458.028,4.916,0,7.374-.006.589.17.747.754.741,2.826-.031,5.654-.014,8.481-.014" transform="translate(15.564 17.209)" fill="#ffe126"/>
    <path id="Trazado_637030" data-name="Trazado 637030" d="M28.748,99.2H65.007v29.407H28.748Zm8.82,10.385c0,2.819,0,5.57,0,8.32,0,.521.4.395.7.4,5.677.009,11.356,0,17.034.04.715,0,.871-.239.861-.889-.032-2.384-.032-4.768-.015-7.152,0-.581-.137-.812-.783-.809-5.6.026-11.208.017-16.813.022-.311,0-.621.045-.983.072" transform="translate(15.555 53.677)" fill="#fff"/>
    <path id="Trazado_637031" data-name="Trazado 637031" d="M106.76,38.5c2.874,0,5.75.011,8.624-.011.5,0,.69.116.686.649q-.037,3.722,0,7.445c0,.5-.136.71-.657.71q-8.659-.007-17.319.014c-.439,0-.609-.17-.607-.612.008-2.53.011-5.062-.012-7.591-.006-.569.279-.63.737-.629,2.849.012,5.7.006,8.55.006Z" transform="translate(52.742 20.821)"/>
    <path id="Trazado_637032" data-name="Trazado 637032" d="M116.058,106v4.135c0,1.228-.037,2.458.014,3.685.028.667-.171.906-.854.9-3.242-.026-6.485-.014-9.727-.014-2.384,0-4.767-.011-7.149.02-.615.008-.874-.128-.865-.811.035-2.432.015-4.864,0-7.3,0-.462.069-.735.632-.732q8.807.028,17.615.029a1.958,1.958,0,0,1,.336.085" transform="translate(52.743 57.292)"/>
    <path id="Trazado_637033" data-name="Trazado 637033" d="M43.7,47.286c-2.826,0-5.654-.017-8.481.014-.584.006-.76-.153-.754-.741.031-2.458.025-4.916,0-7.374,0-.5.139-.7.661-.7q8.664.014,17.33-.009c.472,0,.595.2.593.616,0,2.532,0,5.064.018,7.6,0,.555-.277.626-.743.624-2.877-.017-5.753-.008-8.629-.008v-.022" transform="translate(18.647 20.821)"/>
    <path id="Trazado_637034" data-name="Trazado 637034" d="M34.471,105.972c.362-.028.672-.071.983-.072,5.6,0,11.21,0,16.813-.022.646,0,.787.228.783.809-.017,2.384-.017,4.768.015,7.152.009.65-.146.894-.861.889-5.677-.039-11.356-.031-17.034-.04-.3,0-.7.125-.7-.4,0-2.751,0-5.5,0-8.32" transform="translate(18.652 57.29)"/>
  </g>
</svg>
