<svg xmlns="http://www.w3.org/2000/svg" xmlns:xlink="http://www.w3.org/1999/xlink" width="170.617" height="170.616" viewBox="0 0 170.617 170.616">
  <defs>
    <filter id="Trazado_150709" x="0" y="0" width="170.617" height="170.616" filterUnits="userSpaceOnUse">
      <feOffset dx="5" dy="5" input="SourceAlpha"/>
      <feGaussianBlur stdDeviation="12.5" result="blur"/>
      <feFlood flood-opacity="0.161"/>
      <feComposite operator="in" in2="blur"/>
      <feComposite in="SourceGraphic"/>
    </filter>
    <clipPath id="clip-path">
      <rect id="Rectángulo_348309" data-name="Rectángulo 348309" width="99" height="99" fill="none"/>
    </clipPath>
  </defs>
  <g id="Grupo_1016736" data-name="Grupo 1016736" transform="translate(5581.561 7452.082)">
    <g id="Grupo_1016222" data-name="Grupo 1016222" transform="translate(-5562 -7432.522)">
      <path id="Trazado_150708" data-name="Trazado 150708" d="M121.286,55.711A60.746,60.746,0,1,1,55.711.213a60.746,60.746,0,0,1,65.575,55.5" transform="translate(0 121.021) rotate(-90)" fill="#304c8e"/>
      <g transform="matrix(1, 0, 0, 1, -19.56, -19.56)" filter="url(#Trazado_150709)">
        <path id="Trazado_150709-2" data-name="Trazado 150709" d="M95.449,43.844A47.805,47.805,0,1,1,43.843.167,47.806,47.806,0,0,1,95.449,43.844" transform="translate(32.5 128.12) rotate(-90)" fill="#fff"/>
      </g>
      <g id="Grupo_1016229" data-name="Grupo 1016229" transform="translate(11 11.523)">
        <g id="Grupo_1016228" data-name="Grupo 1016228" clip-path="url(#clip-path)">
          <path id="Trazado_611059" data-name="Trazado 611059" d="M0,49.207A49.207,49.207,0,1,0,49.207,0,49.207,49.207,0,0,0,0,49.207" transform="translate(0.648 -0.062)" fill="#dee9f0"/>
          <path id="Trazado_611060" data-name="Trazado 611060" d="M21.791,86.362V88.53H91.518V86.352H65.648v-.436c0-2.4.012-4.8-.007-7.2a4.433,4.433,0,0,1,.617-2.259c1.169-2.067,2.349-4.127,3.5-6.2.437-.789.839-1.6,1.2-2.431a5.819,5.819,0,0,0,.336-2.4c0-.506,0-1.012,0-1.568H85.911V26.224c0-.407-.02-.816,0-1.222.017-.3-.082-.4-.382-.393-1.385.011-2.77,0-4.156,0H78.029v-5.6h-.418q-5.585,0-11.171,0a11.017,11.017,0,0,0-6.334,1.716,10.364,10.364,0,0,0-3.26,3.5c-.054.094-.113.186-.183.3-.307-.466-.574-.923-.889-1.345A10.021,10.021,0,0,0,48.709,19.1a15.591,15.591,0,0,0-1.87-.092C43.127,19,39.415,19.011,35.7,19c-.324,0-.427.084-.423.414.016,1.652,0,3.3.014,4.956,0,.269-.127.255-.314.254q-3.541-.008-7.083-.007c-.479,0-.48.01-.481.486q-.008,18.64-.016,37.28c0,.385.019.77,0,1.154-.014.262.088.33.332.328,1.124-.007,2.247,0,3.372,0q5.3,0,10.592,0c.278,0,.34.07.338.338a9.977,9.977,0,0,0,.589,4.532c.371.786.679,1.6,1.032,2.4q1.042,2.357,2.1,4.705c.1.226.224.443.332.666a4.927,4.927,0,0,1,.475,2.233q-.026,3.616-.01,7.231c0,.274-.064.342-.335.342q-9.52,0-19.038.01-2.384,0-4.768.009c-.2,0-.4.021-.62.033m35.953-48.3c.008-.124.019-.213.019-.3,0-2.908-.007-5.817.008-8.725a7.791,7.791,0,0,1,7.522-7.754c3.346-.092,6.7-.037,10.045-.042.442,0,.442.011.443.449q0,11,.007,22,0,6.452,0,12.9c0,.649,0,.554-.541.553-1.113,0-2.225,0-3.338,0-.2,0-.4-.018-.62-.029v-.444q0-3.972,0-7.945c0-.61-.021-1.221-.05-1.831A2.105,2.105,0,0,0,70.6,45.5a2.588,2.588,0,0,0-2.53-.593A6.75,6.75,0,0,0,62.313,51.5c-.063,1.763-.02,3.529-.013,5.295,0,.266-.04.377-.351.37-1.225-.026-2.452-.024-3.678-.026-.557,0-.49.063-.507-.514,0-.012,0-.023,0-.034q0-7.927,0-15.855c0-.129-.014-.26-.022-.407-.629,0-1.219.022-1.807-.009-.323-.018-.4.08-.4.39q.016,7.842.016,15.685v.74H54.92l-15.7,0c-.466,0-.932-.02-1.4,0-.257.013-.314-.08-.3-.309s.005-.452.005-.679q0-17.126,0-34.252v-.634c.1-.016.148-.028.192-.028,3.1-.012,6.2-.029,9.3-.032a8.593,8.593,0,0,1,4.4.977,7.406,7.406,0,0,1,4.062,6.3c.14,3.061.055,6.132.067,9.2,0,.068-.026.146,0,.2s.1.166.157.167c.667.011,1.334.007,2.042.007M56.683,69.467c.636,0,1.236-.014,1.835.007.295.01.383-.075.391-.378a11.678,11.678,0,0,1,2.628-7.264c.826-1.015,1.805-1.906,2.732-2.837a.925.925,0,0,0,.295-.716c-.009-2.286,0-4.572-.007-6.857a4.18,4.18,0,0,1,1.169-2.953,4.537,4.537,0,0,1,3.316-1.442V48.6q0,8.538.009,17.075a4.766,4.766,0,0,1-.621,2.431c-1.153,2.024-2.31,4.046-3.428,6.09-.491.9-.913,1.84-1.318,2.783-.113.264-.2.365-.493.363-2.2-.013-4.4-.011-6.606-.011h-7.56c-.177,0-.338.03-.417-.227a16.288,16.288,0,0,0-.64-1.816c-1.057-2.411-2.15-4.806-3.2-7.221a5.87,5.87,0,0,1-.453-1.652c-.082-.715-.016-1.447-.047-2.169-.013-.3.066-.382.371-.382q3.1.006,6.2-.029c.26,0,.337.1.427.32a9.316,9.316,0,0,0,.8,1.711A5.423,5.423,0,0,0,56.4,68.314c.243.017.34.073.3.346a5.022,5.022,0,0,0-.009.807M35.277,26.9v.5q.005,10.693.008,21.388,0,4.854-.011,9.709c0,.892-.016.9.888.9H60.719c-.175.221-.284.373-.407.515a14.018,14.018,0,0,0-2.379,3.774c-.277.667-.5,1.358-.734,2.039-.075.215-.15.376-.435.382a3.336,3.336,0,0,1-3.453-3.134c-.027-.424,0-.851,0-1.311H29.7V26.9ZM71.311,59.394h.4c1.986,0,3.973-.007,5.959,0,.273,0,.372-.068.371-.36q-.011-15.97-.005-31.941a1.272,1.272,0,0,1,.026-.182h5.542V61.629H71.311ZM63.422,81.829h-.387q-4.7,0-9.4-.009c-.276,0-.385.067-.372.357.022.486.025.974,0,1.459-.013.315.072.433.415.431,3.133-.015,6.265-.012,9.4-.014.107,0,.215.012.362.021,0,.626,0,1.213,0,1.8,0,.435,0,.439-.444.439l-13.417.02h-.8V84.062c.642,0,1.255-.019,1.866.007.311.013.4-.1.382-.384-.019-.4,0-.792,0-1.188,0-.22,0-.44,0-.675-.712,0-1.347.007-1.982-.008-.1,0-.278-.109-.28-.171-.02-.675-.013-1.351-.013-2.04H63.422Z" transform="translate(-7.145 -6.255)"/>
          <path id="Trazado_611061" data-name="Trazado 611061" d="M65.347,39.125c-.708,0-1.376,0-2.043-.007-.055,0-.126-.1-.156-.167s0-.133,0-.2c-.013-3.066.072-6.137-.067-9.2a7.406,7.406,0,0,0-4.062-6.3,8.593,8.593,0,0,0-4.4-.977c-3.1,0-6.2.02-9.3.032a1.676,1.676,0,0,0-.192.028v.633l0,34.252c0,.226.013.454-.005.679s.038.322.3.309c.464-.022.93,0,1.4,0l15.7,0h.628v-.74q-.005-7.842-.016-15.686c0-.309.082-.406.4-.389.587.032,1.178.009,1.807.009.008.148.022.278.022.408q0,7.927,0,15.854c0,.011,0,.023,0,.034.017.577-.051.513.507.514,1.226,0,2.452,0,3.678.027.309.007.352-.1.351-.371-.007-1.765-.051-3.532.013-5.3a6.75,6.75,0,0,1,5.755-6.592,2.589,2.589,0,0,1,2.53.594,2.1,2.1,0,0,1,.638,1.387c.029.61.049,1.221.05,1.831q.007,3.973,0,7.945v.444c.222.011.421.029.62.03,1.113,0,2.225,0,3.338,0,.545,0,.541.1.541-.552q0-6.451,0-12.9,0-11-.007-22c0-.438,0-.45-.443-.449-3.349.006-6.7-.049-10.045.043a7.69,7.69,0,0,0-7.36,6.205,7.6,7.6,0,0,0-.162,1.548c-.015,2.909-.007,5.817-.008,8.725,0,.089-.011.178-.019.3M54.132,34.66c-2.144,0-4.288-.006-6.433.008-.284,0-.347-.091-.34-.346.015-.52.018-1.041,0-1.56-.009-.267.073-.342.346-.342q6.433.007,12.866-.011c.266,0,.329.1.322.34-.016.52-.034,1.041,0,1.56.017.3-.078.358-.356.357-2.133-.01-4.266-.005-6.4,0m27,8.942a.648.648,0,0,1-.107.028q-6.556,0-13.112,0c-.239,0-.29-.1-.285-.309.011-.532.027-1.064.013-1.6-.007-.28.1-.336.361-.335q6.386.01,12.772,0c.119,0,.239.014.358.022ZM47.378,44.75h12.8a3.045,3.045,0,0,1,.509.02c.077.013.2.1.2.16.014.664.009,1.329.009,2.016H47.378Zm33.765-14.6c-.146.006-.257.016-.369.016H71.246c-1.1,0-2.2,0-3.3-.008-.1,0-.291-.1-.293-.161-.021-.672-.013-1.345-.013-2.02h13.5ZM47.388,27.972H60.879v2.158H47.388Zm33.751,8.964v2.2H80.8q-5.035-.013-10.071-.024c-.918,0-1.837.014-2.756.02-.14,0-.324.051-.326-.181,0-.664,0-1.327,0-2.011Zm-33.763,0h13.5c0,.564,0,1.1,0,1.645s0,.548-.57.547l-12.464-.015h-.471Zm13.5,18.984H47.39V53.756h13.49Zm19.133-23.5c0,.713-.009,1.345.006,1.977,0,.194-.045.266-.241.264-.578-.007-1.157-.011-1.735,0-.229,0-.3-.1-.294-.307q.014-.644.011-1.289c0-.629-.005-.634.629-.642.54-.007,1.081,0,1.624,0m-5.67.009V32.42c.272,0,.545.021.814-.005s.361.06.352.331q-.026.811,0,1.624c.007.231-.081.295-.294.292-.566-.009-1.132-.011-1.7,0-.216,0-.272-.088-.27-.282.007-.564.009-1.128,0-1.691,0-.211.08-.274.282-.263.27.016.543,0,.814,0M48.5,49.231c.684,0,1.316.01,1.949-.005.253-.006.313.1.31.323-.007.543-.01,1.085,0,1.628,0,.216-.062.305-.29.3-.578-.009-1.157.007-1.734-.008-.08,0-.224-.124-.226-.194-.018-.654-.01-1.308-.01-2.044m22.5-15.7H71c0,.282-.011.565,0,.847.01.191-.057.267-.247.266q-.866,0-1.732.009c-.183,0-.272-.066-.27-.257.007-.576,0-1.151.024-1.726A.333.333,0,0,1,69,32.439c.577-.024,1.155-.014,1.732-.023.222,0,.3.088.281.308-.019.27,0,.541,0,.812M58.591,51.473v0c-.271,0-.543-.013-.814,0-.216.014-.276-.067-.272-.271.011-.552.017-1.105,0-1.658-.007-.242.086-.32.311-.317.543.005,1.086.011,1.629-.006.251-.008.314.1.311.32-.007.541-.01,1.083,0,1.624,0,.216-.061.312-.287.3-.294-.011-.588,0-.882,0M55.248,49.26v2.214c-.695,0-1.372.005-2.05-.008a.262.262,0,0,1-.178-.184c-.013-.665-.008-1.331-.008-2.022Z" transform="translate(-14.748 -7.322)" fill="#fff"/>
          <path id="Trazado_611062" data-name="Trazado 611062" d="M67.537,83.018a5.03,5.03,0,0,1,.009-.808c.044-.273-.053-.329-.3-.345a5.427,5.427,0,0,1-4.336-2.445,9.292,9.292,0,0,1-.8-1.711c-.09-.217-.168-.323-.427-.32q-3.1.032-6.2.029c-.3,0-.384.08-.371.382.031.723-.034,1.454.047,2.169a5.886,5.886,0,0,0,.452,1.652c1.048,2.415,2.142,4.81,3.2,7.221a16.158,16.158,0,0,1,.641,1.816c.078.257.24.227.417.227h7.56c2.2,0,4.4,0,6.606.011.288,0,.38-.1.493-.363.405-.942.826-1.883,1.318-2.782,1.118-2.044,2.274-4.066,3.428-6.09a4.77,4.77,0,0,0,.621-2.43q-.017-8.538-.009-17.076V60.578a4.529,4.529,0,0,0-3.316,1.441,4.178,4.178,0,0,0-1.169,2.952c.007,2.286,0,4.572.007,6.857a.921.921,0,0,1-.294.716c-.927.931-1.906,1.823-2.732,2.837a11.68,11.68,0,0,0-2.628,7.264c-.008.3-.1.388-.391.378-.6-.02-1.2-.006-1.835-.006" transform="translate(-17.999 -19.806)" fill="#fff"/>
          <path id="Trazado_611063" data-name="Trazado 611063" d="M73.062,30.719H67.483V65.475H91.092c0,.461-.023.888,0,1.312a3.336,3.336,0,0,0,3.453,3.134c.284-.006.359-.167.435-.382.238-.681.456-1.372.734-2.038A14,14,0,0,1,98.1,63.726c.122-.142.233-.295.406-.515H73.947c-.9,0-.891,0-.888-.9q.014-4.853.012-9.709,0-10.693-.008-21.387v-.5" transform="translate(-44.929 -10.075)" fill="#fff"/>
          <path id="Trazado_611064" data-name="Trazado 611064" d="M33.53,63.218v2.235H45.824V30.735H40.282a1.248,1.248,0,0,0-.026.181q0,15.97.005,31.941c0,.293-.1.362-.371.361-1.986-.007-3.972,0-5.959,0h-.4" transform="translate(30.636 -10.08)" fill="#fff"/>
          <path id="Trazado_611065" data-name="Trazado 611065" d="M78.106,111.132v-2.225H63.44c0,.689-.007,1.364.013,2.04,0,.062.181.169.28.171.634.015,1.269.008,1.982.008,0,.235,0,.456,0,.675,0,.4-.015.793,0,1.188.013.289-.071.4-.382.384-.611-.026-1.223-.007-1.866-.007v2.271h.8l13.417-.02c.448,0,.445,0,.444-.439,0-.587,0-1.174,0-1.8-.147-.009-.255-.021-.362-.021-3.133,0-6.266,0-9.4.014-.343,0-.428-.115-.415-.431.02-.485.018-.973,0-1.459-.013-.291.1-.359.372-.357q4.7.014,9.4.009h.387" transform="translate(-21.829 -35.558)" fill="#fff"/>
          <path id="Trazado_611066" data-name="Trazado 611066" d="M85.279,39.56c2.133,0,4.266,0,6.4.006.277,0,.372-.057.355-.357-.03-.518-.01-1.04.005-1.56.007-.239-.056-.339-.322-.338q-6.433.015-12.865.01c-.272,0-.356.075-.346.342.018.519.016,1.04,0,1.56-.007.255.056.348.34.346,2.144-.013,4.288-.007,6.433-.009" transform="translate(-45.895 -12.223)"/>
          <path id="Trazado_611067" data-name="Trazado 611067" d="M61.978,52.847V50.665c-.119-.007-.239-.022-.358-.022q-6.386,0-12.772,0c-.26,0-.369.055-.361.335.013.531,0,1.064-.013,1.6,0,.2.046.309.284.309q6.556-.008,13.113,0a.648.648,0,0,0,.107-.028" transform="translate(4.41 -16.567)"/>
          <path id="Trazado_611068" data-name="Trazado 611068" d="M78.494,55.617v2.2H92.015c0-.688.005-1.352-.009-2.017,0-.057-.123-.148-.2-.16a3.045,3.045,0,0,0-.509-.02h-12.8" transform="translate(-45.864 -18.189)"/>
          <path id="Trazado_611069" data-name="Trazado 611069" d="M61.968,32.9V30.729h-13.5c0,.675-.007,1.348.013,2.021,0,.059.191.16.293.161,1.1.011,2.2.007,3.3.007H61.6c.112,0,.224-.009.369-.016" transform="translate(4.428 -10.078)"/>
          <rect id="Rectángulo_348307" data-name="Rectángulo 348307" width="13.491" height="2.158" transform="translate(32.641 20.651)"/>
          <path id="Trazado_611070" data-name="Trazado 611070" d="M61.965,44.026h-13.5c0,.684,0,1.348,0,2.012,0,.233.185.181.326.181.919-.005,1.837-.021,2.756-.02q5.036.008,10.071.024h.342Z" transform="translate(4.427 -14.412)"/>
          <path id="Trazado_611071" data-name="Trazado 611071" d="M78.522,44.029v2.177h.472l12.463.015c.57,0,.57,0,.57-.547V44.029Z" transform="translate(-45.893 -14.413)"/>
          <rect id="Rectángulo_348308" data-name="Rectángulo 348308" width="13.49" height="2.166" transform="translate(32.643 46.434)"/>
          <path id="Trazado_611072" data-name="Trazado 611072" d="M52.393,37.325c-.544,0-1.084-.006-1.624,0-.634.009-.632.014-.629.642,0,.429,0,.859-.011,1.289,0,.209.065.311.294.308.578-.009,1.157-.007,1.735,0,.2,0,.245-.07.241-.264-.015-.632-.005-1.264-.005-1.978" transform="translate(12.873 -12.227)"/>
          <path id="Trazado_611073" data-name="Trazado 611073" d="M57.916,37.33c-.272,0-.543.011-.814,0-.2-.011-.286.051-.282.263.009.564.007,1.128,0,1.691,0,.193.053.286.269.282.566-.011,1.131-.009,1.7,0,.213,0,.3-.061.294-.292q-.024-.812,0-1.624c.009-.271-.081-.358-.352-.331s-.542.005-.814.005v.009" transform="translate(1.679 -12.223)"/>
          <path id="Trazado_611074" data-name="Trazado 611074" d="M93.53,62.263c0,.737-.007,1.391.01,2.045,0,.069.146.191.226.193.578.016,1.157,0,1.734.008.228,0,.294-.085.29-.3-.011-.543-.009-1.085,0-1.628,0-.221-.057-.329-.31-.323-.632.016-1.265.005-1.949.005" transform="translate(-59.773 -20.354)"/>
          <path id="Trazado_611075" data-name="Trazado 611075" d="M65.742,38.44c0-.271-.014-.543,0-.812.015-.22-.059-.311-.281-.308-.578.009-1.156,0-1.732.022a.335.335,0,0,0-.225.237c-.024.575-.016,1.151-.023,1.726,0,.191.087.26.27.257q.866-.011,1.732-.009c.19,0,.257-.075.247-.266-.015-.282,0-.564,0-.847h.011" transform="translate(-9.48 -12.226)"/>
          <path id="Trazado_611076" data-name="Trazado 611076" d="M81.27,64.506c.294,0,.588-.008.882,0,.226.009.291-.088.286-.3-.012-.541-.009-1.083,0-1.624,0-.221-.061-.328-.311-.32-.543.018-1.086.011-1.629.006-.226,0-.319.075-.312.317.016.552.01,1.105,0,1.658,0,.2.056.285.272.271.27-.018.542,0,.814,0Z" transform="translate(-37.426 -20.355)"/>
          <path id="Trazado_611077" data-name="Trazado 611077" d="M89.115,62.309H86.879c0,.691-.005,1.357.008,2.022a.262.262,0,0,0,.178.184c.677.013,1.355.008,2.05.008Z" transform="translate(-48.615 -20.371)"/>
        </g>
      </g>
    </g>
    <g id="Group_43_" data-name="Group (43)" transform="translate(-5478 -7343.403)">
      <path id="Trazado_598926" data-name="Trazado 598926" d="M36.549,16.055,16.055,36.549a15.864,15.864,0,0,0,.655,1.582l21.422-21.42a15.863,15.863,0,0,0-1.582-.655Z" transform="translate(-15.17 -15.17)" fill="#4ca220"/>
      <path id="Trazado_598927" data-name="Trazado 598927" d="M18.367.8.8,18.367a16.022,16.022,0,0,0,.26,1.7L20.065,1.058A16.022,16.022,0,0,0,18.367.8Z" transform="translate(-0.754 -0.754)" fill="#4ca220"/>
      <path id="Trazado_598928" data-name="Trazado 598928" d="M299.7,283.668c0-.137-.008-.274-.01-.41l-16.454,16.453c.137,0,.273.01.41.01a16.091,16.091,0,0,0,1.678-.088l14.289-14.289a16.09,16.09,0,0,0,.088-1.678Z" transform="translate(-267.627 -267.648)" fill="#4ca220"/>
      <path id="Trazado_598929" data-name="Trazado 598929" d="M68.634,46.122q-.611-.481-1.267-.9L45.2,67.389q.42.656.9,1.267Z" transform="translate(-42.708 -42.73)" fill="#4ca220"/>
      <path id="Trazado_598930" data-name="Trazado 598930" d="M0,15.009,15.009,0c-.434.026-.863.07-1.287.131L.131,13.722C.07,14.145.026,14.575,0,15.009Z" fill="#4ca220"/>
      <path id="Trazado_598931" data-name="Trazado 598931" d="M106.76,84.058l-22.7,22.7a16.114,16.114,0,0,0,1.365,1.222l22.559-22.559A16.123,16.123,0,0,0,106.76,84.058Z" transform="translate(-79.426 -79.426)" fill="#4ca220"/>
      <path id="Trazado_598932" data-name="Trazado 598932" d="M159.927,138.548a16.093,16.093,0,0,0-.877-1.6l-22.108,22.108a15.959,15.959,0,0,0,1.6.877Z" transform="translate(-129.396 -129.396)" fill="#4ca220"/>
      <path id="Trazado_598933" data-name="Trazado 598933" d="M28.816,19.794a16.1,16.1,0,0,0-9.022,9.022Z" transform="translate(-18.704 -18.704)" fill="#4ca220"/>
      <path id="Trazado_598934" data-name="Trazado 598934" d="M382.436,392.617a16.085,16.085,0,0,0,10.18-10.18Z" transform="translate(-361.361 -361.361)" fill="#4ca220"/>
      <path id="Trazado_598935" data-name="Trazado 598935" d="M220.714,200.477l-20.237,20.237a15.962,15.962,0,0,0,2.154.537l18.619-18.619A16.154,16.154,0,0,0,220.714,200.477Z" transform="translate(-189.429 -189.429)" fill="#4ca220"/>
    </g>
  </g>
</svg>
