<svg xmlns="http://www.w3.org/2000/svg" xmlns:xlink="http://www.w3.org/1999/xlink" width="190" height="147" viewBox="0 0 190 147">
  <defs>
    <clipPath id="clip-path">
      <rect id="Rect치ngulo_349167" data-name="Rect치ngulo 349167" width="190" height="147" rx="17" transform="translate(224 3170)" fill="#fff"/>
    </clipPath>
    <clipPath id="clip-path-2">
      <rect id="Rect치ngulo_349139" data-name="Rect치ngulo 349139" width="134.77" height="135.333" fill="none"/>
    </clipPath>
  </defs>
  <g id="Enmascarar_grupo_77" data-name="Enmascarar grupo 77" transform="translate(-224 -3170)" clip-path="url(#clip-path)">
    <g id="Grupo_1016684" data-name="Grupo 1016684" transform="translate(247.897 3177.667)">
      <g id="Grupo_1016684-2" data-name="Grupo 1016684" clip-path="url(#clip-path-2)">
        <path id="Trazado_637314" data-name="Trazado 637314" d="M121.96,131.071s-39.689-2.83-62.7-26.726c0,0-24.348-21.7-23.68-56.913Z" transform="translate(-15.549 -22.265)" fill="#dee9f0"/>
        <path id="Trazado_637315" data-name="Trazado 637315" d="M43.04,35.815s-4.669-3.773-7-1.887c0,0-3,3.144,1.668,8.49l85.047,80.18s4,5.031,7.671.943c0,0,3.669-4.716-1-6.6l-4.669-1.887L108.846,99.626Z" transform="translate(-15.339 -15.678)" fill="#abc9dc"/>
        <path id="Trazado_637316" data-name="Trazado 637316" d="M102.682,102.338V58.754c-1.061.233-2.089.536-3.14.678a11.35,11.35,0,0,1-13-9.588,10.277,10.277,0,0,1,2.992-8.687A2.228,2.228,0,0,1,93,41.084q6.557,6.2,13.069,12.45a2.969,2.969,0,0,1,.716,1.5,9.839,9.839,0,0,1,.078,1.977q-.011,7.932-.044,15.864a.786.786,0,0,0,.564.8q3.693,1.663,7.381,3.337a7.483,7.483,0,0,1,.992.485,1.817,1.817,0,0,1,.7,2.39,1.919,1.919,0,0,1-2.4.969c-1.6-.593-3.165-1.294-4.739-1.959-.781-.33-1.552-.682-2.443-1.076-.026.3-.056.482-.056.663q0,13.551-.01,27.1a1.717,1.717,0,0,0,.663,1.315q4.262,4.021,8.521,8.044a5.445,5.445,0,0,1,1.7,5.814,5.889,5.889,0,0,1-4.569,4.141,7.387,7.387,0,0,1-2.083.192q-5.455-.278-10.905-.648a3.541,3.541,0,0,1-1.442-.45,1.793,1.793,0,0,1-.794-2.086,1.92,1.92,0,0,1,1.905-1.391c1.187.047,2.368.21,3.552.319.342.031.686.047,1.223.083-.234-.27-.342-.42-.476-.547Q80.636,98.284,57.167,76.192c-2.695-2.538-5.363-5.1-8.047-7.649a1.985,1.985,0,0,1-.747-2.135,2.034,2.034,0,0,1,3.261-.873c.988.841,1.923,1.739,2.865,2.626Q69.289,82.075,84.069,96q12.636,11.925,25.233,23.888c.247.234.5.461.756.689a2.289,2.289,0,0,0,3.156.063,1.933,1.933,0,0,0-.118-2.946c-2.893-2.756-5.812-5.489-8.72-8.231Q79.194,85.71,54.013,61.961q-14.526-13.7-29.061-27.383a2.271,2.271,0,0,0-3.325-.2,1.87,1.87,0,0,0-.019,2.767q9.863,9.3,19.738,18.6c1.4,1.324,2.794,2.663,4.181,4a1.77,1.77,0,0,1,.566,1.987,2.1,2.1,0,0,1-1.748,1.353,2.188,2.188,0,0,1-1.949-.833c-2.453-2.3-4.912-4.592-7.351-6.9q-6.208-5.879-12.4-11.776c-.37-.351-.765-.679-1.148-1.018l-.174.069c.109,1.04.207,2.081.329,3.119A76.583,76.583,0,0,0,24.89,60.586,82.009,82.009,0,0,0,40.53,88.709a89.342,89.342,0,0,0,21.114,18.315,93.211,93.211,0,0,0,29.677,12.031,4.632,4.632,0,0,1,.93.282,1.825,1.825,0,0,1,1.092,2.3,1.986,1.986,0,0,1-2.31,1.287c-3.179-.786-6.382-1.517-9.5-2.49A90.681,90.681,0,0,1,59,109.991c-.613-.4-.977-.458-1.552.108-1.858,1.83-3.8,3.58-5.695,5.38a.752.752,0,0,0-.2.656q3.124,7.947,6.3,15.877c1.689,4.24,3.395,8.474,5.063,12.721a.9.9,0,0,0,1,.665c6.053-.018,12.107-.011,18.16-.012q20.58,0,41.16,0a2.6,2.6,0,0,1,2.513.972,1.815,1.815,0,0,1-1.072,2.788,4.61,4.61,0,0,1-1.306.185q-39.336.013-78.673,0a5.291,5.291,0,0,1-1.245-.137,1.88,1.88,0,0,1,.141-3.708,6.086,6.086,0,0,1,1.112-.1q6.451-.009,12.9,0h1.065a1.243,1.243,0,0,0,0-.371q-2.192-5.53-4.388-11.058a.694.694,0,0,0-.769-.5q-13.5.018-27,0c-.371,0-.566.073-.712.445-1.439,3.672-2.908,7.333-4.365,11a2.578,2.578,0,0,0-.08.451c.313.013.584.035.854.035,4.231,0,8.461-.014,12.691-.01a4.672,4.672,0,0,1,1.245.142,1.938,1.938,0,0,1,1.463,1.687,1.851,1.851,0,0,1-1.136,1.823,3.982,3.982,0,0,1-1.419.289q-16.267.023-32.535.01A2.336,2.336,0,0,1,.2,148.142a1.846,1.846,0,0,1,1.279-2.627,5.3,5.3,0,0,1,1.248-.127c4.441,0,8.881,0,13.322.027a.986.986,0,0,0,1.117-.709q3.818-9.709,7.691-19.4c1.22-3.067,2.457-6.127,3.657-9.2a.738.738,0,0,0-.239-.629,17.352,17.352,0,0,1-4.661-6.592,14.669,14.669,0,0,1,.53-12.374,17.019,17.019,0,0,1,3.669-4.9c1.717-1.622,3.42-3.258,5.168-4.85.429-.391.448-.648.124-1.1A83.021,83.021,0,0,1,18.715,53.055a81.877,81.877,0,0,1-1.835-17.188,6.025,6.025,0,0,1,5.813-6.016,6.048,6.048,0,0,1,4.743,1.576c4.154,3.9,8.283,7.832,12.43,11.743Q70.055,71.637,100.249,100.1c.755.712,1.529,1.408,2.433,2.239M30.015,111.82l.277-.167c.3-.735.626-1.464.907-2.208,1.79-4.736,7.111-6.521,11.511-5.373a9.054,9.054,0,0,1,6.137,5.365c.34.741.644,1.5.944,2.2l4.719-4.565A91.257,91.257,0,0,1,35.966,89.513a2.544,2.544,0,0,0-.3.2c-1.92,1.833-3.935,3.588-5.735,5.52a11.876,11.876,0,0,0-.308,15.974,5.416,5.416,0,0,1,.4.614m2.091,6.275-4.522,11.376H52.4c-.092-.279-.15-.488-.23-.689q-1.943-4.911-3.891-9.82c-.37-.933-.371-.939-1.344-.556a18.137,18.137,0,0,1-10.9.9c-1.306-.3-2.565-.782-3.935-1.208m7.544-2.27a13.9,13.9,0,0,0,6.252-1.2c.292-.131.567-.254.407-.628a32.261,32.261,0,0,0-1.7-3.889,5.107,5.107,0,0,0-4.8-2.431,4.864,4.864,0,0,0-4.569,2.755c-.554,1.135-.991,2.321-1.484,3.482-.162.382.042.533.386.692a12.55,12.55,0,0,0,5.516,1.221M91.436,45.463c-1.356,1.674-1.276,5.863,1.422,8.2,2.732,2.363,6.448,2.517,8.646,1.086L91.436,45.463" transform="translate(0 -14.002)" fill="#161615"/>
        <path id="Trazado_637317" data-name="Trazado 637317" d="M145.864,72.707a10.292,10.292,0,0,1-1.167-.592,83.142,83.142,0,0,1-14.356-12.057,87.643,87.643,0,0,1-13.658-18.55c-1.108-1.98-2.038-4.049-3.047-6.078a4.865,4.865,0,0,1-.233-.551,1.885,1.885,0,0,1,1.007-2.565,2.109,2.109,0,0,1,2.776,1.095c.805,1.586,1.574,3.189,2.369,4.78A75.847,75.847,0,0,0,131.188,55.08a90.806,90.806,0,0,0,15.755,13.834,4.175,4.175,0,0,1,.736.607,1.713,1.713,0,0,1,.364,2.023,2.263,2.263,0,0,1-2.18,1.164" transform="translate(-49.51 -15.086)" fill="#161615"/>
        <path id="Trazado_637318" data-name="Trazado 637318" d="M161.01,17.439a1.982,1.982,0,0,1,1.439-2.059,2.018,2.018,0,0,1,2.218.739,7.888,7.888,0,0,1,.593,1.12,52.343,52.343,0,0,0,20.415,23.01c2.794,1.73,5.88,3.042,8.833,4.543a12.885,12.885,0,0,1,1.234.614,1.815,1.815,0,0,1,.644,2.35,1.934,1.934,0,0,1-2.332.99,24.565,24.565,0,0,1-2.514-.99,57.544,57.544,0,0,1-29.964-28.873c-.263-.554-.449-1.142-.567-1.445" transform="translate(-70.392 -7.182)" fill="#161615"/>
        <path id="Trazado_637319" data-name="Trazado 637319" d="M221.856,18.622a5.807,5.807,0,0,1-.705-.193A29.166,29.166,0,0,1,205.715,5.057,20.355,20.355,0,0,1,204.527,2.6,1.8,1.8,0,0,1,205.637.16a2.008,2.008,0,0,1,2.585.954c.888,1.544,1.655,3.161,2.676,4.622a27.105,27.105,0,0,0,10.914,8.744c.457.218.937.4,1.367.661a1.763,1.763,0,0,1,.85,2.117,2.079,2.079,0,0,1-2.172,1.365" transform="translate(-89.35 0)" fill="#161615"/>
        <path id="Trazado_637320" data-name="Trazado 637320" d="M50.743,164.619a5.339,5.339,0,0,0-.4-.614,11.877,11.877,0,0,1,.308-15.974c1.8-1.932,3.815-3.687,5.735-5.52a2.507,2.507,0,0,1,.305-.2,91.242,91.242,0,0,0,18.542,17.555l-4.718,4.565c-.3-.7-.6-1.456-.944-2.2a9.053,9.053,0,0,0-6.136-5.365c-4.4-1.148-9.721.637-11.511,5.373-.281.743-.6,1.472-.907,2.208l-.278.167" transform="translate(-20.728 -66.801)" fill="#dee9f0"/>
        <path id="Trazado_637321" data-name="Trazado 637321" d="M53.535,196.18c1.369.427,2.628.91,3.934,1.208a18.132,18.132,0,0,0,10.9-.9c.973-.384.975-.377,1.344.556q1.946,4.91,3.891,9.82c.08.2.137.41.23.689H49.013c1.519-3.824,3.018-7.594,4.522-11.376" transform="translate(-21.428 -92.087)" fill="#dee9f0"/>
        <path id="Trazado_637322" data-name="Trazado 637322" d="M65.822,184.688a12.559,12.559,0,0,1-5.516-1.221c-.344-.16-.548-.311-.386-.692.494-1.162.93-2.348,1.485-3.482a4.864,4.864,0,0,1,4.569-2.755,5.109,5.109,0,0,1,4.8,2.431,32.293,32.293,0,0,1,1.7,3.889c.16.375-.115.5-.407.628a13.9,13.9,0,0,1-6.252,1.2" transform="translate(-26.172 -82.866)" fill="#adc5d5"/>
        <path id="Trazado_637323" data-name="Trazado 637323" d="M161.793,59.293l10.069,9.283c-2.2,1.431-5.914,1.277-8.646-1.086-2.7-2.334-2.778-6.523-1.422-8.2" transform="translate(-70.357 -27.832)" fill="#ffe126"/>
      </g>
    </g>
  </g>
</svg>
