<svg xmlns="http://www.w3.org/2000/svg" xmlns:xlink="http://www.w3.org/1999/xlink" width="170.617" height="170.616" viewBox="0 0 170.617 170.616">
  <defs>
    <filter id="Trazado_150709" x="0" y="0" width="170.617" height="170.616" filterUnits="userSpaceOnUse">
      <feOffset dx="5" dy="5" input="SourceAlpha"/>
      <feGaussianBlur stdDeviation="12.5" result="blur"/>
      <feFlood flood-opacity="0.161"/>
      <feComposite operator="in" in2="blur"/>
      <feComposite in="SourceGraphic"/>
    </filter>
    <clipPath id="clip-path">
      <rect id="Rect치ngulo_348291" data-name="Rect치ngulo 348291" width="98" height="98" fill="none"/>
    </clipPath>
  </defs>
  <g id="Grupo_1016733" data-name="Grupo 1016733" transform="translate(-345.809 -4247.918)">
    <g id="Grupo_1016212" data-name="Grupo 1016212" transform="translate(365.37 4267.478)">
      <path id="Trazado_150708" data-name="Trazado 150708" d="M121.286,55.711A60.746,60.746,0,1,1,55.711.213a60.746,60.746,0,0,1,65.575,55.5" transform="translate(0 121.498) rotate(-90)" fill="#304c8e"/>
      <g transform="matrix(1, 0, 0, 1, -19.56, -19.56)" filter="url(#Trazado_150709)">
        <path id="Trazado_150709-2" data-name="Trazado 150709" d="M95.449,43.844A47.805,47.805,0,1,1,43.843.167,47.806,47.806,0,0,1,95.449,43.844" transform="translate(32.5 128.12) rotate(-90)" fill="#fff"/>
      </g>
      <g id="Grupo_1016215" data-name="Grupo 1016215" transform="translate(12.278 12.523)">
        <g id="Grupo_1016214" data-name="Grupo 1016214" transform="translate(0 0)" clip-path="url(#clip-path)">
          <path id="Trazado_611020" data-name="Trazado 611020" d="M97.337,48.669A48.669,48.669,0,1,1,48.669,0,48.668,48.668,0,0,1,97.337,48.669" transform="translate(0.659 0.386)" fill="#dee9f0"/>
          <rect id="Rect치ngulo_348290" data-name="Rect치ngulo 348290" width="14.377" height="25.158" transform="translate(42.188 52.775)" fill="#304c8e"/>
          <path id="Trazado_611021" data-name="Trazado 611021" d="M55.868,80.673H60.06v-.4c0-1.5,0-2.995,0-4.492a3.508,3.508,0,0,1,.091-.777,1.453,1.453,0,0,1,1.432-1.142,1.425,1.425,0,0,1,1.384,1.193,4.354,4.354,0,0,1,.082.816c.007,1.583,0,3.167,0,4.807h5.128c.125,0,.25,0,.374.005,1.149.081,1.686.6,1.7,1.75.024,1.847.017,3.694,0,5.54A1.562,1.562,0,0,1,68.6,89.665c-.125.008-.249,0-.375,0H40.34a1.651,1.651,0,0,1-1.888-1.819q-.036-2.675.015-5.352c.026-1.261.611-1.8,1.878-1.813,1.622-.011,3.244,0,4.866,0h.442V38.95h-13.3c.4,1.347.784,2.645,1.171,3.941.317,1.062.65,2.119.953,3.184A1.439,1.439,0,0,1,31.939,47.4a4.04,4.04,0,0,1-.4-.958q-1.4-4.629-2.785-9.264c-.03-.1-.081-.194-.157-.373L19.505,67.621H37.688c-.222-.8-.429-1.573-.655-2.343-.645-2.2-1.3-4.394-1.945-6.592a1.554,1.554,0,0,1,.249-1.616,1.4,1.4,0,0,1,2.392.4,19.422,19.422,0,0,1,.643,2.027c.842,2.814,1.655,5.638,2.531,8.442a6.89,6.89,0,0,1-.041,3.836,12.274,12.274,0,0,1-9.649,9.6,12.491,12.491,0,0,1-14.8-9.371,13.526,13.526,0,0,1-.345-2.137,4.649,4.649,0,0,1,.166-1.583q3.13-10.719,6.3-21.425,2.018-6.842,4.044-13.681c.191-.645.406-1.282.6-1.925a1.589,1.589,0,0,1,1.583-1.188c.149-.009.3-.005.449-.005H47.9c-.076-.117-.109-.18-.153-.235a8.642,8.642,0,0,1-1.929-5.391,25.945,25.945,0,0,1,.11-4.069,8.553,8.553,0,0,1,17,1.5c-.029,1.147-.012,2.3-.1,3.439a8.011,8.011,0,0,1-1.675,4.294c-.1.127-.191.257-.341.458H79.534c1.371,0,1.774.3,2.163,1.627q3,10.193,6,20.386,2.4,8.132,4.812,16.259a5.957,5.957,0,0,1-.052,3.069c-1.2,5.308-4.424,8.729-9.721,9.972a12.489,12.489,0,0,1-14.8-9.359c-.161-.69-.251-1.4-.359-2.1a5.583,5.583,0,0,1,.4-2.449q2.126-7.2,4.246-14.4,2.045-6.931,4.1-13.86c.02-.069.039-.139.075-.261H63.056V39.4q0,11.792-.006,23.585a3.812,3.812,0,0,1-.157,1.1,1.338,1.338,0,0,1-1.3.95,1.417,1.417,0,0,1-1.389-.994,3.318,3.318,0,0,1-.143-.917c-.013-1.6-.006-3.194-.006-4.792v-.445H48.712V80.663h4.16v-.431q0-8.7.007-17.408a3.487,3.487,0,0,1,.16-1.027,1.288,1.288,0,0,1,1.281-.907,1.4,1.4,0,0,1,1.34.844,3.357,3.357,0,0,1,.2,1.091q.018,8.686.008,17.371ZM71.021,67.619H89.231l-9.06-30.741-.09.017-9.06,30.723M30.62,33.081c.025.121.038.217.066.309.2.655.393,1.311.595,1.965.179.581.182.577.805.577q7.356-.005,14.712-.007a1.637,1.637,0,0,1,1.863,1.57,3.685,3.685,0,0,1,.019.523q0,8.2,0,16.4V54.9H60.06V38.051c0-.125,0-.249,0-.374a1.593,1.593,0,0,1,1.243-1.689,3.791,3.791,0,0,1,.706-.059q4.829,0,9.658,0c1.771,0,3.543-.005,5.316,0,.223,0,.321-.049.386-.283.205-.744.449-1.477.675-2.215.034-.11.051-.225.078-.351H56.159c.018.143.027.265.049.385.186,1.029.381,2.058.561,3.089.5,2.822.974,5.647,1.485,8.466a2.372,2.372,0,0,1-.291,1.717c-.727,1.235-1.423,2.487-2.144,3.725a1.508,1.508,0,0,1-2.788.039c-.777-1.277-1.512-2.58-2.269-3.869a2.066,2.066,0,0,1-.269-1.439q.87-4.988,1.751-9.975c.124-.706.254-1.411.385-2.136ZM19.139,70.654a9.569,9.569,0,0,0,18.908,0Zm51.511,0a9.634,9.634,0,0,0,10.785,8c4.72-.609,7.886-4.756,8.118-8Zm-29.226,16H67.263V83.678H41.893a.666.666,0,0,0-.259.008c-.083.037-.2.127-.2.2-.013.909-.009,1.818-.009,2.772m9.229-63.136c-.643,0-1.13,0-1.617,0-.209,0-.293.081-.275.293.029.348.037.7.063,1.045a5.551,5.551,0,0,0,11.021.561,18.9,18.9,0,0,0,.106-2.277.488.488,0,0,0-.222-.333c-.8-.5-1.625-.975-2.423-1.485a.454.454,0,0,0-.644.054,8.516,8.516,0,0,1-6.01,2.143m8.593-4.445a5.448,5.448,0,0,0-6.319-2.915c-2.027.486-4.193,2.879-3.988,4.359A23.757,23.757,0,0,0,51.7,20.5a6.138,6.138,0,0,0,3.8-2.045,1.448,1.448,0,0,1,2.183-.293l1.564.914M54.386,47.05c.312-.538.59-.995.84-1.466a.728.728,0,0,0,.043-.424c-.119-.761-.253-1.521-.385-2.28-.148-.848-.3-1.7-.466-2.636a2.329,2.329,0,0,0-.111.3c-.275,1.542-.549,3.083-.814,4.628a.66.66,0,0,0,.049.4c.256.48.535.947.844,1.486" transform="translate(-4.695 -3.947)"/>
          <path id="Trazado_611022" data-name="Trazado 611022" d="M82.15,96.461a1.494,1.494,0,0,1,1.471-1.479A1.532,1.532,0,0,1,85.069,96.5a1.457,1.457,0,0,1-1.475,1.425,1.478,1.478,0,0,1-1.444-1.461" transform="translate(-26.722 -31.272)"/>
          <path id="Trazado_611023" data-name="Trazado 611023" d="M43.336,69.7a1.482,1.482,0,0,1,1.429,1.448,1.459,1.459,0,1,1-2.917-.064A1.484,1.484,0,0,1,43.336,69.7" transform="translate(-13.289 -22.845)"/>
          <path id="Trazado_611024" data-name="Trazado 611024" d="M98.5,79.556c3.033-10.287,6.047-20.5,9.06-30.723l.09-.017q4.522,15.344,9.06,30.74Z" transform="translate(-32.171 -15.885)" fill="#fff"/>
          <path id="Trazado_611025" data-name="Trazado 611025" d="M21.228,79.385l9.06-30.723.09-.017q4.522,15.344,9.06,30.74Z" transform="translate(-6.417 -15.828)" fill="#fff"/>
          <path id="Trazado_611026" data-name="Trazado 611026" d="M37.9,43.12H59.907c-.131.725-.261,1.43-.385,2.135q-.878,4.987-1.751,9.975a2.069,2.069,0,0,0,.269,1.44c.757,1.289,1.492,2.592,2.269,3.869A1.508,1.508,0,0,0,63.1,60.5c.721-1.238,1.417-2.491,2.144-3.726a2.37,2.37,0,0,0,.291-1.716c-.511-2.819-.989-5.644-1.485-8.466-.181-1.031-.375-2.059-.561-3.089-.022-.119-.031-.242-.049-.385H85.4c-.027.126-.044.241-.078.351-.226.737-.47,1.471-.675,2.214-.065.235-.163.285-.386.284-1.772-.008-3.544,0-5.316,0q-4.829,0-9.658,0a3.735,3.735,0,0,0-.706.059,1.593,1.593,0,0,0-1.243,1.69c-.007.124,0,.249,0,.374V64.935H55.959v-.481q0-8.2,0-16.4a3.7,3.7,0,0,0-.019-.523,1.636,1.636,0,0,0-1.863-1.569q-7.356,0-14.712.007c-.623,0-.626,0-.805-.577-.2-.654-.4-1.31-.595-1.966-.028-.092-.041-.188-.066-.309" transform="translate(-11.973 -13.986)" fill="#fff"/>
          <path id="Trazado_611027" data-name="Trazado 611027" d="M20.678,99.477H39.585a9.568,9.568,0,0,1-18.907,0" transform="translate(-6.233 -32.77)" fill="#ffe126"/>
          <path id="Trazado_611028" data-name="Trazado 611028" d="M97.942,99.484h18.9c-.232,3.241-3.4,7.388-8.118,8a9.633,9.633,0,0,1-10.784-8" transform="translate(-31.986 -32.773)" fill="#ffe126"/>
          <path id="Trazado_611029" data-name="Trazado 611029" d="M54.1,121.984c0-.954,0-1.863.009-2.772,0-.068.118-.158.2-.2a.68.68,0,0,1,.259-.007h25.37v2.975Z" transform="translate(-17.374 -39.277)" fill="#fff"/>
          <path id="Trazado_611030" data-name="Trazado 611030" d="M67,27.623a8.517,8.517,0,0,0,6.01-2.143.453.453,0,0,1,.644-.053c.8.51,1.619.982,2.423,1.484a.487.487,0,0,1,.222.334,18.917,18.917,0,0,1-.106,2.277,5.551,5.551,0,0,1-11.021-.562c-.026-.348-.035-.7-.063-1.045-.018-.211.066-.3.275-.293.487.005.973,0,1.617,0m3.657,5.062a2.42,2.42,0,0,0,1.948-.861,1.437,1.437,0,0,0,.107-1.707,1.454,1.454,0,0,0-1.552-.646,2.847,2.847,0,0,1-.845,0,1.409,1.409,0,0,0-1.471.586,1.338,1.338,0,0,0-.044,1.607,2.29,2.29,0,0,0,1.857,1.017" transform="translate(-21.042 -8.052)" fill="#fff"/>
          <path id="Trazado_611031" data-name="Trazado 611031" d="M75.677,20.567q-.782-.456-1.564-.913a1.448,1.448,0,0,0-2.183.292,6.13,6.13,0,0,1-3.8,2.045,23.609,23.609,0,0,1-2.757.02c-.206-1.48,1.961-3.873,3.988-4.359a5.448,5.448,0,0,1,6.319,2.915" transform="translate(-21.125 -5.443)"/>
          <path id="Trazado_611032" data-name="Trazado 611032" d="M73.095,60.67c-.309-.539-.588-1.006-.844-1.486a.659.659,0,0,1-.049-.4c.265-1.544.539-3.085.814-4.628a2.329,2.329,0,0,1,.111-.3c.167.941.318,1.788.466,2.636.132.759.266,1.519.385,2.28a.728.728,0,0,1-.043.424c-.25.471-.528.928-.84,1.466" transform="translate(-23.403 -17.567)" fill="#60cb28"/>
          <path id="Trazado_611033" data-name="Trazado 611033" d="M72.381,34.749a2.29,2.29,0,0,1-1.857-1.017,1.338,1.338,0,0,1,.044-1.607,1.409,1.409,0,0,1,1.471-.586,2.847,2.847,0,0,0,.845,0,1.454,1.454,0,0,1,1.552.646,1.437,1.437,0,0,1-.107,1.707,2.42,2.42,0,0,1-1.948.861" transform="translate(-22.765 -10.116)"/>
        </g>
      </g>
    </g>
    <g id="Group_43_" data-name="Group (43)" transform="translate(452 4355.597)">
      <path id="Trazado_598926" data-name="Trazado 598926" d="M36.549,16.055,16.055,36.549a15.864,15.864,0,0,0,.655,1.582l21.422-21.42a15.863,15.863,0,0,0-1.582-.655Z" transform="translate(-15.17 -15.17)" fill="#4ca220"/>
      <path id="Trazado_598927" data-name="Trazado 598927" d="M18.367.8.8,18.367a16.022,16.022,0,0,0,.26,1.7L20.065,1.058A16.022,16.022,0,0,0,18.367.8Z" transform="translate(-0.754 -0.754)" fill="#4ca220"/>
      <path id="Trazado_598928" data-name="Trazado 598928" d="M299.7,283.668c0-.137-.008-.274-.01-.41l-16.454,16.453c.137,0,.273.01.41.01a16.091,16.091,0,0,0,1.678-.088l14.289-14.289a16.09,16.09,0,0,0,.088-1.678Z" transform="translate(-267.627 -267.648)" fill="#4ca220"/>
      <path id="Trazado_598929" data-name="Trazado 598929" d="M68.634,46.122q-.611-.481-1.267-.9L45.2,67.389q.42.656.9,1.267Z" transform="translate(-42.708 -42.73)" fill="#4ca220"/>
      <path id="Trazado_598930" data-name="Trazado 598930" d="M0,15.009,15.009,0c-.434.026-.863.07-1.287.131L.131,13.722C.07,14.145.026,14.575,0,15.009Z" fill="#4ca220"/>
      <path id="Trazado_598931" data-name="Trazado 598931" d="M106.76,84.058l-22.7,22.7a16.114,16.114,0,0,0,1.365,1.222l22.559-22.559A16.123,16.123,0,0,0,106.76,84.058Z" transform="translate(-79.426 -79.426)" fill="#4ca220"/>
      <path id="Trazado_598932" data-name="Trazado 598932" d="M159.927,138.548a16.093,16.093,0,0,0-.877-1.6l-22.108,22.108a15.959,15.959,0,0,0,1.6.877Z" transform="translate(-129.396 -129.396)" fill="#4ca220"/>
      <path id="Trazado_598933" data-name="Trazado 598933" d="M28.816,19.794a16.1,16.1,0,0,0-9.022,9.022Z" transform="translate(-18.704 -18.704)" fill="#4ca220"/>
      <path id="Trazado_598934" data-name="Trazado 598934" d="M382.436,392.617a16.085,16.085,0,0,0,10.18-10.18Z" transform="translate(-361.361 -361.361)" fill="#4ca220"/>
      <path id="Trazado_598935" data-name="Trazado 598935" d="M220.714,200.477l-20.237,20.237a15.962,15.962,0,0,0,2.154.537l18.619-18.619A16.154,16.154,0,0,0,220.714,200.477Z" transform="translate(-189.429 -189.429)" fill="#4ca220"/>
    </g>
  </g>
</svg>
