<svg xmlns="http://www.w3.org/2000/svg" xmlns:xlink="http://www.w3.org/1999/xlink" width="170.617" height="170.616" viewBox="0 0 170.617 170.616">
  <defs>
    <filter id="Trazado_150709" x="0" y="0" width="170.617" height="170.616" filterUnits="userSpaceOnUse">
      <feOffset dx="5" dy="5" input="SourceAlpha"/>
      <feGaussianBlur stdDeviation="12.5" result="blur"/>
      <feFlood flood-opacity="0.161"/>
      <feComposite operator="in" in2="blur"/>
      <feComposite in="SourceGraphic"/>
    </filter>
    <clipPath id="clip-path">
      <rect id="Rectángulo_348306" data-name="Rectángulo 348306" width="99" height="99" fill="none"/>
    </clipPath>
  </defs>
  <g id="Grupo_1016735" data-name="Grupo 1016735" transform="translate(-1081.059 -4247.918)">
    <g id="Grupo_1016219" data-name="Grupo 1016219" transform="translate(1100.37 4267.407)">
      <path id="Trazado_150708" data-name="Trazado 150708" d="M121.286,55.711A60.746,60.746,0,1,1,55.711.213a60.746,60.746,0,0,1,65.575,55.5" transform="translate(0 121.498) rotate(-90)" fill="#304c8e"/>
      <g transform="matrix(1, 0, 0, 1, -19.31, -19.49)" filter="url(#Trazado_150709)">
        <path id="Trazado_150709-2" data-name="Trazado 150709" d="M95.449,43.844A47.805,47.805,0,1,1,43.843.167,47.806,47.806,0,0,1,95.449,43.844" transform="translate(32.5 128.12) rotate(-90)" fill="#fff"/>
      </g>
      <g id="Grupo_1016227" data-name="Grupo 1016227" transform="translate(12 12.593)">
        <g id="Grupo_1016226" data-name="Grupo 1016226" clip-path="url(#clip-path)">
          <path id="Trazado_611039" data-name="Trazado 611039" d="M97.674,48.837A48.837,48.837,0,1,1,48.837,0,48.837,48.837,0,0,1,97.674,48.837" transform="translate(0.4 0.194)" fill="#dee9f0"/>
          <path id="Trazado_611040" data-name="Trazado 611040" d="M93.229,35.382a2.434,2.434,0,0,0-.056-.54.64.64,0,0,0-.04-.1l.04-.915a16.109,16.109,0,0,0-4.046-2.5,2.11,2.11,0,0,0-.355-.593l-5.808-6.691a2.088,2.088,0,0,0-2.966-.2,2.133,2.133,0,0,0-.278,2.879l-3.265,2.414A40.068,40.068,0,0,0,65.7,31.32a.991.991,0,0,0-.482-.017,36.451,36.451,0,0,0-7.5,2.359.384.384,0,0,1-.585-.18c-.235-.381-.508-.741-.767-1.109A30.773,30.773,0,0,0,41.9,21.172,46.549,46.549,0,0,0,29.824,18.4c-.909-.091-1.2.176-1.2,1.092,0,3.817-.007,7.633.011,11.449,0,.379-.118.507-.471.606a36.487,36.487,0,0,0-6.4,2.4,1.1,1.1,0,0,0-.7,1.149c.03.568.012,1.139.012,1.708q0,22.261,0,44.521a5.579,5.579,0,0,0,.052.832.622.622,0,0,0,.711.579,2.158,2.158,0,0,0,.506-.073,69.687,69.687,0,0,1,13-2.232,61.865,61.865,0,0,1,12.9.4,48.975,48.975,0,0,1,7.5,1.555,4.421,4.421,0,0,0,2.6.007,56.466,56.466,0,0,1,15.586-2.129c2.249,0,4.5.191,6.746.348a55.011,55.011,0,0,1,8.47,1.353c1.072.246,2.135.522,3.205.777a.621.621,0,0,0,.794-.349,1.731,1.731,0,0,0,.092-.64q0-23.188,0-46.376M57.791,72.5q0-14.392,0-28.784c0-2.665,0-5.33-.018-8,0-.009,0-.015,0-.024l.08,37.12a1.061,1.061,0,0,1-.062-.317" transform="translate(-6.572 -5.892)" fill="#fff"/>
          <path id="Trazado_611041" data-name="Trazado 611041" d="M104.362,39.546c1.763,2.044,3.5,4.057,5.238,6.074.414.482.83.965,1.208,1.476a2.509,2.509,0,0,1-3.964,3.077q-1.969-2.287-3.936-4.575c-.774-.9-1.551-1.793-2.356-2.723-.171.13-.33.242-.478.367-.937.789-1.877,1.574-2.8,2.38a.523.523,0,0,0-.1.439A2.562,2.562,0,0,1,96.164,49a2.524,2.524,0,0,1-3.337-.4c-1.011-1.107-1.966-2.264-2.947-3.4-1.07-1.238-2.132-2.484-3.215-3.712a2.587,2.587,0,0,1-.58-2.806,2.462,2.462,0,0,1,3.338-1.437.709.709,0,0,0,.884-.163q4.973-4.335,9.974-8.64a.473.473,0,0,0,.2-.591,2.506,2.506,0,0,1,1.176-2.926,2.41,2.41,0,0,1,3.059.381c1.217,1.325,2.382,2.7,3.558,4.059.955,1.107,1.913,2.212,2.835,3.346a2.529,2.529,0,0,1-1.032,4.078,2.168,2.168,0,0,1-1.817-.024.667.667,0,0,0-.848.134c-.929.832-1.895,1.624-2.845,2.433-.065.056-.119.123-.2.211m-2.83-10.057a.583.583,0,0,0-.1.034L91.322,38.236c-.363.313-.359.31-.041.676,1.529,1.766,3.067,3.525,4.575,5.311.26.307.39.254.642.035q4.623-3.994,9.258-7.974c.31-.266.615-.537.94-.82l-5.163-5.974m-6.856,18.39a1.036,1.036,0,0,0,1.01-.692c.209-.537-.084-.91-.4-1.276q-2.445-2.813-4.89-5.624c-.393-.452-.765-.923-1.17-1.365a.926.926,0,0,0-1.151-.257.987.987,0,0,0-.375,1.611c.66.8,1.369,1.555,2.043,2.341,1.365,1.592,2.721,3.191,4.084,4.785a1.085,1.085,0,0,0,.851.476m14.369-12.405a3.772,3.772,0,0,0,.56-.162.984.984,0,0,0,.326-1.594c-.725-.875-1.486-1.72-2.224-2.583-.836-.976-1.659-1.963-2.5-2.937-.505-.587-1.017-1.168-1.547-1.732a.992.992,0,0,0-1.413-.1,1.006,1.006,0,0,0-.115,1.413c.095.131.2.254.309.377,1.083,1.242,2.172,2.481,3.25,3.727.907,1.048,1.795,2.113,2.712,3.152a2.938,2.938,0,0,0,.639.436M101.7,41.8c.241.275.455.515.664.759q2.823,3.276,5.65,6.549a1.452,1.452,0,0,0,.589.425.871.871,0,0,0,1.014-.375.927.927,0,0,0-.027-1.146c-.6-.719-1.23-1.41-1.839-2.121-.852-.995-1.689-2-2.544-2.994-.666-.773-1.351-1.531-2.061-2.334L101.7,41.8" transform="translate(-28.032 -7.933)"/>
          <path id="Trazado_611042" data-name="Trazado 611042" d="M102.307,73.917c.294.05.542.076.781.137a2.944,2.944,0,0,1,2.2,2.792c.019.487.018.975.011,1.462a.818.818,0,0,1-.881.9c-.1.005-.2,0-.3,0H85.493c-.848,0-1.115-.268-1.112-1.123a10.93,10.93,0,0,1,.027-1.5,2.958,2.958,0,0,1,2.926-2.618c.066-.42.1-.844.2-1.252a2.588,2.588,0,0,1,2.513-1.98q4.8-.014,9.595.005a2.714,2.714,0,0,1,2.664,2.661c.008.161,0,.322,0,.512m-7.464,3.7v-.011h6.9c.575,0,1.149.014,1.724,0,.1,0,.256-.078.278-.153a1.6,1.6,0,0,0-.605-1.692,2.409,2.409,0,0,0-1.07-.238c-4.536-.014-9.071-.007-13.607-.005-.375,0-.75-.007-1.124.015a1.37,1.37,0,0,0-1.381,1.424,2.967,2.967,0,0,1-.01.3c-.039.278.067.365.353.363,2.849-.01,5.7-.006,8.546-.006m-.037-3.654v0q1.724,0,3.449,0c.712,0,1.424-.011,2.136,0,.244,0,.356-.051.35-.334-.019-.926-.4-1.321-1.33-1.321H90.227c-.848,0-1.236.4-1.282,1.259-.017.314.07.407.388.405,1.824-.013,3.648-.007,5.472-.007" transform="translate(-27.527 -23.218)"/>
          <path id="Trazado_611043" data-name="Trazado 611043" d="M44.678,38.154c.6.167,1.38.339,2.129.605a31.187,31.187,0,0,1,7.742,3.866,36.948,36.948,0,0,1,4.622,3.685,6.686,6.686,0,0,1,.511.547.76.76,0,0,1-1.068,1.075c-.712-.609-1.39-1.258-2.114-1.852a32.433,32.433,0,0,0-10.518-5.965c-.568-.186-1.159-.3-1.732-.469a.686.686,0,0,1-.509-.8c.075-.434.353-.688.937-.691" transform="translate(-14.075 -12.435)"/>
          <path id="Trazado_611044" data-name="Trazado 611044" d="M44.57,46.857c.777.223,1.566.415,2.331.676a29.939,29.939,0,0,1,7.649,3.809,40.36,40.36,0,0,1,4.789,3.841,3.627,3.627,0,0,1,.331.357.721.721,0,0,1,.009,1.043.828.828,0,0,1-1.1,0c-.449-.379-.881-.777-1.324-1.163A34.165,34.165,0,0,0,48.6,49.837c-1.26-.555-2.612-.905-3.922-1.347-.142-.047-.289-.08-.427-.136a.712.712,0,0,1-.465-.868.834.834,0,0,1,.783-.628" transform="translate(-14.086 -15.316)"/>
          <path id="Trazado_611045" data-name="Trazado 611045" d="M52.88,32.424c.211.076.413.136.605.221a22.2,22.2,0,0,1,4.28,2.457,33.049,33.049,0,0,1,4.4,3.669,3.257,3.257,0,0,1,.339.4.681.681,0,0,1-.012.9.8.8,0,0,1-.959.171,1.593,1.593,0,0,1-.354-.272,34.217,34.217,0,0,0-6.929-5.214c-.564-.32-1.163-.578-1.729-.894a.719.719,0,0,1-.024-1.3,1.889,1.889,0,0,1,.387-.132" transform="translate(-16.844 -10.539)"/>
          <path id="Trazado_611046" data-name="Trazado 611046" d="M63.633,76.342a7.442,7.442,0,0,1-.8-.537c-.729-.643-1.409-1.347-2.168-1.953-.865-.69-1.794-1.3-2.7-1.944-.132-.094-.28-.166-.406-.267a.71.71,0,0,1-.187-.966.7.7,0,0,1,.929-.311,18.009,18.009,0,0,1,1.6.958,25.764,25.764,0,0,1,4.014,3.41,2.574,2.574,0,0,1,.312.371.623.623,0,0,1,.011.768,3.45,3.45,0,0,1-.609.471" transform="translate(-18.554 -23.072)"/>
          <path id="Trazado_611047" data-name="Trazado 611047" d="M58.084,61.545a3.236,3.236,0,0,1,.492.214,25.278,25.278,0,0,1,5.515,4.458c.336.372.367.734.091,1.037a.789.789,0,0,1-1.085.063A3.308,3.308,0,0,1,62.728,67a27.846,27.846,0,0,0-5-3.981.726.726,0,0,1-.407-.875.821.821,0,0,1,.76-.6" transform="translate(-18.563 -20.178)"/>
          <path id="Trazado_611048" data-name="Trazado 611048" d="M44.725,29.478a7.867,7.867,0,0,1,.912.288.677.677,0,0,1,.383.869.7.7,0,0,1-.772.508,5.2,5.2,0,0,1-1.011-.243.69.69,0,0,1-.434-.846c.083-.363.379-.589.922-.576" transform="translate(-14.092 -9.563)"/>
          <path id="Trazado_611049" data-name="Trazado 611049" d="M104.362,39.546c1.763,2.044,3.5,4.057,5.238,6.074.414.482.83.965,1.208,1.476a2.509,2.509,0,0,1-3.964,3.077q-1.969-2.287-3.936-4.575c-.774-.9-1.551-1.793-2.356-2.723-.171.13-.33.242-.478.367-.937.789-1.877,1.574-2.8,2.38a.523.523,0,0,0-.1.439A2.562,2.562,0,0,1,96.164,49a2.524,2.524,0,0,1-3.337-.4c-1.011-1.107-1.966-2.264-2.947-3.4-1.07-1.238-2.132-2.484-3.215-3.712a2.587,2.587,0,0,1-.58-2.806,2.462,2.462,0,0,1,3.338-1.437.709.709,0,0,0,.884-.163q4.973-4.335,9.974-8.64a.473.473,0,0,0,.2-.591,2.506,2.506,0,0,1,1.176-2.926,2.41,2.41,0,0,1,3.059.381c1.217,1.325,2.382,2.7,3.558,4.059.955,1.107,1.913,2.212,2.835,3.346a2.529,2.529,0,0,1-1.032,4.078,2.168,2.168,0,0,1-1.817-.024.667.667,0,0,0-.848.134c-.929.832-1.895,1.624-2.845,2.433-.065.056-.119.123-.2.211m-2.83-10.057a.583.583,0,0,0-.1.034L91.322,38.236c-.363.313-.359.31-.041.676,1.529,1.766,3.067,3.525,4.575,5.311.26.307.39.254.642.035q4.623-3.994,9.258-7.974c.31-.266.615-.537.94-.82l-5.163-5.974m-6.856,18.39a1.036,1.036,0,0,0,1.01-.692c.209-.537-.084-.91-.4-1.276q-2.445-2.813-4.89-5.624c-.393-.452-.765-.923-1.17-1.365a.926.926,0,0,0-1.151-.257.987.987,0,0,0-.375,1.611c.66.8,1.369,1.555,2.043,2.341,1.365,1.592,2.721,3.191,4.084,4.785a1.085,1.085,0,0,0,.851.476m14.369-12.405a3.772,3.772,0,0,0,.56-.162.984.984,0,0,0,.326-1.594c-.725-.875-1.486-1.72-2.224-2.583-.836-.976-1.659-1.963-2.5-2.937-.505-.587-1.017-1.168-1.547-1.732a.992.992,0,0,0-1.413-.1,1.006,1.006,0,0,0-.115,1.413c.095.131.2.254.309.377,1.083,1.242,2.172,2.481,3.25,3.727.907,1.048,1.795,2.113,2.712,3.152a2.938,2.938,0,0,0,.639.436M101.7,41.8c.241.275.455.515.664.759q2.823,3.276,5.65,6.549a1.452,1.452,0,0,0,.589.425.871.871,0,0,0,1.014-.375.927.927,0,0,0-.027-1.146c-.6-.719-1.23-1.41-1.839-2.121-.852-.995-1.689-2-2.544-2.994-.666-.773-1.351-1.531-2.061-2.334L101.7,41.8" transform="translate(-28.032 -7.933)"/>
          <path id="Trazado_611050" data-name="Trazado 611050" d="M95.619,79.99v-.011h6.9c.575,0,1.15.014,1.724,0,.1,0,.256-.078.278-.153a1.593,1.593,0,0,0-.606-1.691,2.4,2.4,0,0,0-1.07-.238c-4.536-.014-9.071-.007-13.607-.005-.375,0-.751-.007-1.124.015a1.371,1.371,0,0,0-1.381,1.424,2.958,2.958,0,0,1-.009.3c-.039.278.067.365.353.363,2.849-.01,5.7-.006,8.546-.006" transform="translate(-28.303 -25.588)" fill="#4ca220"/>
          <path id="Trazado_611051" data-name="Trazado 611051" d="M97.069,74.746v0q1.724,0,3.449,0c.712,0,1.424-.011,2.136,0,.244,0,.356-.051.35-.334-.019-.926-.4-1.321-1.33-1.321H92.491c-.848,0-1.236.4-1.282,1.259-.017.314.07.407.388.405,1.824-.013,3.648-.007,5.472-.007" transform="translate(-29.79 -23.998)" fill="#4ca220"/>
          <path id="Trazado_611052" data-name="Trazado 611052" d="M104.081,31.933a.583.583,0,0,0-.1.034q-5.054,4.355-10.106,8.713c-.363.312-.359.31-.041.676,1.529,1.766,3.067,3.525,4.575,5.31.26.307.39.254.642.036q4.623-3.995,9.258-7.975c.31-.266.615-.537.94-.82l-5.163-5.973" transform="translate(-30.581 -10.376)" fill="#ffe126"/>
          <path id="Trazado_611053" data-name="Trazado 611053" d="M95.433,54.812a1.036,1.036,0,0,0,1.01-.692c.209-.537-.084-.911-.4-1.276q-2.444-2.813-4.89-5.624c-.393-.452-.765-.923-1.169-1.365A.926.926,0,0,0,88.83,45.6a.987.987,0,0,0-.375,1.611c.66.8,1.369,1.555,2.043,2.341,1.365,1.592,2.721,3.191,4.084,4.785a1.084,1.084,0,0,0,.851.476" transform="translate(-28.788 -14.866)" fill="#ffe126"/>
          <path id="Trazado_611054" data-name="Trazado 611054" d="M116.965,36.249a3.8,3.8,0,0,0,.56-.162.984.984,0,0,0,.326-1.594c-.725-.875-1.485-1.72-2.224-2.583-.836-.976-1.659-1.963-2.5-2.937-.5-.587-1.016-1.168-1.547-1.732a.992.992,0,0,0-1.413-.1,1.008,1.008,0,0,0-.114,1.414c.1.13.2.254.309.376,1.083,1.242,2.171,2.481,3.249,3.727.907,1.048,1.795,2.113,2.712,3.152a2.942,2.942,0,0,0,.64.436" transform="translate(-35.951 -8.708)" fill="#ffe126"/>
          <path id="Trazado_611055" data-name="Trazado 611055" d="M109.523,49.717c.241.275.455.515.664.759q2.823,3.276,5.65,6.549a1.452,1.452,0,0,0,.589.425.871.871,0,0,0,1.014-.375.927.927,0,0,0-.027-1.146c-.6-.718-1.23-1.41-1.839-2.121-.852-.995-1.689-2-2.544-2.994-.666-.773-1.351-1.531-2.061-2.334l-1.447,1.236" transform="translate(-35.853 -15.854)" fill="#ffe126"/>
          <path id="Trazado_611056" data-name="Trazado 611056" d="M45.388,56.461v5.66l4.245,2.123.708-5.66Z" transform="translate(-14.624 -18.495)" fill="#f5e1ff"/>
          <path id="Trazado_611057" data-name="Trazado 611057" d="M57.406,74.486l1.188-.438a53.6,53.6,0,0,1,9.6-2.571,41.088,41.088,0,0,1,12.136-.272,40.188,40.188,0,0,1,11.389,3.166,1.466,1.466,0,0,0,.173.067c.021.007.048-.005.125-.017V74q0-19.877,0-39.755a2.482,2.482,0,0,1,.06-.593.685.685,0,0,1,.723-.532.7.7,0,0,1,.707.552,2.544,2.544,0,0,1,.057.557q.005,23.926,0,47.852a1.8,1.8,0,0,1-.094.66.63.63,0,0,1-.809.36c-1.091-.262-2.177-.548-3.27-.8a55.631,55.631,0,0,0-8.641-1.4c-2.292-.161-4.588-.355-6.883-.359a57.012,57.012,0,0,0-15.9,2.2,4.462,4.462,0,0,1-2.656-.008,49.357,49.357,0,0,0-7.649-1.6A62.371,62.371,0,0,0,34.5,80.71a70.376,70.376,0,0,0-13.258,2.3,2.215,2.215,0,0,1-.517.076.637.637,0,0,1-.725-.6,5.843,5.843,0,0,1-.054-.859q0-22.969,0-45.938c0-.587.018-1.176-.012-1.762a1.134,1.134,0,0,1,.712-1.185,36.859,36.859,0,0,1,6.533-2.476c.361-.1.482-.234.481-.625-.018-3.938-.011-7.875-.011-11.813,0-.946.3-1.221,1.223-1.127a47.054,47.054,0,0,1,12.323,2.857A31.448,31.448,0,0,1,55.953,31.122c.265.379.543.751.783,1.145a.39.39,0,0,0,.6.185,36.837,36.837,0,0,1,7.651-2.434A.781.781,0,0,1,66,30.577c.113.41-.107.76-.621.9-1.058.292-2.138.51-3.18.848-1.458.472-2.886,1.036-4.336,1.536a.632.632,0,0,0-.48.712c.017,2.75.018,5.5.019,8.249q0,14.85,0,29.7v1.962M55.836,72.9c.008-.172.013-.234.013-.3q0-19.313,0-38.627a1.009,1.009,0,0,0-.14-.488,28.793,28.793,0,0,0-7.421-8.162,33.894,33.894,0,0,0-9.394-4.972,42.734,42.734,0,0,0-9.268-2.024c-.313-.037-.4.043-.4.37q.028,4.706.025,9.413,0,15.17-.016,30.339c0,.233.032.354.311.387,1.524.183,3.056.33,4.565.6a36.507,36.507,0,0,1,10.628,3.6A30.249,30.249,0,0,1,54.744,71.42c.355.461.69.937,1.092,1.483M27.649,31.761c-.1.019-.147.025-.193.037a45.084,45.084,0,0,0-5.709,2.127c-.261.108-.263.286-.263.507q.008,19.7.012,39.409v.628c.143-.05.235-.077.323-.112,1.08-.423,2.14-.907,3.243-1.259a42.3,42.3,0,0,1,10.721-2.158,40.577,40.577,0,0,1,7.445.24,53.936,53.936,0,0,1,10.608,2.548c.25.086.508.151.763.226a1.781,1.781,0,0,0-.289-.467A31.558,31.558,0,0,0,41.062,63.2a40.257,40.257,0,0,0-12.274-2.853c-.9-.079-1.139-.31-1.139-1.21V31.761M57.406,81.308a59.256,59.256,0,0,1,17.312-2.283,62.077,62.077,0,0,1,17.31,2.346c0-.575.011-1.086-.01-1.595,0-.086-.128-.2-.223-.244q-.7-.309-1.419-.581a39.257,39.257,0,0,0-11.911-2.422,54.21,54.21,0,0,0-9.167.3,48.51,48.51,0,0,0-7.057,1.335c-1.5.407-2.99.875-4.479,1.335a.548.548,0,0,0-.341.35c-.041.456-.016.919-.016,1.462m-35.92.085c11.484-3,22.906-3.532,34.364-.06,0-.556-.015-1.018.006-1.478.01-.226-.092-.306-.28-.365q-.786-.245-1.567-.506a51.2,51.2,0,0,0-12.619-2.412,45.846,45.846,0,0,0-12.2.653,38.256,38.256,0,0,0-7.422,2.291.466.466,0,0,0-.266.3c-.028.5-.013.993-.013,1.579m35.928-3.418c.153-.039.258-.061.361-.094.666-.209,1.328-.433,2-.631A58.254,58.254,0,0,1,72.6,74.916a45.4,45.4,0,0,1,8.716.268,42.926,42.926,0,0,1,8.417,1.9c.751.256,1.488.557,2.283.857,0-.4-.029-.775.007-1.141.047-.474-.126-.7-.579-.9a36.847,36.847,0,0,0-13.554-3.31A44.476,44.476,0,0,0,63,74.238c-1.735.5-3.425,1.151-5.129,1.752-.173.061-.417.236-.432.378-.052.516-.021,1.041-.021,1.606m-35.91-.09c.114-.023.151-.027.184-.038.118-.041.236-.082.352-.128a43.349,43.349,0,0,1,15.368-2.9A51.821,51.821,0,0,1,50.9,76.52c1.653.418,3.285.917,4.954,1.387,0-.462-.014-.947.006-1.429a.388.388,0,0,0-.3-.432A44.205,44.205,0,0,0,45.3,73.094a44.556,44.556,0,0,0-7.346-.627,40,40,0,0,0-9.46,1.151,38.086,38.086,0,0,0-6.671,2.422c-.128.06-.3.2-.307.317-.034.494-.015.991-.015,1.527" transform="translate(-6.198 -5.33)"/>
          <path id="Trazado_611058" data-name="Trazado 611058" d="M50.454,61.15c0,.949-.005,1.9,0,2.849a.85.85,0,0,1-.393.866.9.9,0,0,1-.988-.094,18.724,18.724,0,0,0-4.583-2.261c-.614-.2-.768-.418-.771-1.078q-.016-2.886,0-5.772c0-.72.436-1.038,1.115-.823a19.464,19.464,0,0,1,5.044,2.416,1.177,1.177,0,0,1,.576,1.125c-.035.923-.01,1.849-.01,2.774h.012m-1.567,1.564c0-1.286-.008-2.594.007-3.9a.513.513,0,0,0-.3-.537c-.912-.46-1.818-.929-2.729-1.388-.16-.081-.332-.135-.514-.207a.91.91,0,0,0-.051.187c-.008,1.359-.017,2.719-.011,4.079a.372.372,0,0,0,.184.276c1.123.5,2.252.985,3.417,1.489" transform="translate(-14.069 -17.935)"/>
        </g>
      </g>
    </g>
    <g id="Group_43_" data-name="Group (43)" transform="translate(1195.486 4351.597)">
      <path id="Trazado_598926" data-name="Trazado 598926" d="M36.549,16.055,16.055,36.549a15.864,15.864,0,0,0,.655,1.582l21.422-21.42a15.863,15.863,0,0,0-1.582-.655Z" transform="translate(-15.17 -15.17)" fill="#4ca220"/>
      <path id="Trazado_598927" data-name="Trazado 598927" d="M18.367.8.8,18.367a16.022,16.022,0,0,0,.26,1.7L20.065,1.058A16.022,16.022,0,0,0,18.367.8Z" transform="translate(-0.754 -0.754)" fill="#4ca220"/>
      <path id="Trazado_598928" data-name="Trazado 598928" d="M299.7,283.668c0-.137-.008-.274-.01-.41l-16.454,16.453c.137,0,.273.01.41.01a16.091,16.091,0,0,0,1.678-.088l14.289-14.289a16.09,16.09,0,0,0,.088-1.678Z" transform="translate(-267.627 -267.648)" fill="#4ca220"/>
      <path id="Trazado_598929" data-name="Trazado 598929" d="M68.634,46.122q-.611-.481-1.267-.9L45.2,67.389q.42.656.9,1.267Z" transform="translate(-42.708 -42.73)" fill="#4ca220"/>
      <path id="Trazado_598930" data-name="Trazado 598930" d="M0,15.009,15.009,0c-.434.026-.863.07-1.287.131L.131,13.722C.07,14.145.026,14.575,0,15.009Z" fill="#4ca220"/>
      <path id="Trazado_598931" data-name="Trazado 598931" d="M106.76,84.058l-22.7,22.7a16.114,16.114,0,0,0,1.365,1.222l22.559-22.559A16.123,16.123,0,0,0,106.76,84.058Z" transform="translate(-79.426 -79.426)" fill="#4ca220"/>
      <path id="Trazado_598932" data-name="Trazado 598932" d="M159.927,138.548a16.093,16.093,0,0,0-.877-1.6l-22.108,22.108a15.959,15.959,0,0,0,1.6.877Z" transform="translate(-129.396 -129.396)" fill="#4ca220"/>
      <path id="Trazado_598933" data-name="Trazado 598933" d="M28.816,19.794a16.1,16.1,0,0,0-9.022,9.022Z" transform="translate(-18.704 -18.704)" fill="#4ca220"/>
      <path id="Trazado_598934" data-name="Trazado 598934" d="M382.436,392.617a16.085,16.085,0,0,0,10.18-10.18Z" transform="translate(-361.361 -361.361)" fill="#4ca220"/>
      <path id="Trazado_598935" data-name="Trazado 598935" d="M220.714,200.477l-20.237,20.237a15.962,15.962,0,0,0,2.154.537l18.619-18.619A16.154,16.154,0,0,0,220.714,200.477Z" transform="translate(-189.429 -189.429)" fill="#4ca220"/>
    </g>
  </g>
</svg>
