<svg xmlns="http://www.w3.org/2000/svg" width="317" height="258" viewBox="0 0 317 258">
  <g id="Grupo_1016348" data-name="Grupo 1016348" transform="translate(175 9711.956)">
    <rect id="Rectángulo_348703" data-name="Rectángulo 348703" width="46" height="37" rx="18.5" transform="translate(-175 -9711.956)" fill="#304c8e"/>
    <rect id="Rectángulo_348709" data-name="Rectángulo 348709" width="46" height="37" rx="18.5" transform="translate(-175 -9667.956)" fill="#dee9f0"/>
    <rect id="Rectángulo_348715" data-name="Rectángulo 348715" width="46" height="36" rx="18" transform="translate(-175 -9622.956)" fill="#dee9f0"/>
    <rect id="Rectángulo_348721" data-name="Rectángulo 348721" width="46" height="37" rx="18.5" transform="translate(-175 -9578.956)" fill="#dee9f0"/>
    <rect id="Rectángulo_348727" data-name="Rectángulo 348727" width="46" height="37" rx="18.5" transform="translate(-175 -9534.956)" fill="#dee9f0"/>
    <rect id="Rectángulo_348733" data-name="Rectángulo 348733" width="46" height="36" rx="18" transform="translate(-175 -9489.956)" fill="#304c8e"/>
    <rect id="Rectángulo_348706" data-name="Rectángulo 348706" width="46" height="37" rx="18.5" transform="translate(-67 -9711.956)" fill="#304c8e"/>
    <rect id="Rectángulo_348710" data-name="Rectángulo 348710" width="46" height="37" rx="18.5" transform="translate(-67 -9667.956)" fill="#dee9f0"/>
    <rect id="Rectángulo_348716" data-name="Rectángulo 348716" width="46" height="36" rx="18" transform="translate(-67 -9622.956)" fill="#dee9f0"/>
    <rect id="Rectángulo_348722" data-name="Rectángulo 348722" width="46" height="37" rx="18.5" transform="translate(-67 -9578.956)" fill="#304c8e"/>
    <rect id="Rectángulo_348728" data-name="Rectángulo 348728" width="46" height="37" rx="18.5" transform="translate(-67 -9534.956)" fill="#dee9f0"/>
    <rect id="Rectángulo_348734" data-name="Rectángulo 348734" width="46" height="36" rx="18" transform="translate(-67 -9489.956)" fill="#304c8e"/>
    <rect id="Rectángulo_348708" data-name="Rectángulo 348708" width="47" height="37" rx="18.5" transform="translate(41 -9711.956)" fill="#304c8e"/>
    <rect id="Rectángulo_348711" data-name="Rectángulo 348711" width="47" height="37" rx="18.5" transform="translate(41 -9667.956)" fill="#304c8e"/>
    <rect id="Rectángulo_348717" data-name="Rectángulo 348717" width="47" height="36" rx="18" transform="translate(41 -9622.956)" fill="#dee9f0"/>
    <rect id="Rectángulo_348723" data-name="Rectángulo 348723" width="47" height="37" rx="18.5" transform="translate(41 -9578.956)" fill="#dee9f0"/>
    <rect id="Rectángulo_348729" data-name="Rectángulo 348729" width="47" height="37" rx="18.5" transform="translate(41 -9534.956)" fill="#dee9f0"/>
    <rect id="Rectángulo_348735" data-name="Rectángulo 348735" width="47" height="36" rx="18" transform="translate(41 -9489.956)" fill="#304c8e"/>
    <rect id="Rectángulo_348704" data-name="Rectángulo 348704" width="46" height="37" rx="18.5" transform="translate(-121 -9711.956)" fill="#304c8e"/>
    <rect id="Rectángulo_348712" data-name="Rectángulo 348712" width="46" height="37" rx="18.5" transform="translate(-121 -9667.956)" fill="#dee9f0"/>
    <rect id="Rectángulo_348718" data-name="Rectángulo 348718" width="46" height="36" rx="18" transform="translate(-121 -9622.956)" fill="#dee9f0"/>
    <rect id="Rectángulo_348724" data-name="Rectángulo 348724" width="46" height="37" rx="18.5" transform="translate(-121 -9578.956)" fill="#dee9f0"/>
    <rect id="Rectángulo_348730" data-name="Rectángulo 348730" width="46" height="37" rx="18.5" transform="translate(-121 -9534.956)" fill="#304c8e"/>
    <rect id="Rectángulo_348736" data-name="Rectángulo 348736" width="46" height="36" rx="18" transform="translate(-121 -9489.956)" fill="#304c8e"/>
    <rect id="Rectángulo_348705" data-name="Rectángulo 348705" width="46" height="37" rx="18.5" transform="translate(-12 -9711.956)" fill="#304c8e"/>
    <rect id="Rectángulo_348713" data-name="Rectángulo 348713" width="46" height="37" rx="18.5" transform="translate(-12 -9667.956)" fill="#dee9f0"/>
    <rect id="Rectángulo_348719" data-name="Rectángulo 348719" width="46" height="36" rx="18" transform="translate(-12 -9622.956)" fill="#304c8e"/>
    <rect id="Rectángulo_348725" data-name="Rectángulo 348725" width="46" height="37" rx="18.5" transform="translate(-12 -9578.956)" fill="#dee9f0"/>
    <rect id="Rectángulo_348731" data-name="Rectángulo 348731" width="46" height="37" rx="18.5" transform="translate(-12 -9534.956)" fill="#dee9f0"/>
    <rect id="Rectángulo_348737" data-name="Rectángulo 348737" width="46" height="36" rx="18" transform="translate(-12 -9489.956)" fill="#304c8e"/>
    <rect id="Rectángulo_348707" data-name="Rectángulo 348707" width="47" height="37" rx="18.5" transform="translate(95 -9711.956)" fill="#304c8e"/>
    <rect id="Rectángulo_348714" data-name="Rectángulo 348714" width="47" height="37" rx="18.5" transform="translate(95 -9667.956)" fill="#dee9f0"/>
    <rect id="Rectángulo_348720" data-name="Rectángulo 348720" width="47" height="36" rx="18" transform="translate(95 -9622.956)" fill="#dee9f0"/>
    <rect id="Rectángulo_348726" data-name="Rectángulo 348726" width="47" height="37" rx="18.5" transform="translate(95 -9578.956)" fill="#dee9f0"/>
    <rect id="Rectángulo_348732" data-name="Rectángulo 348732" width="47" height="37" rx="18.5" transform="translate(95 -9534.956)" fill="#dee9f0"/>
    <rect id="Rectángulo_348738" data-name="Rectángulo 348738" width="47" height="36" rx="18" transform="translate(95 -9489.956)" fill="#304c8e"/>
  </g>
</svg>
