<svg xmlns="http://www.w3.org/2000/svg" xmlns:xlink="http://www.w3.org/1999/xlink" width="190" height="147" viewBox="0 0 190 147">
  <defs>
    <clipPath id="clip-path">
      <rect id="Rectángulo_349173" data-name="Rectángulo 349173" width="190" height="147" rx="17" transform="translate(224 3170)" fill="#fff"/>
    </clipPath>
    <clipPath id="clip-path-2">
      <rect id="Rectángulo_349175" data-name="Rectángulo 349175" width="174.187" height="107.321" fill="none"/>
    </clipPath>
  </defs>
  <g id="Enmascarar_grupo_80" data-name="Enmascarar grupo 80" transform="translate(-224 -3170)" clip-path="url(#clip-path)">
    <g id="Grupo_1016696" data-name="Grupo 1016696" transform="translate(230.208 3184.155)">
      <g id="Grupo_1016696-2" data-name="Grupo 1016696" transform="translate(0 0)" clip-path="url(#clip-path-2)">
        <path id="Trazado_637357" data-name="Trazado 637357" d="M154.452.5H15.275A8.1,8.1,0,0,0,7.2,8.572V82.566a8.1,8.1,0,0,0,8.072,8.072H154.452a8.1,8.1,0,0,0,8.072-8.072V8.572A8.1,8.1,0,0,0,154.452.5" transform="translate(10.438 0.724)" fill="#60cb28"/>
        <path id="Trazado_637358" data-name="Trazado 637358" d="M155.175,92.589H16a9.306,9.306,0,0,1-9.3-9.3V9.3A9.307,9.307,0,0,1,16,0H155.175a9.308,9.308,0,0,1,9.3,9.3V83.293a9.308,9.308,0,0,1-9.3,9.3M16,2.449A6.855,6.855,0,0,0,9.153,9.3V83.293A6.853,6.853,0,0,0,16,90.14H155.175a6.855,6.855,0,0,0,6.848-6.848V9.3a6.857,6.857,0,0,0-6.848-6.85Z" transform="translate(9.715 -0.001)" fill="#393c41"/>
        <path id="Trazado_637359" data-name="Trazado 637359" d="M151.157,3.622H11.98a8.1,8.1,0,0,0-8.072,8.072V85.688A8.1,8.1,0,0,0,11.98,93.76H151.157a8.1,8.1,0,0,0,8.072-8.072V11.694a8.1,8.1,0,0,0-8.072-8.072" transform="translate(5.663 5.248)" fill="#60cb28"/>
        <path id="Trazado_637360" data-name="Trazado 637360" d="M151.88,95.709H12.706a9.308,9.308,0,0,1-9.3-9.3V12.419a9.308,9.308,0,0,1,9.3-9.3H151.88a9.308,9.308,0,0,1,9.3,9.3V86.412a9.308,9.308,0,0,1-9.3,9.3M12.706,5.571a6.853,6.853,0,0,0-6.848,6.848V86.412a6.853,6.853,0,0,0,6.848,6.848H151.88a6.855,6.855,0,0,0,6.848-6.848V12.419a6.855,6.855,0,0,0-6.848-6.848Z" transform="translate(4.94 4.523)" fill="#393c41"/>
        <rect id="Rectángulo_349174" data-name="Rectángulo 349174" width="155.322" height="90.138" rx="3.296" transform="translate(1.225 15.958)" fill="#60cb28"/>
        <path id="Trazado_637361" data-name="Trazado 637361" d="M148.474,98.605H9.3a9.308,9.308,0,0,1-9.3-9.3v-74a9.308,9.308,0,0,1,9.3-9.3H148.474a9.308,9.308,0,0,1,9.3,9.3v74a9.308,9.308,0,0,1-9.3,9.3M9.3,8.465a6.855,6.855,0,0,0-6.848,6.848v74A6.855,6.855,0,0,0,9.3,96.156H148.474a6.856,6.856,0,0,0,6.848-6.848v-74a6.856,6.856,0,0,0-6.848-6.848Z" transform="translate(0 8.717)" fill="#393c41"/>
        <path id="Trazado_637362" data-name="Trazado 637362" d="M3.681,23.49h0V70.134A13.679,13.679,0,0,1,17.359,83.814H129.743a13.678,13.678,0,0,1,13.676-13.681V23.49A13.678,13.678,0,0,1,129.743,9.809H17.359A13.679,13.679,0,0,1,3.681,23.49" transform="translate(5.334 14.214)" fill="#fdfde3"/>
        <path id="Trazado_637363" data-name="Trazado 637363" d="M130.465,85.764H18.084a1.225,1.225,0,0,1-1.225-1.225A12.468,12.468,0,0,0,4.406,72.083a1.225,1.225,0,0,1-1.225-1.225V24.214A1.225,1.225,0,0,1,4.406,22.99,12.468,12.468,0,0,0,16.859,10.534a1.225,1.225,0,0,1,1.225-1.225H130.465a1.225,1.225,0,0,1,1.225,1.225A12.468,12.468,0,0,0,144.143,22.99a1.223,1.223,0,0,1,1.225,1.225V70.858a1.223,1.223,0,0,1-1.225,1.225,12.468,12.468,0,0,0-12.454,12.456,1.225,1.225,0,0,1-1.225,1.225m-111.2-2.449H129.289a14.928,14.928,0,0,1,13.629-13.629V25.39a14.933,14.933,0,0,1-13.629-13.632H19.262A14.935,14.935,0,0,1,5.63,25.39v44.3A14.931,14.931,0,0,1,19.262,83.314" transform="translate(4.61 13.489)" fill="#393c41"/>
        <path id="Trazado_637364" data-name="Trazado 637364" d="M80.482,43.17c0,17.036-13.578,30.847-30.328,30.847S19.827,60.206,19.827,43.17,33.4,12.323,50.155,12.323,80.482,26.134,80.482,43.17" transform="translate(28.732 17.857)" fill="#60cb28"/>
        <path id="Trazado_637365" data-name="Trazado 637365" d="M50.878,75.963c-17.4,0-31.552-14.386-31.552-32.069S33.48,11.823,50.878,11.823,82.43,26.209,82.43,43.894,68.277,75.963,50.878,75.963m0-61.691c-16.047,0-29.1,13.289-29.1,29.622s13.056,29.62,29.1,29.62,29.1-13.287,29.1-29.62-13.056-29.622-29.1-29.622" transform="translate(28.006 17.132)" fill="#393c41"/>
        <path id="Trazado_637366" data-name="Trazado 637366" d="M28.148,28.631c.02-5.758,3.566-7.617,7.989-7.756V17.419h3.838V20.9a27.587,27.587,0,0,1,6.982,1.2v5.136c-2.432-.211-6.752-.392-8.741-.392-2.332-.029-3.478.162-3.478,2.381v.994c0,1.739.725,2.432,2.853,2.432H40.83c5.966,0,7.213,4.884,7.213,8.119v1.678c0,6.843-4.068,8.4-8.067,8.4v3.3H36.137V50.806a21.036,21.036,0,0,1-7.063-1.225v-5.1c1.607.12,5.564.392,9.3.392,1.707,0,3.074-.4,3.074-2.141V41.563c0-1.447-.453-2.312-2.432-2.312H35.9c-7.2,0-7.756-5.907-7.756-8.116Z" transform="translate(40.79 25.242)" fill="#fff4de"/>
        <path id="Trazado_637367" data-name="Trazado 637367" d="M40.7,56.1H36.862a1.225,1.225,0,0,1-1.225-1.225V52.7a21.632,21.632,0,0,1-6.2-1.229,1.222,1.222,0,0,1-.86-1.168V45.2a1.227,1.227,0,0,1,.389-.9,1.242,1.242,0,0,1,.926-.326c2.383.179,5.917.389,9.214.389,1.849,0,1.849-.485,1.849-.916V42.287c0-.879,0-1.087-1.207-1.087H36.631c-5.626,0-8.983-3.492-8.983-9.341v-2.5c.02-5.3,2.775-8.354,7.989-8.9V18.144a1.225,1.225,0,0,1,1.225-1.225H40.7a1.225,1.225,0,0,1,1.225,1.225v2.339a28.533,28.533,0,0,1,6.118,1.178,1.227,1.227,0,0,1,.865,1.173v5.136a1.221,1.221,0,0,1-.4.9,1.273,1.273,0,0,1-.933.318c-2.481-.216-6.752-.389-8.636-.389h-.362c-1.888,0-1.888.13-1.888,1.158v.994c0,.906,0,1.21,1.629,1.21h3.235c6.221,0,8.437,4.825,8.437,9.341v1.68c0,5.858-2.782,9.148-8.067,9.576v2.118A1.225,1.225,0,0,1,40.7,56.1m-2.613-2.449h1.389V51.582A1.225,1.225,0,0,1,40.7,50.357c4.668,0,6.843-2.278,6.843-7.174V41.5c0-2.574-.779-6.892-5.988-6.892H38.319c-1.009,0-4.078,0-4.078-3.659v-.994c0-3.608,2.821-3.608,4.337-3.608h.377c1.614,0,4.967.125,7.5.3V23.755a26.5,26.5,0,0,0-5.819-.9,1.224,1.224,0,0,1-1.163-1.222V19.368H38.086V21.6A1.225,1.225,0,0,1,36.9,22.824c-4.626.147-6.787,2.224-6.8,6.537v2.5c0,3.145,1.134,6.892,6.534,6.892h3.113c2.427,0,3.657,1.19,3.657,3.537v1.166c0,1.536-.745,3.365-4.3,3.365-2.8,0-5.768-.149-8.08-.3V49.4a18.825,18.825,0,0,0,5.875.906,1.226,1.226,0,0,1,1.188,1.225Z" transform="translate(40.066 24.517)" fill="#393c41"/>
        <path id="Trazado_637368" data-name="Trazado 637368" d="M26.273,30.1a8.763,8.763,0,1,0-8.763,8.763A8.763,8.763,0,0,0,26.273,30.1" transform="translate(12.676 30.924)" fill="#60cb28"/>
        <path id="Trazado_637369" data-name="Trazado 637369" d="M18.235,40.815a9.988,9.988,0,1,1,9.988-9.988,10,10,0,0,1-9.988,9.988m0-17.526a7.538,7.538,0,1,0,7.538,7.538,7.548,7.548,0,0,0-7.538-7.538" transform="translate(11.951 30.199)" fill="#393c41"/>
        <path id="Trazado_637370" data-name="Trazado 637370" d="M66.042,30.1a8.763,8.763,0,1,0-8.763,8.763A8.763,8.763,0,0,0,66.042,30.1" transform="translate(70.306 30.924)" fill="#60cb28"/>
        <path id="Trazado_637371" data-name="Trazado 637371" d="M58,40.815a9.988,9.988,0,1,1,9.988-9.988A10,10,0,0,1,58,40.815m0-17.526a7.538,7.538,0,1,0,7.538,7.538A7.548,7.548,0,0,0,58,23.289" transform="translate(69.582 30.199)" fill="#393c41"/>
      </g>
    </g>
  </g>
</svg>
