<svg xmlns="http://www.w3.org/2000/svg" width="385" height="251.636" viewBox="0 0 385 251.636">
  <g id="Group_43" data-name="Group 43" transform="translate(-28.657 -23.223)">
    <path id="Trazado_605298" data-name="Trazado 605298" d="M790.1,356.875a59.914,59.914,0,0,0,6.548-15.413l11.589-2.216.118-12.815.118-12.816-11.543-2.434a59.762,59.762,0,0,0-6.258-15.53L797.3,285.9l-8.974-9.146-8.973-9.146-9.872,6.431a59.917,59.917,0,0,0-15.413-6.548L751.847,255.9l-12.815-.118-12.815-.118-2.434,11.544a59.748,59.748,0,0,0-15.531,6.258l-9.755-6.621-9.146,8.973-9.146,8.974,6.43,9.872a59.926,59.926,0,0,0-6.549,15.413L668.5,312.29l-.118,12.815-.118,12.815,11.543,2.434a59.776,59.776,0,0,0,6.258,15.531l-6.621,9.754,8.974,9.146,8.973,9.146,9.872-6.439a59.932,59.932,0,0,0,15.413,6.548l2.216,11.589,12.815.118,12.815.118,2.434-11.543a59.766,59.766,0,0,0,15.531-6.258l9.755,6.621,9.146-8.974,9.146-8.973-6.43-9.872Zm-74.166-9.091a31.419,31.419,0,1,1,44.43.418A31.416,31.416,0,0,1,715.936,347.784Z" transform="translate(-399.761 -192.743)" fill="#4ca220"/>
    <path id="Trazado_605299" data-name="Trazado 605299" d="M236.8,186.4a44.931,44.931,0,0,0,3.687-11.953l8.438-2.534-.89-9.527-.89-9.527-8.755-.927a44.851,44.851,0,0,0-5.831-11.062l4.169-7.747-7.366-6.112L222,120.895l-6.848,5.531a44.932,44.932,0,0,0-11.953-3.687l-2.534-8.438-9.527.89-9.527.89-.927,8.764a44.853,44.853,0,0,0-11.062,5.831l-7.747-4.169-6.112,7.366-6.112,7.366,5.531,6.848a44.921,44.921,0,0,0-3.687,11.952l-8.438,2.534.89,9.527.89,9.527,8.755.926a44.832,44.832,0,0,0,5.831,11.062l-4.169,7.748,7.366,6.112,7.366,6.113,6.848-5.531a44.97,44.97,0,0,0,11.953,3.687l2.534,8.437,9.527-.89,9.527-.89.926-8.765a44.851,44.851,0,0,0,11.062-5.831l7.747,4.169,6.112-7.366,6.112-7.366Zm-55.783-1.09a25.177,25.177,0,1,0,.009-.009Z" transform="translate(-67.06 -53.573)" fill="#4ca220"/>
    <path id="Trazado_605301" data-name="Trazado 605301" d="M372.181,103.051s9.064,36.1-12.7,45.966-17.592-8.2-17.592-8.2-8.928-2.479,15.367-16.257c11.453-6.494,14.931-21.516,14.931-21.516Z" transform="translate(-160.562 -48.235)" fill="#60cb28"/>
    <path id="Trazado_605302" data-name="Trazado 605302" d="M433.776,109.044s4.459,31.47-36.729,45.066-47.064,30.853-47.064,30.853-1.235-69.743,83.793-75.928Z" transform="translate(-165.156 -51.076)" fill="#4ca220"/>
    <path id="Trazado_605303" data-name="Trazado 605303" d="M347.031,202.9c-12.216-4.659,16.82-29.663,39.135-28.982s37.438,8.937,52.378,5.44C438.544,179.358,407.183,225.86,347.031,202.9Z" transform="translate(-162.386 -81.828)" fill="#397a18"/>
    <path id="Trazado_605304" data-name="Trazado 605304" d="M323.654,227.489q1.049-14.237,1.472-26.638c-2.289-1.217-5.041-2.634-7.248-3.678-6.82-3.242-16.311-7.62-22.415-10.417-3.569-1.644-7.066-2.834-7.066-2.834s-24.358-2.334-26.339-2.207a61.893,61.893,0,0,0-7.666,2.615c-8.637,3.279-25.294,9.954-27.946,11.852-3.887,2.789-17.8,71-18.174,75.629-.363,4.5,18.928,10.653,36.783,15.376-.009,6.912-.154,16.6-.309,25.449-.027,1.508-.054,3-.082,4.432h78.144c-.109-1.517-.2-3.015-.272-4.432,0-.19-.018-.372-.027-.563-.3-5.985-1.462-16.721-1.162-27.165,0,0-.191-11.017.908-15.758.118-20.935,1.39-41.66,1.39-41.66Zm-99.1,40.1c.127-8.883,11.952-25.394,11.952-25.394a4.148,4.148,0,0,1,.554-.209s.609-.082.609-.073,1.834-1.744,1.853-1.744c.436,1.58,4.35,23.886,5.313,36.874C233.73,274.862,224.494,271.829,224.557,267.587Z" transform="translate(-97.975 -85.529)" fill="#dbd8e3"/>
    <path id="Trazado_605305" data-name="Trazado 605305" d="M400.9,315.954c-.517-3.7-1-7.393-1.435-11.017v-.055c-.146-1.208-.282-2.4-.418-3.578a1.685,1.685,0,0,0-.018-.191c-.572-4.986-1.045-9.764-1.39-14.15a44.787,44.787,0,0,1,.436-9.836c1.362-22.388,2.034-46,2.034-46,.717-9.664,1.126-18.691,1.4-27.111,0,0-30.589-14.459-33.359-15.286,0,0,5.8,13.623,10.154,44.076,1.671,11.7,4.768,31.38,7.02,51.479,1.217,10.844,3.5,21.9,5.232,31.67.263,1.507.518,2.988.754,4.432h10.236q-.327-2.207-.626-4.432Z" transform="translate(-173.769 -88.856)" fill="#323657"/>
    <path id="Trazado_605306" data-name="Trazado 605306" d="M269.787,277.8c1.208-11.326,2.288-22.624,1.771-28.809-4.223-49.771-16.157-62.949-17.892-64.875-1.335.509-6.43,2.425-7.92,3.015-8.165,3.215-24.8,9.119-27.047,10.726-3.887,2.789-19.218,74.293-19.682,78.916-.309,3.124,19.7,9.654,40.117,15.485-.191,5.594.336,13.487-1.517,21.733a18.884,18.884,0,0,0-.881,4.323l28.455-.109c.172-1.471.354-2.943.536-4.432.545-4.451,1.108-9,1.671-13.841,8.538,2.207,14.332,3.633,14.332,3.633s8.02-13.551,10.345-19.036c.4-.936-9.918-3.415-22.279-6.712Zm-36.8-17.129c-.272-10.19-.218-17.3-.218-17.3,1.008,3.488,2.407,13.469,3.633,23.387-4.132-2.08-3.36-4.023-3.406-6.085Z" transform="translate(-93.589 -86.671)" fill="#323657"/>
    <path id="Trazado_605307" data-name="Trazado 605307" d="M308.142,162.172s3.1-5.858,2.243-22.479c-.236-4.6,24.186,10.917,24.186,10.917s-.082,1.589-.136,3.733c-.027.89-.045,1.871-.045,2.87v.836c0,.454,0,.908.018,1.353.009.554.036,1.108.064,1.635.027.6.073,1.162.127,1.68a14.844,14.844,0,0,0,.908,3.261c1.117,2.579-18.21,2.734-27.356-3.806Z" transform="translate(-145.322 -65.206)" fill="#eea987"/>
    <path id="Trazado_605308" data-name="Trazado 605308" d="M344.527,203.3l4.5,6.049s-2.633,3.533-7.32.926Z" transform="translate(-161.236 -95.766)" fill="#e8734d"/>
    <path id="Trazado_605309" data-name="Trazado 605309" d="M349.97,215.107s16.493,40.28,12.97,91.441l-5.2,9.436-5.867-8.038s-.945-67.954-5.631-93l3.724.164Z" transform="translate(-163.381 -101.283)" fill="#e8734d"/>
    <path id="Trazado_605310" data-name="Trazado 605310" d="M342.68,191.028l-4.822,5.64s-7.738-1.5-10.009-5.54,14.822-.1,14.822-.1Z" transform="translate(-154.565 -89.129)" fill="#eea987"/>
    <path id="Trazado_605311" data-name="Trazado 605311" d="M353,183.186s-.563,4.3-5.922,10.572l5.858,7.865,3.17-16.32Z" transform="translate(-163.782 -86.228)" fill="#c4c1cc"/>
    <path id="Trazado_605312" data-name="Trazado 605312" d="M308.712,173.36s11.18,12.652,19.01,15.74l-3.633,9-17.847-19.69,2.48-5.05Z" transform="translate(-144.421 -81.57)" fill="#c4c1cc"/>
    <path id="Trazado_605313" data-name="Trazado 605313" d="M467.534,307.141s-14.85-14.4-24.586-16.793c-4.5-1.108-10.426-7.32-16.066-14.623-1.853-2.407-3.678-4.932-5.413-7.429v-.009c-6.912-9.981-12.325-19.545-12.325-19.545s-20.435-23.941-4.032-34.613c0,0,7.03-.154,10.881,1.944,3.96,2.152,12.415,19.79,13.851,22.915s16.956,32.133,18,32.787,2.77,3.034,8.983,6.385c7.6,4.1,19.554,16.076,19.554,16.076l-8.837,12.906Z" transform="translate(-188.269 -100.896)" fill="#323657"/>
    <path id="Trazado_605314" data-name="Trazado 605314" d="M376.142,400.09a9.362,9.362,0,0,1-2.961-.563s-1.553-1-2.7-1.635a8.232,8.232,0,0,0-.908-.454,17.293,17.293,0,0,1-4.986-2.38c-1.953-1.489-8.319-7.438-8.319-7.438l4.114-6.321,1.9-6.258s14.84,1.472,16.82,2.652a6.34,6.34,0,0,1,.545.363c1.58,1.163,2.27,2.689,3.024,3.388.272.263,2.861,3.025,2.715,4.151a3.72,3.72,0,0,1-1.934,3.034s-.526,3.034-2.089,4.387a5.472,5.472,0,0,1-2.824,3.941s-.717,2.806-2.407,3.142Z" transform="translate(-168.137 -177.179)" fill="#efaa88"/>
    <path id="Trazado_605315" data-name="Trazado 605315" d="M327.987,58.478s26.82-6.467,21.171,27.492-12.079,36.711-28.419,29.944-15.2-28.491-16.175-39.117S319.4,58.977,327.987,58.478Z" transform="translate(-143.605 -26.876)" fill="#eea886"/>
    <path id="Trazado_605316" data-name="Trazado 605316" d="M316.257,101.329c-.4-2.979-6.321-3.987-6.73.5s2.861,12.3,5.1,11.5,2.189-7.874,1.635-11.989Z" transform="translate(-145.961 -46.213)" fill="#eea886"/>
    <path id="Trazado_605317" data-name="Trazado 605317" d="M304.2,87.044s.536-10.681,4.432-11.071,4.559,3.9,4.559,3.9l3.942.681s-1.381-9.337,2.488-11.026,25.285,4.777,28.373,1.989,1.335-21.743-4.351-24.25-21.371-8.1-32.687-.2c0,0-8.928-.881-10.145,6.321s.9,28.337,3.4,33.65Z" transform="translate(-141.679 -19.767)" fill="#16202e"/>
    <path id="Trazado_605318" data-name="Trazado 605318" d="M334.744,366.846l-11.072,19.036s-29.336-7.557-36.184-9.491l15.649-18.619S326.207,363.04,334.744,366.846Z" transform="translate(-135.531 -168.993)" fill="#323657"/>
    <path id="Trazado_605319" data-name="Trazado 605319" d="M340.211,169.722a25.639,25.639,0,0,1-19.963-12.543,29.735,29.735,0,0,0,19.881,8.719v.836c0,.454,0,.908.018,1.353C340.156,168.641,340.183,169.2,340.211,169.722Z" transform="translate(-151.061 -73.9)" fill="#a77860"/>
    <path id="Trazado_605321" data-name="Trazado 605321" d="M416.909,331.026c16.675,17.165,38.7,38.772,38.7,38.772l8.61-16.348s-19.563-22.933-32.833-38.245c-4.069,2-11.525,6.748-14.486,15.812Z" transform="translate(-196.879 -148.813)" fill="#eea886"/>
    <path id="Trazado_605322" data-name="Trazado 605322" d="M395.489,389.167a49.313,49.313,0,0,1,5.658,3.133c1.172.963,5.922,4.523,7.076,5.359s-1.735,3.215-10.227-.463S395.489,389.167,395.489,389.167Z" transform="translate(-185.758 -183.876)" fill="#eea886"/>
    <path id="Trazado_605323" data-name="Trazado 605323" d="M391.029,295.76l-7.82,72.74H486.175L494,295.76Z" transform="translate(-180.908 -139.595)" fill="#304c8e"/>
    <path id="Trazado_605324" data-name="Trazado 605324" d="M496.636,361.39H392.862l7.911-73.539H504.547Zm-102.885-.808H495.919l7.738-71.932H401.49Z" transform="translate(-185.484 -135.846)" fill="#ffc955"/>
    <path id="Trazado_605325" data-name="Trazado 605325" d="M367.615,428.163h17.2v-6.549h-17.2Z" transform="translate(-173.515 -199.257)" fill="#fee132"/>
    <g id="Grupo_1014675" data-name="Grupo 1014675" transform="translate(28.657 228.75)">
      <path id="Trazado_605326" data-name="Trazado 605326" d="M57.355,433.771h-4.3V438.2h4.3Z" transform="translate(-53.05 -433.771)" fill="#96cbff"/>
      <path id="Trazado_605327" data-name="Trazado 605327" d="M65.54,433.771h-4.3V438.2h4.3Z" transform="translate(-56.93 -433.771)" fill="#95caff"/>
      <path id="Trazado_605328" data-name="Trazado 605328" d="M73.725,433.771H69.42V438.2h4.305Z" transform="translate(-60.81 -433.771)" fill="#94c9ff"/>
      <path id="Trazado_605329" data-name="Trazado 605329" d="M81.911,433.771h-4.3V438.2h4.3Z" transform="translate(-64.691 -433.771)" fill="#93c9ff"/>
      <path id="Trazado_605330" data-name="Trazado 605330" d="M90.1,433.771H85.791V438.2H90.1Z" transform="translate(-68.571 -433.771)" fill="#92c8ff"/>
      <path id="Trazado_605331" data-name="Trazado 605331" d="M98.282,433.771H93.977V438.2h4.305Z" transform="translate(-72.452 -433.771)" fill="#91c7ff"/>
      <path id="Trazado_605332" data-name="Trazado 605332" d="M106.467,433.771h-4.3V438.2h4.3Z" transform="translate(-76.332 -433.771)" fill="#90c6ff"/>
      <path id="Trazado_605333" data-name="Trazado 605333" d="M114.653,433.771h-4.3V438.2h4.3Z" transform="translate(-80.213 -433.771)" fill="#8fc6ff"/>
      <path id="Trazado_605334" data-name="Trazado 605334" d="M122.837,433.771h-4.305V438.2h4.305Z" transform="translate(-84.092 -433.771)" fill="#8ec5ff"/>
      <path id="Trazado_605335" data-name="Trazado 605335" d="M131.023,433.771h-4.305V438.2h4.305Z" transform="translate(-87.973 -433.771)" fill="#8dc4ff"/>
      <path id="Trazado_605336" data-name="Trazado 605336" d="M139.208,433.771h-4.3V438.2h4.3Z" transform="translate(-91.853 -433.771)" fill="#8cc3ff"/>
      <path id="Trazado_605337" data-name="Trazado 605337" d="M147.394,433.771h-4.3V438.2h4.3Z" transform="translate(-95.734 -433.771)" fill="#8bc2ff"/>
      <path id="Trazado_605338" data-name="Trazado 605338" d="M155.578,433.771h-4.305V438.2h4.305Z" transform="translate(-99.613 -433.771)" fill="#8ac2ff"/>
      <path id="Trazado_605339" data-name="Trazado 605339" d="M163.764,433.771h-4.305V438.2h4.305Z" transform="translate(-103.494 -433.771)" fill="#89c1ff"/>
      <path id="Trazado_605340" data-name="Trazado 605340" d="M171.95,433.771h-4.3V438.2h4.3Z" transform="translate(-107.375 -433.771)" fill="#88c0ff"/>
      <path id="Trazado_605341" data-name="Trazado 605341" d="M180.135,433.771h-4.3V438.2h4.3Z" transform="translate(-111.255 -433.771)" fill="#87bfff"/>
      <path id="Trazado_605342" data-name="Trazado 605342" d="M188.32,433.771h-4.3V438.2h4.3Z" transform="translate(-115.135 -433.771)" fill="#86bfff"/>
      <path id="Trazado_605343" data-name="Trazado 605343" d="M196.506,433.771h-4.3V438.2h4.3Z" transform="translate(-119.016 -433.771)" fill="#85beff"/>
      <path id="Trazado_605344" data-name="Trazado 605344" d="M204.691,433.771h-4.3V438.2h4.3Z" transform="translate(-122.896 -433.771)" fill="#84bdff"/>
      <path id="Trazado_605345" data-name="Trazado 605345" d="M212.876,433.771h-4.305V438.2h4.305Z" transform="translate(-126.776 -433.771)" fill="#83bcff"/>
      <path id="Trazado_605346" data-name="Trazado 605346" d="M221.079,433.771h-4.3V438.2h4.3Z" transform="translate(-130.665 -433.771)" fill="#82bbff"/>
      <path id="Trazado_605347" data-name="Trazado 605347" d="M229.264,433.771h-4.3V438.2h4.3Z" transform="translate(-134.545 -433.771)" fill="#81bbff"/>
      <path id="Trazado_605348" data-name="Trazado 605348" d="M237.45,433.771h-4.3V438.2h4.3Z" transform="translate(-138.426 -433.771)" fill="#80baff"/>
      <path id="Trazado_605349" data-name="Trazado 605349" d="M245.635,433.771h-4.3V438.2h4.3Z" transform="translate(-142.306 -433.771)" fill="#7fb9ff"/>
      <path id="Trazado_605350" data-name="Trazado 605350" d="M253.82,433.771h-4.3V438.2h4.3Z" transform="translate(-146.186 -433.771)" fill="#7eb8ff"/>
      <path id="Trazado_605351" data-name="Trazado 605351" d="M262.005,433.771H257.7V438.2h4.305Z" transform="translate(-150.066 -433.771)" fill="#7db7ff"/>
      <path id="Trazado_605352" data-name="Trazado 605352" d="M270.191,433.771h-4.3V438.2h4.3Z" transform="translate(-153.947 -433.771)" fill="#7cb7ff"/>
      <path id="Trazado_605353" data-name="Trazado 605353" d="M278.377,433.771h-4.3V438.2h4.3Z" transform="translate(-157.827 -433.771)" fill="#7bb6ff"/>
      <path id="Trazado_605354" data-name="Trazado 605354" d="M286.562,433.771h-4.3V438.2h4.3Z" transform="translate(-161.708 -433.771)" fill="#7ab5ff"/>
      <path id="Trazado_605355" data-name="Trazado 605355" d="M294.747,433.771h-4.305V438.2h4.305Z" transform="translate(-165.588 -433.771)" fill="#79b4ff"/>
      <path id="Trazado_605356" data-name="Trazado 605356" d="M302.932,433.771h-4.305V438.2h4.305Z" transform="translate(-169.468 -433.771)" fill="#78b4ff"/>
      <path id="Trazado_605357" data-name="Trazado 605357" d="M311.118,433.771h-4.3V438.2h4.3Z" transform="translate(-173.349 -433.771)" fill="#77b3ff"/>
      <path id="Trazado_605358" data-name="Trazado 605358" d="M319.3,433.771H315V438.2h4.3Z" transform="translate(-177.229 -433.771)" fill="#76b2ff"/>
      <path id="Trazado_605359" data-name="Trazado 605359" d="M327.489,433.771h-4.3V438.2h4.3Z" transform="translate(-181.109 -433.771)" fill="#74b1ff"/>
      <path id="Trazado_605360" data-name="Trazado 605360" d="M335.674,433.771h-4.3V438.2h4.3Z" transform="translate(-184.99 -433.771)" fill="#73b0ff"/>
      <path id="Trazado_605361" data-name="Trazado 605361" d="M343.859,433.771h-4.305V438.2h4.305Z" transform="translate(-188.87 -433.771)" fill="#72b0ff"/>
      <path id="Trazado_605362" data-name="Trazado 605362" d="M352.044,433.771h-4.305V438.2h4.305Z" transform="translate(-192.75 -433.771)" fill="#71afff"/>
      <path id="Trazado_605363" data-name="Trazado 605363" d="M360.23,433.771h-4.3V438.2h4.3Z" transform="translate(-196.631 -433.771)" fill="#70aeff"/>
      <path id="Trazado_605364" data-name="Trazado 605364" d="M368.415,433.771h-4.3V438.2h4.3Z" transform="translate(-200.511 -433.771)" fill="#6fadff"/>
      <path id="Trazado_605365" data-name="Trazado 605365" d="M376.6,433.771H372.3V438.2H376.6Z" transform="translate(-204.391 -433.771)" fill="#6eadff"/>
      <path id="Trazado_605366" data-name="Trazado 605366" d="M384.785,433.771H380.48V438.2h4.305Z" transform="translate(-208.271 -433.771)" fill="#6dacff"/>
      <path id="Trazado_605367" data-name="Trazado 605367" d="M392.972,433.771h-4.3V438.2h4.3Z" transform="translate(-212.152 -433.771)" fill="#6cabff"/>
      <path id="Trazado_605368" data-name="Trazado 605368" d="M401.156,433.771h-4.3V438.2h4.3Z" transform="translate(-216.032 -433.771)" fill="#6baaff"/>
      <path id="Trazado_605369" data-name="Trazado 605369" d="M409.342,433.771h-4.3V438.2h4.3Z" transform="translate(-219.913 -433.771)" fill="#6aa9ff"/>
      <path id="Trazado_605370" data-name="Trazado 605370" d="M417.527,433.771h-4.3V438.2h4.3Z" transform="translate(-223.793 -433.771)" fill="#69a9ff"/>
      <path id="Trazado_605371" data-name="Trazado 605371" d="M425.713,433.771h-4.3V438.2h4.3Z" transform="translate(-227.673 -433.771)" fill="#68a8ff"/>
      <path id="Trazado_605372" data-name="Trazado 605372" d="M433.9,433.771h-4.305V438.2H433.9Z" transform="translate(-231.553 -433.771)" fill="#67a7ff"/>
      <path id="Trazado_605373" data-name="Trazado 605373" d="M442.083,433.771h-4.305V438.2h4.305Z" transform="translate(-235.434 -433.771)" fill="#66a6ff"/>
      <path id="Trazado_605374" data-name="Trazado 605374" d="M450.268,433.771h-4.305V438.2h4.305Z" transform="translate(-239.314 -433.771)" fill="#65a6ff"/>
      <path id="Trazado_605375" data-name="Trazado 605375" d="M458.454,433.771h-4.3V438.2h4.3Z" transform="translate(-243.195 -433.771)" fill="#64a5ff"/>
      <path id="Trazado_605376" data-name="Trazado 605376" d="M466.639,433.771h-4.3V438.2h4.3Z" transform="translate(-247.075 -433.771)" fill="#63a4ff"/>
      <path id="Trazado_605377" data-name="Trazado 605377" d="M474.842,433.771h-4.3V438.2h4.3Z" transform="translate(-250.964 -433.771)" fill="#62a3ff"/>
      <path id="Trazado_605378" data-name="Trazado 605378" d="M483.027,433.771h-4.305V438.2h4.305Z" transform="translate(-254.844 -433.771)" fill="#61a2ff"/>
      <path id="Trazado_605379" data-name="Trazado 605379" d="M491.213,433.771h-4.3V438.2h4.3Z" transform="translate(-258.724 -433.771)" fill="#60a2ff"/>
      <path id="Trazado_605380" data-name="Trazado 605380" d="M499.4,433.771h-4.3V438.2h4.3Z" transform="translate(-262.605 -433.771)" fill="#5fa1ff"/>
      <path id="Trazado_605381" data-name="Trazado 605381" d="M507.584,433.771h-4.3V438.2h4.3Z" transform="translate(-266.485 -433.771)" fill="#5ea0ff"/>
      <path id="Trazado_605382" data-name="Trazado 605382" d="M515.768,433.771h-4.305V438.2h4.305Z" transform="translate(-270.365 -433.771)" fill="#5d9fff"/>
      <path id="Trazado_605383" data-name="Trazado 605383" d="M523.954,433.771h-4.305V438.2h4.305Z" transform="translate(-274.245 -433.771)" fill="#5c9eff"/>
      <path id="Trazado_605384" data-name="Trazado 605384" d="M532.139,433.771h-4.3V438.2h4.3Z" transform="translate(-278.126 -433.771)" fill="#5b9eff"/>
      <path id="Trazado_605385" data-name="Trazado 605385" d="M540.325,433.771h-4.3V438.2h4.3Z" transform="translate(-282.006 -433.771)" fill="#5a9dff"/>
      <path id="Trazado_605386" data-name="Trazado 605386" d="M548.51,433.771h-4.3V438.2h4.3Z" transform="translate(-285.887 -433.771)" fill="#599cff"/>
      <path id="Trazado_605387" data-name="Trazado 605387" d="M556.7,433.771h-4.3V438.2h4.3Z" transform="translate(-289.767 -433.771)" fill="#589bff"/>
      <path id="Trazado_605388" data-name="Trazado 605388" d="M564.881,433.771h-4.3V438.2h4.3Z" transform="translate(-293.647 -433.771)" fill="#579bff"/>
      <path id="Trazado_605389" data-name="Trazado 605389" d="M573.066,433.771h-4.305V438.2h4.305Z" transform="translate(-297.528 -433.771)" fill="#569aff"/>
      <path id="Trazado_605390" data-name="Trazado 605390" d="M581.251,433.771h-4.305V438.2h4.305Z" transform="translate(-301.408 -433.771)" fill="#59f"/>
    </g>
    <path id="Trazado_605392" data-name="Trazado 605392" d="M477.494,357.051c-.827,4.05,1.062,7.856,4.223,8.5s6.385-2.116,7.22-6.167-1.062-7.857-4.223-8.5S478.33,353,477.494,357.051Z" transform="translate(-225.512 -165.683)" fill="#dee9f0"/>
    <path id="Trazado_605421" data-name="Trazado 605421" d="M641.7,354.508s-21.625,20.581-11.107,36.611,15.449,1.989,15.449,1.989,7.111,2.153-3.442-17.611c-4.977-9.309-.89-20.989-.89-20.989Z" transform="translate(-296.814 -167.445)" fill="#bbd070"/>
    <path id="Trazado_605422" data-name="Trazado 605422" d="M572.927,312.071s-16.521,19.418,5.567,46.3,18.664,41.1,18.664,41.1,30.753-46.747-24.231-87.408Z" transform="translate(-268.032 -147.323)" fill="#4ca220"/>
    <path id="Trazado_605423" data-name="Trazado 605423" d="M587.6,412.636c10.281,2.08,1.962-27.81-13.451-36.919s-29.209-10-37.837-18.773c0,0,.672,45.466,51.3,55.7Z" transform="translate(-253.488 -168.6)" fill="#397a18"/>
    <path id="Trazado_605576" data-name="Trazado 605576" d="M111.212,240.432h43.441a5.818,5.818,0,0,1,5.813,5.813v68.616a5.818,5.818,0,0,1-5.813,5.813H111.221a5.818,5.818,0,0,1-5.813-5.813V246.245a5.818,5.818,0,0,1,5.813-5.813Z" transform="translate(-49.214 -113.366)" fill="#ffe126"/>
    <path id="Trazado_605577" data-name="Trazado 605577" d="M196.382,338.949H193.53v21.707h2.852Z" transform="translate(-90.989 -160.069)" fill="#e3f2ff"/>
    <path id="Trazado_605578" data-name="Trazado 605578" d="M185.659,343.577h-2.852V362.85h2.852Z" transform="translate(-85.905 -162.263)" fill="#e3f2ff"/>
    <path id="Trazado_605579" data-name="Trazado 605579" d="M174.019,349.587h-2.852V365.7h2.852Z" transform="translate(-80.387 -165.112)" fill="#e3f2ff"/>
    <path id="Trazado_605580" data-name="Trazado 605580" d="M162.069,357.185h-2.852V369.31h2.852Z" transform="translate(-74.722 -168.714)" fill="#e3f2ff"/>
    <path id="Trazado_605581" data-name="Trazado 605581" d="M126.3,305.586l-.617-.218,5.377-15.094,11.662-3.079,4.2-16.566,9-3.969,2.016-12.879.645.1-2.071,13.233L147.47,271.1l-4.2,16.63-11.707,3.1Z" transform="translate(-58.825 -119.694)" fill="#e3f2ff"/>
    <path id="Trazado_605582" data-name="Trazado 605582" d="M158.375,315.13a1.749,1.749,0,1,1-2.461-.246A1.755,1.755,0,0,1,158.375,315.13Z" transform="translate(-72.853 -148.475)" fill="#ffc955"/>
    <path id="Trazado_605583" data-name="Trazado 605583" d="M158.041,317.549a2.078,2.078,0,1,1,.291-2.925A2.085,2.085,0,0,1,158.041,317.549Zm-2.216-2.706a1.42,1.42,0,1,0,2,.2A1.416,1.416,0,0,0,155.826,314.842Z" transform="translate(-72.557 -148.178)" fill="#e3f2ff"/>
    <path id="Trazado_605584" data-name="Trazado 605584" d="M166.457,283.769a1.749,1.749,0,1,1-2.461-.245A1.754,1.754,0,0,1,166.457,283.769Z" transform="translate(-76.685 -133.608)" fill="#ffc955"/>
    <path id="Trazado_605585" data-name="Trazado 605585" d="M166.124,286.189a2.078,2.078,0,1,1,.29-2.924A2.085,2.085,0,0,1,166.124,286.189Zm-2.216-2.706a1.42,1.42,0,1,0,2,.2A1.417,1.417,0,0,0,163.908,283.483Z" transform="translate(-76.388 -133.312)" fill="#e3f2ff"/>
    <path id="Trazado_605586" data-name="Trazado 605586" d="M183.311,276a1.749,1.749,0,1,1-2.461-.245A1.754,1.754,0,0,1,183.311,276Z" transform="translate(-84.675 -129.924)" fill="#ffc955"/>
    <path id="Trazado_605587" data-name="Trazado 605587" d="M182.978,278.418a2.078,2.078,0,1,1,.29-2.924A2.085,2.085,0,0,1,182.978,278.418Zm-2.216-2.706a1.42,1.42,0,1,0,2,.2A1.417,1.417,0,0,0,180.762,275.712Z" transform="translate(-84.378 -129.628)" fill="#e3f2ff"/>
    <path id="Trazado_605588" data-name="Trazado 605588" d="M136.288,321.294a1.749,1.749,0,1,1-2.461-.245A1.755,1.755,0,0,1,136.288,321.294Z" transform="translate(-62.383 -151.397)" fill="#ffc955"/>
    <path id="Trazado_605589" data-name="Trazado 605589" d="M135.955,323.714a2.078,2.078,0,1,1,.291-2.925A2.085,2.085,0,0,1,135.955,323.714Zm-2.216-2.707a1.42,1.42,0,1,0,2,.2A1.416,1.416,0,0,0,133.739,321.007Z" transform="translate(-62.087 -151.101)" fill="#e3f2ff"/>
    <path id="Trazado_605590" data-name="Trazado 605590" d="M117.765,283.724h15.013a1.255,1.255,0,0,1,1.253,1.253v1.117a1.256,1.256,0,0,1-1.253,1.253H117.765a1.256,1.256,0,0,1-1.253-1.253v-1.117A1.256,1.256,0,0,1,117.765,283.724Z" transform="translate(-54.478 -133.889)" fill="#ebebeb"/>
    <path id="Trazado_605591" data-name="Trazado 605591" d="M117.765,271.653h15.013a1.256,1.256,0,0,1,1.253,1.253v1.117a1.256,1.256,0,0,1-1.253,1.254H117.765a1.256,1.256,0,0,1-1.253-1.254v-1.117A1.256,1.256,0,0,1,117.765,271.653Z" transform="translate(-54.478 -128.167)" fill="#ebebeb"/>
    <path id="Trazado_605592" data-name="Trazado 605592" d="M90.193,296.183s-.509,5.013.418,6.267c0,0-2.452-.536-3.015-1.381s2.6-4.9,2.6-4.9Z" transform="translate(-40.737 -139.791)" fill="#16202e"/>
    <path id="Trazado_605593" data-name="Trazado 605593" d="M121.41,325.949s.89-.6,1.027-.682a2.507,2.507,0,0,1,1.117-.009,3.009,3.009,0,0,1,1.244.463.5.5,0,0,1,.091.372.942.942,0,0,1-.191.409.556.556,0,0,1-.109.509.47.47,0,0,1-.2.481.4.4,0,0,1-.145.409,3.342,3.342,0,0,0-.627.027,7.181,7.181,0,0,1-2.016-.281s-1-.218-.182-1.7Z" transform="translate(-56.652 -153.554)" fill="#eea886"/>
    <path id="Trazado_605594" data-name="Trazado 605594" d="M124.193,327.4a2.668,2.668,0,0,1-.409.563c-.146.091.681.981.681.981S124.747,327.742,124.193,327.4Z" transform="translate(-57.917 -154.593)" fill="#cf8c6c"/>
    <path id="Trazado_605595" data-name="Trazado 605595" d="M120.07,326.569a3.816,3.816,0,0,0,.908-.218c.345-.164-.064,1.744-.064,1.744a3.464,3.464,0,0,0-1.381-.591c-.545-.018.545-.926.545-.926Z" transform="translate(-55.838 -154.092)" fill="#eea886"/>
    <path id="Trazado_605596" data-name="Trazado 605596" d="M74.56,423.023a31.087,31.087,0,0,0,2.361,3.1s1.217.636,1.253,1.136c.073.954.118,1.516-1.48,1.562s-2.607,0-2.906-.981a7.237,7.237,0,0,0-.8-1.735l-.118,2.534h-.363s-.164-2.534-.182-2.9-.263-1.753.5-2.37a2.1,2.1,0,0,1,1.735-.354Z" transform="translate(-33.506 -199.895)" fill="#162d40"/>
    <path id="Trazado_605597" data-name="Trazado 605597" d="M77.5,425.669a4.021,4.021,0,0,1-1.9-.018c-1.035-.263-2.025-2.734-2.325-2.934l-.263-1h2.016a3.592,3.592,0,0,0,.345,1.371,23.788,23.788,0,0,0,2.134,2.58Z" transform="translate(-33.856 -199.307)" fill="#162d40"/>
    <path id="Trazado_605598" data-name="Trazado 605598" d="M95.773,420.79a6.646,6.646,0,0,0,.754,1.262c.363.472,1.49,2.416,1.989,2.552s2.034.409,2.171,1.263.2,1.471-1.308,1.535-2.507.155-3.233-.908a7.974,7.974,0,0,0-1.88-1.834v2.77h-.59a25.741,25.741,0,0,0-.427-3.088,3.5,3.5,0,0,1,.836-3.57c1.4-1.153,1.68,0,1.68,0Z" transform="translate(-43.365 -198.615)" fill="#162d40"/>
    <path id="Trazado_605599" data-name="Trazado 605599" d="M99.141,424.8s-1.353.336-1.88,0-2.289-3.324-2.87-3.505c0,0,.563-1.153,2-.318C96.389,420.977,98.75,424.3,99.141,424.8Z" transform="translate(-43.991 -198.812)" fill="#162d40"/>
    <path id="Trazado_605600" data-name="Trazado 605600" d="M72.262,341.6a14.171,14.171,0,0,0-2.434,5.44c-.518,2.952.309,12.851.282,14.313s-1.29,5.994-1.017,8.746,1.689,14.214,1.689,14.214l3.315-.064s-.663-12.37-.49-13.523.708-6.058.781-6.53,3.778-13.033,3.778-15.158-1.29-10.9-5.9-7.429Z" transform="translate(-31.98 -160.951)" fill="#1d3b54"/>
    <path id="Trazado_605601" data-name="Trazado 605601" d="M87.494,343.6s3.142,11.989,3.515,13.66,1.117,3.833,1.09,4.142-.4,5.422-.4,5.422l-.89,17.429H87.494s-1.063-11.089-1.235-13.324,1.217-5.694.881-6.648-5.458-11.907-5.458-11.907S77.8,340.125,87.494,343.6Z" transform="translate(-37.603 -161.981)" fill="#1d3b54"/>
    <path id="Trazado_605602" data-name="Trazado 605602" d="M90.577,310.042a3.812,3.812,0,0,1,2.207,1.135,14.418,14.418,0,0,1,2.089,3.179c.245.545,3.733,5.568,3.915,5.685s1.707-.29,2.924-.39a26.535,26.535,0,0,0,4.968-1.181l.445,2.252s-7.329,2.361-9.018,1.953c-2.071-.509-6.83-6.621-6.83-6.621S87.725,311.894,90.577,310.042Z" transform="translate(-41.657 -146.366)" fill="#eddad3"/>
    <path id="Trazado_605603" data-name="Trazado 605603" d="M79.547,308.3a16.534,16.534,0,0,0,2.189.881c.563.109,2.761,2.96,3.142,4.005s0,2.6-.79,4.432-.045,2.443-.409,4.278a50.338,50.338,0,0,0-.291,7.838c.064,1.017-10.463,2.933-12.57,1.081,0,0,1.426-4.7,3.106-6.457.363-.382.327-2.925.073-3.551s-3.052-5.359-3.052-5.359-.209-4.8,1.017-5.74c1.063-.826,3.96-1.117,4.478-1.3a8.744,8.744,0,0,1,3.1-.1Z" transform="translate(-32.817 -145.5)" fill="#eddad3"/>
    <path id="Trazado_605604" data-name="Trazado 605604" d="M88.354,311.458l.99-1.162-.863-3.051a19.829,19.829,0,0,0-.127,4.2Z" transform="translate(-41.105 -145.039)" fill="#d1c0ba"/>
    <path id="Trazado_605605" data-name="Trazado 605605" d="M70.486,309.978a2.826,2.826,0,0,0-3.224,1.671c-1.172,2.262-.881,3.479-1.153,4.5s-1.353,7.82-1.426,8.119-1.108,3.751-.972,4.813,1.108,9.11,1.063,9.382,1.88-.263,1.88-.263-.082-8.219-.009-8.9.136-4.242.645-5.159,1.762-6.512,2.034-7.084,2.9-6.358,1.172-7.084Z" transform="translate(-29.441 -146.303)" fill="#eea886"/>
    <path id="Trazado_605606" data-name="Trazado 605606" d="M85.394,302.783a37.688,37.688,0,0,0-.254,3.96s-1.689,1.7-3.615-1.98a5.055,5.055,0,0,0,.2-3.578C81.117,299.123,85.394,302.783,85.394,302.783Z" transform="translate(-37.892 -141.868)" fill="#eea886"/>
    <path id="Trazado_605607" data-name="Trazado 605607" d="M86.761,312.264v1.544L84.944,312.2Z" transform="translate(-39.513 -147.389)" fill="#eea886"/>
    <path id="Trazado_605608" data-name="Trazado 605608" d="M84.3,311.908l-.808-1-2.725-2.716-1.017.454Z" transform="translate(-37.049 -145.489)" fill="#d1c0ba"/>
    <path id="Trazado_605609" data-name="Trazado 605609" d="M89.5,310.313l1.244.336-2.107-3.388Z" transform="translate(-41.265 -145.047)" fill="#fae6de"/>
    <path id="Trazado_605610" data-name="Trazado 605610" d="M83.448,310.737,82.3,312.563l-2.643-4.151,1.135-.581Z" transform="translate(-37.008 -145.318)" fill="#fae6de"/>
    <path id="Trazado_605611" data-name="Trazado 605611" d="M97.11,323.415a13.771,13.771,0,0,0-.027-4.36s-.236,1.326-.826,3.4l.845.954Z" transform="translate(-44.875 -150.638)" fill="#d1c0ba"/>
    <path id="Trazado_605612" data-name="Trazado 605612" d="M73.841,323.134s1.126-3.724,1.19-3.924a30.983,30.983,0,0,1-.509,5.114S74.1,323.6,73.841,323.134Z" transform="translate(-34.249 -150.712)" fill="#d1c0ba"/>
    <path id="Trazado_605613" data-name="Trazado 605613" d="M137.591,291.184,119.88,313.5l.617.481Z" transform="translate(-56.074 -137.426)" fill="#54281a"/>
    <path id="Trazado_605614" data-name="Trazado 605614" d="M126.11,326.1s-1.326-.127-1.372.091a.349.349,0,0,0,.064.318l-.572.2a.347.347,0,0,0,.155.572s-.318.291.154.463c0,0-.127.281.082.4a4.426,4.426,0,0,0,1.062.164s.182-.073.146-.409a.465.465,0,0,0,.2-.481.5.5,0,0,0,.109-.509s.409-.418.1-.781a.8.8,0,0,0-.136-.018Z" transform="translate(-58.09 -153.962)" fill="#db9c7c"/>
    <path id="Trazado_605615" data-name="Trazado 605615" d="M123.3,325.307a4.591,4.591,0,0,1,1.081.945.265.265,0,0,1,.046.318c-.073.1-.309.136-.654-.064a3.175,3.175,0,0,0-.881-.29S122.6,325.906,123.3,325.307Z" transform="translate(-57.474 -153.602)" fill="#eea886"/>
    <path id="Trazado_605616" data-name="Trazado 605616" d="M83.133,285.467s3-.082,3.551,3.47-.727,6.666-1.226,7.166-3.5.118-4.205-1.726-1.744-3.188-1.589-4.769-.227-4.2,3.46-4.141Z" transform="translate(-37.002 -134.715)" fill="#eea886"/>
    <path id="Trazado_605617" data-name="Trazado 605617" d="M85.084,289.786s.8-4.423-3.179-5.222-5.377,1.925-5.749,3.551.073,6.185.073,6.185a20.6,20.6,0,0,0,4.232,2.924s-1.326-4.859-.826-8.337a17,17,0,0,0,5.377-.018S85.075,289.6,85.084,289.786Z" transform="translate(-35.274 -134.221)" fill="#16202e"/>
    <path id="Trazado_605618" data-name="Trazado 605618" d="M86.551,305.217a4.941,4.941,0,0,1-2.452-.926A5.84,5.84,0,0,0,86.478,306S86.56,305.372,86.551,305.217Z" transform="translate(-39.112 -143.639)" fill="#a77860"/>
    <path id="Trazado_605619" data-name="Trazado 605619" d="M67.042,349.507,55.47,351.4l1.4,8.56,11.572-1.889Z" transform="translate(-25.54 -165.075)" fill="#366e9c"/>
    <path id="Trazado_605620" data-name="Trazado 605620" d="M64.637,365.235a1.678,1.678,0,0,1-.2-.463,5.26,5.26,0,0,0-.027-.527.68.68,0,0,0-.018-.164,3.015,3.015,0,0,1-.136-.908,20.035,20.035,0,0,1,.581-2.144l1.026.036.963-.1a20.333,20.333,0,0,1,1.19,2.607v.109a3.357,3.357,0,0,1-.191.735c-.009.064-.154.682-.318.763a.61.61,0,0,1-.6.009,1.483,1.483,0,0,1-.8.118.9.9,0,0,1-.808-.027s-.454.164-.663-.036Z" transform="translate(-29.704 -170.507)" fill="#eea886"/>
    <path id="Trazado_605621" data-name="Trazado 605621" d="M70.5,309.978a2.826,2.826,0,0,0-3.224,1.671,10.327,10.327,0,0,0-1.326,4.332c-.145,1.045-1.58,7.239-1.653,7.529s-.536,4.16-.572,5.577c-.027,1.071.227,8.092.182,8.365s3.251-.472,3.251-.472-.363-6.476-.3-7.157a36.1,36.1,0,0,1,.545-5.05c.391-1.162,1.925-7.048,2.2-7.629s2.634-6.43.908-7.156Z" transform="translate(-29.45 -146.303)" fill="#eddad3"/>
    <path id="Trazado_605622" data-name="Trazado 605622" d="M275.6,423.983l.209-1.989a15.391,15.391,0,0,0-3.134.218s.236,1.671.264,1.916,2.652-.145,2.652-.145Z" transform="translate(-128.507 -199.437)" fill="#5c544d"/>
    <path id="Trazado_605623" data-name="Trazado 605623" d="M266.947,429.772c3.333-.027,4.941.2,5.3-.345s-.518-4-.518-4a6.875,6.875,0,0,1-2.7.109,6.943,6.943,0,0,1-1.635,1.444c-.8.436-2.062.608-2.543,1.062-.345.327-1.244,1.735,2.089,1.708Z" transform="translate(-124.625 -201.067)" fill="#3c4145"/>
    <path id="Trazado_605624" data-name="Trazado 605624" d="M239.884,423.983l.209-1.989a15.391,15.391,0,0,0-3.134.218s.236,1.671.272,1.916S239.884,423.983,239.884,423.983Z" transform="translate(-111.577 -199.437)" fill="#5c544d"/>
    <path id="Trazado_605625" data-name="Trazado 605625" d="M229.866,429.772c3.333-.091,4.941.2,5.3-.345s-.518-4-.518-4a6.278,6.278,0,0,1-2.7.109,7.154,7.154,0,0,1-1.635,1.444c-.8.436-3.76.8-4.232,1.253-.345.327-.908,1.644,3.778,1.526Z" transform="translate(-106.318 -201.067)" fill="#3c4145"/>
    <path id="Trazado_605626" data-name="Trazado 605626" d="M264.368,340.469a24.481,24.481,0,0,1,1.208,7.711c-.181,3.57.717,7.475,1.09,11.208.409,4.16,2.1,14,2.162,16.221s-.264,9.328-.264,9.328l-3.379.082s-2.833-17.211-3.569-18.964-4.378-14.277-4.5-15.676,7.247-9.909,7.247-9.909Z" transform="translate(-121.13 -160.79)" fill="#dbd8e3"/>
    <path id="Trazado_605627" data-name="Trazado 605627" d="M240.21,340.78s-1.852,9.781-2.1,11.97-.409,10.572-.526,11.943-.817,17.874-1.472,19.9h4.314s3.315-12,3.315-17.674,2.561-12.343,4.214-16.085,5.44-3.833,6.458-10.781c0,0-12.825-1.471-14.205.736Z" transform="translate(-111.176 -160.365)" fill="#dbd8e3"/>
    <path id="Trazado_605628" data-name="Trazado 605628" d="M255.133,278s-3.406-1.272-4.977,1.317-1.417,7.774.3,8.419,4.3.309,5.168-1.317a13.01,13.01,0,0,0,1.635-5.531A3.41,3.41,0,0,0,255.133,278Z" transform="translate(-117.317 -131.03)" fill="#eea886"/>
    <path id="Trazado_605629" data-name="Trazado 605629" d="M252.707,293.663a2.881,2.881,0,0,1-.091,1.335c-.227.435,4.278.454,4.278.454a29.314,29.314,0,0,1,1.062-4.414C258.646,289.022,252.707,293.663,252.707,293.663Z" transform="translate(-118.995 -137.116)" fill="#eea886"/>
    <path id="Trazado_605630" data-name="Trazado 605630" d="M256.63,284.628s-.309.509-1.58.318-2.824-1.889-3.351-2.071-.536-.5-.536-.5l-.336.482-.563.036s.518-1.508-.263-2.125.808-4.9,4.877-3.47c0,0,2.915.572,3.1,2.353a8.069,8.069,0,0,1-1.353,4.986Z" transform="translate(-117.669 -130.706)" fill="#fccca2"/>
    <path id="Trazado_605631" data-name="Trazado 605631" d="M252.1,297.811s.018-.836.391-.918a27.264,27.264,0,0,1,4.668-.263v.981s-.9.554-5.068.209Z" transform="translate(-118.749 -139.984)" fill="#e2d2ca"/>
    <path id="Trazado_605632" data-name="Trazado 605632" d="M252.445,285.384c.073-.3.827-1.153,1.117-.236s-.436,2.144-.845,2.034S252.263,286.138,252.445,285.384Z" transform="translate(-118.87 -134.369)" fill="#eea886"/>
    <path id="Trazado_605633" data-name="Trazado 605633" d="M239.331,298.732s-2.1.754-4.523,1.78a5.111,5.111,0,0,0-3.1,4.123c-.164,1.635-1.9,10.317-2.225,11.053s-4.186,12.534-4.323,12.779,3.151,1.608,3.369,1.5,3.742-10.763,4.1-11.553c0,0,2.025-6.394,2.08-7.338,0,0,.055,2.715.164,3.479s-1.808,15.558-1.744,15.966,8.692.926,12.143.545a42.693,42.693,0,0,0,6.249-1.172s-2.715-11.68-2.634-12.969c.182-2.825,1.127-8.138,1.127-8.138l2.815,5.313-3.606,9.282.827,2.815s6.7-10.127,6.92-11.053a4.986,4.986,0,0,0-.681-2.87c-.354-.763-2.679-6.557-3.224-7.375s-1.462-4.087-3.687-5a34.39,34.39,0,0,0-4.977-1.381Z" transform="translate(-105.982 -140.905)" fill="#304c8e"/>
    <path id="Trazado_605634" data-name="Trazado 605634" d="M231.948,341.053,216.156,337l-2.824,11.015,15.792,4.049Z" transform="translate(-100.376 -159.147)" fill="#f25f54"/>
    <path id="Trazado_605635" data-name="Trazado 605635" d="M221.975,360.069s-.454.727-.617.936.409.336.645.127-.036-1.063-.036-1.063Z" transform="translate(-104.167 -170.081)" fill="#c98462"/>
    <path id="Trazado_605636" data-name="Trazado 605636" d="M225.819,360.159a2.018,2.018,0,0,0,.327-.454s.082-.336.154-.563c.027-.073.046-.137.064-.182a3.326,3.326,0,0,0,.363-.962c.073-.454.264-2.47.264-2.47l-1.226-.309-.981-.209a19.455,19.455,0,0,0-2.234,2.534c-.009.036-.018.082-.027.118a4.58,4.58,0,0,0,.027.845c0,.073,0,.772.173.908a.674.674,0,0,0,.645.154,1.675,1.675,0,0,0,.845.318,1.011,1.011,0,0,0,.881.163S225.547,360.332,225.819,360.159Z" transform="translate(-104.724 -167.683)" fill="#de9d7d"/>
    <path id="Trazado_605637" data-name="Trazado 605637" d="M231.868,339.358s-2.806,8.492-3.315,9.382a9.352,9.352,0,0,1-3.37-1.5l3.079-9.155,3.615,1.281Z" transform="translate(-105.994 -159.66)" fill="#63a4ff"/>
    <path id="Trazado_610610" data-name="Trazado 610610" d="M506.092,489.241s1.179-2.925,1.36-3.356a7.39,7.39,0,0,1,2.7-1.859,9.224,9.224,0,0,1,3.787-.93,1.462,1.462,0,0,1,.839.771,2.554,2.554,0,0,1,.2,1.292,1.618,1.618,0,0,1,.566,1.429,1.39,1.39,0,0,1,.318,1.5s.635.59.318,1.225a10.53,10.53,0,0,0-1.474,1.111,21.936,21.936,0,0,1-5.35,2.63s-2.72.045-3.242-3.809Z" transform="translate(-125.152 -381.054)" fill="#eea886"/>
    <path id="Trazado_610611" data-name="Trazado 610611" d="M509.315,486.562a8.081,8.081,0,0,1-.181,2.018c-.2.453,3.2,1.451,3.2,1.451S511.243,486.584,509.315,486.562Z" transform="translate(-124.204 -379.963)" fill="#cf8c6c"/>
    <path id="Trazado_610612" data-name="Trazado 610612" d="M460.71,605.166l1.5-4.648,6.326,1.02-.952,4.194Z" transform="translate(-139.353 -344.305)" fill="#3b3f66"/>
    <path id="Trazado_610613" data-name="Trazado 610613" d="M500.118,604.216l.362,2.563,6.915-1.157-.386-3.809Z" transform="translate(-127.021 -343.9)" fill="#555c94"/>
    <path id="Trazado_610614" data-name="Trazado 610614" d="M497.463,554.1s-1.02,5.554-2.2,11.7c-.2,1.066-.407,2.154-.634,3.243-1.157,5.94-2.313,11.63-2.744,12.809-.974,2.676-22.128,41.446-22.128,41.446s-8.66-.658-8.978-1.768c0,0,17.73-42.1,17.639-43.622-.091-1.543,2.177-44.688,2.177-44.688S497.01,551.61,497.487,554.1Z" transform="translate(-139.331 -365.363)" fill="#354c70"/>
    <path id="Trazado_610615" data-name="Trazado 610615" d="M502.458,532.422s8.275,42.4,8.978,45.638,3.855,46.684,3.855,46.684-1.859,3.831-8.73,2.4c0,0-9.364-46.66-10.157-48.223-3.06-6.076-18.116-35.461-19.567-39.654a25.276,25.276,0,0,1-1.02-9.092s11.177-6.281,26.663,2.268Z" transform="translate(-134.644 -367.012)" fill="#354c70"/>
    <path id="Trazado_610616" data-name="Trazado 610616" d="M494.437,490.418s3.628,9.046,4.535,8.8c.906-.272,11.336-12.515,11.336-12.515s4.784,5.962,4.126,6.642c-.885.953-13.218,21.449-14.919,21.063-1.7-.362-9.273-12.9-9.273-12.9s-.431-9.454,4.149-11.086Z" transform="translate(-130.116 -379.92)" fill="#deb135"/>
    <path id="Trazado_610617" data-name="Trazado 610617" d="M483.95,476.378s9.41,7.187,12.017,10.044,9.772,14.692,9.25,18.251a261.714,261.714,0,0,0-2.992,34.6c-.046,8.118,2.539,10.18.93,10.293-1.859.136-25.552,8.73-29.043,9.772,0,0,2.29-28.566,3.469-31.876,1.157-3.288-3.718-37.841,6.37-51.1Z" transform="translate(-135.16 -383.158)" fill="#f2c344"/>
    <path id="Trazado_610618" data-name="Trazado 610618" d="M533.387,465.977,535.5,476.61l2.109,10.656a57.96,57.96,0,0,0-25.8-1.065l-.93-4.694-.93-4.716A58.086,58.086,0,0,0,533.387,465.977Z" transform="translate(-123.947 -386.405)" fill="#d9d0c4"/>
    <path id="Trazado_610619" data-name="Trazado 610619" d="M500.6,606.324s5.215-1.02,5.4-1.157c.181-.159,1.292-2.222,2.109-1.859s.817,2.857,1.61,3.288,7.006,4.625,7.776,5.4,5.487.318,6.032,1.656.589,4.467-6.44,3.741c-7.028-.748-15.054.408-16.573-.431s-.362-8.593.113-10.611Z" transform="translate(-127.137 -343.446)" fill="#84bdff"/>
    <path id="Trazado_610620" data-name="Trazado 610620" d="M461.188,604.417s5.306-.157,5.51-.294,1.632-1.972,2.38-1.5.34,2.97,1.065,3.515c.7.544,6.19,5.69,6.825,6.575s5.351,1.179,5.668,2.584-.135,4.513-6.96,2.654-14.941-2.018-16.3-3.084S460.4,606.322,461.188,604.417Z" transform="translate(-139.9 -343.671)" fill="#84bdff"/>
    <path id="Trazado_610621" data-name="Trazado 610621" d="M493.351,532.859s.634,2.584,1.654,3.151-4.76,6.076-4.76,6.076-2.336-5.123-2.268-5.622c.068-.523,5.374-3.583,5.374-3.583Z" transform="translate(-130.821 -365.477)" fill="#eea987"/>
    <path id="Trazado_610622" data-name="Trazado 610622" d="M480.17,485.673s-6.756,32.15-7.3,35.437c-.521,3.1,19.816,32.852,19.816,32.852l6.756-4.014s-16.415-29.836-16.393-31.2c0-1.36,7.868-27.275,7.868-27.275s3.288-5.646-2.539-8.39S480.17,485.673,480.17,485.673Z" transform="translate(-135.551 -381.296)" fill="#ffd255"/>
    <path id="Trazado_610623" data-name="Trazado 610623" d="M497.447,534.534s2.2,10.929,2.063,14.283-12.605-5.26-11.994-8.592l9.909-5.669Z" transform="translate(-130.972 -364.953)" fill="#3c5780"/>
    <path id="Trazado_610624" data-name="Trazado 610624" d="M481.612,478.959s17.14,18.727,16.1,16.664c-3.763-7.414-6.393-8.66-6.348-10.044.046-1.065.454-4.149.521-5.169.137-1.972.273-3.559.273-3.559s-8.525-11.971-8.14-7.891c.362,4.082-2.426,10-2.426,10Z" transform="translate(-132.82 -385.737)" fill="#eea886"/>
    <path id="Trazado_610625" data-name="Trazado 610625" d="M498.145,460.375s2.358,5.531,2.38,6.825a25.891,25.891,0,0,0-.091,3.787c.2,1.541,1.5,4.783,1.338,5.69-.181,1.088-2.471.521-2.789,2.312s-1.972,5.147-2.811,5.215c-2.131.181-10.249-3.151-10.77-4.851s-3.469-11.178-4.376-12.991,14.329-11.7,15.713-8.843l1.382,2.857Z" transform="translate(-133.007 -389.215)" fill="#eea886"/>
    <path id="Trazado_610626" data-name="Trazado 610626" d="M478.306,464.824c-1.066-4.692,4.33-5.282,4.33-5.282s3.515-4.1,11.925-3.605c8.412.477,7.12,11.472,7.12,11.472s-5.827-.861-8.344-.227a39.783,39.783,0,0,0-.046,5.85l-3.173-.273s.362-4.149-1.179-4.352c-1.519-.2-2.042,8.8-4.875,10.792a2.915,2.915,0,0,0-.386-1.247,34.613,34.613,0,0,1-2.2-4.6,52.416,52.416,0,0,1-3.2-8.5Z" transform="translate(-133.891 -389.561)" fill="#16202e"/>
    <path id="Trazado_610627" data-name="Trazado 610627" d="M489.139,466.616s-1.179-3.175-3.968-1.111c-2.04,1.5.068,6.869,2.042,6.823C489.185,472.306,489.978,469.381,489.139,466.616Z" transform="translate(-131.959 -386.773)" fill="#eea886"/>
    <path id="Trazado_610628" data-name="Trazado 610628" d="M484.015,472.885a6.3,6.3,0,0,0,.861,2.086,18.188,18.188,0,0,0,6.3,3.286l-.34,3.334s-7.211-2.789-6.847-8.706Z" transform="translate(-132.072 -384.245)" fill="#c48a6f"/>
    <g id="Grupo_1015992" data-name="Grupo 1015992" transform="translate(382.414 99.23)">
      <path id="Trazado_605443" data-name="Trazado 605443" d="M507.35,480.95h-.135v12.742h.135Z" transform="translate(-507.215 -480.95)" fill="#96cbff"/>
      <path id="Trazado_605444" data-name="Trazado 605444" d="M507.455,480.95h-.137v12.742h.137Z" transform="translate(-507.183 -480.95)" fill="#95caff"/>
      <path id="Trazado_605445" data-name="Trazado 605445" d="M507.559,480.95h-.137v12.742h.137Z" transform="translate(-507.15 -480.95)" fill="#94c9ff"/>
      <path id="Trazado_605446" data-name="Trazado 605446" d="M507.661,480.95h-.135v12.742h.135Z" transform="translate(-507.118 -480.95)" fill="#93c9ff"/>
      <path id="Trazado_605447" data-name="Trazado 605447" d="M507.765,480.95h-.136v12.742h.136Z" transform="translate(-507.086 -480.95)" fill="#92c8ff"/>
      <path id="Trazado_605448" data-name="Trazado 605448" d="M507.852,480.95h-.137v12.742h.137Z" transform="translate(-507.059 -480.95)" fill="#91c7ff"/>
      <path id="Trazado_605449" data-name="Trazado 605449" d="M507.955,480.95h-.136v12.742h.136Z" transform="translate(-507.026 -480.95)" fill="#90c6ff"/>
      <path id="Trazado_605450" data-name="Trazado 605450" d="M508.058,480.95h-.135v12.742h.135Z" transform="translate(-506.993 -480.95)" fill="#8fc6ff"/>
      <path id="Trazado_605451" data-name="Trazado 605451" d="M508.162,480.95h-.135v12.742h.135Z" transform="translate(-506.961 -480.95)" fill="#8ec5ff"/>
      <path id="Trazado_605452" data-name="Trazado 605452" d="M508.266,480.95h-.137v12.742h.137Z" transform="translate(-506.929 -480.95)" fill="#8dc4ff"/>
      <path id="Trazado_605453" data-name="Trazado 605453" d="M508.353,480.95h-.137v12.742h.137Z" transform="translate(-506.902 -480.95)" fill="#8cc3ff"/>
      <path id="Trazado_605454" data-name="Trazado 605454" d="M508.455,480.95h-.135v12.742h.135Z" transform="translate(-506.869 -480.95)" fill="#8bc2ff"/>
      <path id="Trazado_605455" data-name="Trazado 605455" d="M508.559,480.95h-.135v12.742h.135Z" transform="translate(-506.837 -480.95)" fill="#8ac2ff"/>
      <path id="Trazado_605456" data-name="Trazado 605456" d="M508.664,480.95h-.137v12.742h.137Z" transform="translate(-506.804 -480.95)" fill="#89c1ff"/>
      <path id="Trazado_605457" data-name="Trazado 605457" d="M508.767,480.95h-.136v12.742h.136Z" transform="translate(-506.772 -480.95)" fill="#88c0ff"/>
      <path id="Trazado_605458" data-name="Trazado 605458" d="M508.854,480.95h-.136v12.742h.136Z" transform="translate(-506.745 -480.95)" fill="#87bfff"/>
      <path id="Trazado_605459" data-name="Trazado 605459" d="M508.956,480.95h-.135v12.742h.135Z" transform="translate(-506.712 -480.95)" fill="#86bfff"/>
      <path id="Trazado_605460" data-name="Trazado 605460" d="M509.06,480.95h-.135v12.742h.135Z" transform="translate(-506.68 -480.95)" fill="#85beff"/>
      <path id="Trazado_605461" data-name="Trazado 605461" d="M509.164,480.95h-.137v12.742h.137Z" transform="translate(-506.648 -480.95)" fill="#84bdff"/>
      <path id="Trazado_605462" data-name="Trazado 605462" d="M509.268,480.95h-.136v12.742h.136Z" transform="translate(-506.616 -480.95)" fill="#83bcff"/>
      <path id="Trazado_605463" data-name="Trazado 605463" d="M509.37,480.95h-.135v12.742h.135Z" transform="translate(-506.583 -480.95)" fill="#82bbff"/>
      <path id="Trazado_605464" data-name="Trazado 605464" d="M509.457,480.95h-.135v12.742h.135Z" transform="translate(-506.556 -480.95)" fill="#81bbff"/>
      <path id="Trazado_605465" data-name="Trazado 605465" d="M509.56,480.95h-.135v12.742h.135Z" transform="translate(-506.523 -480.95)" fill="#80baff"/>
      <path id="Trazado_605466" data-name="Trazado 605466" d="M509.665,480.95h-.137v12.742h.137Z" transform="translate(-506.491 -480.95)" fill="#7fb9ff"/>
      <path id="Trazado_605467" data-name="Trazado 605467" d="M509.767,480.95h-.135v12.742h.135Z" transform="translate(-506.459 -480.95)" fill="#7eb8ff"/>
      <path id="Trazado_605468" data-name="Trazado 605468" d="M509.871,480.95h-.135v12.742h.135Z" transform="translate(-506.426 -480.95)" fill="#7db7ff"/>
      <path id="Trazado_605469" data-name="Trazado 605469" d="M509.958,480.95h-.135v12.742h.135Z" transform="translate(-506.399 -480.95)" fill="#7cb7ff"/>
      <path id="Trazado_605470" data-name="Trazado 605470" d="M510.062,480.95h-.137v12.742h.137Z" transform="translate(-506.367 -480.95)" fill="#7bb6ff"/>
      <path id="Trazado_605471" data-name="Trazado 605471" d="M510.166,480.95h-.137v12.742h.137Z" transform="translate(-506.335 -480.95)" fill="#7ab5ff"/>
      <path id="Trazado_605472" data-name="Trazado 605472" d="M510.268,480.95h-.135v12.742h.135Z" transform="translate(-506.302 -480.95)" fill="#79b4ff"/>
      <path id="Trazado_605473" data-name="Trazado 605473" d="M510.372,480.95h-.135v12.742h.135Z" transform="translate(-506.269 -480.95)" fill="#78b4ff"/>
      <path id="Trazado_605474" data-name="Trazado 605474" d="M510.458,480.95h-.135v12.742h.135Z" transform="translate(-506.243 -480.95)" fill="#77b3ff"/>
      <path id="Trazado_605475" data-name="Trazado 605475" d="M510.563,480.95h-.136v12.742h.136Z" transform="translate(-506.21 -480.95)" fill="#76b2ff"/>
      <path id="Trazado_605476" data-name="Trazado 605476" d="M510.667,480.95h-.137v12.742h.137Z" transform="translate(-506.178 -480.95)" fill="#74b1ff"/>
      <path id="Trazado_605477" data-name="Trazado 605477" d="M510.769,480.95h-.135v12.742h.135Z" transform="translate(-506.145 -480.95)" fill="#73b0ff"/>
      <path id="Trazado_605478" data-name="Trazado 605478" d="M510.874,480.95h-.137v12.742h.137Z" transform="translate(-506.113 -480.95)" fill="#72b0ff"/>
      <path id="Trazado_605479" data-name="Trazado 605479" d="M510.959,480.95h-.135v12.742h.135Z" transform="translate(-506.086 -480.95)" fill="#71afff"/>
      <path id="Trazado_605480" data-name="Trazado 605480" d="M511.064,480.95h-.137v12.742h.137Z" transform="translate(-506.053 -480.95)" fill="#70aeff"/>
      <path id="Trazado_605481" data-name="Trazado 605481" d="M511.166,480.95h-.135v12.742h.135Z" transform="translate(-506.021 -480.95)" fill="#6fadff"/>
      <path id="Trazado_605482" data-name="Trazado 605482" d="M511.27,480.95h-.135v12.742h.135Z" transform="translate(-505.988 -480.95)" fill="#6eadff"/>
      <path id="Trazado_605483" data-name="Trazado 605483" d="M511.375,480.95h-.136v12.742h.136Z" transform="translate(-505.956 -480.95)" fill="#6dacff"/>
      <path id="Trazado_605484" data-name="Trazado 605484" d="M511.461,480.95h-.137v12.742h.137Z" transform="translate(-505.929 -480.95)" fill="#6cabff"/>
      <path id="Trazado_605485" data-name="Trazado 605485" d="M511.565,480.95h-.137v12.742h.137Z" transform="translate(-505.897 -480.95)" fill="#6baaff"/>
      <path id="Trazado_605486" data-name="Trazado 605486" d="M511.667,480.95h-.135v12.742h.135Z" transform="translate(-505.864 -480.95)" fill="#6aa9ff"/>
      <path id="Trazado_605487" data-name="Trazado 605487" d="M511.771,480.95h-.135v12.742h.135Z" transform="translate(-505.832 -480.95)" fill="#69a9ff"/>
      <path id="Trazado_605488" data-name="Trazado 605488" d="M511.876,480.95h-.137v12.742h.137Z" transform="translate(-505.799 -480.95)" fill="#68a8ff"/>
      <path id="Trazado_605489" data-name="Trazado 605489" d="M511.962,480.95h-.137v12.742h.137Z" transform="translate(-505.772 -480.95)" fill="#67a7ff"/>
      <path id="Trazado_605490" data-name="Trazado 605490" d="M512.064,480.95h-.135v12.742h.135Z" transform="translate(-505.74 -480.95)" fill="#66a6ff"/>
      <path id="Trazado_605491" data-name="Trazado 605491" d="M512.168,480.95h-.135v12.742h.135Z" transform="translate(-505.707 -480.95)" fill="#65a6ff"/>
      <path id="Trazado_605492" data-name="Trazado 605492" d="M512.273,480.95h-.137v12.742h.137Z" transform="translate(-505.675 -480.95)" fill="#64a5ff"/>
      <path id="Trazado_605493" data-name="Trazado 605493" d="M512.377,480.95h-.137v12.742h.137Z" transform="translate(-505.643 -480.95)" fill="#63a4ff"/>
      <path id="Trazado_605494" data-name="Trazado 605494" d="M512.479,480.95h-.135v12.742h.135Z" transform="translate(-505.61 -480.95)" fill="#62a3ff"/>
      <path id="Trazado_605495" data-name="Trazado 605495" d="M512.565,480.95h-.135v12.742h.135Z" transform="translate(-505.583 -480.95)" fill="#61a2ff"/>
      <path id="Trazado_605496" data-name="Trazado 605496" d="M512.669,480.95h-.135v12.742h.135Z" transform="translate(-505.551 -480.95)" fill="#60a2ff"/>
      <path id="Trazado_605497" data-name="Trazado 605497" d="M512.774,480.95h-.137v12.742h.137Z" transform="translate(-505.518 -480.95)" fill="#5fa1ff"/>
      <path id="Trazado_605498" data-name="Trazado 605498" d="M512.876,480.95h-.135v12.742h.135Z" transform="translate(-505.486 -480.95)" fill="#5ea0ff"/>
      <path id="Trazado_605499" data-name="Trazado 605499" d="M512.98,480.95h-.135v12.742h.135Z" transform="translate(-505.453 -480.95)" fill="#5d9fff"/>
      <path id="Trazado_605500" data-name="Trazado 605500" d="M513.066,480.95h-.135v12.742h.135Z" transform="translate(-505.426 -480.95)" fill="#5c9eff"/>
      <path id="Trazado_605501" data-name="Trazado 605501" d="M513.171,480.95h-.137v12.742h.137Z" transform="translate(-505.394 -480.95)" fill="#5b9eff"/>
      <path id="Trazado_605502" data-name="Trazado 605502" d="M513.275,480.95h-.137v12.742h.137Z" transform="translate(-505.362 -480.95)" fill="#5a9dff"/>
      <path id="Trazado_605503" data-name="Trazado 605503" d="M513.377,480.95h-.135v12.742h.135Z" transform="translate(-505.329 -480.95)" fill="#599cff"/>
      <path id="Trazado_605504" data-name="Trazado 605504" d="M513.48,480.95h-.135v12.742h.135Z" transform="translate(-505.297 -480.95)" fill="#589bff"/>
      <path id="Trazado_605505" data-name="Trazado 605505" d="M513.567,480.95h-.135v12.742h.135Z" transform="translate(-505.27 -480.95)" fill="#579bff"/>
      <path id="Trazado_605506" data-name="Trazado 605506" d="M513.672,480.95h-.137v12.742h.137Z" transform="translate(-505.237 -480.95)" fill="#569aff"/>
      <path id="Trazado_605507" data-name="Trazado 605507" d="M513.776,480.95h-.137v12.742h.137Z" transform="translate(-505.205 -480.95)" fill="#59f"/>
    </g>
    <path id="Trazado_610629" data-name="Trazado 610629" d="M512.646,483.261s-3.423,1.881-3.2,2.471a.965.965,0,0,0,.68.658l-1.065,1.4s-.181,1.338,1.338,1.134c0,0-.3,1.224,1.133.861,0,0,.181.907.861.839a12.529,12.529,0,0,0,2.857-1.36s.34-.477-.318-1.225a1.341,1.341,0,0,0-.317-1.5,1.488,1.488,0,0,0-.567-1.427s.318-1.678-1.044-2.064a2.493,2.493,0,0,0-.362.181Z" transform="translate(-124.224 -381.062)" fill="#db9c7c"/>
    <g id="Grupo_1015993" data-name="Grupo 1015993" transform="translate(376.496 89.57)">
      <path id="Trazado_605509" data-name="Trazado 605509" d="M502.912,473.593h-.2v12.176h.2Z" transform="translate(-502.708 -473.593)" fill="#96cbff"/>
      <path id="Trazado_605510" data-name="Trazado 605510" d="M503.067,473.593h-.2v12.176h.2Z" transform="translate(-502.66 -473.593)" fill="#95caff"/>
      <path id="Trazado_605511" data-name="Trazado 605511" d="M503.262,473.593h-.226v12.176h.226Z" transform="translate(-502.605 -473.593)" fill="#94c9ff"/>
      <path id="Trazado_605512" data-name="Trazado 605512" d="M503.395,473.593h-.2v12.176h.2Z" transform="translate(-502.557 -473.593)" fill="#93c9ff"/>
      <path id="Trazado_605513" data-name="Trazado 605513" d="M503.568,473.593h-.2v12.176h.2Z" transform="translate(-502.503 -473.593)" fill="#92c8ff"/>
      <path id="Trazado_605514" data-name="Trazado 605514" d="M503.724,473.593h-.2v12.176h.2Z" transform="translate(-502.454 -473.593)" fill="#91c7ff"/>
      <path id="Trazado_605515" data-name="Trazado 605515" d="M503.9,473.593h-.2v12.176h.2Z" transform="translate(-502.4 -473.593)" fill="#90c6ff"/>
      <path id="Trazado_605516" data-name="Trazado 605516" d="M504.052,473.593h-.2v12.176h.2Z" transform="translate(-502.351 -473.593)" fill="#8fc6ff"/>
      <path id="Trazado_605517" data-name="Trazado 605517" d="M504.224,473.593h-.2v12.176h.2Z" transform="translate(-502.298 -473.593)" fill="#8ec5ff"/>
      <path id="Trazado_605518" data-name="Trazado 605518" d="M504.38,473.593h-.2v12.176h.2Z" transform="translate(-502.249 -473.593)" fill="#8dc4ff"/>
      <path id="Trazado_605519" data-name="Trazado 605519" d="M504.575,473.593h-.226v12.176h.226Z" transform="translate(-502.195 -473.593)" fill="#8cc3ff"/>
      <path id="Trazado_605520" data-name="Trazado 605520" d="M504.708,473.593h-.2v12.176h.2Z" transform="translate(-502.146 -473.593)" fill="#8bc2ff"/>
      <path id="Trazado_605521" data-name="Trazado 605521" d="M504.881,473.593h-.2v12.176h.2Z" transform="translate(-502.092 -473.593)" fill="#8ac2ff"/>
      <path id="Trazado_605522" data-name="Trazado 605522" d="M505.035,473.593h-.2v12.176h.2Z" transform="translate(-502.043 -473.593)" fill="#89c1ff"/>
      <path id="Trazado_605523" data-name="Trazado 605523" d="M505.209,473.593H505v12.176h.2Z" transform="translate(-501.99 -473.593)" fill="#88c0ff"/>
      <path id="Trazado_605524" data-name="Trazado 605524" d="M505.364,473.593h-.2v12.176h.2Z" transform="translate(-501.941 -473.593)" fill="#87bfff"/>
      <path id="Trazado_605525" data-name="Trazado 605525" d="M505.537,473.593h-.2v12.176h.2Z" transform="translate(-501.887 -473.593)" fill="#86bfff"/>
      <path id="Trazado_605526" data-name="Trazado 605526" d="M505.692,473.593h-.2v12.176h.2Z" transform="translate(-501.838 -473.593)" fill="#85beff"/>
      <path id="Trazado_605527" data-name="Trazado 605527" d="M505.887,473.593h-.226v12.176h.226Z" transform="translate(-501.784 -473.593)" fill="#84bdff"/>
      <path id="Trazado_605528" data-name="Trazado 605528" d="M506.02,473.593h-.2v12.176h.2Z" transform="translate(-501.735 -473.593)" fill="#83bcff"/>
      <path id="Trazado_605529" data-name="Trazado 605529" d="M506.193,473.593h-.2v12.176h.2Z" transform="translate(-501.681 -473.593)" fill="#82bbff"/>
      <path id="Trazado_605530" data-name="Trazado 605530" d="M506.349,473.593h-.2v12.176h.2Z" transform="translate(-501.633 -473.593)" fill="#81bbff"/>
      <path id="Trazado_605531" data-name="Trazado 605531" d="M506.521,473.593h-.2v12.176h.2Z" transform="translate(-501.579 -473.593)" fill="#80baff"/>
      <path id="Trazado_605532" data-name="Trazado 605532" d="M506.677,473.593h-.2v12.176h.2Z" transform="translate(-501.53 -473.593)" fill="#7fb9ff"/>
      <path id="Trazado_605533" data-name="Trazado 605533" d="M506.849,473.593h-.2v12.176h.2Z" transform="translate(-501.476 -473.593)" fill="#7eb8ff"/>
      <path id="Trazado_605534" data-name="Trazado 605534" d="M507,473.593h-.2v12.176h.2Z" transform="translate(-501.427 -473.593)" fill="#7db7ff"/>
      <path id="Trazado_605535" data-name="Trazado 605535" d="M507.178,473.593h-.2v12.176h.2Z" transform="translate(-501.373 -473.593)" fill="#7cb7ff"/>
      <path id="Trazado_605536" data-name="Trazado 605536" d="M507.333,473.593h-.2v12.176h.2Z" transform="translate(-501.325 -473.593)" fill="#7bb6ff"/>
      <path id="Trazado_605537" data-name="Trazado 605537" d="M507.506,473.593h-.2v12.176h.2Z" transform="translate(-501.271 -473.593)" fill="#7ab5ff"/>
      <path id="Trazado_605538" data-name="Trazado 605538" d="M507.683,473.593h-.226v12.176h.226Z" transform="translate(-501.222 -473.593)" fill="#79b4ff"/>
      <path id="Trazado_605539" data-name="Trazado 605539" d="M507.834,473.593h-.2v12.176h.2Z" transform="translate(-501.168 -473.593)" fill="#78b4ff"/>
      <path id="Trazado_605540" data-name="Trazado 605540" d="M507.989,473.593h-.2v12.176h.2Z" transform="translate(-501.119 -473.593)" fill="#77b3ff"/>
      <path id="Trazado_605541" data-name="Trazado 605541" d="M508.144,473.593h-.2v12.176h.2Z" transform="translate(-501.071 -473.593)" fill="#76b2ff"/>
      <path id="Trazado_605542" data-name="Trazado 605542" d="M508.317,473.593h-.2v12.176h.2Z" transform="translate(-501.017 -473.593)" fill="#74b1ff"/>
      <path id="Trazado_605543" data-name="Trazado 605543" d="M508.473,473.593h-.2v12.176h.2Z" transform="translate(-500.968 -473.593)" fill="#73b0ff"/>
      <path id="Trazado_605544" data-name="Trazado 605544" d="M508.645,473.593h-.2v12.176h.2Z" transform="translate(-500.914 -473.593)" fill="#72b0ff"/>
      <path id="Trazado_605545" data-name="Trazado 605545" d="M508.8,473.593h-.2v12.176h.2Z" transform="translate(-500.865 -473.593)" fill="#71afff"/>
      <path id="Trazado_605546" data-name="Trazado 605546" d="M509,473.593h-.226v12.176H509Z" transform="translate(-500.812 -473.593)" fill="#70aeff"/>
      <path id="Trazado_605547" data-name="Trazado 605547" d="M509.129,473.593h-.2v12.176h.2Z" transform="translate(-500.763 -473.593)" fill="#6fadff"/>
      <path id="Trazado_605548" data-name="Trazado 605548" d="M509.3,473.593h-.2v12.176h.2Z" transform="translate(-500.709 -473.593)" fill="#6eadff"/>
      <path id="Trazado_605549" data-name="Trazado 605549" d="M509.457,473.593h-.2v12.176h.2Z" transform="translate(-500.66 -473.593)" fill="#6dacff"/>
      <path id="Trazado_605550" data-name="Trazado 605550" d="M509.63,473.593h-.2v12.176h.2Z" transform="translate(-500.606 -473.593)" fill="#6cabff"/>
      <path id="Trazado_605551" data-name="Trazado 605551" d="M509.785,473.593h-.2v12.176h.2Z" transform="translate(-500.557 -473.593)" fill="#6baaff"/>
      <path id="Trazado_605552" data-name="Trazado 605552" d="M509.958,473.593h-.2v12.176h.2Z" transform="translate(-500.503 -473.593)" fill="#6aa9ff"/>
      <path id="Trazado_605553" data-name="Trazado 605553" d="M510.112,473.593h-.2v12.176h.2Z" transform="translate(-500.455 -473.593)" fill="#69a9ff"/>
      <path id="Trazado_605554" data-name="Trazado 605554" d="M510.286,473.593h-.2v12.176h.2Z" transform="translate(-500.401 -473.593)" fill="#68a8ff"/>
      <path id="Trazado_605555" data-name="Trazado 605555" d="M510.464,473.593h-.227v12.176h.227Z" transform="translate(-500.352 -473.593)" fill="#67a7ff"/>
      <path id="Trazado_605556" data-name="Trazado 605556" d="M510.614,473.593h-.2v12.176h.2Z" transform="translate(-500.298 -473.593)" fill="#66a6ff"/>
      <path id="Trazado_605557" data-name="Trazado 605557" d="M510.769,473.593h-.2v12.176h.2Z" transform="translate(-500.25 -473.593)" fill="#65a6ff"/>
      <path id="Trazado_605558" data-name="Trazado 605558" d="M510.942,473.593h-.2v12.176h.2Z" transform="translate(-500.196 -473.593)" fill="#64a5ff"/>
      <path id="Trazado_605559" data-name="Trazado 605559" d="M511.1,473.593h-.2v12.176h.2Z" transform="translate(-500.146 -473.593)" fill="#63a4ff"/>
      <path id="Trazado_605560" data-name="Trazado 605560" d="M511.27,473.593h-.2v12.176h.2Z" transform="translate(-500.093 -473.593)" fill="#62a3ff"/>
      <path id="Trazado_605561" data-name="Trazado 605561" d="M511.426,473.593h-.2v12.176h.2Z" transform="translate(-500.044 -473.593)" fill="#61a2ff"/>
      <path id="Trazado_605562" data-name="Trazado 605562" d="M511.6,473.593h-.2v12.176h.2Z" transform="translate(-499.99 -473.593)" fill="#60a2ff"/>
      <path id="Trazado_605563" data-name="Trazado 605563" d="M511.776,473.593h-.227v12.176h.227Z" transform="translate(-499.942 -473.593)" fill="#5fa1ff"/>
      <path id="Trazado_605564" data-name="Trazado 605564" d="M511.927,473.593h-.2v12.176h.2Z" transform="translate(-499.887 -473.593)" fill="#5ea0ff"/>
      <path id="Trazado_605565" data-name="Trazado 605565" d="M512.082,473.593h-.2v12.176h.2Z" transform="translate(-499.839 -473.593)" fill="#5d9fff"/>
      <path id="Trazado_605566" data-name="Trazado 605566" d="M512.255,473.593h-.2v12.176h.2Z" transform="translate(-499.785 -473.593)" fill="#5c9eff"/>
      <path id="Trazado_605567" data-name="Trazado 605567" d="M512.41,473.593h-.2v12.176h.2Z" transform="translate(-499.736 -473.593)" fill="#5b9eff"/>
      <path id="Trazado_605568" data-name="Trazado 605568" d="M512.583,473.593h-.2v12.176h.2Z" transform="translate(-499.682 -473.593)" fill="#5a9dff"/>
      <path id="Trazado_605569" data-name="Trazado 605569" d="M512.738,473.593h-.2v12.176h.2Z" transform="translate(-499.633 -473.593)" fill="#599cff"/>
      <path id="Trazado_605570" data-name="Trazado 605570" d="M512.893,473.593h-.2v12.176h.2Z" transform="translate(-499.585 -473.593)" fill="#589bff"/>
      <path id="Trazado_605571" data-name="Trazado 605571" d="M513.066,473.593h-.2v12.176h.2Z" transform="translate(-499.531 -473.593)" fill="#579bff"/>
      <path id="Trazado_605572" data-name="Trazado 605572" d="M513.244,473.593h-.226v12.176h.226Z" transform="translate(-499.482 -473.593)" fill="#569aff"/>
      <path id="Trazado_605573" data-name="Trazado 605573" d="M513.394,473.593h-.2v12.176h.2Z" transform="translate(-499.428 -473.593)" fill="#59f"/>
    </g>
    <path id="Trazado_610630" data-name="Trazado 610630" d="M507.27,485.164a13.711,13.711,0,0,1,4.171.523c.341.135.636.34.636.7s-.521.816-1.678.907a9.862,9.862,0,0,0-2.63.749S506.544,487.795,507.27,485.164Z" transform="translate(-124.856 -380.403)" fill="#eea886"/>
    <path id="Trazado_610631" data-name="Trazado 610631" d="M488.834,561.6c-.2,1.065-.408,2.153-.634,3.242l-6.871-18.183C482.236,548.492,488.834,561.6,488.834,561.6Z" transform="translate(-132.901 -361.16)" fill="#293b57"/>
  </g>
</svg>
