<svg xmlns="http://www.w3.org/2000/svg" xmlns:xlink="http://www.w3.org/1999/xlink" width="228.041" height="225" viewBox="0 0 228.041 225">
  <defs>
    <clipPath id="clip-path">
      <rect id="Rectángulo_348887" data-name="Rectángulo 348887" width="228.041" height="225" fill="none"/>
    </clipPath>
  </defs>
  <g id="Grupo_1016596" data-name="Grupo 1016596" transform="translate(22)">
    <g id="Grupo_1016595" data-name="Grupo 1016595" transform="translate(-22)" clip-path="url(#clip-path)">
      <path id="Trazado_637002" data-name="Trazado 637002" d="M228.041,112.5c0,62.132-51.048,112.5-114.02,112.5S0,174.632,0,112.5,51.048,0,114.02,0s114.02,50.368,114.02,112.5" transform="translate(0 0)" fill="#4ca220"/>
      <path id="Trazado_637003" data-name="Trazado 637003" d="M183.359,172.006v4.956H21.791v-4.979H81.736v-1c0-5.486-.028-10.971.017-16.456a10.033,10.033,0,0,0-1.431-5.166c-2.708-4.725-5.443-9.436-8.108-14.184-1.014-1.8-1.943-3.665-2.771-5.559a13.139,13.139,0,0,1-.779-5.491c.011-1.157,0-2.313,0-3.585H34.785V34.514c0-.931.045-1.865-.008-2.794-.039-.681.191-.9.886-.9,3.21.026,6.42.009,9.629.009,2.543,0,5.087,0,7.755,0V18.016h.968q12.942,0,25.886,0C85.161,18,90.128,19,94.577,21.935a23.825,23.825,0,0,1,7.553,8c.125.216.262.425.425.689.711-1.066,1.331-2.111,2.06-3.074a23.286,23.286,0,0,1,16.371-9.314,36.612,36.612,0,0,1,4.333-.21c8.6-.018,17.2,0,25.806-.025.751,0,.989.191.981.946-.036,3.777,0,7.554-.033,11.332,0,.615.3.583.728.581q8.2-.018,16.413-.015c1.109,0,1.112.023,1.114,1.111q.019,42.615.036,85.23c0,.88-.044,1.761,0,2.638.033.6-.2.754-.77.751-2.6-.017-5.207,0-7.813,0q-12.27.007-24.542,0c-.644,0-.789.16-.783.774.039,3.514.223,7.041-1.365,10.362-.859,1.8-1.574,3.662-2.391,5.48q-2.416,5.388-4.872,10.757c-.236.516-.52,1.012-.77,1.523a11.137,11.137,0,0,0-1.1,5.106q.061,8.266.023,16.533c0,.626.148.783.776.783q22.058-.007,44.115.023,5.525,0,11.047.022c.469,0,.937.048,1.437.076M100.051,61.572c-.019-.284-.044-.487-.044-.69,0-6.648.017-13.3-.019-19.946a17.245,17.245,0,0,0-.375-3.538A17.753,17.753,0,0,0,82.559,23.208c-7.753-.211-15.518-.085-23.276-.1-1.025,0-1.025.025-1.026,1.026q-.009,25.148-.016,50.3,0,14.751,0,29.5c0,1.484-.008,1.267,1.254,1.264,2.579-.008,5.156,0,7.735-.008.461,0,.922-.042,1.437-.066v-1.014q0-9.08,0-18.163c0-1.395.048-2.792.116-4.187a4.785,4.785,0,0,1,1.478-3.172c1.66-1.692,3.719-1.743,5.863-1.356,7.817,1.407,13.053,7.252,13.336,15.073.147,4.03.047,8.069.03,12.105,0,.609.094.863.812.846,2.84-.06,5.681-.055,8.522-.06,1.292,0,1.135.143,1.175-1.176,0-.028,0-.052,0-.077q0-18.123,0-36.25c0-.3.033-.593.052-.931,1.457,0,2.826.051,4.186-.022.748-.04.937.182.936.891q-.037,17.929-.036,35.86v1.692h1.454l36.38.009c1.079,0,2.159-.046,3.235,0,.6.029.728-.182.686-.707s-.012-1.034-.012-1.552q0-39.155.008-78.308V23.181c-.242-.035-.344-.063-.445-.065-7.18-.028-14.362-.066-21.542-.072a20.134,20.134,0,0,0-10.188,2.233c-5.674,3.2-9.115,7.971-9.412,14.408-.323,7-.128,14.019-.156,21.03,0,.156.059.333,0,.459-.07.156-.236.379-.364.382-1.545.026-3.091.017-4.733.017m2.458,71.806c-1.473,0-2.865-.032-4.252.015-.683.023-.887-.171-.906-.865a26.483,26.483,0,0,0-6.088-16.607c-1.915-2.321-4.183-4.358-6.33-6.486a2.1,2.1,0,0,1-.683-1.637c.02-5.226,0-10.452.017-15.678a9.489,9.489,0,0,0-2.708-6.752,10.58,10.58,0,0,0-7.685-3.3v3.609q0,19.52-.022,39.038a10.783,10.783,0,0,0,1.44,5.557c2.671,4.628,5.353,9.251,7.942,13.922,1.139,2.057,2.115,4.207,3.054,6.362.262.6.473.834,1.142.829,5.1-.031,10.206-.025,15.307-.026q8.76,0,17.517,0c.409,0,.784.068.965-.519A36.907,36.907,0,0,1,122.7,146.7c2.449-5.513,4.983-10.988,7.41-16.51a13.281,13.281,0,0,0,1.05-3.777c.189-1.635.037-3.307.109-4.959.031-.689-.153-.874-.859-.872q-7.179.014-14.36-.066c-.6-.008-.781.234-.989.73a21.168,21.168,0,0,1-1.845,3.911,12.6,12.6,0,0,1-10.046,5.59c-.564.039-.789.166-.686.791a11.331,11.331,0,0,1,.022,1.845m49.6-97.317V37.2q-.012,24.448-.019,48.9,0,11.1.027,22.2c.006,2.039.036,2.047-2.057,2.047q-27.578,0-55.158,0H93.158c.4.505.659.854.943,1.177a31.993,31.993,0,0,1,5.512,8.629c.642,1.524,1.15,3.1,1.7,4.662.173.492.348.86,1.007.874a7.692,7.692,0,0,0,8-7.165c.062-.969.009-1.946.009-3h54.706V36.061Zm-83.5,74.289h-.929c-4.6,0-9.206-.017-13.807,0-.633,0-.862-.156-.861-.823q.026-36.512.012-73.025a2.87,2.87,0,0,0-.061-.416H40.126V115.46H68.614ZM86.9,161.642h.9q10.89,0,21.779-.02c.639,0,.892.153.862.817-.052,1.111-.058,2.227-.011,3.336.03.721-.167.989-.962.985-7.26-.034-14.518-.028-21.778-.032-.248,0-.5.028-.839.048,0,1.43,0,2.772,0,4.115,0,.994-.009,1,1.028,1q15.545.025,31.088.045h1.848v-5.192c-1.489,0-2.908-.043-4.323.017-.72.031-.915-.217-.886-.878.044-.9.009-1.811.009-2.715,0-.5,0-1.006,0-1.544,1.651,0,3.122.017,4.592-.018.23,0,.645-.248.65-.39.047-1.544.03-3.088.03-4.663H86.9Z" transform="translate(12.245 9.74)"/>
      <path id="Trazado_637004" data-name="Trazado 637004" d="M86.938,59.8c1.642,0,3.188.009,4.734-.017.127,0,.292-.227.362-.382.059-.126,0-.3,0-.459.03-7.01-.167-14.032.156-21.03.3-6.437,3.738-11.2,9.412-14.408a20.134,20.134,0,0,1,10.188-2.233c7.182.006,14.362.045,21.544.072a3.934,3.934,0,0,1,.445.065v1.447l-.009,78.309c0,.518-.03,1.037.012,1.552s-.089.737-.686.707c-1.076-.051-2.155,0-3.235,0l-36.38-.011c-.462,0-.925,0-1.454,0V101.72q.012-17.929.037-35.861c0-.706-.189-.929-.937-.889-1.36.072-2.729.022-4.186.022-.019.337-.052.635-.052.932q0,18.123,0,36.247c0,.026,0,.052,0,.079-.039,1.319.119,1.173-1.175,1.176-2.841,0-5.682,0-8.522.062-.717.015-.815-.239-.812-.848.017-4.036.117-8.075-.03-12.107-.283-7.82-5.518-13.665-13.336-15.072-2.145-.387-4.2-.334-5.863,1.358a4.782,4.782,0,0,0-1.478,3.17c-.067,1.395-.112,2.791-.116,4.187q-.016,9.082,0,18.163v1.014c-.515.025-.976.066-1.437.068-2.579.006-5.156,0-7.735,0-1.262,0-1.254.222-1.254-1.262q0-14.748,0-29.5,0-25.151.016-50.3c0-1,0-1.028,1.026-1.026,7.76.014,15.522-.113,23.276.1A17.753,17.753,0,0,1,86.5,35.625a17.159,17.159,0,0,1,.375,3.538c.036,6.65.017,13.3.019,19.948,0,.2.025.407.044.69m25.987-10.208c4.968,0,9.937-.014,14.905.018.659,0,.8-.208.789-.792-.034-1.188-.041-2.379,0-3.568.022-.61-.17-.783-.8-.781q-14.905.016-29.812-.025c-.617,0-.762.228-.745.777.036,1.188.08,2.381.011,3.566-.039.684.181.818.825.815,4.942-.023,9.884-.012,14.827-.011M50.354,70.036a1.519,1.519,0,0,0,.248.063q15.191,0,30.383.008c.554,0,.672-.239.661-.706-.027-1.216-.062-2.433-.031-3.648.017-.64-.234-.767-.837-.766q-14.8.023-29.594.009c-.276,0-.554.032-.829.049Zm78.221,2.624c-.845,0-1.606,0-2.366,0q-13.65,0-27.3,0a7.15,7.15,0,0,0-1.179.046c-.178.029-.461.236-.464.367-.033,1.518-.02,3.038-.02,4.609h31.331ZM50.337,39.276c.337.014.6.035.854.035q11.04,0,22.078,0c2.549,0,5.1.009,7.649-.018.237,0,.675-.233.679-.368.048-1.536.03-3.076.03-4.619H50.337ZM128.55,34.3H97.29v4.935h31.26ZM50.345,54.8v5.024h.793q11.668-.03,23.337-.055c2.127,0,4.256.032,6.385.045.325,0,.75.117.754-.415.011-1.518,0-3.034,0-4.6Zm78.234,0H97.287c0,1.288,0,2.524,0,3.76,0,1.254,0,1.253,1.32,1.251q14.439-.016,28.88-.034h1.092ZM97.287,98.2h31.259V93.251H97.287ZM52.953,44.471c0,1.63.02,3.076-.014,4.52-.009.444.1.609.558.6,1.34-.017,2.682-.025,4.02,0,.531.009.692-.225.681-.7q-.033-1.473-.025-2.947c0-1.438.012-1.449-1.457-1.469-1.251-.017-2.5,0-3.763,0m13.139.02v-.02c-.629,0-1.262.048-1.885-.012s-.836.137-.815.757q.061,1.854,0,3.713c-.016.529.187.673.681.667,1.31-.02,2.622-.025,3.931,0,.5.009.629-.2.625-.646-.016-1.288-.02-2.578,0-3.867.008-.482-.184-.627-.654-.6-.626.035-1.257.009-1.887.009m59.872,38.415c-1.584,0-3.05.023-4.516-.012-.586-.014-.725.233-.718.738.017,1.241.023,2.481,0,3.722-.009.493.144.7.672.689,1.339-.022,2.68.017,4.019-.018.186,0,.519-.284.523-.444.041-1.495.023-2.99.023-4.674M73.817,47.023h.025c0,.646.025,1.291-.009,1.936-.023.436.131.61.573.609q2.005,0,4.014.02c.425.006.631-.151.626-.587-.017-1.316,0-2.632-.055-3.947a.766.766,0,0,0-.52-.539c-1.337-.055-2.676-.032-4.014-.052-.515-.008-.687.2-.651.7.044.616.011,1.237.011,1.857m28.775,41.009v0c.628,0,1.259-.031,1.885.011.5.032.639-.154.629-.62-.025-1.262-.039-2.527,0-3.79.016-.553-.2-.73-.722-.724-1.257.012-2.516.026-3.774-.014-.581-.018-.728.227-.722.732.016,1.238.023,2.475,0,3.713-.011.493.142.714.665.693.681-.026,1.362-.006,2.045-.006m7.746-5.059v5.063c1.61,0,3.18.012,4.75-.018a.6.6,0,0,0,.412-.421c.031-1.521.019-3.044.019-4.623Z" transform="translate(25.358 11.511)" fill="#fff"/>
      <path id="Trazado_637005" data-name="Trazado 637005" d="M83.78,110.881a11.347,11.347,0,0,0-.022-1.846c-.1-.624.122-.752.686-.789a12.613,12.613,0,0,0,10.046-5.59,21.115,21.115,0,0,0,1.845-3.911c.208-.5.389-.738.99-.732q7.179.074,14.359.066c.706,0,.89.183.859.872-.072,1.654.08,3.324-.109,4.959a13.316,13.316,0,0,1-1.048,3.777c-2.429,5.522-4.962,11-7.41,16.51a36.612,36.612,0,0,0-1.485,4.152c-.181.589-.556.519-.965.519q-8.758,0-17.517,0c-5.1,0-10.2,0-15.307.025-.669,0-.879-.227-1.142-.829-.939-2.154-1.915-4.3-3.054-6.36-2.59-4.673-5.27-9.3-7.942-13.924a10.792,10.792,0,0,1-1.44-5.556q.04-19.52.022-39.039V59.578a10.561,10.561,0,0,1,7.685,3.295,9.483,9.483,0,0,1,2.708,6.75c-.017,5.226,0,10.452-.016,15.678a2.092,2.092,0,0,0,.681,1.637c2.148,2.128,4.416,4.169,6.33,6.486a26.486,26.486,0,0,1,6.088,16.607c.019.693.223.888.906.865,1.387-.046,2.779-.014,4.252-.014" transform="translate(30.975 32.237)" fill="#fff3a7"/>
      <path id="Trazado_637006" data-name="Trazado 637006" d="M126.433,29.719h12.928v79.464H84.655c0,1.053.053,2.028-.009,3a7.691,7.691,0,0,1-8,7.165c-.658-.014-.832-.382-1.007-.874-.551-1.558-1.057-3.138-1.7-4.66a31.945,31.945,0,0,0-5.512-8.629c-.283-.324-.539-.673-.942-1.177h1.743q27.58,0,55.158,0c2.093,0,2.065-.009,2.059-2.048q-.033-11.1-.028-22.2,0-24.448.019-48.9V29.719" transform="translate(37.92 16.081)" fill="#fff"/>
      <path id="Trazado_637007" data-name="Trazado 637007" d="M62.018,104v5.109H33.53V29.735H46.372a2.818,2.818,0,0,1,.061.415q0,36.512-.013,73.025c0,.669.226.828.861.826,4.6-.017,9.2,0,13.807,0h.929" transform="translate(18.841 16.089)" fill="#fff"/>
      <path id="Trazado_637008" data-name="Trazado 637008" d="M63.492,112.994v-5.087H97.475c0,1.575.017,3.119-.03,4.663,0,.142-.42.385-.65.39-1.47.035-2.941.018-4.592.018,0,.538,0,1.042,0,1.544,0,.9.034,1.812-.009,2.715-.03.661.166.909.886.878,1.415-.06,2.835-.017,4.323-.017v5.192H95.555q-15.543-.023-31.088-.045c-1.037,0-1.031-.011-1.028-1,.006-1.342,0-2.685,0-4.115.34-.02.59-.048.839-.048,7.26,0,14.518,0,21.778.032.8,0,.992-.264.962-.985-.047-1.11-.041-2.225.011-3.336.03-.664-.223-.82-.862-.817q-10.89.032-21.779.02h-.9" transform="translate(35.648 58.388)" fill="#fff3a7"/>
      <path id="Trazado_637009" data-name="Trazado 637009" d="M94.168,41.454c-4.942,0-9.885-.009-14.827.014-.642,0-.862-.131-.823-.815.069-1.185.023-2.378-.012-3.568-.016-.546.13-.775.747-.774q14.905.035,29.811.023c.631,0,.825.171.8.783-.042,1.187-.036,2.378,0,3.566.016.584-.13.8-.789.791-4.968-.031-9.937-.017-14.905-.02" transform="translate(44.113 19.648)"/>
      <path id="Trazado_637010" data-name="Trazado 637010" d="M48.473,54.688V49.7c.276-.017.553-.049.829-.049q14.8,0,29.594-.009c.6,0,.854.126.837.766-.031,1.214,0,2.432.031,3.648.011.467-.106.706-.659.706q-15.191-.018-30.384-.008a1.52,1.52,0,0,1-.248-.063" transform="translate(27.238 26.859)"/>
      <path id="Trazado_637011" data-name="Trazado 637011" d="M109.826,54.617v5.026H78.5c0-1.572-.013-3.091.02-4.611,0-.131.286-.338.464-.367a7.149,7.149,0,0,1,1.179-.045q13.65,0,27.3,0h2.366" transform="translate(44.107 29.553)"/>
      <path id="Trazado_637012" data-name="Trazado 637012" d="M48.462,34.7v-4.97H79.754c0,1.543.017,3.082-.031,4.62,0,.134-.442.365-.679.368-2.549.026-5.1.017-7.649.017q-11.037,0-22.076,0c-.259,0-.519-.02-.856-.035" transform="translate(27.232 16.086)"/>
      <rect id="Rectángulo_348885" data-name="Rectángulo 348885" width="31.26" height="4.935" transform="translate(122.647 45.814)"/>
      <path id="Trazado_637013" data-name="Trazado 637013" d="M48.467,43.026H79.741c0,1.564.008,3.082,0,4.6,0,.532-.43.415-.754.413-2.129-.012-4.256-.048-6.385-.045q-11.67.018-23.337.055c-.255,0-.509,0-.793,0Z" transform="translate(27.235 23.281)"/>
      <path id="Trazado_637014" data-name="Trazado 637014" d="M109.814,43.029v4.978H108.72l-28.878.034c-1.321,0-1.321,0-1.32-1.251v-3.76Z" transform="translate(44.123 23.283)"/>
      <rect id="Rectángulo_348886" data-name="Rectángulo 348886" width="31.259" height="4.952" transform="translate(122.645 104.762)"/>
      <path id="Trazado_637015" data-name="Trazado 637015" d="M50.142,36.328c1.26,0,2.512-.014,3.763,0,1.47.02,1.464.032,1.457,1.469,0,.982,0,1.965.027,2.947.011.478-.15.712-.681.7-1.34-.022-2.68-.015-4.02,0-.453.006-.569-.16-.558-.6.034-1.446.012-2.89.012-4.522" transform="translate(28.168 19.654)"/>
      <path id="Trazado_637016" data-name="Trazado 637016" d="M59.522,36.354c.629,0,1.259.026,1.887-.009.47-.026.662.117.653.6-.022,1.288-.017,2.578,0,3.867.006.442-.123.655-.623.646-1.31-.025-2.621-.02-3.931,0-.494.006-.7-.139-.681-.667q.056-1.856,0-3.713c-.02-.62.187-.818.815-.757s1.256.012,1.885.012v.02" transform="translate(31.928 19.648)"/>
      <path id="Trazado_637017" data-name="Trazado 637017" d="M98.766,61.271c0,1.684.016,3.181-.023,4.676,0,.159-.337.438-.523.442-1.339.035-2.68,0-4.019.018-.528.009-.681-.194-.672-.689.027-1.241.02-2.481,0-3.722-.006-.505.133-.752.718-.738,1.465.037,2.932.012,4.516.012" transform="translate(52.556 33.146)"/>
      <path id="Trazado_637018" data-name="Trazado 637018" d="M63.5,38.881c0-.62.033-1.241-.011-1.857-.034-.5.137-.712.651-.7,1.339.02,2.679,0,4.014.051a.77.77,0,0,1,.522.541c.055,1.315.036,2.631.053,3.947.006.436-.2.593-.626.587q-2.006-.025-4.014-.02c-.44,0-.6-.173-.573-.609.034-.644.009-1.29.009-1.936H63.5" transform="translate(35.674 19.653)"/>
      <path id="Trazado_637019" data-name="Trazado 637019" d="M82.893,66.394c-.681,0-1.364-.018-2.045.006-.523.02-.675-.2-.664-.693.028-1.237.02-2.475,0-3.713-.008-.505.141-.751.72-.732,1.257.04,2.516.026,3.774.014.525-.006.739.173.723.724-.037,1.262-.023,2.527,0,3.79.008.465-.13.652-.631.62-.625-.042-1.256-.011-1.885-.011Z" transform="translate(45.057 33.148)"/>
      <path id="Trazado_637020" data-name="Trazado 637020" d="M86.878,61.309h5.181c0,1.58.012,3.1-.019,4.623a.6.6,0,0,1-.412.421c-1.57.031-3.139.018-4.75.018Z" transform="translate(48.819 33.174)"/>
    </g>
  </g>
</svg>
