<svg xmlns="http://www.w3.org/2000/svg" xmlns:xlink="http://www.w3.org/1999/xlink" width="190" height="147" viewBox="0 0 190 147">
  <defs>
    <clipPath id="clip-path">
      <rect id="Rectángulo_349169" data-name="Rectángulo 349169" width="190" height="147" rx="17" transform="translate(224 3170)" fill="#fff"/>
    </clipPath>
    <clipPath id="clip-path-2">
      <rect id="Rectángulo_349179" data-name="Rectángulo 349179" width="98.43" height="139.487" fill="none"/>
    </clipPath>
  </defs>
  <g id="Enmascarar_grupo_78" data-name="Enmascarar grupo 78" transform="translate(-224 -3170)" clip-path="url(#clip-path)">
    <g id="Grupo_1016690" data-name="Grupo 1016690" transform="translate(247.897 3177.667)">
      <g id="Grupo_1016701" data-name="Grupo 1016701" transform="translate(20.34 -2.82)">
        <rect id="Rectángulo_349177" data-name="Rectángulo 349177" width="93.598" height="134.406" transform="translate(2.756 2.542)" fill="#fff"/>
        <g id="Grupo_1016700" data-name="Grupo 1016700">
          <g id="Grupo_1016699" data-name="Grupo 1016699" clip-path="url(#clip-path-2)">
            <path id="Trazado_637383" data-name="Trazado 637383" d="M59.132,174.094h-.007q0-9.77,0-19.541a4.239,4.239,0,0,0-4.457-4.5q-16.421,0-32.842,0a4.331,4.331,0,0,0-4.452,4.481q0,19.473,0,38.946a4.4,4.4,0,0,0,4.454,4.5c1.111.013,2.221-.009,3.332-.009q14.721.006,29.442.012a4.227,4.227,0,0,0,4.529-4.491q-.007-9.7,0-19.405M80.56,155.82v0c-4.216,0-8.431-.012-12.647,0-2.59.01-3.866,1.328-3.867,3.916,0,5.106-.023,10.213-.008,15.319a11.781,11.781,0,0,0,.237,2.5c.694,3.144,2.623,5.536,4.877,7.69a43.674,43.674,0,0,0,9.47,6.316,3.72,3.72,0,0,0,3.985-.027c1.613-.964,3.269-1.861,4.836-2.9a27.878,27.878,0,0,0,6.763-5.847,12.359,12.359,0,0,0,2.846-7.965c-.043-4.425-.009-8.851-.012-13.277,0-.771.016-1.546-.042-2.313-.169-2.236-1.284-3.3-3.518-3.409-.249-.012-.5-.013-.748-.013H80.56" transform="translate(-7.879 -68.044)" fill="#fff"/>
            <path id="Trazado_637384" data-name="Trazado 637384" d="M4.092,76.533v58.828H94.369v-1.228q0-16.243.014-32.485a5.046,5.046,0,0,1,.152-1.472,1.894,1.894,0,0,1,2.135-1.295,1.931,1.931,0,0,1,1.658,1.728c.068.675.081,1.359.081,2.039q.007,15.834,0,31.668a7.934,7.934,0,0,1-.162,1.891,4.341,4.341,0,0,1-4.182,3.276c-.158.007-.318,0-.476,0H4.76a4.4,4.4,0,0,1-4.418-2.77,6.7,6.7,0,0,1-.327-2.265c-.024-6.334-.011-12.668-.011-19L0,6.076C0,5.554,0,5.032.013,4.51A4.383,4.383,0,0,1,4.332.011C4.513,0,4.695,0,4.876,0H93.631a4.27,4.27,0,0,1,4.182,2.261,7.365,7.365,0,0,1,.564,2.549c.1.967.033,1.951.033,2.927q0,40.01,0,80.021c0,1.158.032,2.316.009,3.473a1.956,1.956,0,0,1-1.193,1.9,1.917,1.917,0,0,1-2.153-.345,2.213,2.213,0,0,1-.7-1.777c0-4.54-.015-9.08.007-13.62,0-.62-.1-.855-.8-.855q-43.561.019-87.122,0H4.092m.024-72.46V62.887H94.38V59.765q0-27.48.01-54.961c0-.649-.25-.725-.8-.725q-21.05.006-42.1-.015-22.649,0-45.3.009H4.116m-.008,68.34H94.341V67.047H4.108Z" transform="translate(0)" fill="#161615"/>
            <path id="Trazado_637385" data-name="Trazado 637385" d="M59.132,174.094q0,9.7,0,19.4a4.227,4.227,0,0,1-4.529,4.492q-14.721,0-29.442-.012c-1.111,0-2.221.021-3.332.009a4.4,4.4,0,0,1-4.454-4.5q0-19.473,0-38.946a4.332,4.332,0,0,1,4.452-4.482q16.421,0,32.843,0a4.238,4.238,0,0,1,4.456,4.5q-.009,9.77,0,19.541h.007m-4.108,19.771v-39.7c-.157-.016-.246-.032-.335-.032q-16.32,0-32.64-.014c-.573,0-.6.263-.6.706q.016,19.236.017,38.471c0,.175.021.351.035.566Z" transform="translate(-7.879 -68.044)" fill="#161615"/>
            <path id="Trazado_637386" data-name="Trazado 637386" d="M119.273,160.606h12.171c.249,0,.5,0,.748.013,2.234.108,3.349,1.173,3.519,3.409.058.768.041,1.542.042,2.313,0,4.425-.031,8.851.012,13.276a12.355,12.355,0,0,1-2.846,7.965,27.876,27.876,0,0,1-6.763,5.847c-1.567,1.034-3.223,1.931-4.836,2.9a3.723,3.723,0,0,1-3.985.027c-3.338-1.837-6.687-3.657-9.47-6.317-2.254-2.154-4.183-4.546-4.877-7.69a11.78,11.78,0,0,1-.237-2.5c-.015-5.106,0-10.212.008-15.319,0-2.588,1.277-3.906,3.868-3.916,4.215-.017,8.431,0,12.647,0Zm-12.458,4.144c-.028.635-.073,1.175-.074,1.716-.01,4.4.009,8.8-.027,13.2a7.715,7.715,0,0,0,1.611,4.874c2.776,3.64,6.529,6.029,10.525,8.084a1.126,1.126,0,0,0,.885-.068c1.006-.515,1.992-1.074,2.968-1.645a25.9,25.9,0,0,0,6.946-5.608,8.135,8.135,0,0,0,2.082-5.522c-.066-4.741-.034-9.483,0-14.225,0-.678-.193-.823-.835-.821q-11.25.03-22.5.01h-1.581" transform="translate(-46.592 -72.83)" fill="#161615"/>
            <path id="Trazado_637387" data-name="Trazado 637387" d="M7.532,7.445H9.609q22.649,0,45.3-.009,21.05,0,42.1.015c.549,0,.8.077.8.725q-.024,27.48-.009,54.961v3.121H7.532ZM52.638,60.854H88.61c2.505,0,3.745-1.247,3.745-3.768V16.773c0-2.669-1.2-3.862-3.85-3.862q-35.941.007-71.88,0c-2.46,0-3.713,1.244-3.713,3.727q0,20.191,0,40.381c0,2.617,1.211,3.83,3.82,3.83H52.638" transform="translate(-3.416 -3.372)" fill="#fff"/>
            <rect id="Rectángulo_349178" data-name="Rectángulo 349178" width="90.233" height="5.366" transform="translate(4.108 67.048)" fill="#ff2727"/>
            <path id="Trazado_637388" data-name="Trazado 637388" d="M58.4,197.242H24.879c-.014-.215-.034-.391-.034-.566q-.008-19.236-.018-38.471c0-.442.028-.707.6-.706q16.321.024,32.64.014c.089,0,.178.016.335.032ZM41.566,174.874v0q4.76,0,9.518,0a5.852,5.852,0,0,0,.88-.057,1.951,1.951,0,0,0,1.543-2.706c-.469-1.178-1.453-1.371-2.557-1.37q-9.282.006-18.563.006a6.058,6.058,0,0,0-1.013.09,2.014,2.014,0,0,0,.131,4,8.646,8.646,0,0,0,.883.034q4.589,0,9.178,0m0,8.644c3.061,0,6.122,0,9.182-.005a6.451,6.451,0,0,0,1.416-.127,1.918,1.918,0,0,0,1.358-2.647,2.079,2.079,0,0,0-2.18-1.289q-9.453,0-18.907.013a7.877,7.877,0,0,0-1.149.1,1.8,1.8,0,0,0-1.571,1.483,1.979,1.979,0,0,0,2.127,2.47c3.242.015,6.484,0,9.726.006m.12-21.39c-1.879,0-3.758-.017-5.637.013a3.357,3.357,0,0,0-1.308.276,1.959,1.959,0,0,0-1.025,2.169,2.078,2.078,0,0,0,2.075,1.632c1.267.029,2.535.01,3.8.01,2.581,0,5.162.016,7.743-.009a2.187,2.187,0,0,0,2.165-1.358,1.737,1.737,0,0,0-.459-2.108,2.7,2.7,0,0,0-1.517-.6c-1.945-.069-3.893-.028-5.84-.029m5.322,26.007v.011c-1.632,0-3.264-.029-4.9.01a1.868,1.868,0,0,0-1.919,1.514c-.309,1.4.594,2.5,2.239,2.528,3.037.056,6.075.045,9.112.007a2.078,2.078,0,0,0,2.126-2.113,2.009,2.009,0,0,0-2.174-1.953c-1.5-.023-2.992-.005-4.489-.005" transform="translate(-11.258 -71.421)" fill="#dee9f0"/>
            <path id="Trazado_637389" data-name="Trazado 637389" d="M110.107,168.178h1.58c7.5,0,15,.01,22.5-.01.642,0,.839.143.835.821-.034,4.742-.066,9.484,0,14.225a8.134,8.134,0,0,1-2.082,5.522,25.909,25.909,0,0,1-6.946,5.608c-.976.571-1.961,1.13-2.968,1.646a1.127,1.127,0,0,1-.884.067c-4-2.055-7.749-4.443-10.525-8.083a7.721,7.721,0,0,1-1.612-4.874c.037-4.4.017-8.8.028-13.2,0-.541.045-1.081.074-1.716m6.88,7.519c-.34,0-.679,0-1.019,0a3.155,3.155,0,0,0-3.1,2.291,3.042,3.042,0,0,0,1.24,3.46c.586.427,1.17.859,1.781,1.247a.608.608,0,0,1,.293.843c-.246.68-.469,1.37-.663,2.067a3.122,3.122,0,0,0,1.124,3.566,3.06,3.06,0,0,0,3.787-.066c.58-.4,1.163-.789,1.714-1.223a.617.617,0,0,1,.892.04c.571.445,1.165.862,1.763,1.271a3.1,3.1,0,0,0,4.806-3.419,22.511,22.511,0,0,0-.709-2.194.62.62,0,0,1,.258-.853c.681-.488,1.367-.975,2-1.519a2.95,2.95,0,0,0,.912-3.37,3.081,3.081,0,0,0-2.922-2.142q-1.121-.024-2.242.026a.627.627,0,0,1-.717-.531,19.358,19.358,0,0,0-.906-2.555,2.987,2.987,0,0,0-4.748-.945,4.84,4.84,0,0,0-1.312,2.407c-.513,1.617-.516,1.616-2.233,1.6" transform="translate(-49.884 -76.259)" fill="#fff"/>
            <path id="Trazado_637390" data-name="Trazado 637390" d="M57.1,65.4H21.2c-2.608,0-3.82-1.213-3.82-3.83V21.186c0-2.482,1.253-3.727,3.713-3.727q35.941,0,71.88,0c2.646,0,3.85,1.193,3.85,3.862q0,20.156,0,40.312c0,2.521-1.24,3.768-3.744,3.768H57.1M92.675,21.539H22.411a2.267,2.267,0,0,1-.339,0c-.536-.082-.642.18-.631.666.036,1.5.026,3,.039,4.494a1.391,1.391,0,0,0,.075.29h.756q6.326,0,12.651,0c1.6,0,2.625.785,2.634,2.022.01,1.286-.995,2.092-2.637,2.094-4.081,0-8.162-.007-12.242,0-1.4,0-1.219-.19-1.222,1.24q-.03,14.234-.035,28.467a3.729,3.729,0,0,0,.055.455H92.693c0-1.445,0-2.845,0-4.245,0-.887-.01-.894-.881-.894q-11.63,0-23.26-.009A12.216,12.216,0,0,1,66.723,56,2.456,2.456,0,0,1,64.7,53.893a9.706,9.706,0,0,1-.071-1.222c-.02-6.946-.043-13.892-.036-20.838,0-.635-.22-.739-.784-.738-5.872.017-11.743.009-17.615.007a13.1,13.1,0,0,1-1.359-.032A1.983,1.983,0,0,1,43.086,29.2a1.931,1.931,0,0,1,1.432-2.052,5.868,5.868,0,0,1,1.411-.153q22.92-.011,45.84-.005h.906ZM75.7,44.33c-1.883-3.863-1.562-6.685.961-8.768a6.235,6.235,0,0,1,7.625-.277,6.826,6.826,0,0,1,2.516,3.7,6.05,6.05,0,0,1-1.191,5.3,7.662,7.662,0,0,1,2.79,3.429c.483,1.366.733,2.815,1.1,4.288H92.66c.019-.177.045-.308.045-.44,0-6.536-.021-13.072,0-19.608,0-.706-.222-.863-.885-.861-7.208.021-14.415.011-21.622.011-1.606,0-1.612,0-1.613,1.618q0,8.511,0,17.021V52h3.5A8.919,8.919,0,0,1,75.7,44.33m.5,7.72h7.3c2.007,0,2.16-.22,1.525-2.195a4.491,4.491,0,0,0-5.26-3,4.438,4.438,0,0,0-3.562,5.2m2.218-11.644a2.228,2.228,0,1,0,4.455-.037,2.217,2.217,0,0,0-2.275-2.2,2.252,2.252,0,0,0-2.181,2.239" transform="translate(-7.879 -7.915)" fill="#161615"/>
            <path id="Trazado_637391" data-name="Trazado 637391" d="M45.563,185.862q-4.589,0-9.178,0a8.806,8.806,0,0,1-.883-.033,2.014,2.014,0,0,1-.131-4,6.054,6.054,0,0,1,1.013-.09q9.283-.008,18.564-.006c1.1,0,2.087.192,2.557,1.37a1.951,1.951,0,0,1-1.543,2.706,5.848,5.848,0,0,1-.88.057q-4.759.006-9.518,0v0" transform="translate(-15.255 -82.408)" fill="#161615"/>
            <path id="Trazado_637392" data-name="Trazado 637392" d="M45.57,201.73c-3.242,0-6.484.01-9.726,0a1.979,1.979,0,0,1-2.127-2.47,1.8,1.8,0,0,1,1.572-1.483,7.871,7.871,0,0,1,1.149-.1q9.454-.013,18.908-.012a2.078,2.078,0,0,1,2.18,1.289,1.917,1.917,0,0,1-1.358,2.647,6.446,6.446,0,0,1-1.416.127c-3.061.011-6.121.005-9.182,0" transform="translate(-15.26 -89.634)" fill="#161615"/>
            <path id="Trazado_637393" data-name="Trazado 637393" d="M49.025,165.963c1.947,0,3.9-.041,5.84.027a2.706,2.706,0,0,1,1.517.6,1.737,1.737,0,0,1,.459,2.109,2.186,2.186,0,0,1-2.165,1.358c-2.581.025-5.162.009-7.743.009-1.267,0-2.536.019-3.8-.01a2.079,2.079,0,0,1-2.075-1.632,1.958,1.958,0,0,1,1.025-2.168,3.371,3.371,0,0,1,1.308-.277c1.879-.029,3.758-.013,5.637-.011" transform="translate(-18.596 -75.253)" fill="#161615"/>
            <path id="Trazado_637394" data-name="Trazado 637394" d="M59.71,213.551c1.5,0,2.993-.017,4.489.005a2.009,2.009,0,0,1,2.174,1.953,2.078,2.078,0,0,1-2.126,2.113c-3.037.038-6.076.049-9.112-.007-1.645-.031-2.548-1.13-2.239-2.528a1.868,1.868,0,0,1,1.919-1.514c1.631-.039,3.264-.01,4.9-.01v-.011" transform="translate(-23.959 -96.836)" fill="#161615"/>
            <path id="Trazado_637395" data-name="Trazado 637395" d="M119.242,177.965c1.716.016,1.719.018,2.233-1.6a4.842,4.842,0,0,1,1.312-2.407,2.987,2.987,0,0,1,4.748.944,19.281,19.281,0,0,1,.906,2.556.627.627,0,0,0,.718.531c.746-.033,1.495-.042,2.242-.026a3.082,3.082,0,0,1,2.922,2.143,2.952,2.952,0,0,1-.912,3.37c-.635.544-1.321,1.031-2,1.519a.621.621,0,0,0-.259.854,22.124,22.124,0,0,1,.709,2.194,3.1,3.1,0,0,1-4.806,3.419c-.6-.409-1.191-.826-1.763-1.272a.616.616,0,0,0-.892-.04c-.551.433-1.134.827-1.714,1.222a3.06,3.06,0,0,1-3.788.066,3.121,3.121,0,0,1-1.123-3.566c.193-.7.416-1.387.663-2.068a.607.607,0,0,0-.293-.842c-.611-.389-1.195-.82-1.781-1.247a3.044,3.044,0,0,1-1.24-3.46,3.155,3.155,0,0,1,3.1-2.29c.339,0,.679,0,1.019,0m1.624,4.1A3.619,3.619,0,0,1,122.5,186.5c1.549-1.192,3.055-1.081,4.719.114a3.5,3.5,0,0,1,1.458-4.529c-2.06-.077-3.372-.86-3.867-2.782a3.6,3.6,0,0,1-3.946,2.758" transform="translate(-52.139 -78.526)" fill="#161615"/>
            <path id="Trazado_637396" data-name="Trazado 637396" d="M96.048,24.912V30.36h-.906q-22.92,0-45.84.006a5.84,5.84,0,0,0-1.411.152,1.932,1.932,0,0,0-1.432,2.053,1.984,1.984,0,0,0,1.752,1.873,13.251,13.251,0,0,0,1.359.032q8.808,0,17.615-.006c.565,0,.785.1.785.737-.008,6.946.015,13.892.035,20.838a9.706,9.706,0,0,0,.071,1.222A2.456,2.456,0,0,0,70.1,59.376a12.217,12.217,0,0,0,1.828.118q11.63.012,23.26.009c.871,0,.877.007.881.894.005,1.4,0,2.8,0,4.245H24.888a3.731,3.731,0,0,1-.055-.455q.012-14.233.035-28.467c0-1.43-.174-1.236,1.222-1.24,4.08-.01,8.161,0,12.242,0,1.642,0,2.647-.808,2.637-2.094-.009-1.237-1.03-2.022-2.634-2.022H24.928a1.4,1.4,0,0,1-.075-.291c-.013-1.5,0-3-.039-4.494-.011-.485.095-.748.631-.666a2.267,2.267,0,0,0,.339,0H96.048Zm-53.3,24.665h.015c0,2.586-.021,5.172.009,7.758a1.978,1.978,0,0,0,2.174,2.156c1.722.022,3.445.035,5.165-.019A6.233,6.233,0,0,0,54.4,48.71a.569.569,0,0,1-.1-.812,5.537,5.537,0,0,0-4.2-8.141c-1.571-.16-3.164-.124-4.747-.128-1.852,0-2.6.759-2.606,2.6-.008,2.45,0,4.9,0,7.35m-9.024-5.753c.3,0,.519,0,.741,0,1.266-.03,2.539,0,3.8-.112a1.92,1.92,0,0,0,1.764-2.056,2.025,2.025,0,0,0-2.036-1.894c-1.993-.015-3.987-.016-5.981.01a2.122,2.122,0,0,0-2.37,2.3q-.055,7.554,0,15.108a2.82,2.82,0,0,0,.609,1.594,1.765,1.765,0,0,0,2.17.451,1.864,1.864,0,0,0,1.275-1.765c.032-1.746.015-3.493.024-5.24,0-.239.036-.477.061-.783,1.265,0,2.466.056,3.661-.015a2.03,2.03,0,0,0,2.076-2.072A2.069,2.069,0,0,0,37.259,47.4c-1-.008-1.994.019-2.99-.012-.186-.005-.52-.2-.525-.326-.042-1.056-.024-2.116-.024-3.234m29.471,5.8c0-2.45.008-4.9-.008-7.348a4.044,4.044,0,0,0-.171-1.2,1.979,1.979,0,0,0-2.069-1.321,1.866,1.866,0,0,0-1.712,1.656,11.5,11.5,0,0,0-.084,1.559q-.011,6.837,0,13.675a6.067,6.067,0,0,0,.11,1.215,1.924,1.924,0,0,0,2.09,1.541,2.075,2.075,0,0,0,1.845-2.292c.009-2.495,0-4.989,0-7.484" transform="translate(-11.252 -11.289)" fill="#fff"/>
            <path id="Trazado_637397" data-name="Trazado 637397" d="M118.192,55.644a8.917,8.917,0,0,0-3.621,7.673h-3.5V61.056q0-8.51,0-17.021c0-1.616.007-1.618,1.613-1.618,7.208,0,14.415.009,21.622-.011.664,0,.888.155.886.861-.021,6.536,0,13.072,0,19.608,0,.132-.026.263-.045.44h-3.155c-.367-1.473-.616-2.922-1.1-4.288A7.661,7.661,0,0,0,128.1,55.6a6.052,6.052,0,0,0,1.191-5.3,6.829,6.829,0,0,0-2.516-3.7,6.235,6.235,0,0,0-7.625.277c-2.523,2.083-2.844,4.905-.961,8.768" transform="translate(-50.367 -19.23)" fill="#304c8e"/>
            <path id="Trazado_637398" data-name="Trazado 637398" d="M124.977,76.355a4.438,4.438,0,0,1,3.562-5.2,4.49,4.49,0,0,1,5.26,3c.635,1.975.482,2.194-1.524,2.194h-7.3" transform="translate(-56.653 -32.22)" fill="#fff"/>
            <path id="Trazado_637399" data-name="Trazado 637399" d="M129.072,57.59a2.252,2.252,0,0,1,2.181-2.239,2.217,2.217,0,0,1,2.275,2.2,2.228,2.228,0,1,1-4.455.037" transform="translate(-58.53 -25.1)" fill="#fff"/>
            <path id="Trazado_637400" data-name="Trazado 637400" d="M125.753,187.157A3.6,3.6,0,0,0,129.7,184.4c.5,1.922,1.806,2.7,3.867,2.782a3.5,3.5,0,0,0-1.458,4.529c-1.665-1.2-3.17-1.306-4.719-.114a3.619,3.619,0,0,0-1.635-4.438" transform="translate(-57.025 -83.619)" fill="#ffe126"/>
            <path id="Trazado_637401" data-name="Trazado 637401" d="M57.622,61.8c0-2.45-.005-4.9,0-7.35.005-1.839.754-2.6,2.606-2.6,1.583,0,3.176-.031,4.747.128a5.537,5.537,0,0,1,4.2,8.141.569.569,0,0,0,.1.812A6.233,6.233,0,0,1,64.985,71.7c-1.72.053-3.443.04-5.165.019a1.978,1.978,0,0,1-2.174-2.156c-.03-2.585-.009-5.171-.009-7.757h-.015M61.8,63.295v4.344c1.137,0,2.224.038,3.308-.01a2.063,2.063,0,0,0,2.082-2.073A2.228,2.228,0,0,0,65.161,63.3c-1.106-.044-2.215-.009-3.365-.009m-.02-4.229c.978,0,1.881.056,2.773-.017a1.508,1.508,0,0,0,0-2.962c-.909-.071-1.828-.017-2.769-.017Z" transform="translate(-26.129 -23.514)" fill="#161615"/>
            <path id="Trazado_637402" data-name="Trazado 637402" d="M37.7,56.152c0,1.119-.017,2.178.024,3.235,0,.12.339.32.525.326,1,.031,1.993,0,2.99.011a2.069,2.069,0,0,1,2.254,1.956,2.03,2.03,0,0,1-2.076,2.072c-1.194.072-2.4.015-3.661.015-.025.3-.06.543-.061.782-.009,1.747.007,3.494-.024,5.24A1.866,1.866,0,0,1,36.4,71.556a1.765,1.765,0,0,1-2.17-.452,2.817,2.817,0,0,1-.609-1.594q-.062-7.554,0-15.108a2.122,2.122,0,0,1,2.37-2.3c1.993-.027,3.987-.026,5.981-.01A2.025,2.025,0,0,1,44,53.984a1.919,1.919,0,0,1-1.764,2.056c-1.259.117-2.532.083-3.8.113-.221,0-.443,0-.74,0" transform="translate(-15.231 -23.616)" fill="#161615"/>
            <path id="Trazado_637403" data-name="Trazado 637403" d="M91.673,61.949c0,2.495.006,4.989,0,7.484a2.075,2.075,0,0,1-1.845,2.292,1.925,1.925,0,0,1-2.091-1.541,6.067,6.067,0,0,1-.11-1.215q-.008-6.837,0-13.675a11.5,11.5,0,0,1,.085-1.559,1.865,1.865,0,0,1,1.712-1.656A1.979,1.979,0,0,1,91.495,53.4a4.044,4.044,0,0,1,.171,1.2c.015,2.45.008,4.9.008,7.348" transform="translate(-39.734 -23.612)" fill="#161615"/>
            <path id="Trazado_637404" data-name="Trazado 637404" d="M65.26,72.776c1.15,0,2.259-.034,3.365.009a2.229,2.229,0,0,1,2.026,2.252,2.064,2.064,0,0,1-2.083,2.073c-1.084.049-2.171.01-3.308.01Z" transform="translate(-29.593 -32.996)" fill="#fff"/>
            <path id="Trazado_637405" data-name="Trazado 637405" d="M65.224,62.547v-3c.942,0,1.86-.054,2.769.017a1.508,1.508,0,0,1,0,2.962c-.892.073-1.794.017-2.773.017" transform="translate(-29.577 -26.995)" fill="#fff"/>
          </g>
        </g>
      </g>
    </g>
  </g>
</svg>
