<svg xmlns="http://www.w3.org/2000/svg" xmlns:xlink="http://www.w3.org/1999/xlink" width="190" height="147" viewBox="0 0 190 147">
  <defs>
    <clipPath id="clip-path">
      <rect id="Rectángulo_349138" data-name="Rectángulo 349138" width="190" height="147" rx="17" transform="translate(224 3170)" fill="#fff"/>
    </clipPath>
  </defs>
  <g id="Enmascarar_grupo_76" data-name="Enmascarar grupo 76" transform="translate(-224 -3170)" clip-path="url(#clip-path)">
    <g id="Grupo_1016679" data-name="Grupo 1016679" transform="translate(219.333 3151.382)">
      <g id="Grupo_1016678" data-name="Grupo 1016678" transform="translate(20.16 23.285)">
        <rect id="Rectángulo_349111" data-name="Rectángulo 349111" width="129.368" height="9.382" transform="translate(10.569 122.832)" fill="#fff4de"/>
        <path id="Trazado_637294" data-name="Trazado 637294" d="M152.1,86.977h0L22.73,86.964a1.1,1.1,0,0,1-1.1-1.1l0-9.382a1.1,1.1,0,0,1,1.1-1.1L152.1,75.4a1.1,1.1,0,0,1,1.1,1.1v9.38a1.1,1.1,0,0,1-1.1,1.1M23.829,84.766,151,84.779V77.6L23.831,77.582Z" transform="translate(-12.161 46.341)" fill="#393c41"/>
        <rect id="Rectángulo_349112" data-name="Rectángulo 349112" width="139.974" height="6.296" transform="translate(5.266 126.945)" fill="#fff4de"/>
        <path id="Trazado_637295" data-name="Trazado 637295" d="M160.293,85.763h0L20.317,85.75a1.1,1.1,0,0,1-1.1-1.1v-6.3a1.1,1.1,0,0,1,1.1-1.1l139.975.015a1.1,1.1,0,0,1,1.1,1.1v6.293a1.1,1.1,0,0,1-1.1,1.1M21.416,83.552l137.777.013v-4.1L21.416,79.454Z" transform="translate(-15.052 48.584)" fill="#393c41"/>
        <rect id="Rectángulo_349113" data-name="Rectángulo 349113" width="148.308" height="5.665" transform="translate(1.098 131.926)" fill="#fff4de"/>
        <path id="Trazado_637296" data-name="Trazado 637296" d="M166.731,87.4h0L18.422,87.384a1.1,1.1,0,0,1-1.1-1.1V80.62a1.1,1.1,0,0,1,1.1-1.1l148.309.015a1.1,1.1,0,0,1,1.1,1.1V86.3a1.1,1.1,0,0,1-1.1,1.1M19.521,85.186l146.111.015V81.735L19.521,81.719Z" transform="translate(-17.323 51.298)" fill="#393c41"/>
        <rect id="Rectángulo_349114" data-name="Rectángulo 349114" width="16.638" height="63.633" transform="translate(18.647 54.349)" fill="#fff4de"/>
        <path id="Trazado_637297" data-name="Trazado 637297" d="M43.041,110.067h0l-16.638,0a1.1,1.1,0,0,1-1.1-1.1l.007-63.635a1.1,1.1,0,0,1,1.1-1.1l16.638,0a1.1,1.1,0,0,1,1.1,1.1l-.007,63.635a1.1,1.1,0,0,1-1.1,1.1m-15.539-2.2,14.44,0,.007-61.437-14.44,0Z" transform="translate(-7.76 9.016)" fill="#393c41"/>
        <rect id="Rectángulo_349115" data-name="Rectángulo 349115" width="19.93" height="5.625" transform="translate(17.004 50.256)" fill="#fff4de"/>
        <path id="Trazado_637298" data-name="Trazado 637298" d="M45.588,50.2h0l-19.931,0a1.1,1.1,0,0,1-1.1-1.1l0-5.625a1.1,1.1,0,0,1,1.1-1.1l19.929,0a1.1,1.1,0,0,1,1.1,1.1V49.1a1.089,1.089,0,0,1-.321.776,1.1,1.1,0,0,1-.778.323M26.756,48l17.733,0V44.571l-17.73,0Z" transform="translate(-8.654 6.786)" fill="#393c41"/>
        <rect id="Rectángulo_349116" data-name="Rectángulo 349116" width="19.93" height="5.625" transform="translate(16.997 117.147)" fill="#fff4de"/>
        <path id="Trazado_637299" data-name="Trazado 637299" d="M45.583,80.628h0l-19.929,0a1.1,1.1,0,0,1-1.1-1.1V73.9a1.1,1.1,0,0,1,1.1-1.1l19.931,0a1.1,1.1,0,0,1,1.1,1.1l0,5.627a1.1,1.1,0,0,1-1.1,1.1m-18.83-2.2,17.73,0,0-3.429L26.753,75Z" transform="translate(-8.658 43.245)" fill="#393c41"/>
        <rect id="Rectángulo_349117" data-name="Rectángulo 349117" width="2.475" height="57.377" transform="translate(20.829 57.578)" fill="#393c41"/>
        <rect id="Rectángulo_349118" data-name="Rectángulo 349118" width="2.476" height="57.377" transform="translate(25.728 57.579)" fill="#393c41"/>
        <rect id="Rectángulo_349119" data-name="Rectángulo 349119" width="2.475" height="57.377" transform="translate(30.629 57.579)" fill="#393c41"/>
        <rect id="Rectángulo_349120" data-name="Rectángulo 349120" width="16.638" height="63.633" transform="translate(50.841 54.352)" fill="#fff4de"/>
        <path id="Trazado_637300" data-name="Trazado 637300" d="M57.686,110.067h0l-16.636,0a1.1,1.1,0,0,1-1.1-1.1l.007-63.633a1.1,1.1,0,0,1,1.1-1.1H57.692a1.1,1.1,0,0,1,1.1,1.1l-.007,63.635a1.089,1.089,0,0,1-.321.776,1.1,1.1,0,0,1-.778.323m-15.537-2.2,14.438,0,.007-61.437H42.156Z" transform="translate(9.789 9.018)" fill="#393c41"/>
        <rect id="Rectángulo_349121" data-name="Rectángulo 349121" width="19.93" height="5.625" transform="translate(49.199 50.258)" fill="#fff4de"/>
        <path id="Trazado_637301" data-name="Trazado 637301" d="M60.233,50.2h0L40.3,50.2a1.1,1.1,0,0,1-1.1-1.1V43.471a1.1,1.1,0,0,1,1.1-1.1l19.929,0a1.1,1.1,0,0,1,1.1,1.1V49.1a1.1,1.1,0,0,1-1.1,1.1M41.4,48l17.73,0V44.572l-17.73,0Z" transform="translate(8.895 6.787)" fill="#393c41"/>
        <rect id="Rectángulo_349122" data-name="Rectángulo 349122" width="19.93" height="5.625" transform="translate(49.192 117.149)" fill="#fff4de"/>
        <path id="Trazado_637302" data-name="Trazado 637302" d="M60.23,80.628h0l-19.929,0a1.1,1.1,0,0,1-1.1-1.1V73.9a1.1,1.1,0,0,1,1.1-1.1l19.929,0a1.1,1.1,0,0,1,1.1,1.1v5.625a1.089,1.089,0,0,1-.321.776,1.1,1.1,0,0,1-.778.323m-18.83-2.2,17.73,0V75L41.4,75Z" transform="translate(8.892 43.247)" fill="#393c41"/>
        <rect id="Rectángulo_349123" data-name="Rectángulo 349123" width="2.476" height="57.377" transform="translate(53.022 57.581)" fill="#393c41"/>
        <rect id="Rectángulo_349124" data-name="Rectángulo 349124" width="2.475" height="57.377" transform="translate(57.923 57.581)" fill="#393c41"/>
        <rect id="Rectángulo_349125" data-name="Rectángulo 349125" width="2.476" height="57.377" transform="translate(62.822 57.582)" fill="#393c41"/>
        <rect id="Rectángulo_349126" data-name="Rectángulo 349126" width="16.638" height="63.633" transform="translate(83.035 54.357)" fill="#fff4de"/>
        <path id="Trazado_637303" data-name="Trazado 637303" d="M72.333,110.07h0l-16.638,0a1.1,1.1,0,0,1-1.1-1.1L54.6,45.336a1.1,1.1,0,0,1,1.1-1.1H72.34a1.1,1.1,0,0,1,1.1,1.1l-.007,63.635a1.089,1.089,0,0,1-.321.776,1.1,1.1,0,0,1-.778.323m-15.539-2.2,14.44,0,.007-61.437H56.8Z" transform="translate(27.337 9.022)" fill="#393c41"/>
        <rect id="Rectángulo_349127" data-name="Rectángulo 349127" width="19.93" height="5.625" transform="translate(81.393 50.264)" fill="#fff4de"/>
        <path id="Trazado_637304" data-name="Trazado 637304" d="M74.88,50.2h0l-19.931,0a1.1,1.1,0,0,1-1.1-1.1l0-5.625a1.1,1.1,0,0,1,1.1-1.1l19.929,0a1.1,1.1,0,0,1,1.1,1.1V49.1a1.1,1.1,0,0,1-1.1,1.1M56.048,48l17.733,0V44.574l-17.73,0Z" transform="translate(26.443 6.789)" fill="#393c41"/>
        <rect id="Rectángulo_349128" data-name="Rectángulo 349128" width="19.93" height="5.625" transform="translate(81.386 117.154)" fill="#fff4de"/>
        <path id="Trazado_637305" data-name="Trazado 637305" d="M74.877,80.63h0l-19.931,0a1.1,1.1,0,0,1-1.1-1.1V73.9a1.1,1.1,0,0,1,1.1-1.1l19.931,0a1.1,1.1,0,0,1,1.1,1.1V79.53a1.1,1.1,0,0,1-1.1,1.1m-18.832-2.2,17.733,0V75L56.045,75Z" transform="translate(26.439 43.25)" fill="#393c41"/>
        <rect id="Rectángulo_349129" data-name="Rectángulo 349129" width="2.475" height="57.377" transform="translate(85.218 57.586)" fill="#393c41"/>
        <rect id="Rectángulo_349130" data-name="Rectángulo 349130" width="2.476" height="57.377" transform="translate(90.117 57.587)" fill="#393c41"/>
        <rect id="Rectángulo_349131" data-name="Rectángulo 349131" width="2.475" height="57.377" transform="translate(95.017 57.587)" fill="#393c41"/>
        <rect id="Rectángulo_349132" data-name="Rectángulo 349132" width="16.638" height="63.633" transform="translate(115.23 54.36)" fill="#fff4de"/>
        <path id="Trazado_637306" data-name="Trazado 637306" d="M86.978,110.071h0l-16.636,0a1.1,1.1,0,0,1-1.1-1.1l.007-63.633a1.1,1.1,0,0,1,1.1-1.1l16.636,0a1.1,1.1,0,0,1,1.1,1.1l-.007,63.633a1.1,1.1,0,0,1-1.1,1.1m-15.537-2.2,14.438,0,.007-61.435-14.438,0Z" transform="translate(44.886 9.023)" fill="#393c41"/>
        <rect id="Rectángulo_349133" data-name="Rectángulo 349133" width="19.93" height="5.625" transform="translate(113.588 50.266)" fill="#fff4de"/>
        <path id="Trazado_637307" data-name="Trazado 637307" d="M89.525,50.2h0L69.6,50.2a1.1,1.1,0,0,1-1.1-1.1V43.474a1.1,1.1,0,0,1,1.1-1.1l19.929,0a1.1,1.1,0,0,1,1.1,1.1V49.1a1.089,1.089,0,0,1-.321.776,1.1,1.1,0,0,1-.778.323M70.7,48l17.73,0V44.575l-17.73,0Z" transform="translate(43.992 6.791)" fill="#393c41"/>
        <rect id="Rectángulo_349134" data-name="Rectángulo 349134" width="19.93" height="5.625" transform="translate(113.58 117.157)" fill="#fff4de"/>
        <path id="Trazado_637308" data-name="Trazado 637308" d="M89.523,80.63h0l-19.931,0a1.1,1.1,0,0,1-1.1-1.1l0-5.625a1.1,1.1,0,0,1,1.1-1.1l19.929,0a1.1,1.1,0,0,1,1.1,1.1v5.625a1.089,1.089,0,0,1-.321.776,1.1,1.1,0,0,1-.778.323m-18.832-2.2,17.733,0V75.005l-17.73,0Z" transform="translate(43.988 43.251)" fill="#393c41"/>
        <rect id="Rectángulo_349135" data-name="Rectángulo 349135" width="2.476" height="57.377" transform="translate(117.411 57.588)" fill="#393c41"/>
        <rect id="Rectángulo_349136" data-name="Rectángulo 349136" width="2.475" height="57.377" transform="translate(122.312 57.589)" fill="#393c41"/>
        <rect id="Rectángulo_349137" data-name="Rectángulo 349137" width="2.476" height="57.377" transform="translate(127.211 57.59)" fill="#393c41"/>
        <path id="Trazado_637309" data-name="Trazado 637309" d="M21.643,68.429l65.769-47.92,65.758,47.933Z" transform="translate(-12.147 -19.409)" fill="#fff4de"/>
        <path id="Trazado_637310" data-name="Trazado 637310" d="M153.812,70.141a.265.265,0,0,0-.042,0L22.242,70.128a1.1,1.1,0,0,1-.648-1.987L87.363,20.218a1.1,1.1,0,0,1,1.3,0l65.594,47.815a1.1,1.1,0,0,1-.442,2.106M25.616,67.93l124.779.013L88.012,22.467Z" transform="translate(-12.746 -20.009)" fill="#393c41"/>
        <path id="Trazado_637311" data-name="Trazado 637311" d="M30.983,57.435,76.22,24.474l45.23,32.97Z" transform="translate(-0.956 -14.659)" fill="#fff4de"/>
        <path id="Trazado_637312" data-name="Trazado 637312" d="M122.092,59.142a.3.3,0,0,0-.044,0l-90.466-.009a1.1,1.1,0,0,1-.648-1.987L76.17,24.185a1.1,1.1,0,0,1,1.3,0l45.065,32.85a1.1,1.1,0,0,1-.44,2.106M34.957,56.936l83.718.009L76.819,26.434Z" transform="translate(-1.555 -15.257)" fill="#393c41"/>
      </g>
    </g>
  </g>
</svg>
