<svg id="Grupo_1016644" data-name="Grupo 1016644" xmlns="http://www.w3.org/2000/svg" xmlns:xlink="http://www.w3.org/1999/xlink" width="161.333" height="162.143" viewBox="0 0 161.333 162.143">
  <defs>
    <clipPath id="clip-path">
      <rect id="Rectángulo_348972" data-name="Rectángulo 348972" width="161.333" height="162.143" fill="none"/>
    </clipPath>
  </defs>
  <g id="Grupo_1016643" data-name="Grupo 1016643" clip-path="url(#clip-path)">
    <path id="Trazado_637110" data-name="Trazado 637110" d="M153.959,54.912H11.225a6.479,6.479,0,0,0-6.462,6.5v88.112a6.479,6.479,0,0,0,6.462,6.5H153.959a6.479,6.479,0,0,0,6.462-6.5V61.407a6.479,6.479,0,0,0-6.462-6.5" transform="translate(-1.752 -20.02)" fill="#304c8e"/>
    <path id="Trazado_637111" data-name="Trazado 637111" d="M143.8,33.114c0-.372,0-.629,0-.887q-.025-6.885-.051-13.772c-.015-3.668-.007-7.336-.065-11a7.113,7.113,0,0,0-1.7-4.34A8.52,8.52,0,0,0,134.823,0q-15.674.022-31.348.011a24.429,24.429,0,0,0-2.513.14,7.853,7.853,0,0,0-6.9,6.213,18.187,18.187,0,0,0-.229,3.46q-.062,11.241-.07,22.482c0,.6-.152.81-.8.806-4.463-.023-8.926,0-13.39,0-.2,0-.4-.041-.733-.078,0-1.852,0-3.666,0-5.481-.013-5.092.013-10.186-.066-15.277a7.359,7.359,0,0,0-2.848-5.6,9.005,9.005,0,0,0-6.169-1.914Q52.079,4.8,34.4,4.78c-3.046,0-6.092-.017-9.137.017a8.141,8.141,0,0,0-6.647,3.186c-1.475,1.877-1.686,4.066-1.68,6.355.016,5.989-.038,11.979-.043,17.969,0,.6-.148.815-.8.808-2.835-.034-5.671-.024-8.505.01a8.817,8.817,0,0,0-2.177.266,7.4,7.4,0,0,0-5.4,7.481q-.031,4.473.008,8.946a5.4,5.4,0,0,0,.258,1.548A2.166,2.166,0,0,0,2.5,52.909a2.192,2.192,0,0,0,2.086-1.724,7.466,7.466,0,0,0,.133-1.568c.009-2.929-.018-5.859,0-8.787.015-2.1.891-2.978,2.986-2.994,2.809-.022,5.618-.011,8.428-.008a6.924,6.924,0,0,1,.736.076c0,1.389-.025,2.681.011,3.97.018.609-.211.739-.781.738-1.546,0-3.1.022-4.636.14a2.015,2.015,0,0,0-1.831,1.711,6.439,6.439,0,0,0-.166,1.485q-.011,40.137-.006,80.275c0,.238-.008.476.008.712a2.546,2.546,0,0,0,2.662,2.715c.261.021.525.017.787.017q58.482,0,116.966-.007a9.012,9.012,0,0,0,1.8-.153,2.164,2.164,0,0,0,1.67-2.7,2.37,2.37,0,0,0-2.646-1.867c-3.7-.007-7.4.006-11.106.007q-52.338,0-104.678.023c-.681,0-.762-.261-.761-.834.01-5.2-.008-10.4-.008-15.6q0-29.569.013-59.138c0-2.2.027-2.19,2.206-2.088.447.021.581.163.679.628.7,3.34,2.582,5.677,5.939,6.575a11.479,11.479,0,0,0,2.888.25q8.625.036,17.249,0c.711,0,.921.205.864.893-.048.574.037,1.159.038,1.739q.013,20.979.023,41.958c0,1.74-.015,3.483.066,5.221a2.081,2.081,0,0,0,1.985,2.1c2.674.081,5.355.132,8.025.007a2.272,2.272,0,0,0,1.569-3.555,2.776,2.776,0,0,0-2.464-1.147c-1.259-.036-2.52-.01-3.78-.017-.248,0-.5-.026-.778-.042V54.76H49.6q10.4.012,20.793.026a7.923,7.923,0,0,0,7.379-4.13,22.906,22.906,0,0,0,1.269-3.3c-.051.01.049-.027.149-.027,5.3,0,10.607-.011,15.911.007a1.262,1.262,0,0,1,.828.339,8.676,8.676,0,0,0,6.666,2.674c2.153-.015,4.306-.005,6.458-.036a1,1,0,0,1,1.077.667,8.662,8.662,0,0,0,5.767,4.871c.7.188.915.433.911,1.146-.033,5.066-.044,10.133-.008,15.2.006.789-.214.977-.964.961-2.256-.048-4.515-.037-6.772-.015a2.205,2.205,0,0,0-2.2,1.489,2.369,2.369,0,0,0,2.4,3.259q4.763.087,9.53,0c1.8-.032,2.659-1.01,2.674-2.816,0-.158,0-.317,0-.475-.006-5.885,0-11.769-.032-17.654a.9.9,0,0,1,.812-1.059,8.847,8.847,0,0,0,5.918-5.036.78.78,0,0,1,.833-.531c2.126.023,4.253.057,6.379.025a8.58,8.58,0,0,0,6.343-2.683,1.3,1.3,0,0,1,.833-.309c1.18-.039,2.363-.024,3.544-.031,1.079-.006,1.079-.007,1.079,1.042q0,7.718,0,15.438,0,29.766-.011,59.533c0,1.629-.021,1.608-1.645,1.625-1.6.017-3.2.011-4.792.147a2.058,2.058,0,0,0-1.784,2.091c-.056,1.483.966,2.432,2.738,2.46,2.074.032,4.148.017,6.222,0a15.518,15.518,0,0,0,1.882-.115,2.1,2.1,0,0,0,1.933-1.793,7.216,7.216,0,0,0,.147-1.407q.01-40.1.006-80.2c0-.237.006-.475-.006-.712-.09-1.855-.963-2.748-2.808-2.809-1.154-.039-2.31-.011-3.466-.013h-1.819c0-1.517-.015-2.934.022-4.35a.652.652,0,0,1,.473-.423c3.334-.017,6.669-.035,10,.02a2.4,2.4,0,0,1,2.331,2.42c.027.527.03,1.055.03,1.583q0,42.948,0,85.9c0,1.266.023,2.533,0,3.8-.037,1.927-.97,2.859-2.87,2.887-1.181.017-2.362,0-3.544,0l-141.619.006c-3.185,0-3.885-.685-3.885-3.9q0-34.557.009-69.113a5.863,5.863,0,0,0-.091-1.178,2.189,2.189,0,0,0-2.154-1.831A2.282,2.282,0,0,0,.2,60.153a6.907,6.907,0,0,0-.183,1.641Q0,90.018.009,118.241c0,4.354-.014,8.708,0,13.062.016,3.7,1.846,6.433,5.111,7.424a12.229,12.229,0,0,0,3.493.421q27.213.033,54.426.012c.357,0,.714.038,1.1.06,0,2.8.01,5.511-.027,8.223,0,.154-.392.428-.607.433-1.627.043-3.255.037-4.883.037-6.2,0-12.392-.023-18.588.005A7.145,7.145,0,0,0,35.909,160.8a8.244,8.244,0,0,0,5.082,1.346q39.382,0,78.765-.006a20.143,20.143,0,0,0,2.588-.166,6.865,6.865,0,0,0,5.8-8.415,7.11,7.11,0,0,0-7.051-5.64q-11.54-.02-23.078-.007c-.276,0-.551-.025-.847-.039v-8.707H98l37.334,0c6.065,0,12.13.025,18.194-.032a8.557,8.557,0,0,0,3.287-.593c3.193-1.4,4.516-4.016,4.514-7.465q-.026-44.967-.01-89.934c0-.185,0-.37,0-.554a7.381,7.381,0,0,0-7.7-7.473q-4.214,0-8.428,0H143.8M103.349,71.142c-.039-.265-.084-.711-.173-1.148a6.512,6.512,0,0,0-7.7-5.162,18.931,18.931,0,0,0-3.749,1.915c-.266.138-.615.385-.829.309a11.119,11.119,0,0,1-3.143-1.374c-.493-.384-.464-1.445-.669-2.2-.041-.153-.074-.308-.113-.46-.888-3.459-4.422-5.754-7.7-4.866a6.5,6.5,0,0,0-5.036,5.566A3.2,3.2,0,0,1,71.868,66.6a2.563,2.563,0,0,1-2.959-.344,6.229,6.229,0,0,0-4.728-1.6c-4.542.436-8.295,5.8-4.831,10.472a3.321,3.321,0,0,1,.42,3.9c-.48.986-.912,1.69-2.08,1.739a5.826,5.826,0,0,0-1.376.318A6.527,6.527,0,0,0,52.93,91.528a6.672,6.672,0,0,0,4.607,2.464,2.592,2.592,0,0,1,2.254,1.857,3.085,3.085,0,0,1-.362,3.69,6.026,6.026,0,0,0-.849,6.536c1.261,2.878,4.473,4.705,7.376,3.9a20.5,20.5,0,0,0,3.676-1.894c.269-.14.623-.372.848-.3a11.368,11.368,0,0,1,3.1,1.3c.459.334.432,1.345.62,2.051.068.254.112.515.187.768a6.471,6.471,0,0,0,12.7-.763,3.286,3.286,0,0,1,2.488-2.957c1.035-.341,1.865-.524,2.715.3a6.9,6.9,0,0,0,8.875-.149,6.35,6.35,0,0,0,1.413-7.642,12.007,12.007,0,0,0-1.043-1.671,2.051,2.051,0,0,1-.256-2.439c1.212-2.633.384-2.077,3.186-2.708,3.961-.892,6.29-4.592,5.157-8.257a6.4,6.4,0,0,0-5.33-4.677,3.261,3.261,0,0,1-2.89-2.268,2.854,2.854,0,0,1,.427-3.271,6.7,6.7,0,0,0,1.524-4.255" transform="translate(0 0)" fill="#fff"/>
    <path id="Trazado_637115" data-name="Trazado 637115" d="M175.881,7.407c5.119,0,10.238-.009,15.357.009a12.648,12.648,0,0,1,2.5.215,2.956,2.956,0,0,1,2.435,2.4,11.4,11.4,0,0,1,.259,2.35q.029,15.871.009,31.74a7.057,7.057,0,0,1-.233,1.793,3.076,3.076,0,0,1-2.975,2.382c-2.178.041-4.358.025-6.536-.012-.205,0-.482-.29-.592-.513a13.931,13.931,0,0,0-.614-1.519,1.1,1.1,0,0,1,.007-1.5,16.021,16.021,0,0,1,1.837-1.936,18.455,18.455,0,0,0,7.007-13.15,17.675,17.675,0,0,0-2.657-10.953,2.178,2.178,0,0,0-3-.855,2.263,2.263,0,0,0-.968,2.926,29.763,29.763,0,0,1,1.7,4.649,13.36,13.36,0,0,1-4.489,13.386c-1.572,1.376-3.246,2.668-3.937,4.726a1.437,1.437,0,0,1-1.677,1.158c-2.2-.058-4.41-.016-6.615,0a.71.71,0,0,1-.824-.6,9.828,9.828,0,0,0-3.583-4.793,13.747,13.747,0,0,1-4.233-5.418c-3.413-7.927,1.087-17.393,9.755-19.073a13.569,13.569,0,0,1,6.761.431,9.53,9.53,0,0,0,1.214.318,2.193,2.193,0,0,0,2.526-1.4,2.028,2.028,0,0,0-.978-2.69,19.013,19.013,0,0,0-3.935-1.3c-8.272-1.723-18.428,3.651-20.68,14.193-1.467,6.87.616,12.734,5.624,17.582.886.858,1.8,1.683,2.648,2.582a1.227,1.227,0,0,1,.113,1.824,2.575,2.575,0,0,0-.505,1.306c-.068.575-.334.659-.828.655-2.2-.018-4.41,0-6.615-.005a3.236,3.236,0,0,1-3.478-3.127,25.756,25.756,0,0,1-.075-2.606q-.017-15-.018-30a15.593,15.593,0,0,1,.092-1.657,3.472,3.472,0,0,1,3.74-3.452c2.362-.044,4.725-.025,7.087-.028q4.686-.006,9.372,0v-.03" transform="translate(-57.228 -2.7)" fill="#ffe126"/>
    <path id="Trazado_637116" data-name="Trazado 637116" d="M102.492,245.007q-19.648,0-39.3,0c-.5,0-1,0-1.5-.047a2.273,2.273,0,0,1-2.138-2.465,2.32,2.32,0,0,1,2.277-2.268c.157-.008.315,0,.472,0q40.084,0,80.168,0a2.752,2.752,0,0,1,2.894,1.6,2.221,2.221,0,0,1-1.854,3.139,11.068,11.068,0,0,1-1.259.036q-19.884,0-39.769,0Z" transform="translate(-21.907 -87.579)" fill="#304c8e"/>
    <path id="Trazado_637117" data-name="Trazado 637117" d="M108.834,227.754v-8.637h23.691c0,2.783.008,5.493-.02,8.2,0,.158-.274.419-.449.446a8.881,8.881,0,0,1-1.334.027q-10.621,0-21.241,0c-.18,0-.36-.024-.647-.044" transform="translate(-40.03 -79.886)" fill="#304c8e"/>
    <path id="Trazado_637118" data-name="Trazado 637118" d="M139.655,59.623c0,1.478.013,2.893-.02,4.308a.591.591,0,0,1-.425.392c-4.717.018-9.435.011-14.153,0-.046,0-.092-.041-.224-.1v-4.6Z" transform="translate(-45.915 -21.737)" fill="#fff"/>
    <path id="Trazado_637125" data-name="Trazado 637125" d="M123.917,127.519a6.412,6.412,0,0,1-.116,12.823,6.453,6.453,0,0,1-6.327-6.519,6.194,6.194,0,0,1,6.443-6.3" transform="translate(-43.208 -46.491)" fill="#fff"/>
    <path id="Trazado_637126" data-name="Trazado 637126" d="M135.422,54.912h-125a5.429,5.429,0,0,0-5.659,5.164v70.052a5.429,5.429,0,0,0,5.659,5.164h125a5.429,5.429,0,0,0,5.659-5.164V60.076a5.429,5.429,0,0,0-5.659-5.164" transform="translate(7.918 -9.659)" fill="#fff"/>
    <path id="Trazado_637112" data-name="Trazado 637112" d="M143.8,33.114h1.388q4.214,0,8.428,0a7.381,7.381,0,0,1,7.7,7.473c.006.184,0,.369,0,.554q0,44.967.01,89.934c0,3.448-1.321,6.064-4.513,7.465a8.563,8.563,0,0,1-3.287.593c-6.065.057-12.13.032-18.194.032q-18.667,0-37.334,0h-.833v8.707c.3.014.571.039.846.039q11.539,0,23.078.006a7.11,7.11,0,0,1,7.051,5.641,6.864,6.864,0,0,1-5.8,8.414,20.029,20.029,0,0,1-2.588.167q-39.382.013-78.765.006a8.24,8.24,0,0,1-5.082-1.346,7.146,7.146,0,0,1,4.126-12.877c6.2-.028,12.392,0,18.588,0,1.628,0,3.256.005,4.883-.038.215-.005.605-.279.607-.433.037-2.713.027-5.426.027-8.224-.382-.022-.74-.059-1.1-.059q-27.213,0-54.426-.013a12.21,12.21,0,0,1-3.493-.421C1.86,137.736.03,135.005.014,131.3c-.019-4.355,0-8.708,0-13.063q0-28.222.007-56.446A6.939,6.939,0,0,1,.2,60.153a2.282,2.282,0,0,1,2.272-1.721,2.188,2.188,0,0,1,2.154,1.831,5.86,5.86,0,0,1,.092,1.178q0,34.557-.009,69.113c0,3.218.7,3.9,3.885,3.9l141.619-.006c1.182,0,2.363.014,3.545,0,1.9-.028,2.833-.96,2.87-2.887.025-1.266,0-2.533,0-3.8q0-42.948,0-85.9c0-.528,0-1.056-.03-1.583a2.4,2.4,0,0,0-2.332-2.42c-3.334-.056-6.668-.037-10-.02a.651.651,0,0,0-.473.423c-.037,1.416-.021,2.833-.021,4.35h1.819c1.155,0,2.311-.026,3.465.013,1.845.061,2.717.953,2.808,2.809.012.237.006.475.006.712q0,40.1-.006,80.2a7.271,7.271,0,0,1-.148,1.407,2.1,2.1,0,0,1-1.933,1.793,15.376,15.376,0,0,1-1.881.114c-2.074.013-4.149.029-6.223,0-1.771-.028-2.793-.978-2.737-2.461a2.057,2.057,0,0,1,1.784-2.091c1.59-.136,3.193-.13,4.791-.147,1.623-.017,1.644,0,1.645-1.625q.011-29.766.011-59.533,0-7.719,0-15.438c0-1.049,0-1.048-1.079-1.042-1.181.007-2.363-.008-3.543.031a1.3,1.3,0,0,0-.833.309,8.579,8.579,0,0,1-6.343,2.683c-2.126.032-4.253,0-6.379-.025a.78.78,0,0,0-.833.531,8.849,8.849,0,0,1-5.918,5.036.9.9,0,0,0-.812,1.059c.034,5.885.027,11.769.032,17.654,0,.158,0,.316,0,.475-.016,1.807-.871,2.784-2.674,2.817q-4.764.085-9.53,0a2.369,2.369,0,0,1-2.4-3.259,2.205,2.205,0,0,1,2.2-1.489c2.258-.022,4.516-.034,6.772.015.75.016.97-.172.965-.961-.037-5.066-.025-10.133.008-15.2,0-.712-.211-.958-.911-1.146a8.663,8.663,0,0,1-5.767-4.871,1,1,0,0,0-1.077-.668c-2.153.031-4.306.022-6.458.036a8.675,8.675,0,0,1-6.666-2.675,1.267,1.267,0,0,0-.828-.339c-5.3-.018-10.607-.011-15.91-.006-.1,0-.2.036-.15.027a22.822,22.822,0,0,1-1.269,3.3,7.922,7.922,0,0,1-7.379,4.131Q60,54.766,49.6,54.76h-.922V101.93c.281.016.529.041.778.043,1.26.006,2.521-.019,3.78.017a2.776,2.776,0,0,1,2.464,1.147,2.272,2.272,0,0,1-1.569,3.554c-2.67.126-5.352.075-8.026-.006a2.081,2.081,0,0,1-1.985-2.1c-.08-1.738-.064-3.481-.066-5.221q-.015-20.978-.023-41.957c0-.58-.086-1.165-.037-1.739.058-.688-.152-.9-.864-.893q-8.625.042-17.249,0a11.45,11.45,0,0,1-2.888-.251c-3.357-.9-5.235-3.236-5.939-6.575-.1-.466-.232-.607-.679-.628-2.179-.1-2.205-.112-2.206,2.089q-.015,29.569-.013,59.138c0,5.2.019,10.4.009,15.6,0,.573.08.834.761.834q52.338-.03,104.678-.024c3.7,0,7.4-.013,11.106-.006a2.369,2.369,0,0,1,2.646,1.867,2.163,2.163,0,0,1-1.67,2.7,9.06,9.06,0,0,1-1.8.153q-58.483.01-116.966.007c-.262,0-.526,0-.787-.017a2.548,2.548,0,0,1-2.662-2.716c-.016-.236-.008-.475-.008-.712q0-40.138.006-80.276a6.469,6.469,0,0,1,.167-1.484,2.013,2.013,0,0,1,1.83-1.711c1.541-.118,3.091-.14,4.636-.14.571,0,.8-.13.781-.738-.037-1.29-.011-2.581-.011-3.97a7.107,7.107,0,0,0-.736-.077c-2.809,0-5.618-.013-8.428.009-2.1.017-2.971.89-2.986,2.994-.02,2.929.006,5.858,0,8.787a7.469,7.469,0,0,1-.133,1.569A2.191,2.191,0,0,1,2.5,52.908,2.164,2.164,0,0,1,.28,51.364a5.4,5.4,0,0,1-.259-1.547q-.035-4.473-.007-8.946a7.4,7.4,0,0,1,5.4-7.481,8.787,8.787,0,0,1,2.177-.266c2.835-.034,5.671-.044,8.506-.01.649.008.8-.206.8-.808.005-5.989.059-11.979.043-17.968-.006-2.289.2-4.478,1.68-6.355A8.14,8.14,0,0,1,25.26,4.8c3.045-.033,6.091-.016,9.137-.017q17.683,0,35.365-.013a9.008,9.008,0,0,1,6.169,1.915,7.354,7.354,0,0,1,2.848,5.6c.079,5.092.052,10.185.066,15.277,0,1.815,0,3.629,0,5.48.33.037.532.078.733.078,4.463,0,8.926-.028,13.39,0,.645,0,.8-.2.8-.806q.011-11.241.07-22.482a18.128,18.128,0,0,1,.229-3.46,7.852,7.852,0,0,1,6.9-6.214,24.428,24.428,0,0,1,2.513-.14Q119.149,0,134.823,0a8.518,8.518,0,0,1,7.165,3.112,7.1,7.1,0,0,1,1.7,4.339c.059,3.667.05,7.335.065,11q.028,6.885.051,13.772c0,.258,0,.515,0,.887M47.926,9.507q-11.459,0-22.917,0a3.243,3.243,0,0,0-3.425,3.013,13.3,13.3,0,0,0-.1,1.656q0,15.039.018,30.078c0,.843-.024,1.692.061,2.528a3.293,3.293,0,0,0,3.677,3.264q22.562,0,45.124,0a6.054,6.054,0,0,0,1.328-.1c1.718-.391,2.63-1.782,2.629-3.981q-.01-13.179-.03-26.358c0-2.267.069-4.541-.075-6.8s-1.41-3.3-3.688-3.3h-22.6m70.728-4.8v.031q-4.686,0-9.372,0c-2.362,0-4.726-.015-7.087.028a3.471,3.471,0,0,0-3.74,3.452,15.452,15.452,0,0,0-.092,1.658q0,15,.018,30a25.942,25.942,0,0,0,.075,2.606,3.236,3.236,0,0,0,3.478,3.127c2.205.01,4.41-.013,6.615.005.493,0,.759-.08.828-.655a2.577,2.577,0,0,1,.505-1.306,1.227,1.227,0,0,0-.113-1.824c-.843-.9-1.762-1.724-2.648-2.581-5.008-4.849-7.091-10.713-5.624-17.583,2.252-10.542,12.409-15.916,20.679-14.193a18.98,18.98,0,0,1,3.935,1.3,2.028,2.028,0,0,1,.977,2.69,2.193,2.193,0,0,1-2.526,1.4,9.582,9.582,0,0,1-1.214-.318,13.569,13.569,0,0,0-6.761-.431c-8.669,1.68-13.167,11.147-9.755,19.073a13.748,13.748,0,0,0,4.234,5.418,9.832,9.832,0,0,1,3.583,4.793.709.709,0,0,0,.824.6c2.205-.016,4.411-.058,6.615,0a1.436,1.436,0,0,0,1.677-1.158c.692-2.058,2.365-3.351,3.937-4.726a13.359,13.359,0,0,0,4.49-13.386,29.756,29.756,0,0,0-1.7-4.649,2.264,2.264,0,0,1,.967-2.927,2.179,2.179,0,0,1,3,.855,17.671,17.671,0,0,1,2.656,10.953,18.453,18.453,0,0,1-7.007,13.149,16.025,16.025,0,0,0-1.838,1.936,1.1,1.1,0,0,0-.007,1.5,13.625,13.625,0,0,1,.614,1.518c.111.222.387.509.592.513,2.179.037,4.358.053,6.536.012a3.077,3.077,0,0,0,2.976-2.382,7.054,7.054,0,0,0,.233-1.793q.016-15.871-.009-31.74a11.4,11.4,0,0,0-.259-2.351,2.957,2.957,0,0,0-2.435-2.4,12.606,12.606,0,0,0-2.5-.214c-5.119-.018-10.238-.01-15.356-.01M80.585,157.428v-.01q19.884,0,39.768,0a11.071,11.071,0,0,0,1.259-.036,2.221,2.221,0,0,0,1.854-3.139,2.752,2.752,0,0,0-2.894-1.6q-40.084.006-80.168,0c-.157,0-.315-.005-.472,0a2.32,2.32,0,0,0-2.277,2.268,2.272,2.272,0,0,0,2.138,2.465c.5.048,1,.047,1.494.047q19.648,0,39.3,0M68.8,147.868c.287.02.467.044.647.044q10.62,0,21.241,0a8.885,8.885,0,0,0,1.334-.027c.174-.027.448-.288.449-.446.028-2.709.02-5.42.02-8.2H68.8ZM93.74,37.886H78.919v4.6c.132.064.178.105.223.105q7.077.01,14.153,0a.594.594,0,0,0,.426-.393c.032-1.414.019-2.83.019-4.308m20.234,8.861a4.111,4.111,0,0,0,3.4,4.655,13.168,13.168,0,0,0,3.449,0,3.98,3.98,0,0,0,3.373-4.657Z" transform="translate(0 0)" fill="#161615"/>
    <path id="Trazado_637124" data-name="Trazado 637124" d="M121.1,142.285a11.094,11.094,0,1,1,11.119-11.049A11.086,11.086,0,0,1,121.1,142.285m.119-17.472a6.194,6.194,0,0,0-6.443,6.3,6.453,6.453,0,0,0,6.327,6.519,6.412,6.412,0,0,0,.116-12.823" transform="translate(-40.513 -43.785)" fill="#161615"/>
    <path id="Trazado_637113" data-name="Trazado 637113" d="M133.282,104.4a6.7,6.7,0,0,1-1.524,4.255,2.854,2.854,0,0,0-.427,3.271,3.262,3.262,0,0,0,2.891,2.268,6.393,6.393,0,0,1,5.329,4.677c1.132,3.664-1.2,7.365-5.157,8.257-2.8.631-1.974.075-3.186,2.708a2.053,2.053,0,0,0,.256,2.439,12.009,12.009,0,0,1,1.044,1.671,6.549,6.549,0,0,1-9.174,8.529,6.273,6.273,0,0,1-1.114-.738c-.85-.826-1.68-.642-2.716-.3a3.286,3.286,0,0,0-2.487,2.957,6.471,6.471,0,0,1-12.7.763c-.075-.252-.119-.513-.187-.768-.188-.706-.161-1.717-.62-2.052a11.4,11.4,0,0,0-3.1-1.3c-.226-.076-.579.156-.848.3a20.521,20.521,0,0,1-3.676,1.894c-2.9.81-6.115-1.017-7.376-3.9a6.025,6.025,0,0,1,.849-6.536,3.086,3.086,0,0,0,.361-3.69,2.591,2.591,0,0,0-2.254-1.857,6.675,6.675,0,0,1-4.607-2.464,6.527,6.527,0,0,1,3.385-10.439,5.822,5.822,0,0,1,1.377-.318c1.166-.049,1.6-.752,2.079-1.739a3.323,3.323,0,0,0-.42-3.9c-3.464-4.677.29-10.036,4.831-10.472a6.23,6.23,0,0,1,4.729,1.6,2.562,2.562,0,0,0,2.958.344,3.2,3.2,0,0,0,2.367-2.882,6.5,6.5,0,0,1,5.037-5.566c3.275-.888,6.809,1.407,7.7,4.866.039.152.072.308.113.46.2.757.176,1.818.669,2.2a11.137,11.137,0,0,0,3.143,1.374c.214.076.563-.171.829-.309a18.93,18.93,0,0,1,3.749-1.915,6.512,6.512,0,0,1,7.7,5.162c.09.437.135.883.174,1.148m-4.729.37a1.936,1.936,0,0,0-2.9-1.838c-1.021.589-1.987,1.278-2.955,1.955a2.322,2.322,0,0,1-2.438.3c-1.848-.811-3.713-1.582-5.565-2.387a2.608,2.608,0,0,1-1.577-2.03c-.2-1.061-.394-2.124-.637-3.175a1.772,1.772,0,0,0-1.889-1.637,1.811,1.811,0,0,0-1.881,1.665c-.237,1.026-.444,2.06-.614,3.1a2.707,2.707,0,0,1-1.746,2.162c-1.759.755-3.53,1.481-5.272,2.27a2.541,2.541,0,0,1-2.789-.369c-.82-.612-1.665-1.2-2.532-1.739a1.914,1.914,0,0,0-2.692,2.691c.586.968,1.215,1.909,1.852,2.845a2.236,2.236,0,0,1,.259,2.244c-.775,1.9-1.536,3.806-2.324,5.7a2.6,2.6,0,0,1-2.008,1.6c-1.054.21-2.115.388-3.158.642-1.2.292-1.675.884-1.673,1.956,0,.958.476,1.54,1.623,1.826,1.067.267,2.154.449,3.234.667a2.6,2.6,0,0,1,1.993,1.615c.741,1.742,1.468,3.492,2.237,5.221a2.8,2.8,0,0,1-.344,2.966q-.888,1.257-1.7,2.57a1.882,1.882,0,0,0,.132,2.53,1.857,1.857,0,0,0,2.507.18c.937-.581,1.845-1.209,2.751-1.838a2.574,2.574,0,0,1,2.677-.273q2.663,1.173,5.335,2.324a2.638,2.638,0,0,1,1.624,2.076c.2,1.035.4,2.07.623,3.1a1.822,1.822,0,0,0,1.857,1.69,1.777,1.777,0,0,0,1.905-1.624c.256-1.075.437-2.167.659-3.25a2.54,2.54,0,0,1,1.542-1.958c1.83-.786,3.664-1.564,5.479-2.383a2.4,2.4,0,0,1,2.577.313c.9.638,1.814,1.259,2.756,1.831a1.822,1.822,0,0,0,2.512-.158,1.874,1.874,0,0,0,.153-2.53c-.555-.925-1.173-1.81-1.769-2.71a2.843,2.843,0,0,1-.272-2.853q1.1-2.574,2.2-5.152a2.724,2.724,0,0,1,2.179-1.724c1.084-.186,2.17-.386,3.232-.665a1.909,1.909,0,0,0-.122-3.734c-1.072-.245-2.156-.44-3.236-.651a2.53,2.53,0,0,1-1.962-1.54q-1.21-2.872-2.365-5.766a2.324,2.324,0,0,1,.262-2.258c.612-.92,1.231-1.836,1.811-2.777a6.544,6.544,0,0,0,.446-1.019" transform="translate(-29.934 -33.256)" fill="#161615"/>
    <g id="Grupo_1016645" data-name="Grupo 1016645" transform="translate(21.482 9.505)">
      <path id="Trazado_637114" data-name="Trazado 637114" d="M60.424,14.96h22.6c2.278,0,3.543,1.03,3.688,3.3s.071,4.533.075,6.8q.022,13.179.03,26.357c0,2.2-.91,3.59-2.629,3.982a6.049,6.049,0,0,1-1.328.1q-22.562,0-45.124,0a3.293,3.293,0,0,1-3.676-3.264A25.151,25.151,0,0,1,34,49.709q-.016-15.038-.019-30.078a13.18,13.18,0,0,1,.1-1.656,3.242,3.242,0,0,1,3.425-3.013q11.459-.009,22.917,0M60.4,36.873v0q8.5,0,17.007,0a20.208,20.208,0,0,0,2.123-.066,2.326,2.326,0,0,0,.195-4.608,7.02,7.02,0,0,0-1.4-.135q-17.912-.01-35.824,0a7.15,7.15,0,0,0-1.479.16,2.271,2.271,0,0,0-1.859,2.314A2.3,2.3,0,0,0,41.195,36.8a11.03,11.03,0,0,0,1.493.067q8.858.007,17.715,0m-.085,9.5v0q8.542,0,17.086,0a20.373,20.373,0,0,0,2.123-.065,2.326,2.326,0,0,0,.207-4.607,6.979,6.979,0,0,0-1.4-.136q-17.912-.011-35.824,0a7.2,7.2,0,0,0-1.48.159,2.272,2.272,0,0,0-1.866,2.309,2.309,2.309,0,0,0,2.106,2.277,11.924,11.924,0,0,0,1.414.059q8.818.006,17.637,0m-9.7-19.012v.016q3.819,0,7.638,0c.551,0,1.1,0,1.652-.046a2.436,2.436,0,0,0,2.361-2.319,2.393,2.393,0,0,0-2.041-2.347,4.969,4.969,0,0,0-1.013-.1q-8.425-.009-16.851,0a6.153,6.153,0,0,0-1.477.184,2.253,2.253,0,0,0-1.609,2.89,2.3,2.3,0,0,0,2.522,1.71c2.94.031,5.879.01,8.819.01" transform="translate(-33.981 -14.96)" fill="#fdfde3"/>
      <path id="Trazado_637121" data-name="Trazado 637121" d="M63.416,46.685q-8.858,0-17.715,0a11.125,11.125,0,0,1-1.493-.067,2.3,2.3,0,0,1-2.034-2.262,2.27,2.27,0,0,1,1.859-2.314,7.162,7.162,0,0,1,1.48-.161q17.912-.012,35.824,0a7.024,7.024,0,0,1,1.4.135,2.326,2.326,0,0,1-.2,4.608,20.193,20.193,0,0,1-2.123.066q-8.5.007-17.006,0Z" transform="translate(-36.994 -24.771)" fill="#161615"/>
      <path id="Trazado_637122" data-name="Trazado 637122" d="M63.33,61.635q-8.818,0-17.637,0a11.925,11.925,0,0,1-1.414-.059A2.309,2.309,0,0,1,42.173,59.3a2.272,2.272,0,0,1,1.866-2.309,7.237,7.237,0,0,1,1.479-.159q17.912-.012,35.824,0a6.975,6.975,0,0,1,1.4.137,2.326,2.326,0,0,1-.207,4.607,20.374,20.374,0,0,1-2.123.065q-8.543.007-17.086,0Z" transform="translate(-36.993 -30.221)" fill="#161615"/>
      <path id="Trazado_637123" data-name="Trazado 637123" d="M53.638,31.721c-2.94,0-5.879.022-8.819-.01A2.3,2.3,0,0,1,42.3,30a2.253,2.253,0,0,1,1.609-2.89,6.154,6.154,0,0,1,1.477-.184q8.425-.019,16.851,0a4.97,4.97,0,0,1,1.013.1,2.393,2.393,0,0,1,2.041,2.347,2.436,2.436,0,0,1-2.361,2.319c-.548.045-1.1.045-1.652.046q-3.819.007-7.638,0v-.016" transform="translate(-37.002 -19.319)" fill="#161615"/>
    </g>
    <path id="Trazado_637120" data-name="Trazado 637120" d="M131.247,107.488a6.559,6.559,0,0,1-.446,1.019c-.578.941-1.2,1.857-1.81,2.777a2.324,2.324,0,0,0-.262,2.258q1.162,2.892,2.366,5.766a2.529,2.529,0,0,0,1.962,1.54c1.079.212,2.163.406,3.236.651a1.909,1.909,0,0,1,.122,3.734c-1.063.279-2.149.48-3.233.665A2.723,2.723,0,0,0,131,127.623q-1.1,2.575-2.2,5.151a2.844,2.844,0,0,0,.272,2.854c.6.9,1.214,1.786,1.768,2.71a1.873,1.873,0,0,1-.152,2.53,1.822,1.822,0,0,1-2.512.158c-.942-.571-1.856-1.193-2.756-1.831a2.406,2.406,0,0,0-2.578-.314c-1.814.82-3.648,1.6-5.479,2.384a2.539,2.539,0,0,0-1.542,1.958c-.222,1.083-.4,2.176-.659,3.25a1.777,1.777,0,0,1-1.906,1.623,1.821,1.821,0,0,1-1.857-1.689c-.226-1.029-.425-2.063-.622-3.1a2.638,2.638,0,0,0-1.625-2.076q-2.673-1.148-5.334-2.324a2.574,2.574,0,0,0-2.677.273c-.906.629-1.815,1.256-2.751,1.837a1.856,1.856,0,0,1-2.507-.179,1.883,1.883,0,0,1-.133-2.53q.808-1.311,1.7-2.57a2.8,2.8,0,0,0,.343-2.966c-.769-1.73-1.5-3.479-2.237-5.221a2.6,2.6,0,0,0-1.993-1.615c-1.079-.218-2.166-.4-3.233-.667-1.147-.286-1.622-.869-1.623-1.826,0-1.072.469-1.664,1.673-1.956,1.044-.254,2.105-.431,3.159-.641a2.6,2.6,0,0,0,2.008-1.6c.788-1.894,1.549-3.8,2.324-5.7a2.239,2.239,0,0,0-.259-2.245c-.637-.935-1.266-1.876-1.852-2.844a1.914,1.914,0,0,1,2.692-2.691c.868.542,1.712,1.127,2.533,1.739a2.54,2.54,0,0,0,2.788.369c1.743-.789,3.514-1.515,5.272-2.27a2.707,2.707,0,0,0,1.746-2.163c.17-1.038.378-2.073.615-3.1a1.81,1.81,0,0,1,1.881-1.665c1.021-.009,1.622.484,1.888,1.637.243,1.051.436,2.114.637,3.175a2.608,2.608,0,0,0,1.577,2.03c1.851.805,3.717,1.575,5.565,2.387a2.322,2.322,0,0,0,2.437-.3c.969-.676,1.935-1.366,2.956-1.955a1.937,1.937,0,0,1,2.9,1.838m-18.031,26.988a11.094,11.094,0,1,0-10.957-11.211,11.077,11.077,0,0,0,10.957,11.211" transform="translate(-32.627 -35.976)" fill="#4ca220"/>
    <path id="Trazado_637119" data-name="Trazado 637119" d="M180.271,73.568H190.5a3.98,3.98,0,0,1-3.373,4.657,13.168,13.168,0,0,1-3.449,0,4.111,4.111,0,0,1-3.4-4.655" transform="translate(-66.297 -26.821)" fill="#ffe126"/>
  </g>
</svg>
