<svg xmlns="http://www.w3.org/2000/svg" xmlns:xlink="http://www.w3.org/1999/xlink" width="170.617" height="170.616" viewBox="0 0 170.617 170.616">
  <defs>
    <filter id="Trazado_150709" x="0" y="0" width="170.617" height="170.616" filterUnits="userSpaceOnUse">
      <feOffset dx="5" dy="5" input="SourceAlpha"/>
      <feGaussianBlur stdDeviation="12.5" result="blur"/>
      <feFlood flood-opacity="0.161"/>
      <feComposite operator="in" in2="blur"/>
      <feComposite in="SourceGraphic"/>
    </filter>
    <clipPath id="clip-path">
      <rect id="Rectángulo_348310" data-name="Rectángulo 348310" width="96" height="96" transform="translate(0.307 0.035)" fill="none"/>
    </clipPath>
  </defs>
  <g id="Grupo_1016740" data-name="Grupo 1016740" transform="translate(4114.81 7452.082)">
    <g id="Grupo_1016223" data-name="Grupo 1016223" transform="translate(-4095.498 -7432.593)">
      <path id="Trazado_150708" data-name="Trazado 150708" d="M121.286,55.711A60.746,60.746,0,1,1,55.711.213a60.746,60.746,0,0,1,65.575,55.5" transform="translate(0 121.498) rotate(-90)" fill="#304c8e"/>
      <g transform="matrix(1, 0, 0, 1, -19.31, -19.49)" filter="url(#Trazado_150709)">
        <path id="Trazado_150709-2" data-name="Trazado 150709" d="M95.449,43.844A47.805,47.805,0,1,1,43.843.167,47.806,47.806,0,0,1,95.449,43.844" transform="translate(32.5 128.12) rotate(-90)" fill="#fff"/>
      </g>
      <g id="Grupo_1016231" data-name="Grupo 1016231" transform="translate(11.881 12.249)">
        <g id="Grupo_1016230" data-name="Grupo 1016230" transform="translate(0.31 0.31)" clip-path="url(#clip-path)">
          <path id="Trazado_611078" data-name="Trazado 611078" d="M97.587,48.518A48.794,48.794,0,1,1,48.794,0,48.656,48.656,0,0,1,97.587,48.518" transform="translate(-0.318 -0.317)" fill="#dee9f0"/>
          <path id="Trazado_611079" data-name="Trazado 611079" d="M52.3,55.416h4.369v-.441q0-8.435,0-16.871a3.272,3.272,0,0,1,3.392-3.425c1.047-.013,2.095,0,3.184,0v-.324q0-3.562,0-7.125A3.359,3.359,0,0,1,64.351,24.6a3.238,3.238,0,0,1,2.236-.823c2.185-.016,4.371-.049,6.555,0a3.21,3.21,0,0,1,3.264,3.128c.082.873.443,1.2,1.326,1.2q4.225,0,8.451,0a3.278,3.278,0,0,1,3.3,2.591,4.829,4.829,0,0,1,.092.951q.011,4.122,0,8.244a3.261,3.261,0,0,1-2.466,3.386,3.659,3.659,0,0,1-.889.1q-9.817.009-19.634,0a3.209,3.209,0,0,1-3.309-3.031c-.071-1.071-.029-2.15-.037-3.226,0-.083,0-.166,0-.3-.286,0-.549,0-.813,0-.75-.005-1.5-.022-2.249-.016-.92.008-1.337.428-1.337,1.329q0,8.5.009,17c0,.072.009.144.016.243h4.34c.013-.028.039-.056.039-.084.007-1.715.034-3.429.013-5.144a3.271,3.271,0,0,1,1.525-2.98,3.209,3.209,0,0,1,1.8-.512c2.174,0,4.349-.021,6.523,0a3.252,3.252,0,0,1,3.3,3.193c.036.826.43,1.186,1.3,1.184,2.742,0,5.484,0,8.227-.02a3.655,3.655,0,0,1,2.38.7,3.256,3.256,0,0,1,1.261,2.68c.019,2.844.029,5.688,0,8.531a3.219,3.219,0,0,1-2.589,3.285,4.3,4.3,0,0,1-.924.084c-6.405.005-12.811-.011-19.217.015a3.353,3.353,0,0,1-3.37-2.161,4.654,4.654,0,0,1-.214-1.378c-.025-1.64-.01-3.28-.011-4.92,0-.084-.007-.167-.013-.322-.38,0-.751,0-1.121,0-1.007.008-2.013.024-3.02.022-.25,0-.236.134-.236.307,0,1.9,0,3.792,0,5.687q0,5.4,0,10.8c0,.255,0,.512.016.766a.983.983,0,0,0,.952.984c.521.041,1.047.015,1.571.017.608,0,1.214,0,1.859,0,0-.151,0-.264,0-.378.009-1.065-.027-2.132.037-3.194a3.2,3.2,0,0,1,3.115-2.96q3.438-.046,6.877,0A3.237,3.237,0,0,1,76.4,72.62a2.245,2.245,0,0,0,.1.625,1.042,1.042,0,0,0,1.053.689c1.306.009,2.613.01,3.92.011,1.521,0,3.042,0,4.563-.005A3.254,3.254,0,0,1,89.565,77.3c.038,2.843.018,5.687.006,8.531a3.3,3.3,0,0,1-3.46,3.372c-6.491.013-12.982,0-19.473.009a3.381,3.381,0,0,1-3.4-3.418c.025-2.4,0-4.793.009-7.189,0-.225-.025-.312-.289-.308-1.028.015-2.057.027-3.085-.009a3.245,3.245,0,0,1-3.2-3.316c-.006-2.865,0-5.73,0-8.6q0-4.233,0-8.467v-.363H52.3v.381c0,3.7-.035,7.391.018,11.085a3.722,3.722,0,0,1-1.756,3.305,11.864,11.864,0,0,1-3.815,1.617,33.491,33.491,0,0,1-9.215,1.085,31.351,31.351,0,0,1-9.078-1.339,10.14,10.14,0,0,1-3.037-1.413,3.554,3.554,0,0,1-1.627-2.352,3.1,3.1,0,0,1-.027-.445q0-12.557,0-25.115c0-.564-.025-1.131.009-1.693a3.35,3.35,0,0,1,1.017-2.149,8.805,8.805,0,0,1,3.431-2.057,26.894,26.894,0,0,1,7.1-1.479,31.665,31.665,0,0,1,9.418.591,17.805,17.805,0,0,1,4.577,1.524A7,7,0,0,1,51.4,40.669,3.449,3.449,0,0,1,52.29,43q0,6.039.009,12.078v.336m24.156,8.718v0q4.769,0,9.54,0c.993,0,1.4-.388,1.4-1.366q.012-4.136,0-8.273c0-.914-.42-1.31-1.35-1.309q-4.256,0-8.512.018a3.147,3.147,0,0,1-1.741-.467,3.067,3.067,0,0,1-1.527-2.483c-.071-1.041-.442-1.408-1.417-1.409q-2.988,0-5.975.01a2.876,2.876,0,0,0-.638.058c-.545.128-.812.556-.812,1.321q0,6.293.007,12.585a1.8,1.8,0,0,0,.1.623c.229.6.747.7,1.313.7q4.8,0,9.6,0M76.373,87.04v0c3.234,0,6.467.005,9.7,0,.912,0,1.315-.411,1.319-1.314.009-1.576,0-3.152,0-4.728,0-1.246.006-2.492-.005-3.738a1.033,1.033,0,0,0-.968-1.113,4.929,4.929,0,0,0-.768-.035q-4.032,0-8.064.009A3.265,3.265,0,0,1,74.232,72.9c-.044-.816-.423-1.145-1.231-1.146q-3.164,0-6.329.011a1.081,1.081,0,0,0-1.231,1.124,3.654,3.654,0,0,0-.014.383q0,4.009,0,8.018,0,2.22,0,4.44A1.108,1.108,0,0,0,65.86,86.8a1.843,1.843,0,0,0,.876.231c3.212.016,6.425.01,9.638.01M76.4,41.224h6.652c1.05,0,2.1,0,3.15,0A1.076,1.076,0,0,0,87.4,40.066c0-.106,0-.213,0-.32q0-3.611,0-7.221c0-.362.006-.724-.007-1.087a1.084,1.084,0,0,0-1.084-1.114c-.245-.017-.492-.011-.739-.012l-8.258-.017a2.737,2.737,0,0,1-1.371-.4,3.238,3.238,0,0,1-1.707-2.849,1.061,1.061,0,0,0-1.208-1.113c-.674-.007-1.35-.005-2.025,0l-4.274.01a1.132,1.132,0,0,0-1.205.714,2.246,2.246,0,0,0-.089.723c-.011.884-.006,1.768-.007,2.653q0,4.9,0,9.81c0,1,.392,1.384,1.4,1.384q4.788,0,9.576,0M25.958,46.216c-.007.074-.017.136-.017.2,0,1.7.034,3.409-.019,5.112a1.652,1.652,0,0,0,.894,1.623c.138.082.273.168.414.245a16.248,16.248,0,0,0,5.344,1.616,37.747,37.747,0,0,0,7.882.317,23.628,23.628,0,0,0,7.032-1.334A6.935,6.935,0,0,0,49.7,52.786a1.084,1.084,0,0,0,.4-.869c-.007-1.768-.006-3.536-.009-5.3,0-.13-.011-.261-.016-.365-.841.378-1.63.785-2.456,1.1a25.236,25.236,0,0,1-6.353,1.341,32.007,32.007,0,0,1-7.689-.13,24.165,24.165,0,0,1-5.645-1.426c-.66-.263-1.291-.6-1.967-.914M50.089,63.929A27.12,27.12,0,0,1,38,66.3,26.238,26.238,0,0,1,25.954,63.9c-.009.094-.019.146-.019.2,0,1.619.053,3.24-.015,4.856a1.749,1.749,0,0,0,1.057,1.755c.131.072.26.148.394.214a18.34,18.34,0,0,0,6.093,1.666,39.042,39.042,0,0,0,7.856.122,23.819,23.819,0,0,0,5.293-.951,10.055,10.055,0,0,0,2.836-1.319,1.411,1.411,0,0,0,.65-1.267c-.03-1.522-.011-3.045-.011-4.569v-.677m0-8.735c-.11.042-.161.056-.207.08A22.226,22.226,0,0,1,42,57.365a38.171,38.171,0,0,1-9.033-.112A20.17,20.17,0,0,1,26.2,55.279a1.774,1.774,0,0,0-.245-.082c0,1.9-.01,3.762.014,5.623a.864.864,0,0,0,.313.6,10.438,10.438,0,0,0,1.549,1.006,15.414,15.414,0,0,0,4.643,1.287,36.6,36.6,0,0,0,7.139.379,29.365,29.365,0,0,0,6.717-.956,10.426,10.426,0,0,0,3.083-1.386,1.428,1.428,0,0,0,.688-1.311c-.034-1.565-.011-3.13-.011-4.695v-.546M38.126,46.668a29.659,29.659,0,0,0,6.221-.6,12.8,12.8,0,0,0,4.69-1.819,4.082,4.082,0,0,0,.786-.7.951.951,0,0,0,0-1.362,4.124,4.124,0,0,0-.722-.675,11.531,11.531,0,0,0-3.8-1.64,26.072,26.072,0,0,0-5.677-.792,31.208,31.208,0,0,0-7.826.538A12.846,12.846,0,0,0,27.254,41.3a5.155,5.155,0,0,0-1.026.858.93.93,0,0,0,0,1.356,4.524,4.524,0,0,0,.718.679,9.173,9.173,0,0,0,2.845,1.368,28.542,28.542,0,0,0,8.334,1.1" transform="translate(-8.194 -8.283)"/>
          <path id="Trazado_611080" data-name="Trazado 611080" d="M97.128,76.792q-4.8,0-9.6,0c-.565,0-1.083-.1-1.313-.7a1.785,1.785,0,0,1-.1-.623q-.012-6.293-.008-12.585c0-.765.267-1.194.812-1.321a2.837,2.837,0,0,1,.638-.058q2.988-.01,5.975-.009c.975,0,1.346.368,1.417,1.408a3.067,3.067,0,0,0,1.527,2.483,3.147,3.147,0,0,0,1.741.467q4.256-.011,8.512-.017c.93,0,1.348.395,1.35,1.309q.01,4.136,0,8.273c0,.978-.407,1.365-1.4,1.366q-4.77,0-9.54,0Zm-6.64-7.631a1.118,1.118,0,0,0-1.04-1.095,1.093,1.093,0,0,0-1.11,1.085,1.075,1.075,0,0,0,2.15.009M89.41,72.445a1.092,1.092,0,0,0-1.071,1.089,1.07,1.07,0,0,0,2.14-.031,1.1,1.1,0,0,0-1.069-1.059" transform="translate(-28.868 -20.942)" fill="#ffe126"/>
          <path id="Trazado_611081" data-name="Trazado 611081" d="M97.047,111.258c-3.212,0-6.425.006-9.638-.01a1.845,1.845,0,0,1-.876-.231,1.109,1.109,0,0,1-.431-1.073q0-2.22,0-4.44,0-4.009,0-8.018c0-.128,0-.256.014-.383a1.082,1.082,0,0,1,1.231-1.124q3.164-.014,6.329-.011c.807,0,1.186.33,1.231,1.146a3.264,3.264,0,0,0,3.361,3.219q4.031-.01,8.063-.009a4.935,4.935,0,0,1,.769.035,1.034,1.034,0,0,1,.968,1.113c.011,1.246.005,2.492.005,3.738,0,1.576,0,3.152,0,4.728,0,.9-.407,1.311-1.32,1.314-3.234.008-6.467,0-9.7,0Zm-7.57-4.356a1.1,1.1,0,0,0-1.137,1.028,1.124,1.124,0,0,0,1.079,1.127A1.112,1.112,0,0,0,90.5,108a1.085,1.085,0,0,0-1.026-1.1m-.049-2.225a1.076,1.076,0,0,0,0-2.153,1.119,1.119,0,0,0-1.086,1.083,1.088,1.088,0,0,0,1.088,1.069" transform="translate(-28.868 -32.501)" fill="#ffe126"/>
          <path id="Trazado_611082" data-name="Trazado 611082" d="M97.076,42.324q-4.788,0-9.576,0c-1.01,0-1.4-.379-1.4-1.384q0-4.9,0-9.81c0-.884,0-1.769.007-2.653a2.229,2.229,0,0,1,.089-.723,1.13,1.13,0,0,1,1.205-.714l4.274-.011c.675,0,1.349,0,2.025,0a1.061,1.061,0,0,1,1.208,1.113A3.237,3.237,0,0,0,96.612,31a2.728,2.728,0,0,0,1.37.4l8.259.017c.246,0,.493-.005.739.012a1.084,1.084,0,0,1,1.084,1.115c.013.362.007.724.007,1.086q0,3.611,0,7.222c0,.106,0,.213,0,.319a1.075,1.075,0,0,1-1.193,1.158c-1.05,0-2.1,0-3.15,0H97.076M89.434,33.6a1.077,1.077,0,0,0-.062,2.153,1.119,1.119,0,0,0,1.122-1.085,1.084,1.084,0,0,0-1.06-1.067m-.013,4.367a1.091,1.091,0,0,0-1.081,1.077,1.1,1.1,0,0,0,1.06,1.072,1.135,1.135,0,0,0,1.1-1.105,1.091,1.091,0,0,0-1.083-1.044" transform="translate(-28.868 -9.382)" fill="#ffe126"/>
          <path id="Trazado_611083" data-name="Trazado 611083" d="M27.035,57.55c.676.316,1.307.651,1.967.914a24.165,24.165,0,0,0,5.645,1.425,31.94,31.94,0,0,0,7.689.13,25.207,25.207,0,0,0,6.353-1.341c.826-.31,1.616-.717,2.456-1.1,0,.1.015.235.016.365,0,1.768,0,3.536.009,5.3a1.084,1.084,0,0,1-.4.869,6.948,6.948,0,0,1-2.208,1.207,23.67,23.67,0,0,1-7.032,1.334,37.747,37.747,0,0,1-7.882-.317,16.272,16.272,0,0,1-5.345-1.616c-.14-.076-.275-.163-.413-.245A1.653,1.653,0,0,1,27,62.86c.053-1.7.017-3.408.019-5.112,0-.062.01-.124.017-.2M31.4,62.375a1.081,1.081,0,0,0-1.107-1.08,1.113,1.113,0,0,0-1.084,1.086,1.141,1.141,0,0,0,1.123,1.088A1.093,1.093,0,0,0,31.4,62.375" transform="translate(-9.271 -19.617)" fill="#f5e1ff"/>
          <path id="Trazado_611084" data-name="Trazado 611084" d="M51.163,84.187v.677c0,1.523-.019,3.047.011,4.569a1.41,1.41,0,0,1-.65,1.266,10.065,10.065,0,0,1-2.836,1.319,23.935,23.935,0,0,1-5.293.951,39.1,39.1,0,0,1-7.857-.123,18.309,18.309,0,0,1-6.092-1.666c-.134-.066-.263-.141-.394-.213a1.752,1.752,0,0,1-1.058-1.755c.069-1.616.017-3.237.015-4.856,0-.052.01-.1.019-.2a26.247,26.247,0,0,0,12.042,2.4,27.125,27.125,0,0,0,12.092-2.367m-20.85,3.477a1.086,1.086,0,1,0,.025,2.172,1.086,1.086,0,0,0-.025-2.172" transform="translate(-9.269 -28.541)" fill="#f5e1ff"/>
          <path id="Trazado_611085" data-name="Trazado 611085" d="M51.183,71.06v.546c0,1.565-.023,3.131.011,4.695a1.428,1.428,0,0,1-.688,1.311A10.435,10.435,0,0,1,47.422,79a29.359,29.359,0,0,1-6.717.956,36.655,36.655,0,0,1-7.139-.379,15.414,15.414,0,0,1-4.643-1.287,10.49,10.49,0,0,1-1.549-1.006.869.869,0,0,1-.313-.6c-.024-1.862-.014-3.723-.014-5.623a1.779,1.779,0,0,1,.245.082,20.172,20.172,0,0,0,6.763,1.973,38.172,38.172,0,0,0,9.033.112,22.236,22.236,0,0,0,7.889-2.09c.047-.024.1-.038.207-.08M30.337,76.7a1.048,1.048,0,0,0,1.086-1.09,1.1,1.1,0,0,0-1.089-1.076,1.15,1.15,0,0,0-1.106,1.079A1.093,1.093,0,0,0,30.337,76.7" transform="translate(-9.286 -24.148)" fill="#f5e1ff"/>
          <path id="Trazado_611086" data-name="Trazado 611086" d="M39.209,54.379a28.542,28.542,0,0,1-8.334-1.1,9.173,9.173,0,0,1-2.845-1.368,4.524,4.524,0,0,1-.718-.679.93.93,0,0,1,0-1.356,5.154,5.154,0,0,1,1.026-.858,12.845,12.845,0,0,1,4.542-1.681A31.208,31.208,0,0,1,40.7,46.8a26.071,26.071,0,0,1,5.677.792,11.531,11.531,0,0,1,3.8,1.64,4.124,4.124,0,0,1,.722.675.951.951,0,0,1,0,1.362,4.082,4.082,0,0,1-.786.7,12.8,12.8,0,0,1-4.69,1.819,29.658,29.658,0,0,1-6.221.6" transform="translate(-9.277 -15.994)" fill="#f5e1ff"/>
          <path id="Trazado_611087" data-name="Trazado 611087" d="M91.6,72.476a1.075,1.075,0,0,1-2.15-.01,1.093,1.093,0,0,1,1.11-1.085,1.118,1.118,0,0,1,1.04,1.095" transform="translate(-29.98 -24.256)"/>
          <path id="Trazado_611088" data-name="Trazado 611088" d="M90.522,77.968a1.1,1.1,0,0,1,1.069,1.059,1.07,1.07,0,0,1-2.14.031,1.092,1.092,0,0,1,1.071-1.089" transform="translate(-29.98 -26.465)"/>
          <path id="Trazado_611089" data-name="Trazado 611089" d="M90.589,112.42a1.086,1.086,0,0,1,1.026,1.1,1.082,1.082,0,1,1-2.163-.072,1.1,1.1,0,0,1,1.137-1.028" transform="translate(-29.98 -38.019)"/>
          <path id="Trazado_611090" data-name="Trazado 611090" d="M90.539,107.987a1.088,1.088,0,0,1-1.088-1.069,1.119,1.119,0,0,1,1.086-1.083,1.076,1.076,0,0,1,0,2.153" transform="translate(-29.98 -35.81)"/>
          <path id="Trazado_611091" data-name="Trazado 611091" d="M90.546,36.913a1.083,1.083,0,0,1,1.06,1.067,1.119,1.119,0,0,1-1.122,1.085,1.077,1.077,0,0,1,.062-2.153" transform="translate(-29.979 -12.696)"/>
          <path id="Trazado_611092" data-name="Trazado 611092" d="M90.533,43.483a1.091,1.091,0,0,1,1.083,1.044,1.135,1.135,0,0,1-1.1,1.105,1.1,1.1,0,0,1-1.06-1.072,1.091,1.091,0,0,1,1.081-1.077" transform="translate(-29.98 -14.9)"/>
          <path id="Trazado_611093" data-name="Trazado 611093" d="M32.5,64.264a1.093,1.093,0,0,1-1.068,1.094,1.141,1.141,0,0,1-1.123-1.088A1.113,1.113,0,0,1,31.4,63.184a1.081,1.081,0,0,1,1.107,1.08" transform="translate(-10.37 -21.507)"/>
          <path id="Trazado_611094" data-name="Trazado 611094" d="M31.415,89.432A1.086,1.086,0,0,1,31.44,91.6a1.086,1.086,0,1,1-.025-2.172" transform="translate(-10.37 -30.31)"/>
          <path id="Trazado_611095" data-name="Trazado 611095" d="M31.421,78.454a1.093,1.093,0,0,1-1.108-1.087,1.15,1.15,0,0,1,1.106-1.079,1.1,1.1,0,0,1,1.089,1.076,1.048,1.048,0,0,1-1.086,1.09" transform="translate(-10.37 -25.902)"/>
        </g>
      </g>
    </g>
    <g id="Group_43_" data-name="Group (43)" transform="translate(-4008 -7343.403)">
      <path id="Trazado_598926" data-name="Trazado 598926" d="M36.549,16.055,16.055,36.549a15.864,15.864,0,0,0,.655,1.582l21.422-21.42a15.863,15.863,0,0,0-1.582-.655Z" transform="translate(-15.17 -15.17)" fill="#4ca220"/>
      <path id="Trazado_598927" data-name="Trazado 598927" d="M18.367.8.8,18.367a16.022,16.022,0,0,0,.26,1.7L20.065,1.058A16.022,16.022,0,0,0,18.367.8Z" transform="translate(-0.754 -0.754)" fill="#4ca220"/>
      <path id="Trazado_598928" data-name="Trazado 598928" d="M299.7,283.668c0-.137-.008-.274-.01-.41l-16.454,16.453c.137,0,.273.01.41.01a16.091,16.091,0,0,0,1.678-.088l14.289-14.289a16.09,16.09,0,0,0,.088-1.678Z" transform="translate(-267.627 -267.648)" fill="#4ca220"/>
      <path id="Trazado_598929" data-name="Trazado 598929" d="M68.634,46.122q-.611-.481-1.267-.9L45.2,67.389q.42.656.9,1.267Z" transform="translate(-42.708 -42.73)" fill="#4ca220"/>
      <path id="Trazado_598930" data-name="Trazado 598930" d="M0,15.009,15.009,0c-.434.026-.863.07-1.287.131L.131,13.722C.07,14.145.026,14.575,0,15.009Z" fill="#4ca220"/>
      <path id="Trazado_598931" data-name="Trazado 598931" d="M106.76,84.058l-22.7,22.7a16.114,16.114,0,0,0,1.365,1.222l22.559-22.559A16.123,16.123,0,0,0,106.76,84.058Z" transform="translate(-79.426 -79.426)" fill="#4ca220"/>
      <path id="Trazado_598932" data-name="Trazado 598932" d="M159.927,138.548a16.093,16.093,0,0,0-.877-1.6l-22.108,22.108a15.959,15.959,0,0,0,1.6.877Z" transform="translate(-129.396 -129.396)" fill="#4ca220"/>
      <path id="Trazado_598933" data-name="Trazado 598933" d="M28.816,19.794a16.1,16.1,0,0,0-9.022,9.022Z" transform="translate(-18.704 -18.704)" fill="#4ca220"/>
      <path id="Trazado_598934" data-name="Trazado 598934" d="M382.436,392.617a16.085,16.085,0,0,0,10.18-10.18Z" transform="translate(-361.361 -361.361)" fill="#4ca220"/>
      <path id="Trazado_598935" data-name="Trazado 598935" d="M220.714,200.477l-20.237,20.237a15.962,15.962,0,0,0,2.154.537l18.619-18.619A16.154,16.154,0,0,0,220.714,200.477Z" transform="translate(-189.429 -189.429)" fill="#4ca220"/>
    </g>
  </g>
</svg>
