<svg xmlns="http://www.w3.org/2000/svg" xmlns:xlink="http://www.w3.org/1999/xlink" width="155.439" height="155.439" viewBox="0 0 155.439 155.439">
  <defs>
    <clipPath id="clip-path">
      <rect id="Rectángulo_348968" data-name="Rectángulo 348968" width="155.439" height="155.439" fill="none"/>
    </clipPath>
  </defs>
  <g id="Grupo_1016640" data-name="Grupo 1016640" clip-path="url(#clip-path)">
    <path id="Trazado_637104" data-name="Trazado 637104" d="M155.439,77.72a77.72,77.72,0,1,0-77.72,77.72,77.72,77.72,0,0,0,77.72-77.72" fill="#fff"/>
    <rect id="Rectángulo_348965" data-name="Rectángulo 348965" width="27.318" height="29.876" transform="translate(31.578 90.982)" fill="#304c8e"/>
    <path id="Trazado_637105" data-name="Trazado 637105" d="M49.275,91.239H20.449V59.855H49.275Zm-27.32-1.507H47.766V61.362H21.955Z" transform="translate(10.377 30.374)" fill="#393c41"/>
    <rect id="Rectángulo_348966" data-name="Rectángulo 348966" width="27.318" height="35.998" transform="translate(64.061 84.861)" fill="#304c8e"/>
    <path id="Trazado_637106" data-name="Trazado 637106" d="M70.822,93.3H41.995V55.794H70.822ZM43.5,91.792H69.316V57.3H43.5Z" transform="translate(21.31 28.313)" fill="#393c41"/>
    <rect id="Rectángulo_348967" data-name="Rectángulo 348967" width="27.318" height="50.512" transform="translate(96.543 70.347)" fill="#304c8e"/>
    <path id="Trazado_637107" data-name="Trazado 637107" d="M92.369,98.185H63.544V46.166H92.369ZM65.051,96.678H90.862v-49H65.051Z" transform="translate(32.246 23.427)" fill="#393c41"/>
    <path id="Trazado_637108" data-name="Trazado 637108" d="M104.871,22.94,83.141,33.875l8.027,5.266c-27.259,32.042-66.5,28.978-66.9,28.936a2.442,2.442,0,0,0-.443,4.865c.08,0,1.321.106,3.479.106,10.709,0,43.891-2.481,67.974-31.2l8.2,5.376Z" transform="translate(10.964 11.641)" fill="#60cb28"/>
    <path id="Trazado_637109" data-name="Trazado 637109" d="M27.554,74.225c-1.292,0-2.53-.038-3.488-.106a3.213,3.213,0,0,1-2.946-3.472,3.164,3.164,0,0,1,3.461-2.9c.021,0,1.109.093,3.093.093,9,0,39.958-2.043,62.617-28.118l-8.4-5.511L105.952,22.1,104.408,48.99l-8.736-5.725c-24.454,28.717-58.286,30.96-68.119,30.96m-3.126-4.976a1.712,1.712,0,0,0-1.806,1.535,1.688,1.688,0,0,0,1.521,1.83c.953.068,2.154.1,3.411.1,9.725,0,43.329-2.231,67.4-30.934l.43-.514,7.673,5.029L104.3,24.623,84.9,34.386l7.65,5.017L92,40.054c-23.124,27.182-55.079,29.3-64.321,29.3-2.107,0-3.226-.1-3.237-.1Z" transform="translate(10.711 11.216)" fill="#393c41"/>
  </g>
</svg>
