<svg xmlns="http://www.w3.org/2000/svg" width="90.129" height="90.129" viewBox="0 0 90.129 90.129">
  <g id="Grupo_874076" data-name="Grupo 874076" transform="translate(-412 -1164)">
    <circle id="Elipse_4817" data-name="Elipse 4817" cx="45" cy="45" r="45" transform="translate(412 1164)" fill="#ffe126"/>
    <g id="dominio" transform="translate(412 1164)">
      <path id="Trazado_636884" data-name="Trazado 636884" d="M90.129,45.064A45.064,45.064,0,1,1,45.064,0,45.064,45.064,0,0,1,90.129,45.064Zm0,0" transform="translate(0 0)" fill="#fdfde3"/>
      <path id="Trazado_636885" data-name="Trazado 636885" d="M102.726,351.73A44.937,44.937,0,0,0,69.98,365.837a45.235,45.235,0,0,0,3.283,3.141q.4-.422.811-.836a40.521,40.521,0,0,1,57.3,0q.413.412.811.836a45.248,45.248,0,0,0,3.283-3.141A44.937,44.937,0,0,0,102.726,351.73Zm0,0" transform="translate(-57.662 -289.815)" fill="#304c8e"/>
      <path id="Trazado_636886" data-name="Trazado 636886" d="M90.114,46.2q.014-.568.014-1.139t-.014-1.139A45.065,45.065,0,0,0,46.2.014Q45.635,0,45.064,0T43.925.014A45.065,45.065,0,0,0,.014,43.925Q0,44.493,0,45.064T.014,46.2a45.065,45.065,0,0,0,43.91,43.91q.568.014,1.139.014t1.139-.014A45.065,45.065,0,0,0,90.114,46.2ZM66.623,42.792a85.138,85.138,0,0,0-2.478-18.809,45.118,45.118,0,0,0,10.38-6.737A40.2,40.2,0,0,1,85.52,42.792Zm-62.014,0A40.2,40.2,0,0,1,15.6,17.246a45.129,45.129,0,0,0,10.38,6.737,85.179,85.179,0,0,0-2.477,18.809ZM42.792,23.6a40.439,40.439,0,0,1-11.331-2.266A49.877,49.877,0,0,1,33.9,15.162c2.6-5.434,5.749-9,8.893-10.183ZM55.816,5.98a40.161,40.161,0,0,1,15.393,8.126,40.328,40.328,0,0,1-8.344,5.463A41.832,41.832,0,0,0,55.816,5.98Zm2.851,15.359A40.4,40.4,0,0,1,47.336,23.6V4.979c3.144,1.183,6.29,4.749,8.893,10.183A49.831,49.831,0,0,1,58.667,21.338Zm-31.4-1.769a40.4,40.4,0,0,1-8.344-5.463A40.143,40.143,0,0,1,34.313,5.98,41.816,41.816,0,0,0,27.264,19.57Zm2.964,6.142a44.893,44.893,0,0,0,12.564,2.443V42.792H28.052A80.891,80.891,0,0,1,30.229,25.712ZM42.792,47.336V85.15C39.648,83.966,36.5,80.4,33.9,74.966c-3.536-7.382-5.588-17.122-5.847-27.63ZM47.337,85.15V47.336H62.076c-.259,10.508-2.311,20.249-5.847,27.63C53.626,80.4,50.481,83.966,47.337,85.15Zm0-42.357V28.155A44.893,44.893,0,0,0,59.9,25.712a80.847,80.847,0,0,1,2.176,17.081ZM4.609,47.336h18.9c.375,15.76,4.627,29.388,10.807,36.813a40.568,40.568,0,0,1-29.7-36.813ZM55.816,84.149C62,76.724,66.248,63.1,66.623,47.336h18.9a40.568,40.568,0,0,1-29.7,36.813Zm0,0" transform="translate(0 0)" fill="#304c8e"/>
      <path id="Trazado_636887" data-name="Trazado 636887" d="M.042,46.958A45.065,45.065,0,0,1,43.925,3.8q.568-.014,1.139-.014T46.2,3.8A45.065,45.065,0,0,1,90.087,46.958c.01-.251.021-.5.028-.754q.014-.568.014-1.139t-.014-1.139A45.065,45.065,0,0,0,46.2.014Q45.635,0,45.064,0T43.925.014A45.065,45.065,0,0,0,.014,43.925Q0,44.493,0,45.064T.014,46.2c.006.252.018.5.028.754Zm0,0" transform="translate(0 0)" fill="#ffe126"/>
      <path id="Trazado_636888" data-name="Trazado 636888" d="M90.087,245.242A45.064,45.064,0,0,1,46.2,288.4q-.568.014-1.139.014t-1.14-.014A45.065,45.065,0,0,1,.042,245.242c-.01.252-.021.5-.028.754Q0,246.565,0,247.136t.014,1.139a45.065,45.065,0,0,0,43.91,43.911q.568.015,1.139.014t1.139-.014a45.065,45.065,0,0,0,43.91-43.911q.014-.568.014-1.139T90.114,246C90.108,245.744,90.1,245.494,90.087,245.242Zm0,0" transform="translate(0 -202.072)" fill="#ffe126"/>
      <path id="Trazado_636889" data-name="Trazado 636889" d="M91.757,211.3H33.4a12.143,12.143,0,0,1,0-24.287h58.36a12.143,12.143,0,0,1,0,24.287Zm0,0" transform="translate(-17.512 -154.095)" fill="#ffe126"/>
      <path id="Trazado_636890" data-name="Trazado 636890" d="M91.757,187.016H33.4a12.143,12.143,0,0,0-12.143,12.143c0,.319.016.634.04.947a12.142,12.142,0,0,1,12.1-11.2h58.36a12.142,12.142,0,0,1,12.1,11.2c.025-.313.041-.628.041-.947A12.143,12.143,0,0,0,91.757,187.016Zm0,0" transform="translate(-17.512 -154.095)" fill="#fff7f2"/>
      <path id="Trazado_636891" data-name="Trazado 636891" d="M33.4,263.712h58.36A12.144,12.144,0,0,0,103.9,251.568c0-.319-.017-.634-.041-.947a12.142,12.142,0,0,1-12.1,11.2H33.4a12.142,12.142,0,0,1-12.1-11.2c-.024.313-.04.628-.04.947A12.143,12.143,0,0,0,33.4,263.712Zm0,0" transform="translate(-17.512 -206.504)" fill="#edd4c2"/>
      <g id="Grupo_894593" data-name="Grupo 894593" transform="translate(10.999 38.068)">
        <path id="Trazado_636892" data-name="Trazado 636892" d="M64.417,216.258h.062a1.932,1.932,0,0,1,1.868,1.439l1.934,7.328h.2l2.188-6.926a2.635,2.635,0,0,1,5.022-.007l2.213,6.933h.2l1.908-7.323a1.932,1.932,0,1,1,3.709,1.077l-3.089,9.641a2.634,2.634,0,0,1-2.508,1.83h-.176a2.635,2.635,0,0,1-2.512-1.838l-2.216-6.986h-.2l-2.216,6.986a2.634,2.634,0,0,1-2.511,1.838h-.119a2.634,2.634,0,0,1-2.508-1.83l-3.089-9.641A1.932,1.932,0,0,1,64.417,216.258Zm0,0" transform="translate(-62.484 -216.258)" fill="#304c8e"/>
        <path id="Trazado_636893" data-name="Trazado 636893" d="M197.347,216.258h.063a1.931,1.931,0,0,1,1.868,1.439l1.934,7.328h.2L203.6,218.1a2.634,2.634,0,0,1,5.021-.007l2.213,6.933h.2l1.908-7.323a1.932,1.932,0,1,1,3.709,1.077l-3.088,9.641a2.635,2.635,0,0,1-2.509,1.83h-.176a2.634,2.634,0,0,1-2.511-1.838l-2.216-6.986h-.2l-2.215,6.986a2.635,2.635,0,0,1-2.511,1.838H201.1a2.635,2.635,0,0,1-2.509-1.83l-3.088-9.641A1.932,1.932,0,0,1,197.347,216.258Zm0,0" transform="translate(-172.014 -216.258)" fill="#304c8e"/>
        <path id="Trazado_636894" data-name="Trazado 636894" d="M330.277,216.258h.062a1.931,1.931,0,0,1,1.868,1.439l1.934,7.328h.2l2.189-6.926a2.634,2.634,0,0,1,5.021-.007l2.213,6.933h.2l1.908-7.323a1.931,1.931,0,1,1,3.708,1.077l-3.088,9.641a2.635,2.635,0,0,1-2.509,1.83h-.176a2.635,2.635,0,0,1-2.511-1.838l-2.215-6.986h-.2l-2.216,6.986a2.635,2.635,0,0,1-2.511,1.838h-.119a2.634,2.634,0,0,1-2.509-1.83l-3.089-9.641A1.931,1.931,0,0,1,330.277,216.258Zm0,0" transform="translate(-281.544 -216.258)" fill="#304c8e"/>
      </g>
      <path id="Trazado_636895" data-name="Trazado 636895" d="M34.5,333.251A17.251,17.251,0,1,1,17.251,316,17.251,17.251,0,0,1,34.5,333.251Zm0,0" transform="translate(0 -260.374)" fill="#4ca220"/>
      <path id="Trazado_636896" data-name="Trazado 636896" d="M17.282,425.352A17.252,17.252,0,0,1,.023,408.977c-.015.3-.023.608-.023.915a17.251,17.251,0,1,0,34.5-.062c0-.283-.009-.565-.023-.845A17.252,17.252,0,0,1,17.282,425.352Zm0,0" transform="translate(0 -336.983)" fill="#304c8e"/>
      <path id="Trazado_636897" data-name="Trazado 636897" d="M46.066,379.819a3.282,3.282,0,0,1-2.044-.712l-4.767-3.769a3.3,3.3,0,1,1,4.094-5.178l2.216,1.752,7.7-9.452a3.3,3.3,0,1,1,5.117,4.171L48.627,378.6A3.3,3.3,0,0,1,46.066,379.819Zm0,0" transform="translate(-31.311 -297.654)" fill="#fff7f2"/>
    </g>
  </g>
</svg>
